<svg xmlns="http://www.w3.org/2000/svg" xmlns:xlink="http://www.w3.org/1999/xlink" width="749.649" height="346.708" viewBox="0 0 749.649 346.708">
  <defs>
    <clipPath id="clip-path">
      <rect id="Rectángulo_346621" data-name="Rectángulo 346621" width="749.649" height="346.708" fill="none"/>
    </clipPath>
    <clipPath id="clip-path-2">
      <path id="Trazado_711982" data-name="Trazado 711982" d="M0,173.354a78.853,78.853,0,0,0,78.764,78.764v-10a68.764,68.764,0,0,1,0-137.528v-10A78.853,78.853,0,0,0,0,173.354" fill="none"/>
    </clipPath>
    <linearGradient id="linear-gradient" y1="1.6" x2="0.013" y2="1.6" gradientUnits="objectBoundingBox">
      <stop offset="0" stop-color="#1389d1"/>
      <stop offset="1" stop-color="#14c3d0"/>
    </linearGradient>
    <clipPath id="clip-path-3">
      <path id="Trazado_711983" data-name="Trazado 711983" d="M146.361,173.354a5.912,5.912,0,1,0,5.912-5.912,5.912,5.912,0,0,0-5.912,5.912" fill="none"/>
    </clipPath>
    <linearGradient id="linear-gradient-2" x1="-12.378" y1="15.16" x2="-12.294" y2="15.16" xlink:href="#linear-gradient"/>
    <clipPath id="clip-path-4">
      <path id="Trazado_711984" data-name="Trazado 711984" d="M223.765,0a78.765,78.765,0,0,0,0,157.529v-10a68.764,68.764,0,0,1,0-137.528Z" fill="none"/>
    </clipPath>
    <linearGradient id="linear-gradient-3" x1="-1.841" y1="2.201" x2="-1.828" y2="2.201" gradientUnits="objectBoundingBox">
      <stop offset="0" stop-color="#7b33fa"/>
      <stop offset="1" stop-color="#957cdc"/>
    </linearGradient>
    <clipPath id="clip-path-5">
      <path id="Trazado_711985" data-name="Trazado 711985" d="M284.755,111.1a5.912,5.912,0,1,0,5.913-5.913,5.912,5.912,0,0,0-5.913,5.913" fill="none"/>
    </clipPath>
    <linearGradient id="linear-gradient-4" x1="-24.081" y1="20.425" x2="-23.996" y2="20.425" xlink:href="#linear-gradient-3"/>
    <clipPath id="clip-path-6">
      <path id="Trazado_711986" data-name="Trazado 711986" d="M525.514,0V10a68.764,68.764,0,1,1,0,137.528v10A78.765,78.765,0,0,0,525.514,0Z" fill="none"/>
    </clipPath>
    <linearGradient id="linear-gradient-5" x1="-6.672" y1="2.201" x2="-6.659" y2="2.201" gradientUnits="objectBoundingBox">
      <stop offset="0" stop-color="#ff062c"/>
      <stop offset="0.004" stop-color="#ff062c"/>
      <stop offset="0.993" stop-color="#c40077"/>
      <stop offset="1" stop-color="#c40077"/>
    </linearGradient>
    <clipPath id="clip-path-7">
      <path id="Trazado_711987" data-name="Trazado 711987" d="M452.8,111.1a5.912,5.912,0,1,0,5.912-5.913A5.912,5.912,0,0,0,452.8,111.1" fill="none"/>
    </clipPath>
    <linearGradient id="linear-gradient-6" x1="-38.295" y1="20.425" x2="-38.21" y2="20.425" xlink:href="#linear-gradient-5"/>
    <clipPath id="clip-path-8">
      <path id="Trazado_711988" data-name="Trazado 711988" d="M590.872,173.354a5.913,5.913,0,1,0,5.913-5.912,5.913,5.913,0,0,0-5.913,5.912" fill="none"/>
    </clipPath>
    <linearGradient id="linear-gradient-7" x1="-49.968" y1="15.16" x2="-49.883" y2="15.16" gradientUnits="objectBoundingBox">
      <stop offset="0" stop-color="#f15d24"/>
      <stop offset="0.245" stop-color="#f15d24"/>
      <stop offset="0.449" stop-color="#f26e21"/>
      <stop offset="1" stop-color="#f6991b"/>
    </linearGradient>
    <clipPath id="clip-path-9">
      <path id="Trazado_711989" data-name="Trazado 711989" d="M670.885,104.59a68.764,68.764,0,0,1,0,137.528v10a78.764,78.764,0,0,0,0-157.528Z" fill="none"/>
    </clipPath>
    <linearGradient id="linear-gradient-8" x1="-8.518" y1="1.6" x2="-8.505" y2="1.6" xlink:href="#linear-gradient-7"/>
    <clipPath id="clip-path-10">
      <path id="Trazado_711990" data-name="Trazado 711990" d="M525.514,199.181a68.764,68.764,0,1,1,0,137.527v10a78.764,78.764,0,1,0,0-157.527Z" fill="none"/>
    </clipPath>
    <linearGradient id="linear-gradient-9" x1="-6.672" y1="1" x2="-6.659" y2="1" gradientUnits="objectBoundingBox">
      <stop offset="0" stop-color="#5eb5eb"/>
      <stop offset="0.011" stop-color="#5eb5eb"/>
      <stop offset="0.993" stop-color="#39559e"/>
      <stop offset="1" stop-color="#39559e"/>
    </linearGradient>
    <clipPath id="clip-path-11">
      <path id="Trazado_711991" data-name="Trazado 711991" d="M145,267.944a78.853,78.853,0,0,0,78.763,78.764v-10a68.764,68.764,0,0,1,0-137.527v-10A78.852,78.852,0,0,0,145,267.944" fill="none"/>
    </clipPath>
    <linearGradient id="linear-gradient-10" x1="-1.841" y1="1" x2="-1.828" y2="1" gradientUnits="objectBoundingBox">
      <stop offset="0" stop-color="#3d8b67"/>
      <stop offset="1" stop-color="#9ad032"/>
    </linearGradient>
    <clipPath id="clip-path-12">
      <path id="Trazado_711992" data-name="Trazado 711992" d="M284.755,235.608a5.912,5.912,0,1,0,5.913-5.912,5.912,5.912,0,0,0-5.913,5.912" fill="none"/>
    </clipPath>
    <linearGradient id="linear-gradient-11" x1="-24.081" y1="9.896" x2="-23.996" y2="9.896" xlink:href="#linear-gradient-10"/>
    <clipPath id="clip-path-13">
      <path id="Trazado_711993" data-name="Trazado 711993" d="M452.8,235.608a5.912,5.912,0,1,0,5.912-5.912,5.912,5.912,0,0,0-5.912,5.912" fill="none"/>
    </clipPath>
    <linearGradient id="linear-gradient-12" x1="-38.295" y1="9.896" x2="-38.21" y2="9.896" xlink:href="#linear-gradient-9"/>
  </defs>
  <g id="Grupo_998940" data-name="Grupo 998940" transform="translate(-426 -14106)">
    <path id="Trazado_712402" data-name="Trazado 712402" d="M-6.9,0H-9.971V-5.344h-4.544V0H-17.6V-12.8h3.085v5.08h4.544V-12.8H-6.9Zm4.939,0H-4.935V-9.51h2.971ZM-5.111-11.971a1.334,1.334,0,0,1,.457-1.043,1.718,1.718,0,0,1,1.187-.407,1.718,1.718,0,0,1,1.187.407,1.334,1.334,0,0,1,.457,1.043,1.334,1.334,0,0,1-.457,1.043,1.718,1.718,0,0,1-1.187.407,1.718,1.718,0,0,1-1.187-.407A1.334,1.334,0,0,1-5.111-11.971ZM2.984,0H.013V-13.5H2.984Zm1.45-4.843a5.613,5.613,0,0,1,.554-2.536A3.96,3.96,0,0,1,6.579-9.088a4.791,4.791,0,0,1,2.435-.6,4.373,4.373,0,0,1,3.366,1.323,5.076,5.076,0,0,1,1.23,3.6v.105a4.925,4.925,0,0,1-1.235,3.529A4.384,4.384,0,0,1,9.031.176,4.434,4.434,0,0,1,5.77-1.042a4.761,4.761,0,0,1-1.327-3.3ZM7.4-4.658a3.538,3.538,0,0,0,.413,1.934,1.376,1.376,0,0,0,1.222.615q1.582,0,1.617-2.435v-.3q0-2.558-1.635-2.558Q7.528-7.4,7.4-5.194ZM-31.566,15.49l.1,1.116a3.27,3.27,0,0,1,2.716-1.292,2.407,2.407,0,0,1,2.435,1.433,3.165,3.165,0,0,1,2.795-1.433q2.892,0,2.971,3.5V25h-2.971V19a1.813,1.813,0,0,0-.246-1.063,1.048,1.048,0,0,0-.9-.334,1.4,1.4,0,0,0-1.31.782l.009.123V25h-2.971V19.015a1.906,1.906,0,0,0-.237-1.081,1.045,1.045,0,0,0-.905-.334,1.42,1.42,0,0,0-1.3.782V25h-2.962V15.49Zm17.306,9.686A4.889,4.889,0,0,1-17.8,23.871a4.507,4.507,0,0,1-1.354-3.4v-.246a5.84,5.84,0,0,1,.541-2.575,3.955,3.955,0,0,1,1.578-1.727,4.763,4.763,0,0,1,2.461-.611,4.117,4.117,0,0,1,3.164,1.244,4.887,4.887,0,0,1,1.16,3.467v1.151h-5.889a2.135,2.135,0,0,0,.694,1.257,2.066,2.066,0,0,0,1.389.457,2.662,2.662,0,0,0,2.2-.984l1.354,1.6a3.784,3.784,0,0,1-1.569,1.217A5.3,5.3,0,0,1-14.26,25.176Zm-.334-7.576q-1.3,0-1.547,1.723h2.988v-.229a1.467,1.467,0,0,0-.36-1.1A1.434,1.434,0,0,0-14.594,17.6Zm8.982-4.474V15.49h1.564v2.057H-5.612V21.9a1.111,1.111,0,0,0,.193.747,1.037,1.037,0,0,0,.765.211,4.345,4.345,0,0,0,.738-.053v2.118a5.466,5.466,0,0,1-1.67.255,3.1,3.1,0,0,1-2.259-.721,2.954,2.954,0,0,1-.729-2.188v-4.72H-9.787V15.49h1.213V13.126ZM2.474,25a3.344,3.344,0,0,1-.281-.853A2.754,2.754,0,0,1-.092,25.176a3.374,3.374,0,0,1-2.285-.813,2.588,2.588,0,0,1-.94-2.043,2.66,2.66,0,0,1,1.143-2.338,5.821,5.821,0,0,1,3.322-.791h.914v-.5q0-1.316-1.134-1.316A.927.927,0,0,0-.127,18.413H-3.089a2.655,2.655,0,0,1,1.173-2.239,4.931,4.931,0,0,1,2.993-.86,4.323,4.323,0,0,1,2.874.888,3.086,3.086,0,0,1,1.081,2.435v4.21a4.311,4.311,0,0,0,.4,2V25ZM.62,23.066a1.652,1.652,0,0,0,.918-.237,1.487,1.487,0,0,0,.523-.536V20.772H1.2q-1.547,0-1.547,1.389a.848.848,0,0,0,.272.655A.986.986,0,0,0,.62,23.066ZM1.358,11.5H4.487L2.043,14.26l-2.417,0ZM9.8,25H6.825V11.5H9.8Zm4.948,0H11.773V15.49h2.971ZM11.6,13.029a1.334,1.334,0,0,1,.457-1.043,1.718,1.718,0,0,1,1.187-.407,1.718,1.718,0,0,1,1.187.407,1.42,1.42,0,0,1,0,2.087,1.718,1.718,0,0,1-1.187.407,1.718,1.718,0,0,1-1.187-.407A1.334,1.334,0,0,1,11.6,13.029Zm8.991,9.861a1.317,1.317,0,0,0,.967-.338,1.241,1.241,0,0,0,.334-.945h2.777a3.288,3.288,0,0,1-1.121,2.566,4.168,4.168,0,0,1-2.887,1,4.22,4.22,0,0,1-3.27-1.3,5.125,5.125,0,0,1-1.2-3.6v-.123a5.792,5.792,0,0,1,.532-2.544,3.872,3.872,0,0,1,1.534-1.7,4.573,4.573,0,0,1,2.373-.593,4.116,4.116,0,0,1,2.944,1.028,3.647,3.647,0,0,1,1.09,2.786H21.889A1.626,1.626,0,0,0,21.529,18a1.244,1.244,0,0,0-.967-.4q-1.151,0-1.345,1.468a10.357,10.357,0,0,0-.062,1.283,4.068,4.068,0,0,0,.343,1.986A1.187,1.187,0,0,0,20.588,22.891Zm4.957-2.733a5.613,5.613,0,0,1,.554-2.536,3.96,3.96,0,0,1,1.591-1.709,4.791,4.791,0,0,1,2.435-.6,4.373,4.373,0,0,1,3.366,1.323,5.076,5.076,0,0,1,1.23,3.6v.105a4.925,4.925,0,0,1-1.235,3.529,4.384,4.384,0,0,1-3.344,1.305,4.434,4.434,0,0,1-3.261-1.217,4.761,4.761,0,0,1-1.327-3.3Zm2.962.185a3.538,3.538,0,0,0,.413,1.934,1.376,1.376,0,0,0,1.222.615q1.582,0,1.617-2.435v-.3q0-2.558-1.635-2.558-1.485,0-1.608,2.206Z" transform="translate(1098 14251.854)" fill="#12263f"/>
    <path id="Trazado_712401" data-name="Trazado 712401" d="M-6.9,0H-9.971V-5.344h-4.544V0H-17.6V-12.8h3.085v5.08h4.544V-12.8H-6.9Zm4.939,0H-4.935V-9.51h2.971ZM-5.111-11.971a1.334,1.334,0,0,1,.457-1.043,1.718,1.718,0,0,1,1.187-.407,1.718,1.718,0,0,1,1.187.407,1.334,1.334,0,0,1,.457,1.043,1.334,1.334,0,0,1-.457,1.043,1.718,1.718,0,0,1-1.187.407,1.718,1.718,0,0,1-1.187-.407A1.334,1.334,0,0,1-5.111-11.971ZM2.984,0H.013V-13.5H2.984Zm1.45-4.843a5.613,5.613,0,0,1,.554-2.536A3.96,3.96,0,0,1,6.579-9.088a4.791,4.791,0,0,1,2.435-.6,4.373,4.373,0,0,1,3.366,1.323,5.076,5.076,0,0,1,1.23,3.6v.105a4.925,4.925,0,0,1-1.235,3.529A4.384,4.384,0,0,1,9.031.176,4.434,4.434,0,0,1,5.77-1.042a4.761,4.761,0,0,1-1.327-3.3ZM7.4-4.658a3.538,3.538,0,0,0,.413,1.934,1.376,1.376,0,0,0,1.222.615q1.582,0,1.617-2.435v-.3q0-2.558-1.635-2.558Q7.528-7.4,7.4-5.194ZM-32.093,20.175a5.809,5.809,0,0,1,.976-3.56,3.211,3.211,0,0,1,2.725-1.3,2.731,2.731,0,0,1,2.145,1V11.5h2.971V25h-2.663l-.149-1.02a2.8,2.8,0,0,1-2.32,1.2,3.205,3.205,0,0,1-2.689-1.3A5.993,5.993,0,0,1-32.093,20.175Zm2.962.185q0,2.531,1.477,2.531a1.458,1.458,0,0,0,1.406-.826V18.443a1.419,1.419,0,0,0-1.389-.844q-1.371,0-1.485,2.215Zm7.163-.2a5.613,5.613,0,0,1,.554-2.536,3.96,3.96,0,0,1,1.591-1.709,4.791,4.791,0,0,1,2.435-.6,4.373,4.373,0,0,1,3.366,1.323,5.076,5.076,0,0,1,1.23,3.6v.105a4.925,4.925,0,0,1-1.235,3.529,4.384,4.384,0,0,1-3.344,1.305,4.434,4.434,0,0,1-3.261-1.217,4.761,4.761,0,0,1-1.327-3.3Zm2.962.185a3.538,3.538,0,0,0,.413,1.934,1.376,1.376,0,0,0,1.222.615q1.582,0,1.617-2.435v-.3q0-2.558-1.635-2.558-1.485,0-1.608,2.206Zm16.348-.018a5.8,5.8,0,0,1-.967,3.595A3.238,3.238,0,0,1-6.35,25.176a2.81,2.81,0,0,1-2.338-1.151L-8.811,25h-2.654V11.5H-8.5v4.755a2.711,2.711,0,0,1,2.136-.94,3.239,3.239,0,0,1,2.742,1.274,5.826,5.826,0,0,1,.967,3.586Zm-2.971-.189a3.866,3.866,0,0,0-.365-1.952A1.229,1.229,0,0,0-7.115,17.6a1.418,1.418,0,0,0-1.389.763v3.773a1.426,1.426,0,0,0,1.406.755A1.258,1.258,0,0,0-5.77,21.873,7.309,7.309,0,0,0-5.629,20.135ZM1.771,25H-1.2V11.5H1.771Zm7.181,0a3.344,3.344,0,0,1-.281-.853,2.754,2.754,0,0,1-2.285,1.028A3.374,3.374,0,0,1,4.1,24.363a2.588,2.588,0,0,1-.94-2.043A2.66,2.66,0,0,1,4.3,19.981a5.821,5.821,0,0,1,3.322-.791h.914v-.5q0-1.316-1.134-1.316A.927.927,0,0,0,6.35,18.413H3.388a2.655,2.655,0,0,1,1.173-2.239,4.931,4.931,0,0,1,2.993-.86,4.323,4.323,0,0,1,2.874.888,3.086,3.086,0,0,1,1.081,2.435v4.21a4.311,4.311,0,0,0,.4,2V25ZM7.1,23.066a1.652,1.652,0,0,0,.918-.237,1.487,1.487,0,0,0,.523-.536V20.772H7.677q-1.547,0-1.547,1.389a.848.848,0,0,0,.272.655A.986.986,0,0,0,7.1,23.066Zm5.678-2.892a5.809,5.809,0,0,1,.976-3.56,3.211,3.211,0,0,1,2.725-1.3,2.731,2.731,0,0,1,2.145,1V11.5H21.59V25H18.927l-.149-1.02a2.8,2.8,0,0,1-2.32,1.2,3.205,3.205,0,0,1-2.689-1.3A5.993,5.993,0,0,1,12.775,20.175Zm2.962.185q0,2.531,1.477,2.531a1.458,1.458,0,0,0,1.406-.826V18.443a1.419,1.419,0,0,0-1.389-.844q-1.371,0-1.485,2.215Zm7.163-.2a5.613,5.613,0,0,1,.554-2.536,3.96,3.96,0,0,1,1.591-1.709,4.791,4.791,0,0,1,2.435-.6,4.373,4.373,0,0,1,3.366,1.323,5.076,5.076,0,0,1,1.23,3.6v.105a4.925,4.925,0,0,1-1.235,3.529A4.384,4.384,0,0,1,27.5,25.176a4.434,4.434,0,0,1-3.261-1.217,4.761,4.761,0,0,1-1.327-3.3Zm2.962.185a3.538,3.538,0,0,0,.413,1.934,1.376,1.376,0,0,0,1.222.615q1.582,0,1.617-2.435v-.3q0-2.558-1.635-2.558-1.485,0-1.608,2.206Z" transform="translate(952 14347.231)" fill="#12263f"/>
    <path id="Trazado_712400" data-name="Trazado 712400" d="M-6.9,0H-9.971V-5.344h-4.544V0H-17.6V-12.8h3.085v5.08h4.544V-12.8H-6.9Zm4.939,0H-4.935V-9.51h2.971ZM-5.111-11.971a1.334,1.334,0,0,1,.457-1.043,1.718,1.718,0,0,1,1.187-.407,1.718,1.718,0,0,1,1.187.407,1.334,1.334,0,0,1,.457,1.043,1.334,1.334,0,0,1-.457,1.043,1.718,1.718,0,0,1-1.187.407,1.718,1.718,0,0,1-1.187-.407A1.334,1.334,0,0,1-5.111-11.971ZM2.984,0H.013V-13.5H2.984Zm1.45-4.843a5.613,5.613,0,0,1,.554-2.536A3.96,3.96,0,0,1,6.579-9.088a4.791,4.791,0,0,1,2.435-.6,4.373,4.373,0,0,1,3.366,1.323,5.076,5.076,0,0,1,1.23,3.6v.105a4.925,4.925,0,0,1-1.235,3.529A4.384,4.384,0,0,1,9.031.176,4.434,4.434,0,0,1,5.77-1.042a4.761,4.761,0,0,1-1.327-3.3ZM7.4-4.658a3.538,3.538,0,0,0,.413,1.934,1.376,1.376,0,0,0,1.222.615q1.582,0,1.617-2.435v-.3q0-2.558-1.635-2.558Q7.528-7.4,7.4-5.194ZM-41.915,13.126V15.49h1.564v2.057h-1.564V21.9a1.111,1.111,0,0,0,.193.747,1.037,1.037,0,0,0,.765.211,4.345,4.345,0,0,0,.738-.053v2.118a5.466,5.466,0,0,1-1.67.255,3.1,3.1,0,0,1-2.259-.721,2.954,2.954,0,0,1-.729-2.188v-4.72H-46.09V15.49h1.213V13.126Zm7.33,12.05a4.889,4.889,0,0,1-3.542-1.305,4.507,4.507,0,0,1-1.354-3.4v-.246a5.84,5.84,0,0,1,.541-2.575,3.955,3.955,0,0,1,1.578-1.727,4.763,4.763,0,0,1,2.461-.611,4.117,4.117,0,0,1,3.164,1.244,4.887,4.887,0,0,1,1.16,3.467v1.151h-5.889a2.135,2.135,0,0,0,.694,1.257,2.066,2.066,0,0,0,1.389.457,2.662,2.662,0,0,0,2.2-.984l1.354,1.6A3.784,3.784,0,0,1-32.4,24.723,5.3,5.3,0,0,1-34.585,25.176Zm-.334-7.576q-1.3,0-1.547,1.723h2.988v-.229a1.467,1.467,0,0,0-.36-1.1A1.434,1.434,0,0,0-34.919,17.6Zm9.387.51,1.38-2.619h3.076l-2.5,4.632L-20.953,25h-3.094l-1.494-2.812L-27.009,25H-30.12l2.637-4.878-2.5-4.632h3.111Zm8.859-4.983V15.49h1.564v2.057h-1.564V21.9a1.111,1.111,0,0,0,.193.747,1.037,1.037,0,0,0,.765.211,4.345,4.345,0,0,0,.738-.053v2.118a5.466,5.466,0,0,1-1.67.255,3.1,3.1,0,0,1-2.259-.721,2.954,2.954,0,0,1-.729-2.188v-4.72h-1.213V15.49h1.213V13.126Zm8.394,10.846a3.054,3.054,0,0,1-2.54,1.2,3,3,0,0,1-2.369-.91,3.826,3.826,0,0,1-.8-2.615V15.49h2.962v6.179a1.065,1.065,0,0,0,1.187,1.222,1.548,1.548,0,0,0,1.45-.729V15.49h2.979V25H-8.191Zm10.239-5.8L.984,18.1a1.752,1.752,0,0,0-1.793.879V25H-3.771V15.49H-.993l.1,1.222a2.294,2.294,0,0,1,2.083-1.4,2.888,2.888,0,0,1,.826.105ZM6.152,25H3.182V15.49H6.152ZM3.006,13.029a1.334,1.334,0,0,1,.457-1.043,1.718,1.718,0,0,1,1.187-.407,1.718,1.718,0,0,1,1.187.407,1.42,1.42,0,0,1,0,2.087,1.718,1.718,0,0,1-1.187.407,1.718,1.718,0,0,1-1.187-.407A1.334,1.334,0,0,1,3.006,13.029Zm8.464,9.686H15.8V25H7.726V23.348l4.219-5.572H7.91V15.49h7.8v1.6ZM22.6,25a3.344,3.344,0,0,1-.281-.853,2.754,2.754,0,0,1-2.285,1.028,3.374,3.374,0,0,1-2.285-.813,2.588,2.588,0,0,1-.94-2.043,2.66,2.66,0,0,1,1.143-2.338,5.821,5.821,0,0,1,3.322-.791h.914v-.5q0-1.316-1.134-1.316A.927.927,0,0,0,20,18.413H17.033a2.655,2.655,0,0,1,1.173-2.239,4.931,4.931,0,0,1,2.993-.86,4.323,4.323,0,0,1,2.874.888,3.086,3.086,0,0,1,1.081,2.435v4.21a4.311,4.311,0,0,0,.4,2V25Zm-1.854-1.934a1.652,1.652,0,0,0,.918-.237,1.487,1.487,0,0,0,.523-.536V20.772h-.861q-1.547,0-1.547,1.389a.848.848,0,0,0,.272.655A.986.986,0,0,0,20.742,23.066Zm5.678-2.892a5.809,5.809,0,0,1,.976-3.56,3.211,3.211,0,0,1,2.725-1.3,2.731,2.731,0,0,1,2.145,1V11.5h2.971V25H32.572l-.149-1.02a2.8,2.8,0,0,1-2.32,1.2,3.205,3.205,0,0,1-2.689-1.3A5.993,5.993,0,0,1,26.42,20.175Zm2.962.185q0,2.531,1.477,2.531a1.458,1.458,0,0,0,1.406-.826V18.443a1.419,1.419,0,0,0-1.389-.844q-1.371,0-1.485,2.215Zm7.163-.2a5.613,5.613,0,0,1,.554-2.536,3.96,3.96,0,0,1,1.591-1.709,4.791,4.791,0,0,1,2.435-.6,4.373,4.373,0,0,1,3.366,1.323,5.076,5.076,0,0,1,1.23,3.6v.105a4.925,4.925,0,0,1-1.235,3.529,4.384,4.384,0,0,1-3.344,1.305,4.434,4.434,0,0,1-3.261-1.217,4.761,4.761,0,0,1-1.327-3.3Zm2.962.185a3.538,3.538,0,0,0,.413,1.934,1.376,1.376,0,0,0,1.222.615q1.582,0,1.617-2.435v-.3q0-2.558-1.635-2.558-1.485,0-1.608,2.206Z" transform="translate(952 14157.231)" fill="#12263f"/>
    <path id="Trazado_712396" data-name="Trazado 712396" d="M-6.9,0H-9.971V-5.344h-4.544V0H-17.6V-12.8h3.085v5.08h4.544V-12.8H-6.9Zm4.939,0H-4.935V-9.51h2.971ZM-5.111-11.971a1.334,1.334,0,0,1,.457-1.043,1.718,1.718,0,0,1,1.187-.407,1.718,1.718,0,0,1,1.187.407,1.334,1.334,0,0,1,.457,1.043,1.334,1.334,0,0,1-.457,1.043,1.718,1.718,0,0,1-1.187.407,1.718,1.718,0,0,1-1.187-.407A1.334,1.334,0,0,1-5.111-11.971ZM2.984,0H.013V-13.5H2.984Zm1.45-4.843a5.613,5.613,0,0,1,.554-2.536A3.96,3.96,0,0,1,6.579-9.088a4.791,4.791,0,0,1,2.435-.6,4.373,4.373,0,0,1,3.366,1.323,5.076,5.076,0,0,1,1.23,3.6v.105a4.925,4.925,0,0,1-1.235,3.529A4.384,4.384,0,0,1,9.031.176,4.434,4.434,0,0,1,5.77-1.042a4.761,4.761,0,0,1-1.327-3.3ZM7.4-4.658a3.538,3.538,0,0,0,.413,1.934,1.376,1.376,0,0,0,1.222.615q1.582,0,1.617-2.435v-.3q0-2.558-1.635-2.558Q7.528-7.4,7.4-5.194ZM-30.248,18.171l-.976-.07a1.752,1.752,0,0,0-1.793.879V25h-2.962V15.49H-33.2l.1,1.222a2.294,2.294,0,0,1,2.083-1.4,2.888,2.888,0,0,1,.826.105Zm5.5,7a4.889,4.889,0,0,1-3.542-1.305,4.507,4.507,0,0,1-1.354-3.4v-.246a5.84,5.84,0,0,1,.541-2.575,3.955,3.955,0,0,1,1.578-1.727,4.763,4.763,0,0,1,2.461-.611A4.117,4.117,0,0,1-21.9,16.558a4.887,4.887,0,0,1,1.16,3.467v1.151h-5.889a2.135,2.135,0,0,0,.694,1.257,2.066,2.066,0,0,0,1.389.457,2.662,2.662,0,0,0,2.2-.984l1.354,1.6a3.784,3.784,0,0,1-1.569,1.217A5.3,5.3,0,0,1-24.746,25.176ZM-25.08,17.6q-1.3,0-1.547,1.723h2.988v-.229a1.467,1.467,0,0,0-.36-1.1A1.434,1.434,0,0,0-25.08,17.6Zm8.982-4.474V15.49h1.564v2.057H-16.1V21.9a1.111,1.111,0,0,0,.193.747,1.037,1.037,0,0,0,.765.211A4.345,4.345,0,0,0-14.4,22.8v2.118a5.466,5.466,0,0,1-1.67.255,3.1,3.1,0,0,1-2.259-.721,2.954,2.954,0,0,1-.729-2.188v-4.72h-1.213V15.49h1.213V13.126Zm2.092,7.031a5.613,5.613,0,0,1,.554-2.536,3.96,3.96,0,0,1,1.591-1.709,4.791,4.791,0,0,1,2.435-.6A4.373,4.373,0,0,1-6.06,16.637a5.076,5.076,0,0,1,1.23,3.6v.105a4.925,4.925,0,0,1-1.235,3.529,4.384,4.384,0,0,1-3.344,1.305,4.434,4.434,0,0,1-3.261-1.217A4.761,4.761,0,0,1-14,20.658Zm2.962.185a3.538,3.538,0,0,0,.413,1.934,1.376,1.376,0,0,0,1.222.615q1.582,0,1.617-2.435v-.3q0-2.558-1.635-2.558-1.485,0-1.608,2.206ZM2.228,18.171l-.976-.07a1.752,1.752,0,0,0-1.793.879V25H-3.5V15.49H-.725l.1,1.222a2.294,2.294,0,0,1,2.083-1.4,2.888,2.888,0,0,1,.826.105Zm4.922,4.72a1.317,1.317,0,0,0,.967-.338,1.241,1.241,0,0,0,.334-.945h2.777a3.288,3.288,0,0,1-1.121,2.566,4.168,4.168,0,0,1-2.887,1,4.22,4.22,0,0,1-3.27-1.3,5.125,5.125,0,0,1-1.2-3.6v-.123A5.792,5.792,0,0,1,3.287,17.6a3.872,3.872,0,0,1,1.534-1.7,4.573,4.573,0,0,1,2.373-.593,4.116,4.116,0,0,1,2.944,1.028,3.647,3.647,0,0,1,1.09,2.786H8.451A1.626,1.626,0,0,0,8.09,18a1.244,1.244,0,0,0-.967-.4q-1.151,0-1.345,1.468a10.357,10.357,0,0,0-.062,1.283,4.068,4.068,0,0,0,.343,1.986A1.187,1.187,0,0,0,7.15,22.891ZM15.6,25H12.634V15.49H15.6ZM12.458,13.029a1.334,1.334,0,0,1,.457-1.043,1.718,1.718,0,0,1,1.187-.407,1.718,1.718,0,0,1,1.187.407,1.42,1.42,0,0,1,0,2.087,1.718,1.718,0,0,1-1.187.407,1.718,1.718,0,0,1-1.187-.407A1.334,1.334,0,0,1,12.458,13.029Zm4.6,7.146a5.809,5.809,0,0,1,.976-3.56,3.211,3.211,0,0,1,2.725-1.3,2.731,2.731,0,0,1,2.145,1V11.5h2.971V25H23.208l-.149-1.02a2.8,2.8,0,0,1-2.32,1.2,3.205,3.205,0,0,1-2.689-1.3A5.993,5.993,0,0,1,17.055,20.175Zm2.962.185q0,2.531,1.477,2.531a1.458,1.458,0,0,0,1.406-.826V18.443a1.419,1.419,0,0,0-1.389-.844q-1.371,0-1.485,2.215Zm7.163-.2a5.613,5.613,0,0,1,.554-2.536,3.96,3.96,0,0,1,1.591-1.709,4.791,4.791,0,0,1,2.435-.6,4.373,4.373,0,0,1,3.366,1.323,5.076,5.076,0,0,1,1.23,3.6v.105a4.925,4.925,0,0,1-1.235,3.529,4.384,4.384,0,0,1-3.344,1.305,4.434,4.434,0,0,1-3.261-1.217,4.761,4.761,0,0,1-1.327-3.3Zm2.962.185a3.538,3.538,0,0,0,.413,1.934,1.376,1.376,0,0,0,1.222.615q1.582,0,1.617-2.435v-.3q0-2.558-1.635-2.558-1.485,0-1.608,2.206Z" transform="translate(505 14251.854)" fill="#12263f"/>
    <path id="Trazado_712398" data-name="Trazado 712398" d="M-6.9,0H-9.971V-5.344h-4.544V0H-17.6V-12.8h3.085v5.08h4.544V-12.8H-6.9Zm4.939,0H-4.935V-9.51h2.971ZM-5.111-11.971a1.334,1.334,0,0,1,.457-1.043,1.718,1.718,0,0,1,1.187-.407,1.718,1.718,0,0,1,1.187.407,1.334,1.334,0,0,1,.457,1.043,1.334,1.334,0,0,1-.457,1.043,1.718,1.718,0,0,1-1.187.407,1.718,1.718,0,0,1-1.187-.407A1.334,1.334,0,0,1-5.111-11.971ZM2.984,0H.013V-13.5H2.984Zm1.45-4.843a5.613,5.613,0,0,1,.554-2.536A3.96,3.96,0,0,1,6.579-9.088a4.791,4.791,0,0,1,2.435-.6,4.373,4.373,0,0,1,3.366,1.323,5.076,5.076,0,0,1,1.23,3.6v.105a4.925,4.925,0,0,1-1.235,3.529A4.384,4.384,0,0,1,9.031.176,4.434,4.434,0,0,1,5.77-1.042a4.761,4.761,0,0,1-1.327-3.3ZM7.4-4.658a3.538,3.538,0,0,0,.413,1.934,1.376,1.376,0,0,0,1.222.615q1.582,0,1.617-2.435v-.3q0-2.558-1.635-2.558Q7.528-7.4,7.4-5.194ZM-31.935,22.891a1.317,1.317,0,0,0,.967-.338,1.241,1.241,0,0,0,.334-.945h2.777a3.288,3.288,0,0,1-1.121,2.566,4.168,4.168,0,0,1-2.887,1,4.22,4.22,0,0,1-3.27-1.3,5.125,5.125,0,0,1-1.2-3.6v-.123A5.792,5.792,0,0,1-35.8,17.6a3.872,3.872,0,0,1,1.534-1.7,4.573,4.573,0,0,1,2.373-.593,4.116,4.116,0,0,1,2.944,1.028,3.647,3.647,0,0,1,1.09,2.786h-2.777A1.626,1.626,0,0,0-30.995,18a1.244,1.244,0,0,0-.967-.4q-1.151,0-1.345,1.468a10.357,10.357,0,0,0-.062,1.283,4.068,4.068,0,0,0,.343,1.986A1.187,1.187,0,0,0-31.935,22.891ZM-21.248,25a3.344,3.344,0,0,1-.281-.853,2.754,2.754,0,0,1-2.285,1.028,3.374,3.374,0,0,1-2.285-.813,2.588,2.588,0,0,1-.94-2.043A2.66,2.66,0,0,1-25.9,19.981a5.821,5.821,0,0,1,3.322-.791h.914v-.5q0-1.316-1.134-1.316a.927.927,0,0,0-1.055,1.042h-2.962a2.655,2.655,0,0,1,1.173-2.239,4.931,4.931,0,0,1,2.993-.86,4.323,4.323,0,0,1,2.874.888,3.086,3.086,0,0,1,1.081,2.435v4.21a4.311,4.311,0,0,0,.4,2V25ZM-23.1,23.066a1.652,1.652,0,0,0,.918-.237,1.487,1.487,0,0,0,.523-.536V20.772h-.861q-1.547,0-1.547,1.389a.848.848,0,0,0,.272.655A.986.986,0,0,0-23.1,23.066Zm14.88-2.742a5.8,5.8,0,0,1-.967,3.595,3.238,3.238,0,0,1-2.725,1.257,2.81,2.81,0,0,1-2.338-1.151l-.123.976h-2.654V11.5h2.962v4.755a2.711,2.711,0,0,1,2.136-.94,3.239,3.239,0,0,1,2.742,1.274,5.826,5.826,0,0,1,.967,3.586Zm-2.971-.189a3.866,3.866,0,0,0-.365-1.952,1.229,1.229,0,0,0-1.121-.584,1.418,1.418,0,0,0-1.389.763v3.773a1.426,1.426,0,0,0,1.406.755,1.258,1.258,0,0,0,1.327-1.018A7.309,7.309,0,0,0-11.193,20.135ZM-3.792,25H-6.763V11.5h2.971Zm6.425.176A4.889,4.889,0,0,1-.91,23.871a4.507,4.507,0,0,1-1.354-3.4v-.246a5.84,5.84,0,0,1,.541-2.575A3.955,3.955,0,0,1-.145,15.925a4.763,4.763,0,0,1,2.461-.611A4.117,4.117,0,0,1,5.48,16.558a4.887,4.887,0,0,1,1.16,3.467v1.151H.751a2.135,2.135,0,0,0,.694,1.257,2.066,2.066,0,0,0,1.389.457,2.662,2.662,0,0,0,2.2-.984l1.354,1.6a3.784,3.784,0,0,1-1.569,1.217A5.3,5.3,0,0,1,2.632,25.176ZM2.3,17.6Q1,17.6.751,19.322H3.74v-.229a1.467,1.467,0,0,0-.36-1.1A1.434,1.434,0,0,0,2.3,17.6ZM13.188,25a3.344,3.344,0,0,1-.281-.853,2.754,2.754,0,0,1-2.285,1.028,3.374,3.374,0,0,1-2.285-.813,2.588,2.588,0,0,1-.94-2.043,2.66,2.66,0,0,1,1.143-2.338,5.821,5.821,0,0,1,3.322-.791h.914v-.5q0-1.316-1.134-1.316a.927.927,0,0,0-1.055,1.042H7.625A2.655,2.655,0,0,1,8.8,16.175a4.931,4.931,0,0,1,2.993-.86,4.323,4.323,0,0,1,2.874.888,3.086,3.086,0,0,1,1.081,2.435v4.21a4.311,4.311,0,0,0,.4,2V25Zm-1.854-1.934a1.652,1.652,0,0,0,.918-.237,1.487,1.487,0,0,0,.523-.536V20.772h-.861q-1.547,0-1.547,1.389a.848.848,0,0,0,.272.655A.986.986,0,0,0,11.333,23.066Zm5.678-2.892a5.809,5.809,0,0,1,.976-3.56,3.211,3.211,0,0,1,2.725-1.3,2.731,2.731,0,0,1,2.145,1V11.5h2.971V25H23.164l-.149-1.02a2.8,2.8,0,0,1-2.32,1.2A3.205,3.205,0,0,1,18,23.875,5.993,5.993,0,0,1,17.011,20.175Zm2.962.185q0,2.531,1.477,2.531a1.458,1.458,0,0,0,1.406-.826V18.443a1.419,1.419,0,0,0-1.389-.844q-1.371,0-1.485,2.215Zm7.163-.2a5.613,5.613,0,0,1,.554-2.536,3.96,3.96,0,0,1,1.591-1.709,4.791,4.791,0,0,1,2.435-.6,4.373,4.373,0,0,1,3.366,1.323,5.076,5.076,0,0,1,1.23,3.6v.105a4.925,4.925,0,0,1-1.235,3.529,4.384,4.384,0,0,1-3.344,1.305,4.434,4.434,0,0,1-3.261-1.217,4.761,4.761,0,0,1-1.327-3.3Zm2.962.185a3.538,3.538,0,0,0,.413,1.934,1.376,1.376,0,0,0,1.222.615q1.582,0,1.617-2.435v-.3q0-2.558-1.635-2.558-1.485,0-1.608,2.206Z" transform="translate(648.5 14347.231)" fill="#12263f"/>
    <path id="Trazado_712397" data-name="Trazado 712397" d="M-6.9,0H-9.971V-5.344h-4.544V0H-17.6V-12.8h3.085v5.08h4.544V-12.8H-6.9Zm4.939,0H-4.935V-9.51h2.971ZM-5.111-11.971a1.334,1.334,0,0,1,.457-1.043,1.718,1.718,0,0,1,1.187-.407,1.718,1.718,0,0,1,1.187.407,1.334,1.334,0,0,1,.457,1.043,1.334,1.334,0,0,1-.457,1.043,1.718,1.718,0,0,1-1.187.407,1.718,1.718,0,0,1-1.187-.407A1.334,1.334,0,0,1-5.111-11.971ZM2.984,0H.013V-13.5H2.984Zm1.45-4.843a5.613,5.613,0,0,1,.554-2.536A3.96,3.96,0,0,1,6.579-9.088a4.791,4.791,0,0,1,2.435-.6,4.373,4.373,0,0,1,3.366,1.323,5.076,5.076,0,0,1,1.23,3.6v.105a4.925,4.925,0,0,1-1.235,3.529A4.384,4.384,0,0,1,9.031.176,4.434,4.434,0,0,1,5.77-1.042a4.761,4.761,0,0,1-1.327-3.3ZM7.4-4.658a3.538,3.538,0,0,0,.413,1.934,1.376,1.376,0,0,0,1.222.615q1.582,0,1.617-2.435v-.3q0-2.558-1.635-2.558Q7.528-7.4,7.4-5.194ZM-58.017,15.49l.1,1.116A3.27,3.27,0,0,1-55.2,15.314a2.407,2.407,0,0,1,2.435,1.433,3.165,3.165,0,0,1,2.795-1.433q2.892,0,2.971,3.5V25h-2.971V19a1.813,1.813,0,0,0-.246-1.063,1.048,1.048,0,0,0-.9-.334,1.4,1.4,0,0,0-1.31.782l.009.123V25h-2.971V19.015a1.906,1.906,0,0,0-.237-1.081,1.045,1.045,0,0,0-.905-.334,1.42,1.42,0,0,0-1.3.782V25h-2.962V15.49Zm12.331,4.667a5.613,5.613,0,0,1,.554-2.536,3.96,3.96,0,0,1,1.591-1.709,4.791,4.791,0,0,1,2.435-.6,4.373,4.373,0,0,1,3.366,1.323,5.076,5.076,0,0,1,1.23,3.6v.105a4.925,4.925,0,0,1-1.235,3.529,4.384,4.384,0,0,1-3.344,1.305,4.434,4.434,0,0,1-3.261-1.217,4.761,4.761,0,0,1-1.327-3.3Zm2.962.185a3.538,3.538,0,0,0,.413,1.934,1.376,1.376,0,0,0,1.222.615q1.582,0,1.617-2.435v-.3q0-2.558-1.635-2.558-1.485,0-1.608,2.206Zm10.239-4.852.1,1.116a3.225,3.225,0,0,1,2.716-1.292,2.713,2.713,0,0,1,2.219.888,4.226,4.226,0,0,1,.76,2.672V25h-2.971V19a1.6,1.6,0,0,0-.29-1.059,1.342,1.342,0,0,0-1.055-.338,1.413,1.413,0,0,0-1.292.686V25h-2.962V15.49Zm7.058,4.667a5.613,5.613,0,0,1,.554-2.536,3.96,3.96,0,0,1,1.591-1.709,4.791,4.791,0,0,1,2.435-.6,4.373,4.373,0,0,1,3.366,1.323,5.076,5.076,0,0,1,1.23,3.6v.105a4.925,4.925,0,0,1-1.235,3.529,4.384,4.384,0,0,1-3.344,1.305,4.434,4.434,0,0,1-3.261-1.217,4.761,4.761,0,0,1-1.327-3.3Zm2.962.185a3.538,3.538,0,0,0,.413,1.934,1.376,1.376,0,0,0,1.222.615q1.582,0,1.617-2.435v-.3q0-2.558-1.635-2.558-1.485,0-1.608,2.206ZM-14.256,25V17.547h-1.38V15.49h1.38v-.316a3.631,3.631,0,0,1,1.248-2.909,4.987,4.987,0,0,1,3.243-.949,11.509,11.509,0,0,1,3.094.51l-.4,2.338-.492-.132a7.832,7.832,0,0,0-2.021-.255q-1.7,0-1.7,1.547v.167h1.863v2.057h-1.863V25Zm8.947,0H-8.288V15.49h2.979Zm4.931,0H-3.349V11.5H-.378ZM6.8,25a3.344,3.344,0,0,1-.281-.853,2.754,2.754,0,0,1-2.285,1.028,3.374,3.374,0,0,1-2.285-.813,2.588,2.588,0,0,1-.94-2.043,2.66,2.66,0,0,1,1.143-2.338,5.821,5.821,0,0,1,3.322-.791H6.39v-.5q0-1.316-1.134-1.316A.927.927,0,0,0,4.2,18.413H1.239a2.655,2.655,0,0,1,1.173-2.239,4.931,4.931,0,0,1,2.993-.86,4.323,4.323,0,0,1,2.874.888A3.086,3.086,0,0,1,9.36,18.637v4.21a4.311,4.311,0,0,0,.4,2V25ZM4.948,23.066a1.652,1.652,0,0,0,.918-.237,1.487,1.487,0,0,0,.523-.536V20.772H5.528q-1.547,0-1.547,1.389a.848.848,0,0,0,.272.655A.986.986,0,0,0,4.948,23.066ZM13.8,15.49l.1,1.116a3.27,3.27,0,0,1,2.716-1.292,2.407,2.407,0,0,1,2.435,1.433,3.165,3.165,0,0,1,2.795-1.433q2.892,0,2.971,3.5V25H21.841V19a1.813,1.813,0,0,0-.246-1.063,1.048,1.048,0,0,0-.9-.334,1.4,1.4,0,0,0-1.31.782l.009.123V25H16.427V19.015a1.906,1.906,0,0,0-.237-1.081,1.045,1.045,0,0,0-.905-.334,1.42,1.42,0,0,0-1.3.782V25H11.021V15.49ZM31.1,25.176a4.889,4.889,0,0,1-3.542-1.305,4.507,4.507,0,0,1-1.354-3.4v-.246a5.84,5.84,0,0,1,.541-2.575,3.955,3.955,0,0,1,1.578-1.727,4.763,4.763,0,0,1,2.461-.611,4.117,4.117,0,0,1,3.164,1.244,4.887,4.887,0,0,1,1.16,3.467v1.151H29.224a2.135,2.135,0,0,0,.694,1.257,2.066,2.066,0,0,0,1.389.457,2.662,2.662,0,0,0,2.2-.984l1.354,1.6a3.784,3.784,0,0,1-1.569,1.217A5.3,5.3,0,0,1,31.1,25.176ZM30.771,17.6q-1.3,0-1.547,1.723h2.988v-.229a1.467,1.467,0,0,0-.36-1.1A1.434,1.434,0,0,0,30.771,17.6Zm8.253-2.109.1,1.116a3.225,3.225,0,0,1,2.716-1.292,2.713,2.713,0,0,1,2.219.888,4.226,4.226,0,0,1,.76,2.672V25H41.845V19a1.6,1.6,0,0,0-.29-1.059A1.342,1.342,0,0,0,40.5,17.6a1.413,1.413,0,0,0-1.292.686V25H36.246V15.49ZM49.9,13.126V15.49h1.564v2.057H49.9V21.9a1.111,1.111,0,0,0,.193.747,1.037,1.037,0,0,0,.765.211A4.345,4.345,0,0,0,51.6,22.8v2.118a5.466,5.466,0,0,1-1.67.255,3.1,3.1,0,0,1-2.259-.721,2.954,2.954,0,0,1-.729-2.188v-4.72H45.729V15.49h1.213V13.126ZM52,20.157a5.613,5.613,0,0,1,.554-2.536,3.96,3.96,0,0,1,1.591-1.709,4.791,4.791,0,0,1,2.435-.6,4.373,4.373,0,0,1,3.366,1.323,5.076,5.076,0,0,1,1.23,3.6v.105a4.925,4.925,0,0,1-1.235,3.529,4.384,4.384,0,0,1-3.344,1.305,4.434,4.434,0,0,1-3.261-1.217A4.761,4.761,0,0,1,52,20.658Zm2.962.185a3.538,3.538,0,0,0,.413,1.934,1.376,1.376,0,0,0,1.222.615q1.582,0,1.617-2.435v-.3q0-2.558-1.635-2.558-1.485,0-1.608,2.206Z" transform="translate(651.5 14157.231)" fill="#12263f"/>
    <g id="Grupo_999338" data-name="Grupo 999338">
      <path id="Trazado_712390" data-name="Trazado 712390" d="M0,0H148.9V2H0Z" transform="translate(874.881 14278.354)" fill="#150d36"/>
      <path id="Trazado_712391" data-name="Trazado 712391" d="M0,0H148.9V2H0Z" transform="translate(577.072 14278.354)" fill="#150d36"/>
      <path id="Trazado_712392" data-name="Trazado 712392" d="M0,0H38.614V2H0Z" transform="translate(852.425 14238.31) rotate(-34.779)" fill="#150d36"/>
      <path id="Trazado_712393" data-name="Trazado 712393" d="M0,0H2V38.614H0Z" transform="translate(852.428 14320.395) rotate(-55.205)" fill="#150d36"/>
      <path id="Trazado_712394" data-name="Trazado 712394" d="M0,0H2V38.614H0Z" transform="translate(716.097 14217.922) rotate(-55.204)" fill="#150d36"/>
      <path id="Trazado_712395" data-name="Trazado 712395" d="M0,0H38.613V2H0Z" transform="translate(716.094 14340.782) rotate(-34.779)" fill="#150d36"/>
      <g id="Grupo_998908" data-name="Grupo 998908" transform="translate(426 14106)" clip-path="url(#clip-path)">
        <path id="Trazado_711973" data-name="Trazado 711973" d="M459.7,175.6a85.093,85.093,0,1,1-82.817-87.31A85.093,85.093,0,0,1,459.7,175.6" fill="#e8e8e8"/>
        <path id="Trazado_711974" data-name="Trazado 711974" d="M372.411,259.664a1.234,1.234,0,0,1-1.219-1.27,1.252,1.252,0,0,1,1.279-1.23,1.25,1.25,0,0,1-.029,2.5Zm5.81-1.279a1.252,1.252,0,1,1,1.32,1.179h-.07a1.257,1.257,0,0,1-1.25-1.179m-12.93.809a1.252,1.252,0,1,1,.27-2.49,1.254,1.254,0,0,1-.13,2.5c-.05,0-.1-.01-.14-.01m19.94-1.389a1.247,1.247,0,1,1,1.41,1.069c-.06,0-.12.011-.18.011a1.257,1.257,0,0,1-1.23-1.08m-27,.33a1.221,1.221,0,1,1,.24.029,1.037,1.037,0,0,1-.24-.029m33.93-1.491a1.25,1.25,0,1,1,1.5.951,1.479,1.479,0,0,1-.28.029,1.248,1.248,0,0,1-1.22-.98m-40.87-.14a1.264,1.264,0,0,1-.87-1.54,1.251,1.251,0,1,1,1.21,1.58,1.267,1.267,0,0,1-.34-.04m47.69-1.58a1.283,1.283,0,1,1,1.19.87,1.252,1.252,0,0,1-1.19-.87m-54.47-.63h-.01a1.255,1.255,0,0,1-.73-1.61,1.248,1.248,0,1,1,1.171,1.69,1.282,1.282,0,0,1-.431-.08m61.12-1.659a1.24,1.24,0,0,1,.68-1.631,1.254,1.254,0,0,1,.95,2.32,1.337,1.337,0,0,1-.48.09,1.229,1.229,0,0,1-1.15-.779m-67.71-1.111a1.25,1.25,0,1,1,1.67-.6,1.254,1.254,0,0,1-1.67.6m74.14-1.719a1.265,1.265,0,1,1,1.12.679,1.247,1.247,0,0,1-1.12-.679m-80.47-1.581a1.27,1.27,0,1,1,.63.161,1.312,1.312,0,0,1-.63-.161m86.65-1.77a1.248,1.248,0,1,1,1.72.4,1.245,1.245,0,0,1-1.72-.4m-92.68-2.05a1.263,1.263,0,1,1,.71.22,1.249,1.249,0,0,1-.71-.22m98.56-1.809a1.248,1.248,0,1,1,1.75.269,1.3,1.3,0,0,1-.74.24,1.248,1.248,0,0,1-1.01-.509M319.871,240.1h0a1.247,1.247,0,1,1,1.58-1.93h.01a1.252,1.252,0,0,1,.17,1.76,1.267,1.267,0,0,1-.97.46,1.243,1.243,0,0,1-.79-.29m109.8-1.83a1.251,1.251,0,1,1,1.76.12,1.272,1.272,0,0,1-.82.3,1.229,1.229,0,0,1-.94-.42m-115.13-2.92a1.252,1.252,0,1,1,1.77-.03,1.21,1.21,0,0,1-.9.38,1.237,1.237,0,0,1-.87-.35m120.3-1.85a1.238,1.238,0,0,1-.03-1.76v-.01a1.248,1.248,0,0,1,1.79,1.74h.01a1.253,1.253,0,0,1-.9.39,1.218,1.218,0,0,1-.87-.36m-125.21-3.32h0a1.251,1.251,0,1,1,1.76.121,1.267,1.267,0,0,1-1.76-.121m129.97-1.85a1.264,1.264,0,1,1,.79.28,1.232,1.232,0,0,1-.79-.28m-134.44-3.71a1.24,1.24,0,1,1,1.01.511,1.256,1.256,0,0,1-1.01-.511m138.76-1.84a1.253,1.253,0,1,1,.72.22,1.269,1.269,0,0,1-.72-.22m-142.76-4.07h0a1.246,1.246,0,1,1,2.12-1.31h.01a1.251,1.251,0,0,1-.41,1.72,1.313,1.313,0,0,1-.66.181,1.234,1.234,0,0,1-1.06-.591m146.61-1.82a1.251,1.251,0,0,1-.45-1.71v.01a1.245,1.245,0,1,1,2.16,1.24,1.251,1.251,0,0,1-1.08.63,1.324,1.324,0,0,1-.63-.17m-150.11-4.39h0a1.252,1.252,0,1,1,1.68.54,1.282,1.282,0,0,1-.57.14,1.251,1.251,0,0,1-1.11-.68m153.47-1.79a1.253,1.253,0,0,1,1.06-2.27,1.266,1.266,0,0,1,.6,1.67,1.251,1.251,0,0,1-1.13.71,1.23,1.23,0,0,1-.53-.11m-156.439-4.7a1.237,1.237,0,0,1,.679-1.63,1.253,1.253,0,0,1,.95,2.319,1.337,1.337,0,0,1-.48.09,1.227,1.227,0,0,1-1.149-.779m159.259-1.75a1.25,1.25,0,1,1,.44.08,1.392,1.392,0,0,1-.44-.08m-161.69-4.951a1.253,1.253,0,1,1,1.57.81,1.193,1.193,0,0,1-.37.06,1.253,1.253,0,0,1-1.2-.87m163.97-1.7a1.233,1.233,0,1,1,.34.05,1.332,1.332,0,0,1-.34-.05m-165.83-5.19a1.251,1.251,0,1,1,1.5.94,1.27,1.27,0,0,1-.28.03,1.249,1.249,0,0,1-1.22-.97m167.55-1.63a1.248,1.248,0,0,1-.99-1.46,1.247,1.247,0,1,1,1.23,1.48,1.768,1.768,0,0,1-.24-.02m-168.83-5.39h.01a1.247,1.247,0,1,1,1.41,1.06,1.1,1.1,0,0,1-.18.02,1.257,1.257,0,0,1-1.24-1.08m169.98-1.55a1.217,1.217,0,1,1,.13.01.57.57,0,0,1-.13-.01M288.431,178.3a1.252,1.252,0,1,1,1.32,1.179h-.07a1.25,1.25,0,0,1-1.25-1.179m171.24-1.451a1.259,1.259,0,0,1-1.22-1.29c0-.03.01-.06.01-.09v-.089a1.244,1.244,0,0,1,1.27-1.231,1.266,1.266,0,0,1,1.23,1.28.34.34,0,0,0-.01.1v.1a1.251,1.251,0,0,1-1.25,1.219Zm-170.14-4.4a1.271,1.271,0,1,1,.04,0Zm168.81-4.01a1.252,1.252,0,1,1,1.32,1.18h-.07a1.25,1.25,0,0,1-1.25-1.18m-168.44-3.01a1.328,1.328,0,1,1,.14,0Zm167.76-3.88a1.247,1.247,0,1,1,1.41,1.06,1.1,1.1,0,0,1-.18.02,1.256,1.256,0,0,1-1.23-1.08m-166.82-3.09a1.262,1.262,0,1,1,.23.02,1.642,1.642,0,0,1-.23-.02m165.57-3.72h0a1.245,1.245,0,0,1,.94-1.5,1.251,1.251,0,1,1,.55,2.44,1.249,1.249,0,0,1-1.49-.94m-164.07-3.15a1.25,1.25,0,0,1-.86-1.54h-.01a1.251,1.251,0,1,1,1.21,1.59,1.4,1.4,0,0,1-.34-.05m162.26-3.54a1.248,1.248,0,1,1,1.57.82,1.282,1.282,0,0,1-.38.05,1.242,1.242,0,0,1-1.19-.87m-160.18-3.18a1.245,1.245,0,0,1-.74-1.6v-.01a1.248,1.248,0,0,1,2.34.87,1.235,1.235,0,0,1-1.17.82,1.306,1.306,0,0,1-.43-.08m157.82-3.33a1.243,1.243,0,0,1,.68-1.63,1.256,1.256,0,0,1,1.63.68,1.271,1.271,0,0,1-.68,1.64,1.359,1.359,0,0,1-.48.09,1.229,1.229,0,0,1-1.15-.78m-155.2-3.2a1.254,1.254,0,1,1,.53.12,1.311,1.311,0,0,1-.53-.12m152.3-3.09a1.265,1.265,0,1,1,1.12.68,1.237,1.237,0,0,1-1.12-.68m-149.14-3.19a1.244,1.244,0,1,1,.63.17,1.3,1.3,0,0,1-.63-.17m145.74-2.84a1.245,1.245,0,1,1,1.06.59,1.238,1.238,0,0,1-1.06-.59m-142.07-3.16a1.254,1.254,0,1,1,.71.22,1.262,1.262,0,0,1-.71-.22m138.18-2.57a1.251,1.251,0,1,1,1.75.26,1.309,1.309,0,0,1-.75.24,1.231,1.231,0,0,1-1-.5m-134.03-3.11a1.25,1.25,0,0,1,1.59-1.93,1.24,1.24,0,0,1,.17,1.75h.01a1.235,1.235,0,0,1-.97.46,1.279,1.279,0,0,1-.8-.28m129.68-2.29h0a1.241,1.241,0,1,1,.94.43,1.209,1.209,0,0,1-.94-.43m-125.07-3.03a1.256,1.256,0,1,1,.87.35,1.208,1.208,0,0,1-.87-.35m120.29-1.98a1.252,1.252,0,1,1,1.77-.03,1.266,1.266,0,0,1-.9.38,1.251,1.251,0,0,1-.87-.35m-115.27-2.94a1.254,1.254,0,1,1,1.77.12,1.253,1.253,0,0,1-1.77-.12m110.1-1.67a1.251,1.251,0,1,1,1.75-.18,1.241,1.241,0,0,1-1.75.18m-104.69-2.82a1.251,1.251,0,1,1,1.75.26,1.2,1.2,0,0,1-.74.25,1.275,1.275,0,0,1-1.01-.51m99.15-1.35h0a1.254,1.254,0,1,1,.71.22,1.239,1.239,0,0,1-.71-.22m-93.38-2.68a1.245,1.245,0,1,1,1.06.59,1.238,1.238,0,0,1-1.06-.59m87.52-1.02a1.25,1.25,0,1,1,1.71-.46,1.279,1.279,0,0,1-1.09.63,1.258,1.258,0,0,1-.62-.17m-81.45-2.52a1.252,1.252,0,1,1,2.23-1.14,1.248,1.248,0,0,1-.55,1.68,1.241,1.241,0,0,1-1.68-.54m75.3-.68h0a1.248,1.248,0,0,1,1.06-2.26v-.01a1.266,1.266,0,0,1,.6,1.67,1.242,1.242,0,0,1-1.66.6m-68.96-2.35a1.254,1.254,0,1,1,1.63.68,1.229,1.229,0,0,1-1.63-.68m62.57-.33a1.248,1.248,0,1,1,1.6-.74,1.235,1.235,0,0,1-1.17.82,1.306,1.306,0,0,1-.43-.08m-55.99-2.16a1.248,1.248,0,1,1,1.56.82,1.569,1.569,0,0,1-.37.05,1.242,1.242,0,0,1-1.19-.87m49.4.02h0a1.246,1.246,0,1,1,1.54-.87,1.257,1.257,0,0,1-1.21.92.946.946,0,0,1-.33-.05m-42.64-1.96a1.246,1.246,0,1,1,1.49.95,1.265,1.265,0,0,1-.28.03,1.247,1.247,0,0,1-1.21-.98m35.89.38a1.247,1.247,0,1,1,1.46-.99,1.232,1.232,0,0,1-1.22,1.01.973.973,0,0,1-.24-.02m-29-1.74a1.252,1.252,0,1,1,1.41,1.06.97.97,0,0,1-.17.01,1.249,1.249,0,0,1-1.24-1.07m22.15.73v-.01a1.227,1.227,0,1,1,.14.01Zm-15.16-1.53a1.252,1.252,0,1,1,1.32,1.18h-.07a1.25,1.25,0,0,1-1.25-1.18m8.25,1.07a1.266,1.266,0,1,1,.03,0Z" fill="#150d36"/>
        <path id="Trazado_711975" data-name="Trazado 711975" d="M444.1,173.355a69.465,69.465,0,1,1-69.465-69.464A69.464,69.464,0,0,1,444.1,173.355" fill="#150d36"/>
        <path id="Trazado_711976" data-name="Trazado 711976" d="M78.979,101.09A72.264,72.264,0,1,1,6.715,173.354,72.345,72.345,0,0,1,78.979,101.09m0-3a75.264,75.264,0,1,0,75.263,75.264A75.264,75.264,0,0,0,78.979,98.09" fill="#150d36"/>
        <path id="Trazado_711977" data-name="Trazado 711977" d="M670.734,101.09a72.264,72.264,0,1,1-72.265,72.264,72.346,72.346,0,0,1,72.265-72.264m0-3A75.264,75.264,0,1,0,746,173.354,75.265,75.265,0,0,0,670.734,98.09" fill="#150d36"/>
        <path id="Trazado_711978" data-name="Trazado 711978" d="M223.355,6.637A72.264,72.264,0,1,1,151.09,78.9,72.345,72.345,0,0,1,223.355,6.637m0-3A75.264,75.264,0,1,0,298.618,78.9,75.265,75.265,0,0,0,223.355,3.637" fill="#150d36"/>
        <path id="Trazado_711979" data-name="Trazado 711979" d="M525.514,6.637A72.264,72.264,0,1,1,453.25,78.9,72.346,72.346,0,0,1,525.514,6.637m0-3A75.264,75.264,0,1,0,600.778,78.9,75.264,75.264,0,0,0,525.514,3.637" fill="#150d36"/>
        <path id="Trazado_711980" data-name="Trazado 711980" d="M223.355,195.68a72.264,72.264,0,1,1-72.265,72.264,72.345,72.345,0,0,1,72.265-72.264m0-3a75.264,75.264,0,1,0,75.263,75.264,75.265,75.265,0,0,0-75.263-75.264" fill="#150d36"/>
        <path id="Trazado_711981" data-name="Trazado 711981" d="M525.514,195.68a72.264,72.264,0,1,1-72.264,72.264,72.346,72.346,0,0,1,72.264-72.264m0-3a75.264,75.264,0,1,0,75.264,75.264,75.264,75.264,0,0,0-75.264-75.264" fill="#150d36"/>
      </g>
      <g id="Grupo_998910" data-name="Grupo 998910" transform="translate(426 14106)" clip-path="url(#clip-path-2)">
        <rect id="Rectángulo_346622" data-name="Rectángulo 346622" width="78.764" height="157.528" transform="translate(0 94.59)" fill="url(#linear-gradient)"/>
      </g>
      <g id="Grupo_998912" data-name="Grupo 998912" transform="translate(426 14106)" clip-path="url(#clip-path-3)">
        <rect id="Rectángulo_346623" data-name="Rectángulo 346623" width="11.824" height="11.825" transform="translate(146.361 167.442)" fill="url(#linear-gradient-2)"/>
      </g>
      <g id="Grupo_998914" data-name="Grupo 998914" transform="translate(426 14106)" clip-path="url(#clip-path-4)">
        <rect id="Rectángulo_346624" data-name="Rectángulo 346624" width="78.763" height="157.529" transform="translate(145.002 0)" fill="url(#linear-gradient-3)"/>
      </g>
      <g id="Grupo_998916" data-name="Grupo 998916" transform="translate(426 14106)" clip-path="url(#clip-path-5)">
        <rect id="Rectángulo_346625" data-name="Rectángulo 346625" width="11.825" height="11.825" transform="translate(284.755 105.188)" fill="url(#linear-gradient-4)"/>
      </g>
      <g id="Grupo_998918" data-name="Grupo 998918" transform="translate(426 14106)" clip-path="url(#clip-path-6)">
        <rect id="Rectángulo_346626" data-name="Rectángulo 346626" width="78.764" height="157.529" transform="translate(525.514 0)" fill="url(#linear-gradient-5)"/>
      </g>
      <g id="Grupo_998920" data-name="Grupo 998920" transform="translate(426 14106)" clip-path="url(#clip-path-7)">
        <rect id="Rectángulo_346627" data-name="Rectángulo 346627" width="11.824" height="11.825" transform="translate(452.796 105.188)" fill="url(#linear-gradient-6)"/>
      </g>
      <g id="Grupo_998922" data-name="Grupo 998922" transform="translate(426 14106)" clip-path="url(#clip-path-8)">
        <rect id="Rectángulo_346628" data-name="Rectángulo 346628" width="11.825" height="11.825" transform="translate(590.872 167.442)" fill="url(#linear-gradient-7)"/>
      </g>
      <g id="Grupo_998924" data-name="Grupo 998924" transform="translate(426 14106)" clip-path="url(#clip-path-9)">
        <rect id="Rectángulo_346629" data-name="Rectángulo 346629" width="78.764" height="157.528" transform="translate(670.885 94.59)" fill="url(#linear-gradient-8)"/>
      </g>
      <g id="Grupo_998926" data-name="Grupo 998926" transform="translate(426 14106)" clip-path="url(#clip-path-10)">
        <rect id="Rectángulo_346630" data-name="Rectángulo 346630" width="78.764" height="157.527" transform="translate(525.514 189.181)" fill="url(#linear-gradient-9)"/>
      </g>
      <g id="Grupo_998928" data-name="Grupo 998928" transform="translate(426 14106)" clip-path="url(#clip-path-11)">
        <rect id="Rectángulo_346631" data-name="Rectángulo 346631" width="78.763" height="157.527" transform="translate(145.002 189.181)" fill="url(#linear-gradient-10)"/>
      </g>
      <g id="Grupo_998930" data-name="Grupo 998930" transform="translate(426 14106)" clip-path="url(#clip-path-12)">
        <rect id="Rectángulo_346632" data-name="Rectángulo 346632" width="11.825" height="11.824" transform="translate(284.755 229.696)" fill="url(#linear-gradient-11)"/>
      </g>
      <g id="Grupo_998932" data-name="Grupo 998932" transform="translate(426 14106)" clip-path="url(#clip-path-13)">
        <rect id="Rectángulo_346633" data-name="Rectángulo 346633" width="11.824" height="11.824" transform="translate(452.796 229.696)" fill="url(#linear-gradient-12)"/>
      </g>
    </g>
    <path id="Trazado_712399" data-name="Trazado 712399" d="M-45.991-11.572h-4.268V0h-3.428V-11.572h-4.189v-2.646h11.885ZM-41.226,0h-3.3V-10.566h3.3Zm-3.5-13.3a1.482,1.482,0,0,1,.508-1.159,1.909,1.909,0,0,1,1.318-.452,1.909,1.909,0,0,1,1.318.452,1.482,1.482,0,0,1,.508,1.159,1.482,1.482,0,0,1-.508,1.159,1.909,1.909,0,0,1-1.318.452,1.909,1.909,0,0,1-1.318-.452A1.482,1.482,0,0,1-44.722-13.3Zm15.332,8.1A6.372,6.372,0,0,1-30.5-1.274,3.554,3.554,0,0,1-33.491.2,3.046,3.046,0,0,1-35.884-.869V4.063h-3.291V-10.566H-36.1l.1.977a3.046,3.046,0,0,1,2.49-1.172,3.582,3.582,0,0,1,3.037,1.44,6.45,6.45,0,0,1,1.084,3.96Zm-3.291-.205q0-2.812-1.641-2.812a1.549,1.549,0,0,0-1.562.84v4.16a1.6,1.6,0,0,0,1.582.879q1.572,0,1.621-2.715Zm4.326.029A6.236,6.236,0,0,1-27.739-8.2a4.4,4.4,0,0,1,1.768-1.9,5.323,5.323,0,0,1,2.705-.664,4.858,4.858,0,0,1,3.74,1.47,5.64,5.64,0,0,1,1.367,4v.117a5.472,5.472,0,0,1-1.372,3.921A4.871,4.871,0,0,1-23.247.2,4.927,4.927,0,0,1-26.87-1.157a5.29,5.29,0,0,1-1.475-3.667Zm3.291.205A3.932,3.932,0,0,0-24.6-3.027a1.529,1.529,0,0,0,1.357.684q1.758,0,1.8-2.705v-.332q0-2.842-1.816-2.842-1.65,0-1.787,2.451Zm13.887,2.207a.76.76,0,0,0-.439-.674,6.685,6.685,0,0,0-1.67-.527,7.615,7.615,0,0,1-2.031-.718,3.4,3.4,0,0,1-1.221-1.079,2.577,2.577,0,0,1-.42-1.455,2.92,2.92,0,0,1,1.2-2.4,4.948,4.948,0,0,1,3.145-.942,5.482,5.482,0,0,1,3.359.947,2.962,2.962,0,0,1,1.27,2.49h-3.3q0-1.27-1.338-1.27a1.326,1.326,0,0,0-.869.288.892.892,0,0,0-.352.718.819.819,0,0,0,.43.713,4.06,4.06,0,0,0,1.372.449,11.857,11.857,0,0,1,1.655.42A3.007,3.007,0,0,1-8-3.066,2.767,2.767,0,0,1-9.287-.713,5.632,5.632,0,0,1-12.612.2a5.747,5.747,0,0,1-2.422-.488,4.05,4.05,0,0,1-1.66-1.328,3.007,3.007,0,0,1-.6-1.768h3.076a1.272,1.272,0,0,0,.488,1.069,2.009,2.009,0,0,0,1.2.337,1.58,1.58,0,0,0,1.011-.273A.875.875,0,0,0-11.177-2.969ZM-1.9-5.361A6.455,6.455,0,0,1-.815-9.316a3.568,3.568,0,0,1,3.027-1.445A3.035,3.035,0,0,1,4.595-9.648V-15H7.9V0H4.937L4.771-1.133A3.116,3.116,0,0,1,2.192.2,3.562,3.562,0,0,1-.8-1.25,6.659,6.659,0,0,1-1.9-5.361Zm3.291.205q0,2.813,1.641,2.813a1.62,1.62,0,0,0,1.563-.918V-7.285a1.576,1.576,0,0,0-1.543-.937q-1.523,0-1.65,2.461ZM14.878.2a5.432,5.432,0,0,1-3.936-1.45,5.008,5.008,0,0,1-1.5-3.774V-5.3a6.489,6.489,0,0,1,.6-2.861,4.395,4.395,0,0,1,1.753-1.919,5.292,5.292,0,0,1,2.734-.679A4.574,4.574,0,0,1,18.042-9.38a5.43,5.43,0,0,1,1.289,3.853v1.279H12.788a2.372,2.372,0,0,0,.771,1.4,2.3,2.3,0,0,0,1.543.508,2.958,2.958,0,0,0,2.441-1.094l1.5,1.777A4.2,4.2,0,0,1,17.3-.308,5.891,5.891,0,0,1,14.878.2Zm-.371-8.418q-1.445,0-1.719,1.914h3.32v-.254a1.63,1.63,0,0,0-.4-1.226A1.593,1.593,0,0,0,14.507-8.223ZM28.853-9.434a3.294,3.294,0,0,1,2.7-1.328,3.284,3.284,0,0,1,2.637,1.035,4.651,4.651,0,0,1,.908,3.057V0h-3.3V-6.592a1.86,1.86,0,0,0-.342-1.235,1.469,1.469,0,0,0-1.162-.4,1.582,1.582,0,0,0-1.436.645V0H25.562V-15h3.291ZM40.4,0h-3.3V-10.566h3.3ZM36.9-13.3a1.482,1.482,0,0,1,.508-1.159,1.909,1.909,0,0,1,1.318-.452,1.909,1.909,0,0,1,1.318.452,1.482,1.482,0,0,1,.508,1.159,1.482,1.482,0,0,1-.508,1.159,1.909,1.909,0,0,1-1.318.452,1.909,1.909,0,0,1-1.318-.452A1.482,1.482,0,0,1,36.9-13.3ZM45.894,0h-3.3V-15h3.3ZM47.5-5.381A6.236,6.236,0,0,1,48.12-8.2a4.4,4.4,0,0,1,1.768-1.9,5.323,5.323,0,0,1,2.705-.664,4.858,4.858,0,0,1,3.74,1.47,5.64,5.64,0,0,1,1.367,4v.117a5.472,5.472,0,0,1-1.372,3.921A4.871,4.871,0,0,1,52.612.2a4.927,4.927,0,0,1-3.623-1.353,5.29,5.29,0,0,1-1.475-3.667Zm3.291.205a3.932,3.932,0,0,0,.459,2.148,1.529,1.529,0,0,0,1.357.684q1.758,0,1.8-2.705v-.332q0-2.842-1.816-2.842-1.65,0-1.787,2.451Z" transform="translate(800.824 14289.354)" fill="#fff"/>
  </g>
</svg>
