<svg xmlns="http://www.w3.org/2000/svg" width="925" height="426" viewBox="0 0 925 426">
  <g id="Grupo_999338" data-name="Grupo 999338" transform="translate(-285 -19598)">
    <g id="Trazado_712390" data-name="Trazado 712390" transform="translate(285.416 19598)" fill="#fff">
      <path d="M 922.66796875 424.505859375 L 0.4999843835830688 424.505859375 L 0.4999843835830688 0.4999884963035583 L 922.66796875 0.4999884963035583 L 922.66796875 424.505859375 Z" stroke="none"/>
      <path d="M 1 1 L 1 424.005859375 L 922.16796875 424.005859375 L 922.16796875 1 L 1 1 M 0 0 L 923.16796875 0 L 923.16796875 425.005859375 L 0 425.005859375 L 0 0 Z" stroke="none" fill="#e1e1e1"/>
    </g>
    <path id="Trazado_712391" data-name="Trazado 712391" d="M0,0H923.168V5H0Z" transform="translate(285.416 19598)" fill="#9b1f36"/>
    <path id="Trazado_712392" data-name="Trazado 712392" d="M0,0H924.084V69.5H0Z" transform="translate(285.416 19603)" fill="#e8e8e8"/>
    <path id="Trazado_712393" data-name="Trazado 712393" d="M925,0H0" transform="translate(285 19743.5)" fill="none" stroke="#e1e1e1" stroke-width="1"/>
    <path id="Trazado_712394" data-name="Trazado 712394" d="M925,0H0" transform="translate(285 19813)" fill="none" stroke="#e1e1e1" stroke-width="1"/>
    <path id="Trazado_712395" data-name="Trazado 712395" d="M925,0H0" transform="translate(285 19883)" fill="none" stroke="#e1e1e1" stroke-width="1"/>
    <path id="Trazado_712396" data-name="Trazado 712396" d="M925,0H0" transform="translate(285 19953.006)" fill="none" stroke="#e1e1e1" stroke-width="1"/>
    <path id="Trazado_712397" data-name="Trazado 712397" d="M923.584,0H0" transform="translate(285.5 19672.5)" fill="none" stroke="#e1e1e1" stroke-width="1"/>
    <path id="Trazado_712398" data-name="Trazado 712398" d="M0,0H101V71H0Z" transform="translate(447 19673)" fill="#d9d7d7"/>
    <path id="Trazado_712399" data-name="Trazado 712399" d="M0,0H162V71H0Z" transform="translate(548 19743)" fill="#d9d7d7"/>
    <path id="Trazado_712400" data-name="Trazado 712400" d="M0,0H149V71H0Z" transform="translate(710 19812)" fill="#d9d7d7"/>
    <path id="Trazado_712401" data-name="Trazado 712401" d="M0,0H181V71H0Z" transform="translate(859 19883)" fill="#d9d7d7"/>
    <path id="Trazado_712402" data-name="Trazado 712402" d="M0,0H170V71H0Z" transform="translate(1040 19953)" fill="#d9d7d7"/>
    <path id="Trazado_712403" data-name="Trazado 712403" d="M-36.532-4.333a4.673,4.673,0,0,1-.721,2.36A4.35,4.35,0,0,1-39.1-.387a6.3,6.3,0,0,1-2.72.563A5.025,5.025,0,0,1-45.8-1.468a6.786,6.786,0,0,1-1.45-4.641v-.633a7.746,7.746,0,0,1,.655-3.292,4.961,4.961,0,0,1,1.885-2.18,5.26,5.26,0,0,1,2.848-.769,5.516,5.516,0,0,1,3.744,1.226,4.844,4.844,0,0,1,1.608,3.379h-3.076a2.292,2.292,0,0,0-.589-1.679,2.422,2.422,0,0,0-1.687-.51,1.843,1.843,0,0,0-1.687.861,5.536,5.536,0,0,0-.562,2.751v.905a6.126,6.126,0,0,0,.514,2.927,1.882,1.882,0,0,0,1.771.879,2.369,2.369,0,0,0,1.626-.5,2.126,2.126,0,0,0,.6-1.591Zm.949-.51a5.613,5.613,0,0,1,.554-2.536,3.96,3.96,0,0,1,1.591-1.709A4.791,4.791,0,0,1-31-9.686a4.373,4.373,0,0,1,3.366,1.323,5.076,5.076,0,0,1,1.23,3.6v.105a4.925,4.925,0,0,1-1.235,3.529A4.384,4.384,0,0,1-30.986.176a4.434,4.434,0,0,1-3.261-1.217,4.761,4.761,0,0,1-1.327-3.3Zm2.962.185a3.538,3.538,0,0,0,.413,1.934,1.376,1.376,0,0,0,1.222.615q1.582,0,1.617-2.435v-.3Q-29.369-7.4-31-7.4q-1.485,0-1.608,2.206ZM-22.381-9.51l.1,1.116a3.225,3.225,0,0,1,2.716-1.292A2.713,2.713,0,0,1-17.35-8.8a4.226,4.226,0,0,1,.76,2.672V0H-19.56V-6a1.6,1.6,0,0,0-.29-1.059A1.342,1.342,0,0,0-20.9-7.4a1.413,1.413,0,0,0-1.292.686V0h-2.962V-9.51Zm11.224,5.985,1.5-5.985h3.12L-9.637,0h-3.023l-3.1-9.51h3.129Zm9.993,3.7A4.889,4.889,0,0,1-4.707-1.129a4.507,4.507,0,0,1-1.354-3.4v-.246A5.84,5.84,0,0,1-5.52-7.348,3.955,3.955,0,0,1-3.942-9.075a4.763,4.763,0,0,1,2.461-.611A4.117,4.117,0,0,1,1.683-8.442a4.887,4.887,0,0,1,1.16,3.467v1.151H-3.045a2.135,2.135,0,0,0,.694,1.257,2.066,2.066,0,0,0,1.389.457,2.662,2.662,0,0,0,2.2-.984l1.354,1.6A3.784,3.784,0,0,1,1.02-.277,5.3,5.3,0,0,1-1.165.176ZM-1.5-7.4q-1.3,0-1.547,1.723H-.057v-.229a1.467,1.467,0,0,0-.36-1.1A1.434,1.434,0,0,0-1.5-7.4Zm11.285.571L8.811-6.9a1.752,1.752,0,0,0-1.793.879V0H4.056V-9.51H6.833l.1,1.222a2.294,2.294,0,0,1,2.083-1.4,2.888,2.888,0,0,1,.826.105Zm4.957-5.045V-9.51h1.564v2.057H14.744V-3.1a1.111,1.111,0,0,0,.193.747,1.037,1.037,0,0,0,.765.211A4.345,4.345,0,0,0,16.44-2.2V-.079a5.466,5.466,0,0,1-1.67.255,3.1,3.1,0,0,1-2.259-.721,2.954,2.954,0,0,1-.729-2.188v-4.72H10.569V-9.51h1.213v-2.364ZM20.6,0H17.626V-9.51H20.6ZM17.451-11.971a1.334,1.334,0,0,1,.457-1.043,1.718,1.718,0,0,1,1.187-.407,1.718,1.718,0,0,1,1.187.407,1.334,1.334,0,0,1,.457,1.043,1.334,1.334,0,0,1-.457,1.043,1.718,1.718,0,0,1-1.187.407,1.718,1.718,0,0,1-1.187-.407A1.334,1.334,0,0,1,17.451-11.971ZM28.173-6.829,27.2-6.9a1.752,1.752,0,0,0-1.793.879V0H22.443V-9.51H25.22l.1,1.222a2.294,2.294,0,0,1,2.083-1.4,2.888,2.888,0,0,1,.826.105ZM39.081,0A3.344,3.344,0,0,1,38.8-.853,2.754,2.754,0,0,1,36.514.176a3.374,3.374,0,0,1-2.285-.813,2.588,2.588,0,0,1-.94-2.043,2.66,2.66,0,0,1,1.143-2.338,5.821,5.821,0,0,1,3.322-.791h.914v-.5q0-1.316-1.134-1.316a.927.927,0,0,0-1.055,1.042H33.517A2.655,2.655,0,0,1,34.69-8.825a4.931,4.931,0,0,1,2.993-.86,4.323,4.323,0,0,1,2.874.888,3.086,3.086,0,0,1,1.081,2.435v4.21a4.311,4.311,0,0,0,.4,2V0ZM37.226-1.934a1.652,1.652,0,0,0,.918-.237,1.487,1.487,0,0,0,.523-.536V-4.228h-.861q-1.547,0-1.547,1.389a.848.848,0,0,0,.272.655A.986.986,0,0,0,37.226-1.934Zm7.893-.94a1.686,1.686,0,0,1,1.169.417,1.37,1.37,0,0,1,.466,1.068,1.37,1.37,0,0,1-.466,1.068A1.686,1.686,0,0,1,45.119.1a1.672,1.672,0,0,1-1.173-.422,1.379,1.379,0,0,1-.461-1.063,1.379,1.379,0,0,1,.461-1.063A1.672,1.672,0,0,1,45.119-2.874Zm0-7.014a1.686,1.686,0,0,1,1.169.417A1.37,1.37,0,0,1,46.753-8.4a1.37,1.37,0,0,1-.466,1.068,1.686,1.686,0,0,1-1.169.417,1.672,1.672,0,0,1-1.173-.422A1.379,1.379,0,0,1,43.484-8.4a1.379,1.379,0,0,1,.461-1.063A1.672,1.672,0,0,1,45.119-9.888Z" transform="translate(365.084 19645)" fill="#12263f"/>
    <path id="Trazado_712404" data-name="Trazado 712404" d="M11.013-10.415H7.172V0H4.087V-10.415H.316V-12.8h10.7ZM16,.176a4.889,4.889,0,0,1-3.542-1.305,4.507,4.507,0,0,1-1.354-3.4v-.246a5.84,5.84,0,0,1,.541-2.575,3.955,3.955,0,0,1,1.578-1.727,4.763,4.763,0,0,1,2.461-.611,4.117,4.117,0,0,1,3.164,1.244A4.887,4.887,0,0,1,20-4.975v1.151H14.115a2.135,2.135,0,0,0,.694,1.257,2.066,2.066,0,0,0,1.389.457,2.662,2.662,0,0,0,2.2-.984l1.354,1.6A3.784,3.784,0,0,1,18.18-.277,5.3,5.3,0,0,1,16,.176ZM15.662-7.4q-1.3,0-1.547,1.723H17.1v-.229a1.467,1.467,0,0,0-.36-1.1A1.434,1.434,0,0,0,15.662-7.4Zm9.387.51,1.38-2.619H29.5L27-4.878,29.628,0H26.534L25.04-2.812,23.572,0H20.461L23.1-4.878,20.6-9.51h3.111Z" transform="translate(481 19644.5)" fill="#12263f"/>
    <path id="Trazado_712405" data-name="Trazado 712405" d="M.967,0V-12.8H5.089a6.064,6.064,0,0,1,3.05.769,5.406,5.406,0,0,1,2.114,2.171,6.554,6.554,0,0,1,.769,3.142v.589a6.592,6.592,0,0,1-.743,3.151A5.429,5.429,0,0,1,8.187-.8a5.93,5.93,0,0,1-3.01.8ZM4.052-10.415v8.042H5.124a2.4,2.4,0,0,0,2.039-.945,4.63,4.63,0,0,0,.712-2.808V-6.68a4.592,4.592,0,0,0-.712-2.795,2.442,2.442,0,0,0-2.074-.94ZM17.068.176a4.889,4.889,0,0,1-3.542-1.305,4.507,4.507,0,0,1-1.354-3.4v-.246a5.84,5.84,0,0,1,.541-2.575,3.955,3.955,0,0,1,1.578-1.727,4.763,4.763,0,0,1,2.461-.611,4.117,4.117,0,0,1,3.164,1.244,4.887,4.887,0,0,1,1.16,3.467v1.151H15.188a2.135,2.135,0,0,0,.694,1.257,2.066,2.066,0,0,0,1.389.457,2.662,2.662,0,0,0,2.2-.984l1.354,1.6A3.784,3.784,0,0,1,19.252-.277,5.3,5.3,0,0,1,17.068.176ZM16.734-7.4q-1.3,0-1.547,1.723h2.988v-.229a1.467,1.467,0,0,0-.36-1.1A1.434,1.434,0,0,0,16.734-7.4Zm9.554,5.291a1.317,1.317,0,0,0,.967-.338,1.241,1.241,0,0,0,.334-.945h2.777A3.288,3.288,0,0,1,29.246-.826a4.168,4.168,0,0,1-2.887,1,4.22,4.22,0,0,1-3.27-1.3,5.125,5.125,0,0,1-1.2-3.6v-.123A5.792,5.792,0,0,1,22.425-7.4a3.872,3.872,0,0,1,1.534-1.7,4.573,4.573,0,0,1,2.373-.593,4.116,4.116,0,0,1,2.944,1.028,3.647,3.647,0,0,1,1.09,2.786H27.589A1.626,1.626,0,0,0,27.229-7a1.244,1.244,0,0,0-.967-.4q-1.151,0-1.345,1.468a10.357,10.357,0,0,0-.062,1.283A4.068,4.068,0,0,0,25.2-2.663,1.187,1.187,0,0,0,26.288-2.109ZM34.743,0H31.772V-9.51h2.971ZM31.6-11.971a1.334,1.334,0,0,1,.457-1.043,1.718,1.718,0,0,1,1.187-.407,1.718,1.718,0,0,1,1.187.407,1.334,1.334,0,0,1,.457,1.043,1.334,1.334,0,0,1-.457,1.043,1.718,1.718,0,0,1-1.187.407,1.718,1.718,0,0,1-1.187-.407A1.334,1.334,0,0,1,31.6-11.971Zm8.42.1V-9.51h1.564v2.057H40.017V-3.1a1.111,1.111,0,0,0,.193.747,1.037,1.037,0,0,0,.765.211,4.345,4.345,0,0,0,.738-.053V-.079a5.466,5.466,0,0,1-1.67.255,3.1,3.1,0,0,1-2.259-.721,2.954,2.954,0,0,1-.729-2.188v-4.72H35.842V-9.51h1.213v-2.364ZM47.347.176A4.889,4.889,0,0,1,43.8-1.129a4.507,4.507,0,0,1-1.354-3.4v-.246a5.84,5.84,0,0,1,.541-2.575,3.955,3.955,0,0,1,1.578-1.727,4.763,4.763,0,0,1,2.461-.611,4.117,4.117,0,0,1,3.164,1.244,4.887,4.887,0,0,1,1.16,3.467v1.151H45.466a2.135,2.135,0,0,0,.694,1.257,2.066,2.066,0,0,0,1.389.457,2.662,2.662,0,0,0,2.2-.984l1.354,1.6A3.784,3.784,0,0,1,49.531-.277,5.3,5.3,0,0,1,47.347.176ZM47.013-7.4q-1.3,0-1.547,1.723h2.988v-.229a1.467,1.467,0,0,0-.36-1.1A1.434,1.434,0,0,0,47.013-7.4Zm9.387.51,1.38-2.619h3.076l-2.5,4.632L60.979,0H57.885L56.391-2.812,54.923,0H51.812l2.637-4.878-2.5-4.632h3.111ZM66.516-5.2a13.431,13.431,0,0,1,.571-3.99,9.629,9.629,0,0,1,1.578-3.129A5.6,5.6,0,0,1,70.9-14.115l.563,1.459a5.73,5.73,0,0,0-1.9,2.826,13.782,13.782,0,0,0-.681,4.5v.387a14.051,14.051,0,0,0,.672,4.588A5.706,5.706,0,0,0,71.464,2.5L70.9,3.955a5.547,5.547,0,0,1-2.237-1.8A9.484,9.484,0,0,1,67.087-.958a13.5,13.5,0,0,1-.571-3.85Zm5.757.378a5.809,5.809,0,0,1,.976-3.56,3.211,3.211,0,0,1,2.725-1.3,2.731,2.731,0,0,1,2.145,1V-13.5h2.971V0H78.425l-.149-1.02a2.8,2.8,0,0,1-2.32,1.2,3.205,3.205,0,0,1-2.689-1.3A5.993,5.993,0,0,1,72.272-4.825Zm2.962.185q0,2.531,1.477,2.531a1.458,1.458,0,0,0,1.406-.826V-6.557A1.419,1.419,0,0,0,76.729-7.4q-1.371,0-1.485,2.215Zm17.719-5.774H89.112V0H86.027V-10.415H82.257V-12.8h10.7ZM97.937.176a4.889,4.889,0,0,1-3.542-1.305,4.507,4.507,0,0,1-1.354-3.4v-.246a5.84,5.84,0,0,1,.541-2.575,3.955,3.955,0,0,1,1.578-1.727,4.763,4.763,0,0,1,2.461-.611,4.117,4.117,0,0,1,3.164,1.244,4.887,4.887,0,0,1,1.16,3.467v1.151H96.056a2.135,2.135,0,0,0,.694,1.257,2.066,2.066,0,0,0,1.389.457,2.662,2.662,0,0,0,2.2-.984l1.354,1.6a3.784,3.784,0,0,1-1.569,1.217A5.3,5.3,0,0,1,97.937.176ZM97.6-7.4q-1.3,0-1.547,1.723h2.988v-.229a1.467,1.467,0,0,0-.36-1.1A1.434,1.434,0,0,0,97.6-7.4Zm9.387.51,1.38-2.619h3.076l-2.5,4.632L111.568,0h-3.094L106.98-2.812,105.513,0H102.4l2.637-4.878-2.5-4.632h3.111ZM117.07-4.957a12.532,12.532,0,0,1-.606,3.92,10.008,10.008,0,0,1-1.674,3.186,5.574,5.574,0,0,1-2.307,1.806L111.92,2.5a5.787,5.787,0,0,0,1.89-2.812,13.577,13.577,0,0,0,.694-4.368v-.536a14.051,14.051,0,0,0-.672-4.588,5.706,5.706,0,0,0-1.912-2.848l.563-1.459a5.676,5.676,0,0,1,2.29,1.789,9.885,9.885,0,0,1,1.67,3.138,12.426,12.426,0,0,1,.628,3.845Z" transform="translate(570.853 19644.5)" fill="#12263f"/>
    <path id="Trazado_712406" data-name="Trazado 712406" d="M-3.836-11.417H-7.95V0H-9.628V-11.417h-4.1V-12.8h9.9ZM.883.176a4.155,4.155,0,0,1-3.146-1.27,4.714,4.714,0,0,1-1.213-3.4v-.3a5.707,5.707,0,0,1,.541-2.527,4.217,4.217,0,0,1,1.512-1.74,3.8,3.8,0,0,1,2.1-.628A3.562,3.562,0,0,1,3.564-8.464a5.289,5.289,0,0,1,1.028,3.5v.677H-1.85a3.38,3.38,0,0,0,.822,2.272,2.583,2.583,0,0,0,2,.866A2.832,2.832,0,0,0,2.43-1.5a3.666,3.666,0,0,0,1.046-.932l.993.773A3.993,3.993,0,0,1,.883.176ZM.681-8.35a2.169,2.169,0,0,0-1.652.716A3.482,3.482,0,0,0-1.8-5.625H2.966v-.123A3.1,3.1,0,0,0,2.3-7.668,2.042,2.042,0,0,0,.681-8.35ZM9.664-6.038,11.773-9.51h1.9l-3.111,4.7L13.768,0H11.887L9.69-3.56,7.493,0H5.6L8.811-4.808,5.7-9.51H7.581Z" transform="translate(365 19715)" fill="#12263f"/>
    <path id="Trazado_712407" data-name="Trazado 712407" d="M-55.92,0V-12.8h3.612a5.815,5.815,0,0,1,2.953.738,4.993,4.993,0,0,1,1.982,2.1,6.837,6.837,0,0,1,.708,3.129v.817a6.861,6.861,0,0,1-.7,3.173,4.915,4.915,0,0,1-2,2.092A6.185,6.185,0,0,1-52.378,0Zm1.688-11.417V-1.38h1.775a3.863,3.863,0,0,0,3.037-1.214,5.016,5.016,0,0,0,1.085-3.457V-6.8a5.1,5.1,0,0,0-1.024-3.391,3.644,3.644,0,0,0-2.9-1.227ZM-40.425.176a4.155,4.155,0,0,1-3.146-1.27,4.714,4.714,0,0,1-1.213-3.4v-.3a5.707,5.707,0,0,1,.541-2.527,4.217,4.217,0,0,1,1.512-1.74,3.8,3.8,0,0,1,2.1-.628,3.562,3.562,0,0,1,2.883,1.222,5.289,5.289,0,0,1,1.028,3.5v.677h-6.442a3.38,3.38,0,0,0,.822,2.272,2.583,2.583,0,0,0,2,.866A2.832,2.832,0,0,0-38.878-1.5a3.666,3.666,0,0,0,1.046-.932l.993.773A3.993,3.993,0,0,1-40.425.176Zm-.2-8.525a2.169,2.169,0,0,0-1.652.716,3.482,3.482,0,0,0-.826,2.008h4.764v-.123a3.1,3.1,0,0,0-.668-1.92A2.042,2.042,0,0,0-40.627-8.35Zm9.606,7.2A2.342,2.342,0,0,0-29.5-1.679,1.855,1.855,0,0,0-28.78-3h1.538A2.949,2.949,0,0,1-27.8-1.441,3.7,3.7,0,0,1-29.188-.264a3.994,3.994,0,0,1-1.833.439,3.918,3.918,0,0,1-3.089-1.3,5.163,5.163,0,0,1-1.147-3.546v-.272a5.725,5.725,0,0,1,.51-2.47,3.883,3.883,0,0,1,1.463-1.679,4.157,4.157,0,0,1,2.254-.6,3.814,3.814,0,0,1,2.659.958A3.424,3.424,0,0,1-27.242-6.24H-28.78a2.241,2.241,0,0,0-.7-1.516A2.174,2.174,0,0,0-31.03-8.35a2.276,2.276,0,0,0-1.92.892,4.19,4.19,0,0,0-.681,2.58v.308a4.106,4.106,0,0,0,.677,2.531A2.287,2.287,0,0,0-31.021-1.151ZM-23.647,0h-1.626V-9.51h1.626ZM-25.4-12.032a.971.971,0,0,1,.242-.668.907.907,0,0,1,.716-.272.922.922,0,0,1,.721.272.96.96,0,0,1,.246.668.929.929,0,0,1-.246.659.938.938,0,0,1-.721.264.924.924,0,0,1-.716-.264A.938.938,0,0,1-25.4-12.032Zm6.565.22v2.3h1.775v1.257h-1.775v5.9a1.32,1.32,0,0,0,.237.858,1,1,0,0,0,.809.286,3.937,3.937,0,0,0,.773-.105V0a4.742,4.742,0,0,1-1.248.175,2.025,2.025,0,0,1-1.644-.659,2.832,2.832,0,0,1-.554-1.872v-5.9H-22.2V-9.51h1.731v-2.3ZM-11.219.176a4.155,4.155,0,0,1-3.146-1.27,4.714,4.714,0,0,1-1.213-3.4v-.3a5.707,5.707,0,0,1,.541-2.527,4.217,4.217,0,0,1,1.512-1.74,3.8,3.8,0,0,1,2.1-.628A3.562,3.562,0,0,1-8.539-8.464a5.289,5.289,0,0,1,1.028,3.5v.677h-6.442a3.38,3.38,0,0,0,.822,2.272,2.583,2.583,0,0,0,2,.866A2.832,2.832,0,0,0-9.672-1.5a3.666,3.666,0,0,0,1.046-.932l.993.773A3.993,3.993,0,0,1-11.219.176Zm-.2-8.525a2.169,2.169,0,0,0-1.652.716A3.482,3.482,0,0,0-13.9-5.625h4.764v-.123A3.1,3.1,0,0,0-9.8-7.668,2.042,2.042,0,0,0-11.421-8.35Zm8.982,2.312L-.33-9.51h1.9l-3.111,4.7L1.666,0H-.215l-2.2-3.56L-4.61,0H-6.5l3.208-4.808L-6.4-9.51h1.881Zm10.125.844a13.589,13.589,0,0,1,.532-3.814A11.081,11.081,0,0,1,9.8-12.331a6.749,6.749,0,0,1,2.188-2.109l.334,1.072a7,7,0,0,0-2.1,3.006,13.031,13.031,0,0,0-.9,4.526l-.009.747A13.1,13.1,0,0,0,10.551.8a7.033,7.033,0,0,0,1.775,2.338l-.334.993A6.966,6.966,0,0,1,9.76,1.951,12.217,12.217,0,0,1,7.686-5.194Zm5.818.36a5.571,5.571,0,0,1,1.037-3.52,3.28,3.28,0,0,1,2.716-1.332A3.3,3.3,0,0,1,19.9-8.543V-13.5h1.626V0H20.035l-.079-1.02A3.311,3.311,0,0,1,17.24.176a3.248,3.248,0,0,1-2.694-1.354A5.634,5.634,0,0,1,13.5-4.711Zm1.626.185A4.218,4.218,0,0,0,15.8-2.118a2.159,2.159,0,0,0,1.846.914A2.372,2.372,0,0,0,19.9-2.593V-6.961a2.39,2.39,0,0,0-2.241-1.345,2.17,2.17,0,0,0-1.863.923A4.644,4.644,0,0,0,15.13-4.649Zm18.018-6.768H29.035V0H27.356V-11.417h-4.1V-12.8h9.9ZM37.868.176a4.155,4.155,0,0,1-3.146-1.27,4.714,4.714,0,0,1-1.213-3.4v-.3a5.707,5.707,0,0,1,.541-2.527,4.217,4.217,0,0,1,1.512-1.74,3.8,3.8,0,0,1,2.1-.628,3.562,3.562,0,0,1,2.883,1.222,5.289,5.289,0,0,1,1.028,3.5v.677H35.134a3.38,3.38,0,0,0,.822,2.272,2.583,2.583,0,0,0,2,.866A2.832,2.832,0,0,0,39.415-1.5a3.666,3.666,0,0,0,1.046-.932l.993.773A3.993,3.993,0,0,1,37.868.176Zm-.2-8.525a2.169,2.169,0,0,0-1.652.716,3.482,3.482,0,0,0-.826,2.008h4.764v-.123a3.1,3.1,0,0,0-.668-1.92A2.042,2.042,0,0,0,37.666-8.35Zm8.982,2.312L48.757-9.51h1.9l-3.111,4.7L50.752,0H48.872l-2.2-3.56L44.477,0h-1.89L45.8-4.808l-3.111-4.7h1.881Zm9.483.932a13.6,13.6,0,0,1-.514,3.757,11.11,11.11,0,0,1-1.573,3.318,6.893,6.893,0,0,1-2.219,2.162l-.343-.993A7.066,7.066,0,0,0,53.657-.083,13.935,13.935,0,0,0,54.5-4.931v-.281a14.469,14.469,0,0,0-.387-3.432,11.583,11.583,0,0,0-1.077-2.843,6.567,6.567,0,0,0-1.551-1.96l.343-.993a6.866,6.866,0,0,1,2.21,2.145,11.134,11.134,0,0,1,1.573,3.313A13.909,13.909,0,0,1,56.131-5.106Z" transform="translate(365 19785)" fill="#12263f"/>
    <path id="Trazado_712408" data-name="Trazado 712408" d="M-48.217,0V-12.8H-44.6a5.815,5.815,0,0,1,2.953.738,4.993,4.993,0,0,1,1.982,2.1,6.837,6.837,0,0,1,.708,3.129v.817a6.861,6.861,0,0,1-.7,3.173,4.915,4.915,0,0,1-2,2.092A6.185,6.185,0,0,1-44.675,0Zm1.688-11.417V-1.38h1.775a3.863,3.863,0,0,0,3.037-1.214,5.016,5.016,0,0,0,1.085-3.457V-6.8a5.1,5.1,0,0,0-1.024-3.391,3.644,3.644,0,0,0-2.9-1.227ZM-32.722.176a4.155,4.155,0,0,1-3.146-1.27,4.714,4.714,0,0,1-1.213-3.4v-.3a5.707,5.707,0,0,1,.541-2.527,4.217,4.217,0,0,1,1.512-1.74,3.8,3.8,0,0,1,2.1-.628,3.562,3.562,0,0,1,2.883,1.222,5.289,5.289,0,0,1,1.028,3.5v.677h-6.442a3.38,3.38,0,0,0,.822,2.272,2.583,2.583,0,0,0,2,.866A2.832,2.832,0,0,0-31.175-1.5a3.666,3.666,0,0,0,1.046-.932l.993.773A3.993,3.993,0,0,1-32.722.176Zm-.2-8.525a2.169,2.169,0,0,0-1.652.716A3.482,3.482,0,0,0-35.4-5.625h4.764v-.123a3.1,3.1,0,0,0-.668-1.92A2.042,2.042,0,0,0-32.924-8.35Zm7.33-1.16.053,1.2a3.465,3.465,0,0,1,2.848-1.371q3.015,0,3.041,3.4V0h-1.626V-6.293a2.189,2.189,0,0,0-.47-1.521,1.884,1.884,0,0,0-1.437-.492,2.347,2.347,0,0,0-1.389.422,2.865,2.865,0,0,0-.932,1.107V0h-1.626V-9.51ZM-15.434,0H-17.06V-9.51h1.626Zm-1.758-12.032a.971.971,0,0,1,.242-.668.907.907,0,0,1,.716-.272.922.922,0,0,1,.721.272.96.96,0,0,1,.246.668.929.929,0,0,1-.246.659.938.938,0,0,1-.721.264.924.924,0,0,1-.716-.264A.938.938,0,0,1-17.191-12.032ZM-8.886.176a4.155,4.155,0,0,1-3.146-1.27,4.714,4.714,0,0,1-1.213-3.4v-.3A5.707,5.707,0,0,1-12.7-7.317a4.217,4.217,0,0,1,1.512-1.74,3.8,3.8,0,0,1,2.1-.628A3.562,3.562,0,0,1-6.205-8.464a5.289,5.289,0,0,1,1.028,3.5v.677h-6.442A3.38,3.38,0,0,0-10.8-2.017a2.583,2.583,0,0,0,2,.866A2.832,2.832,0,0,0-7.339-1.5a3.666,3.666,0,0,0,1.046-.932l.993.773A3.993,3.993,0,0,1-8.886.176Zm-.2-8.525a2.169,2.169,0,0,0-1.652.716,3.482,3.482,0,0,0-.826,2.008H-6.8v-.123a3.1,3.1,0,0,0-.668-1.92A2.042,2.042,0,0,0-9.088-8.35Zm10.389.3a4.873,4.873,0,0,0-.8-.062A2.143,2.143,0,0,0-1.67-6.75V0H-3.3V-9.51h1.582l.026,1.1A2.532,2.532,0,0,1,.58-9.686a1.661,1.661,0,0,1,.721.123ZM7.189-5.194a13.589,13.589,0,0,1,.532-3.814,11.081,11.081,0,0,1,1.586-3.322A6.749,6.749,0,0,1,11.5-14.44l.334,1.072a7,7,0,0,0-2.1,3.006,13.031,13.031,0,0,0-.9,4.526l-.009.747A13.1,13.1,0,0,0,10.055.8,7.033,7.033,0,0,0,11.83,3.138l-.334.993a6.966,6.966,0,0,1-2.232-2.18A12.217,12.217,0,0,1,7.189-5.194ZM13.658,0V-12.8h3.612a5.815,5.815,0,0,1,2.953.738,4.993,4.993,0,0,1,1.982,2.1,6.837,6.837,0,0,1,.708,3.129v.817a6.861,6.861,0,0,1-.7,3.173,4.915,4.915,0,0,1-2,2.092A6.185,6.185,0,0,1,17.2,0Zm1.688-11.417V-1.38h1.775a3.863,3.863,0,0,0,3.037-1.214,5.016,5.016,0,0,0,1.085-3.457V-6.8a5.1,5.1,0,0,0-1.024-3.391,3.644,3.644,0,0,0-2.9-1.227ZM29.153.176a4.155,4.155,0,0,1-3.146-1.27,4.714,4.714,0,0,1-1.213-3.4v-.3a5.707,5.707,0,0,1,.541-2.527,4.217,4.217,0,0,1,1.512-1.74,3.8,3.8,0,0,1,2.1-.628,3.562,3.562,0,0,1,2.883,1.222,5.289,5.289,0,0,1,1.028,3.5v.677H26.42a3.38,3.38,0,0,0,.822,2.272,2.583,2.583,0,0,0,2,.866A2.832,2.832,0,0,0,30.7-1.5a3.666,3.666,0,0,0,1.046-.932l.993.773A3.993,3.993,0,0,1,29.153.176Zm-.2-8.525a2.169,2.169,0,0,0-1.652.716,3.482,3.482,0,0,0-.826,2.008h4.764v-.123a3.1,3.1,0,0,0-.668-1.92A2.042,2.042,0,0,0,28.951-8.35Zm7.33-1.16.053,1.2a3.465,3.465,0,0,1,2.848-1.371q3.015,0,3.041,3.4V0H40.6V-6.293a2.189,2.189,0,0,0-.47-1.521,1.884,1.884,0,0,0-1.437-.492,2.347,2.347,0,0,0-1.389.422,2.865,2.865,0,0,0-.932,1.107V0H34.743V-9.51Zm12.146,4.4a13.6,13.6,0,0,1-.514,3.757A11.11,11.11,0,0,1,46.34,1.969a6.893,6.893,0,0,1-2.219,2.162l-.343-.993A7.066,7.066,0,0,0,45.954-.083a13.935,13.935,0,0,0,.839-4.847v-.281a14.469,14.469,0,0,0-.387-3.432,11.583,11.583,0,0,0-1.077-2.843,6.567,6.567,0,0,0-1.551-1.96l.343-.993a6.866,6.866,0,0,1,2.21,2.145A11.134,11.134,0,0,1,47.9-8.982,13.909,13.909,0,0,1,48.428-5.106Z" transform="translate(365 19855)" fill="#12263f"/>
    <path id="Trazado_712409" data-name="Trazado 712409" d="M-54.062,0h-1.7L-62.2-9.861V0h-1.7V-12.8h1.7l6.46,9.905V-12.8h1.679Zm2.654-10.687a2.243,2.243,0,0,1,.655-1.6,2.113,2.113,0,0,1,1.586-.686,2.072,2.072,0,0,1,1.56.681,2.254,2.254,0,0,1,.646,1.6A2.19,2.19,0,0,1-47.606-9.1a2.1,2.1,0,0,1-1.56.659A2.158,2.158,0,0,1-50.748-9.1,2.168,2.168,0,0,1-51.407-10.687Zm2.241,1.125a1.113,1.113,0,0,0,.8-.311,1.07,1.07,0,0,0,.325-.81,1.138,1.138,0,0,0-.325-.836,1.082,1.082,0,0,0-.8-.328,1.079,1.079,0,0,0-.813.346,1.147,1.147,0,0,0-.33.819,1.074,1.074,0,0,0,.33.8A1.115,1.115,0,0,0-49.166-9.562ZM-37.705-12.8l4.184,10.441L-29.338-12.8h2.188V0h-1.687V-4.983l.158-5.379L-32.88,0h-1.292l-4.192-10.336.167,5.353V0h-1.687V-12.8ZM-20.479.176a4.155,4.155,0,0,1-3.146-1.27,4.714,4.714,0,0,1-1.213-3.4v-.3A5.707,5.707,0,0,1-24.3-7.317a4.217,4.217,0,0,1,1.512-1.74,3.8,3.8,0,0,1,2.1-.628A3.562,3.562,0,0,1-17.8-8.464a5.289,5.289,0,0,1,1.028,3.5v.677h-6.442a3.38,3.38,0,0,0,.822,2.272,2.583,2.583,0,0,0,2,.866A2.832,2.832,0,0,0-18.932-1.5a3.666,3.666,0,0,0,1.046-.932l.993.773A3.993,3.993,0,0,1-20.479.176Zm-.2-8.525a2.169,2.169,0,0,0-1.652.716,3.482,3.482,0,0,0-.826,2.008H-18.4v-.123a3.1,3.1,0,0,0-.668-1.92A2.042,2.042,0,0,0-20.681-8.35Zm.791-5.133h1.969L-20.276-10.9l-1.31,0Zm7.207,1.67v2.3h1.775v1.257h-1.775v5.9a1.32,1.32,0,0,0,.237.858,1,1,0,0,0,.809.286,3.937,3.937,0,0,0,.773-.105V0a4.742,4.742,0,0,1-1.248.175,2.025,2.025,0,0,1-1.644-.659,2.832,2.832,0,0,1-.554-1.872v-5.9H-16.04V-9.51h1.731v-2.3Zm8.271,3.762a4.873,4.873,0,0,0-.8-.062A2.143,2.143,0,0,0-7.383-6.75V0H-9.009V-9.51h1.582l.026,1.1A2.532,2.532,0,0,1-5.133-9.686a1.661,1.661,0,0,1,.721.123ZM-1.151,0H-2.777V-9.51h1.626ZM-2.909-12.032a.971.971,0,0,1,.242-.668.907.907,0,0,1,.716-.272.922.922,0,0,1,.721.272.96.96,0,0,1,.246.668.929.929,0,0,1-.246.659.938.938,0,0,1-.721.264.924.924,0,0,1-.716-.264A.938.938,0,0,1-2.909-12.032ZM5.265-1.151a2.342,2.342,0,0,0,1.521-.527A1.855,1.855,0,0,0,7.506-3H9.044a2.949,2.949,0,0,1-.562,1.556A3.7,3.7,0,0,1,7.1-.264,3.994,3.994,0,0,1,5.265.176a3.918,3.918,0,0,1-3.089-1.3A5.163,5.163,0,0,1,1.028-4.667v-.272a5.725,5.725,0,0,1,.51-2.47A3.883,3.883,0,0,1,3-9.088a4.157,4.157,0,0,1,2.254-.6,3.814,3.814,0,0,1,2.659.958A3.424,3.424,0,0,1,9.044-6.24H7.506a2.241,2.241,0,0,0-.7-1.516A2.174,2.174,0,0,0,5.256-8.35a2.276,2.276,0,0,0-1.92.892,4.19,4.19,0,0,0-.681,2.58v.308a4.106,4.106,0,0,0,.677,2.531A2.287,2.287,0,0,0,5.265-1.151Zm5.177-3.691a5.617,5.617,0,0,1,.549-2.514A4.1,4.1,0,0,1,12.52-9.079a4.163,4.163,0,0,1,2.237-.606A4.01,4.01,0,0,1,17.9-8.341a5.174,5.174,0,0,1,1.2,3.577v.114a5.666,5.666,0,0,1-.532,2.492A4.038,4.038,0,0,1,17.046-.439a4.211,4.211,0,0,1-2.272.615,4,4,0,0,1-3.133-1.345,5.147,5.147,0,0,1-1.2-3.56Zm1.635.193a4.068,4.068,0,0,0,.734,2.54,2.349,2.349,0,0,0,1.964.958,2.335,2.335,0,0,0,1.969-.971,4.449,4.449,0,0,0,.729-2.72,4.061,4.061,0,0,0-.743-2.536,2.361,2.361,0,0,0-1.973-.971,2.335,2.335,0,0,0-1.942.958A4.416,4.416,0,0,0,12.076-4.649Zm13.456-.545a13.589,13.589,0,0,1,.532-3.814,11.081,11.081,0,0,1,1.586-3.322,6.749,6.749,0,0,1,2.188-2.109l.334,1.072a7,7,0,0,0-2.1,3.006,13.031,13.031,0,0,0-.9,4.526l-.009.747A13.1,13.1,0,0,0,28.4.8a7.033,7.033,0,0,0,1.775,2.338l-.334.993a6.966,6.966,0,0,1-2.232-2.18A12.217,12.217,0,0,1,25.532-5.194ZM41.836,0h-1.7L33.7-9.861V0H32V-12.8h1.7l6.46,9.905V-12.8h1.679Zm4.271-9.51.044,1.055a3.512,3.512,0,0,1,2.821-1.23,2.719,2.719,0,0,1,2.716,1.529,3.6,3.6,0,0,1,1.235-1.107,3.647,3.647,0,0,1,1.8-.422q3.129,0,3.182,3.313V0H56.276V-6.275A2.184,2.184,0,0,0,55.811-7.8a2.051,2.051,0,0,0-1.564-.505,2.156,2.156,0,0,0-1.5.541,2.193,2.193,0,0,0-.694,1.455V0H50.414V-6.231a1.814,1.814,0,0,0-2.03-2.074A2.175,2.175,0,0,0,46.2-6.943V0H44.569V-9.51Zm18,4.4a13.6,13.6,0,0,1-.514,3.757A11.11,11.11,0,0,1,62.02,1.969,6.893,6.893,0,0,1,59.8,4.131l-.343-.993A7.066,7.066,0,0,0,61.633-.083a13.935,13.935,0,0,0,.839-4.847v-.281a14.469,14.469,0,0,0-.387-3.432,11.583,11.583,0,0,0-1.077-2.843,6.567,6.567,0,0,0-1.551-1.96l.343-.993a6.866,6.866,0,0,1,2.21,2.145,11.134,11.134,0,0,1,1.573,3.313A13.909,13.909,0,0,1,64.107-5.106Z" transform="translate(365 19925.006)" fill="#12263f"/>
    <path id="Trazado_712410" data-name="Trazado 712410" d="M-47.606-4.061A4.708,4.708,0,0,1-49.1-.927a4.911,4.911,0,0,1-3.353,1.1A4.509,4.509,0,0,1-56.092-1.45,6.542,6.542,0,0,1-57.458-5.8v-1.23a7.291,7.291,0,0,1,.637-3.138,4.76,4.76,0,0,1,1.806-2.079,5.029,5.029,0,0,1,2.707-.725,4.624,4.624,0,0,1,3.27,1.138,4.765,4.765,0,0,1,1.433,3.151h-1.7a3.677,3.677,0,0,0-.954-2.222,2.885,2.885,0,0,0-2.052-.688,3.019,3.019,0,0,0-2.536,1.2,5.492,5.492,0,0,0-.918,3.4v1.24a5.645,5.645,0,0,0,.87,3.316A2.812,2.812,0,0,0-52.458-1.2,3.247,3.247,0,0,0-50.3-1.841a3.536,3.536,0,0,0,1-2.219Zm1.617-.782a5.617,5.617,0,0,1,.549-2.514A4.1,4.1,0,0,1-43.91-9.079a4.163,4.163,0,0,1,2.237-.606,4.01,4.01,0,0,1,3.142,1.345,5.174,5.174,0,0,1,1.2,3.577v.114a5.666,5.666,0,0,1-.532,2.492A4.038,4.038,0,0,1-39.384-.439a4.211,4.211,0,0,1-2.272.615,4,4,0,0,1-3.133-1.345,5.147,5.147,0,0,1-1.2-3.56Zm1.635.193a4.068,4.068,0,0,0,.734,2.54,2.349,2.349,0,0,0,1.964.958,2.335,2.335,0,0,0,1.969-.971,4.449,4.449,0,0,0,.729-2.72A4.061,4.061,0,0,0-39.7-7.378a2.361,2.361,0,0,0-1.973-.971,2.335,2.335,0,0,0-1.942.958A4.416,4.416,0,0,0-44.354-4.649Zm11.268-7.163v2.3h1.775v1.257h-1.775v5.9a1.32,1.32,0,0,0,.237.858,1,1,0,0,0,.809.286,3.937,3.937,0,0,0,.773-.105V0a4.742,4.742,0,0,1-1.248.175,2.025,2.025,0,0,1-1.644-.659,2.832,2.832,0,0,1-.554-1.872v-5.9h-1.731V-9.51h1.731v-2.3Zm5.88,0v2.3h1.775v1.257h-1.775v5.9a1.32,1.32,0,0,0,.237.858,1,1,0,0,0,.809.286,3.937,3.937,0,0,0,.773-.105V0a4.742,4.742,0,0,1-1.248.175,2.025,2.025,0,0,1-1.644-.659,2.832,2.832,0,0,1-.554-1.872v-5.9h-1.731V-9.51h1.731v-2.3Zm3.067,6.97a5.617,5.617,0,0,1,.549-2.514,4.1,4.1,0,0,1,1.529-1.723,4.163,4.163,0,0,1,2.237-.606,4.01,4.01,0,0,1,3.142,1.345,5.174,5.174,0,0,1,1.2,3.577v.114a5.666,5.666,0,0,1-.532,2.492A4.038,4.038,0,0,1-17.534-.439a4.211,4.211,0,0,1-2.272.615,4,4,0,0,1-3.133-1.345,5.147,5.147,0,0,1-1.2-3.56Zm1.635.193a4.068,4.068,0,0,0,.734,2.54,2.349,2.349,0,0,0,1.964.958,2.335,2.335,0,0,0,1.969-.971,4.449,4.449,0,0,0,.729-2.72,4.061,4.061,0,0,0-.743-2.536,2.361,2.361,0,0,0-1.973-.971,2.335,2.335,0,0,0-1.942.958A4.416,4.416,0,0,0-22.5-4.649Zm10.6-4.86.053,1.2A3.465,3.465,0,0,1-9-9.686q3.015,0,3.041,3.4V0H-7.589V-6.293a2.189,2.189,0,0,0-.47-1.521A1.884,1.884,0,0,0-9.5-8.306a2.347,2.347,0,0,0-1.389.422,2.865,2.865,0,0,0-.932,1.107V0h-1.626V-9.51ZM11.035,0h-1.7L2.9-9.861V0H1.2V-12.8H2.9l6.46,9.905V-12.8h1.679Zm2.654-10.687a2.243,2.243,0,0,1,.655-1.6,2.113,2.113,0,0,1,1.586-.686,2.072,2.072,0,0,1,1.56.681,2.254,2.254,0,0,1,.646,1.6A2.19,2.19,0,0,1,17.49-9.1a2.1,2.1,0,0,1-1.56.659A2.158,2.158,0,0,1,14.348-9.1,2.168,2.168,0,0,1,13.689-10.687ZM15.93-9.562a1.113,1.113,0,0,0,.8-.311,1.07,1.07,0,0,0,.325-.81,1.138,1.138,0,0,0-.325-.836,1.082,1.082,0,0,0-.8-.328,1.079,1.079,0,0,0-.813.346,1.147,1.147,0,0,0-.33.819,1.074,1.074,0,0,0,.33.8A1.115,1.115,0,0,0,15.93-9.562ZM24.9-5.194a13.589,13.589,0,0,1,.532-3.814,11.081,11.081,0,0,1,1.586-3.322A6.749,6.749,0,0,1,29.2-14.44l.334,1.072a7,7,0,0,0-2.1,3.006,13.031,13.031,0,0,0-.9,4.526l-.009.747A13.1,13.1,0,0,0,27.76.8a7.033,7.033,0,0,0,1.775,2.338l-.334.993a6.966,6.966,0,0,1-2.232-2.18A12.217,12.217,0,0,1,24.9-5.194ZM41.2,0H39.5L33.06-9.861V0h-1.7V-12.8h1.7l6.46,9.905V-12.8H41.2Zm6.688.176a4.155,4.155,0,0,1-3.146-1.27,4.714,4.714,0,0,1-1.213-3.4v-.3a5.707,5.707,0,0,1,.541-2.527,4.217,4.217,0,0,1,1.512-1.74,3.8,3.8,0,0,1,2.1-.628,3.562,3.562,0,0,1,2.883,1.222,5.289,5.289,0,0,1,1.028,3.5v.677H45.154a3.38,3.38,0,0,0,.822,2.272,2.583,2.583,0,0,0,2,.866A2.832,2.832,0,0,0,49.434-1.5a3.666,3.666,0,0,0,1.046-.932l.993.773A3.993,3.993,0,0,1,47.887.176Zm-.2-8.525a2.169,2.169,0,0,0-1.652.716,3.482,3.482,0,0,0-.826,2.008H49.97v-.123a3.1,3.1,0,0,0-.668-1.92A2.042,2.042,0,0,0,47.685-8.35ZM57.23-5.106a13.6,13.6,0,0,1-.514,3.757,11.11,11.11,0,0,1-1.573,3.318,6.893,6.893,0,0,1-2.219,2.162l-.343-.993A7.066,7.066,0,0,0,54.756-.083,13.935,13.935,0,0,0,55.6-4.931v-.281a14.469,14.469,0,0,0-.387-3.432,11.583,11.583,0,0,0-1.077-2.843,6.567,6.567,0,0,0-1.551-1.96l.343-.993a6.866,6.866,0,0,1,2.21,2.145,11.134,11.134,0,0,1,1.573,3.313A13.909,13.909,0,0,1,57.23-5.106Z" transform="translate(365 19995.006)" fill="#12263f"/>
    <path id="Trazado_712411" data-name="Trazado 712411" d="M6.407,0H4.772V-10.837l-3.278,1.2v-1.477l4.658-1.749h.255Z" transform="translate(491 19715)" fill="#12263f"/>
    <path id="Trazado_712412" data-name="Trazado 712412" d="M6.407,0H4.772V-10.837l-3.278,1.2v-1.477l4.658-1.749h.255Z" transform="translate(625 19785)" fill="#12263f"/>
    <path id="Trazado_712413" data-name="Trazado 712413" d="M6.407,0H4.772V-10.837l-3.278,1.2v-1.477l4.658-1.749h.255Z" transform="translate(776.989 19855)" fill="#12263f"/>
    <path id="Trazado_712414" data-name="Trazado 712414" d="M6.407,0H4.772V-10.837l-3.278,1.2v-1.477l4.658-1.749h.255Z" transform="translate(946 19925.006)" fill="#12263f"/>
    <path id="Trazado_712415" data-name="Trazado 712415" d="M11.32,0h-1.7L3.182-9.861V0h-1.7V-12.8h1.7l6.46,9.905V-12.8H11.32Zm6.688.176a4.155,4.155,0,0,1-3.146-1.27,4.714,4.714,0,0,1-1.213-3.4v-.3a5.707,5.707,0,0,1,.541-2.527A4.217,4.217,0,0,1,15.7-9.057a3.8,3.8,0,0,1,2.1-.628,3.562,3.562,0,0,1,2.883,1.222,5.289,5.289,0,0,1,1.028,3.5v.677H15.275A3.38,3.38,0,0,0,16.1-2.017a2.583,2.583,0,0,0,2,.866A2.832,2.832,0,0,0,19.556-1.5,3.666,3.666,0,0,0,20.6-2.435l.993.773A3.993,3.993,0,0,1,18.009.176Zm-.2-8.525a2.169,2.169,0,0,0-1.652.716,3.482,3.482,0,0,0-.826,2.008h4.764v-.123a3.1,3.1,0,0,0-.668-1.92A2.042,2.042,0,0,0,17.807-8.35ZM31.245-6.038,33.354-9.51h1.9l-3.111,4.7L35.35,0H33.469l-2.2-3.56L29.074,0h-1.89l3.208-4.808-3.111-4.7h1.881ZM46.608,0H44.974V-10.837L41.7-9.633v-1.477l4.658-1.749h.255Zm4.966-.853a1.018,1.018,0,0,1,.25-.7.954.954,0,0,1,.751-.281.983.983,0,0,1,.76.281,1,1,0,0,1,.259.7.944.944,0,0,1-.259.677,1,1,0,0,1-.76.272.971.971,0,0,1-.751-.272A.962.962,0,0,1,51.574-.853ZM62.49-12.806v1.38h-.3A4.281,4.281,0,0,0,59.168-10.3a4.681,4.681,0,0,0-1.3,3.067,3.471,3.471,0,0,1,2.76-1.16,3.319,3.319,0,0,1,2.667,1.178,4.543,4.543,0,0,1,1,3.041,4.528,4.528,0,0,1-1.077,3.164A3.707,3.707,0,0,1,60.328.176a3.653,3.653,0,0,1-2.979-1.411,5.591,5.591,0,0,1-1.143-3.634v-.624a8.424,8.424,0,0,1,1.507-5.4A5.536,5.536,0,0,1,62.2-12.806ZM60.354-7.04a2.594,2.594,0,0,0-1.538.5,2.61,2.61,0,0,0-.976,1.257v.6a4.2,4.2,0,0,0,.712,2.549,2.133,2.133,0,0,0,1.775.967,2.067,2.067,0,0,0,1.727-.809A3.355,3.355,0,0,0,62.684-4.1a3.356,3.356,0,0,0-.637-2.131A2.042,2.042,0,0,0,60.354-7.04ZM72.448-5.625a3.978,3.978,0,0,1-1.217.976,3.3,3.3,0,0,1-1.551.369,3.41,3.41,0,0,1-1.929-.545,3.543,3.543,0,0,1-1.27-1.534,5.229,5.229,0,0,1-.448-2.184,5.327,5.327,0,0,1,.488-2.312A3.583,3.583,0,0,1,67.9-12.428,3.947,3.947,0,0,1,70-12.973a3.574,3.574,0,0,1,2.993,1.419,6.191,6.191,0,0,1,1.094,3.872v.475q0,3.735-1.477,5.454A5.673,5.673,0,0,1,68.15.009h-.316v-1.38h.343a4.476,4.476,0,0,0,3.094-1.048A4.5,4.5,0,0,0,72.448-5.625Zm-2.5,0a2.511,2.511,0,0,0,1.507-.5,2.953,2.953,0,0,0,1.006-1.239v-.65a4.474,4.474,0,0,0-.694-2.6,2.072,2.072,0,0,0-1.758-1,2.088,2.088,0,0,0-1.723.822,3.39,3.39,0,0,0-.65,2.167,3.528,3.528,0,0,0,.628,2.158A1.99,1.99,0,0,0,69.943-5.625Z" transform="translate(911 19995.006)" fill="#12263f"/>
    <path id="Trazado_712416" data-name="Trazado 712416" d="M9.088-5.458a7.436,7.436,0,0,1-.976,4.245A3.47,3.47,0,0,1,5.063.176,3.5,3.5,0,0,1,2.03-1.182a7.058,7.058,0,0,1-1.02-4.056V-7.409A7.271,7.271,0,0,1,1.986-11.6a3.5,3.5,0,0,1,3.059-1.371A3.528,3.528,0,0,1,8.086-11.65a7.017,7.017,0,0,1,1,4.083ZM7.462-7.682a5.958,5.958,0,0,0-.58-3.01,2,2,0,0,0-1.837-.945,1.97,1.97,0,0,0-1.819.94A5.817,5.817,0,0,0,2.637-7.8v2.6a6.053,6.053,0,0,0,.6,3.063,1.993,1.993,0,0,0,1.824.989,1.966,1.966,0,0,0,1.789-.932,5.834,5.834,0,0,0,.611-2.936ZM11.373-.853a1.018,1.018,0,0,1,.25-.7.954.954,0,0,1,.751-.281.983.983,0,0,1,.76.281,1,1,0,0,1,.259.7.944.944,0,0,1-.259.677,1,1,0,0,1-.76.272.971.971,0,0,1-.751-.272A.962.962,0,0,1,11.373-.853Zm5.282-5.563.65-6.381h6.557v1.5H18.686L18.3-7.8a4.13,4.13,0,0,1,2.136-.554A3.531,3.531,0,0,1,23.212-7.2,4.53,4.53,0,0,1,24.24-4.078,4.372,4.372,0,0,1,23.172-.962,3.892,3.892,0,0,1,20.188.176a4.045,4.045,0,0,1-2.769-.94,3.754,3.754,0,0,1-1.222-2.6h1.538a2.582,2.582,0,0,0,.782,1.657,2.432,2.432,0,0,0,1.67.558,2.194,2.194,0,0,0,1.78-.773,3.233,3.233,0,0,0,.646-2.136,2.968,2.968,0,0,0-.7-2.061A2.377,2.377,0,0,0,20.057-6.9a2.681,2.681,0,0,0-1.67.466l-.431.352Zm15.592.791a3.978,3.978,0,0,1-1.217.976,3.3,3.3,0,0,1-1.551.369,3.41,3.41,0,0,1-1.929-.545,3.543,3.543,0,0,1-1.27-1.534,5.229,5.229,0,0,1-.448-2.184,5.327,5.327,0,0,1,.488-2.312A3.583,3.583,0,0,1,27.7-12.428a3.947,3.947,0,0,1,2.092-.545,3.574,3.574,0,0,1,2.993,1.419,6.191,6.191,0,0,1,1.094,3.872v.475q0,3.735-1.477,5.454A5.673,5.673,0,0,1,27.949.009h-.316v-1.38h.343a4.476,4.476,0,0,0,3.094-1.048A4.5,4.5,0,0,0,32.247-5.625Zm-2.5,0a2.511,2.511,0,0,0,1.507-.5,2.953,2.953,0,0,0,1.006-1.239v-.65a4.474,4.474,0,0,0-.694-2.6,2.072,2.072,0,0,0-1.758-1,2.088,2.088,0,0,0-1.723.822,3.39,3.39,0,0,0-.65,2.167,3.528,3.528,0,0,0,.628,2.158A1.99,1.99,0,0,0,29.742-5.625Zm14.194-.413L46.046-9.51h1.9l-3.111,4.7L48.041,0H46.16l-2.2-3.56L41.766,0h-1.89l3.208-4.808-3.111-4.7h1.881ZM64.213,0h-1.7L56.074-9.861V0h-1.7V-12.8h1.7l6.46,9.905V-12.8h1.679Zm4.271-9.51.044,1.055a3.512,3.512,0,0,1,2.821-1.23,2.719,2.719,0,0,1,2.716,1.529A3.6,3.6,0,0,1,75.3-9.264a3.647,3.647,0,0,1,1.8-.422q3.129,0,3.182,3.313V0H78.653V-6.275A2.184,2.184,0,0,0,78.188-7.8a2.051,2.051,0,0,0-1.564-.505,2.156,2.156,0,0,0-1.5.541,2.193,2.193,0,0,0-.694,1.455V0H72.791V-6.231a1.814,1.814,0,0,0-2.03-2.074,2.175,2.175,0,0,0-2.188,1.362V0H66.946V-9.51Z" transform="translate(1085 19925.006)" fill="#12263f"/>
    <path id="Trazado_712417" data-name="Trazado 712417" d="M6.407,0H4.772V-10.837l-3.278,1.2v-1.477l4.658-1.749h.255Z" transform="translate(1122 19995.006)" fill="#12263f"/>
    <path id="Trazado_712418" data-name="Trazado 712418" d="M6.407,0H4.772V-10.837l-3.278,1.2v-1.477l4.658-1.749h.255ZM19.2-5.458a7.436,7.436,0,0,1-.976,4.245A3.47,3.47,0,0,1,15.17.176a3.5,3.5,0,0,1-3.032-1.358,7.058,7.058,0,0,1-1.02-4.056V-7.409a7.271,7.271,0,0,1,.976-4.192,3.5,3.5,0,0,1,3.059-1.371,3.528,3.528,0,0,1,3.041,1.323,7.017,7.017,0,0,1,1,4.083ZM17.569-7.682a5.958,5.958,0,0,0-.58-3.01,2,2,0,0,0-1.837-.945,1.97,1.97,0,0,0-1.819.94A5.817,5.817,0,0,0,12.744-7.8v2.6a6.053,6.053,0,0,0,.6,3.063,1.993,1.993,0,0,0,1.824.989,1.966,1.966,0,0,0,1.789-.932,5.834,5.834,0,0,0,.611-2.936ZM29.092-6.038,31.2-9.51h1.9l-3.111,4.7L33.2,0H31.315l-2.2-3.56L26.921,0h-1.89l3.208-4.808-3.111-4.7h1.881Zm12.393-5.774v2.3H43.26v1.257H41.484v5.9a1.32,1.32,0,0,0,.237.858,1,1,0,0,0,.809.286A3.937,3.937,0,0,0,43.3-1.31V0a4.742,4.742,0,0,1-1.248.175,2.025,2.025,0,0,1-1.644-.659,2.832,2.832,0,0,1-.554-1.872v-5.9H38.127V-9.51h1.731v-2.3ZM49.1.176a4.155,4.155,0,0,1-3.146-1.27,4.714,4.714,0,0,1-1.213-3.4v-.3a5.707,5.707,0,0,1,.541-2.527A4.217,4.217,0,0,1,46.8-9.057a3.8,3.8,0,0,1,2.1-.628,3.562,3.562,0,0,1,2.883,1.222,5.289,5.289,0,0,1,1.028,3.5v.677H46.371a3.38,3.38,0,0,0,.822,2.272,2.583,2.583,0,0,0,2,.866A2.832,2.832,0,0,0,50.651-1.5,3.666,3.666,0,0,0,51.7-2.435l.993.773A3.993,3.993,0,0,1,49.1.176ZM48.9-8.35a2.169,2.169,0,0,0-1.652.716,3.482,3.482,0,0,0-.826,2.008h4.764v-.123a3.1,3.1,0,0,0-.668-1.92A2.042,2.042,0,0,0,48.9-8.35Zm8.982,2.312L59.994-9.51h1.9l-3.111,4.7L61.989,0H60.108l-2.2-3.56L55.714,0h-1.89l3.208-4.808-3.111-4.7H55.8Z" transform="translate(599 19715)" fill="#12263f"/>
    <path id="Trazado_712419" data-name="Trazado 712419" d="M7.295-5.625a3.978,3.978,0,0,1-1.217.976,3.3,3.3,0,0,1-1.551.369A3.41,3.41,0,0,1,2.6-4.825a3.543,3.543,0,0,1-1.27-1.534A5.229,5.229,0,0,1,.879-8.543a5.327,5.327,0,0,1,.488-2.312,3.583,3.583,0,0,1,1.384-1.573,3.947,3.947,0,0,1,2.092-.545,3.574,3.574,0,0,1,2.993,1.419A6.191,6.191,0,0,1,8.93-7.682v.475q0,3.735-1.477,5.454A5.673,5.673,0,0,1,3,.009H2.681v-1.38h.343A4.476,4.476,0,0,0,6.117-2.419,4.5,4.5,0,0,0,7.295-5.625Zm-2.5,0a2.511,2.511,0,0,0,1.507-.5A2.953,2.953,0,0,0,7.3-7.365v-.65a4.474,4.474,0,0,0-.694-2.6,2.072,2.072,0,0,0-1.758-1,2.088,2.088,0,0,0-1.723.822,3.39,3.39,0,0,0-.65,2.167,3.528,3.528,0,0,0,.628,2.158A1.99,1.99,0,0,0,4.79-5.625Zm14.194-.413L21.094-9.51h1.9l-3.111,4.7L23.089,0H21.208l-2.2-3.56L16.813,0h-1.89l3.208-4.808-3.111-4.7H16.9Zm12.393-5.774v2.3h1.775v1.257H31.377v5.9a1.32,1.32,0,0,0,.237.858,1,1,0,0,0,.809.286A3.937,3.937,0,0,0,33.2-1.31V0a4.742,4.742,0,0,1-1.248.175A2.025,2.025,0,0,1,30.3-.483a2.832,2.832,0,0,1-.554-1.872v-5.9H28.02V-9.51h1.731v-2.3ZM39,.176a4.155,4.155,0,0,1-3.146-1.27,4.714,4.714,0,0,1-1.213-3.4v-.3a5.707,5.707,0,0,1,.541-2.527,4.217,4.217,0,0,1,1.512-1.74,3.8,3.8,0,0,1,2.1-.628,3.562,3.562,0,0,1,2.883,1.222,5.289,5.289,0,0,1,1.028,3.5v.677H36.264a3.38,3.38,0,0,0,.822,2.272,2.583,2.583,0,0,0,2,.866A2.832,2.832,0,0,0,40.544-1.5a3.666,3.666,0,0,0,1.046-.932l.993.773A3.993,3.993,0,0,1,39,.176Zm-.2-8.525a2.169,2.169,0,0,0-1.652.716,3.482,3.482,0,0,0-.826,2.008H41.08v-.123a3.1,3.1,0,0,0-.668-1.92A2.042,2.042,0,0,0,38.795-8.35Zm8.982,2.312L49.887-9.51h1.9l-3.111,4.7L51.882,0H50L47.8-3.56,45.606,0h-1.89l3.208-4.808-3.111-4.7h1.881Z" transform="translate(751.989 19715)" fill="#12263f"/>
    <path id="Trazado_712420" data-name="Trazado 712420" d="M-13.808,0h-1.635V-10.837l-3.278,1.2v-1.477l4.658-1.749h.255ZM-1.02-5.458A7.436,7.436,0,0,1-2-1.213,3.47,3.47,0,0,1-5.045.176,3.5,3.5,0,0,1-8.077-1.182,7.058,7.058,0,0,1-9.1-5.238V-7.409A7.271,7.271,0,0,1-8.121-11.6a3.5,3.5,0,0,1,3.059-1.371A3.528,3.528,0,0,1-2.021-11.65a7.017,7.017,0,0,1,1,4.083ZM-2.646-7.682a5.958,5.958,0,0,0-.58-3.01,2,2,0,0,0-1.837-.945,1.97,1.97,0,0,0-1.819.94A5.817,5.817,0,0,0-7.471-7.8v2.6a6.053,6.053,0,0,0,.6,3.063,1.993,1.993,0,0,0,1.824.989,1.966,1.966,0,0,0,1.789-.932,5.834,5.834,0,0,0,.611-2.936ZM9.088-5.458a7.436,7.436,0,0,1-.976,4.245A3.47,3.47,0,0,1,5.063.176,3.5,3.5,0,0,1,2.03-1.182a7.058,7.058,0,0,1-1.02-4.056V-7.409A7.271,7.271,0,0,1,1.986-11.6a3.5,3.5,0,0,1,3.059-1.371A3.528,3.528,0,0,1,8.086-11.65a7.017,7.017,0,0,1,1,4.083ZM7.462-7.682a5.958,5.958,0,0,0-.58-3.01,2,2,0,0,0-1.837-.945,1.97,1.97,0,0,0-1.819.94A5.817,5.817,0,0,0,2.637-7.8v2.6a6.053,6.053,0,0,0,.6,3.063,1.993,1.993,0,0,0,1.824.989,1.966,1.966,0,0,0,1.789-.932,5.834,5.834,0,0,0,.611-2.936ZM19.2-5.458a7.436,7.436,0,0,1-.976,4.245A3.47,3.47,0,0,1,15.17.176a3.5,3.5,0,0,1-3.032-1.358,7.058,7.058,0,0,1-1.02-4.056V-7.409a7.271,7.271,0,0,1,.976-4.192,3.5,3.5,0,0,1,3.059-1.371,3.528,3.528,0,0,1,3.041,1.323,7.017,7.017,0,0,1,1,4.083ZM17.569-7.682a5.958,5.958,0,0,0-.58-3.01,2,2,0,0,0-1.837-.945,1.97,1.97,0,0,0-1.819.94A5.817,5.817,0,0,0,12.744-7.8v2.6a6.053,6.053,0,0,0,.6,3.063,1.993,1.993,0,0,0,1.824.989,1.966,1.966,0,0,0,1.789-.932,5.834,5.834,0,0,0,.611-2.936Zm-26.3,20.869v2.3h1.775v1.257H-8.732v5.9a1.32,1.32,0,0,0,.237.858,1,1,0,0,0,.809.286,3.937,3.937,0,0,0,.773-.105V25a4.742,4.742,0,0,1-1.248.175A2.025,2.025,0,0,1-9.8,24.517a2.832,2.832,0,0,1-.554-1.872v-5.9h-1.731V15.49h1.731v-2.3Zm7.62,11.988a4.155,4.155,0,0,1-3.146-1.27,4.714,4.714,0,0,1-1.213-3.4v-.3a5.707,5.707,0,0,1,.541-2.527,4.217,4.217,0,0,1,1.512-1.74,3.8,3.8,0,0,1,2.1-.628,3.562,3.562,0,0,1,2.883,1.222,5.289,5.289,0,0,1,1.028,3.5v.677H-3.845a3.38,3.38,0,0,0,.822,2.272,2.583,2.583,0,0,0,2,.866A2.832,2.832,0,0,0,.435,23.5a3.666,3.666,0,0,0,1.046-.932l.993.773A3.993,3.993,0,0,1-1.112,25.176Zm-.2-8.525a2.169,2.169,0,0,0-1.652.716,3.482,3.482,0,0,0-.826,2.008H.971v-.123A3.1,3.1,0,0,0,.3,17.332,2.042,2.042,0,0,0-1.314,16.65Zm8.982,2.312L9.778,15.49h1.9l-3.111,4.7L11.773,25H9.892l-2.2-3.56L5.5,25H3.608l3.208-4.808L3.7,15.49H5.585Z" transform="translate(948 19700)" fill="#12263f"/>
    <path id="Trazado_712421" data-name="Trazado 712421" d="M-18.861,0H-20.5V-10.837l-3.278,1.2v-1.477l4.658-1.749h.255ZM-6.073-5.458a7.436,7.436,0,0,1-.976,4.245A3.47,3.47,0,0,1-10.1.176a3.5,3.5,0,0,1-3.032-1.358,7.058,7.058,0,0,1-1.02-4.056V-7.409a7.271,7.271,0,0,1,.976-4.192,3.5,3.5,0,0,1,3.059-1.371A3.528,3.528,0,0,1-7.075-11.65a7.017,7.017,0,0,1,1,4.083ZM-7.7-7.682a5.958,5.958,0,0,0-.58-3.01,2,2,0,0,0-1.837-.945,1.97,1.97,0,0,0-1.819.94A5.817,5.817,0,0,0-12.524-7.8v2.6a6.053,6.053,0,0,0,.6,3.063,1.993,1.993,0,0,0,1.824.989A1.966,1.966,0,0,0-8.31-2.083,5.834,5.834,0,0,0-7.7-5.019ZM4.034-5.458a7.436,7.436,0,0,1-.976,4.245A3.47,3.47,0,0,1,.009.176,3.5,3.5,0,0,1-3.023-1.182a7.058,7.058,0,0,1-1.02-4.056V-7.409A7.271,7.271,0,0,1-3.067-11.6,3.5,3.5,0,0,1-.009-12.973,3.528,3.528,0,0,1,3.032-11.65a7.017,7.017,0,0,1,1,4.083ZM2.408-7.682a5.958,5.958,0,0,0-.58-3.01,2,2,0,0,0-1.837-.945,1.97,1.97,0,0,0-1.819.94A5.817,5.817,0,0,0-2.417-7.8v2.6a6.053,6.053,0,0,0,.6,3.063,1.993,1.993,0,0,0,1.824.989A1.966,1.966,0,0,0,1.8-2.083a5.834,5.834,0,0,0,.611-2.936ZM14.142-5.458a7.436,7.436,0,0,1-.976,4.245A3.47,3.47,0,0,1,10.116.176,3.5,3.5,0,0,1,7.084-1.182a7.058,7.058,0,0,1-1.02-4.056V-7.409A7.271,7.271,0,0,1,7.04-11.6,3.5,3.5,0,0,1,10.1-12.973,3.528,3.528,0,0,1,13.14-11.65a7.017,7.017,0,0,1,1,4.083ZM12.516-7.682a5.958,5.958,0,0,0-.58-3.01,2,2,0,0,0-1.837-.945,1.97,1.97,0,0,0-1.819.94A5.817,5.817,0,0,0,7.69-7.8v2.6a6.053,6.053,0,0,0,.6,3.063,1.993,1.993,0,0,0,1.824.989A1.966,1.966,0,0,0,11.9-2.083a5.834,5.834,0,0,0,.611-2.936ZM24.249-5.458a7.436,7.436,0,0,1-.976,4.245A3.47,3.47,0,0,1,20.224.176a3.5,3.5,0,0,1-3.032-1.358,7.058,7.058,0,0,1-1.02-4.056V-7.409a7.271,7.271,0,0,1,.976-4.192,3.5,3.5,0,0,1,3.059-1.371,3.528,3.528,0,0,1,3.041,1.323,7.017,7.017,0,0,1,1,4.083ZM22.623-7.682a5.958,5.958,0,0,0-.58-3.01,2,2,0,0,0-1.837-.945,1.97,1.97,0,0,0-1.819.94A5.817,5.817,0,0,0,17.8-7.8v2.6a6.053,6.053,0,0,0,.6,3.063,1.993,1.993,0,0,0,1.824.989,1.966,1.966,0,0,0,1.789-.932,5.834,5.834,0,0,0,.611-2.936ZM-18.4,20.166a5.571,5.571,0,0,1,1.037-3.52,3.28,3.28,0,0,1,2.716-1.332,3.3,3.3,0,0,1,2.646,1.143V11.5h1.626V25h-1.494l-.079-1.02a3.311,3.311,0,0,1-2.716,1.2,3.248,3.248,0,0,1-2.694-1.354A5.634,5.634,0,0,1-18.4,20.289Zm1.626.185a4.218,4.218,0,0,0,.668,2.531,2.159,2.159,0,0,0,1.846.914,2.372,2.372,0,0,0,2.259-1.389V18.039a2.39,2.39,0,0,0-2.241-1.345,2.17,2.17,0,0,0-1.863.923A4.644,4.644,0,0,0-16.778,20.351ZM1.239,13.583H-2.874V25H-4.553V13.583h-4.1V12.2h9.9Zm4.72,11.593a4.155,4.155,0,0,1-3.146-1.27,4.714,4.714,0,0,1-1.213-3.4v-.3a5.707,5.707,0,0,1,.541-2.527,4.217,4.217,0,0,1,1.512-1.74,3.8,3.8,0,0,1,2.1-.628A3.562,3.562,0,0,1,8.64,16.536a5.289,5.289,0,0,1,1.028,3.5v.677H3.226a3.38,3.38,0,0,0,.822,2.272,2.583,2.583,0,0,0,2,.866A2.832,2.832,0,0,0,7.506,23.5a3.666,3.666,0,0,0,1.046-.932l.993.773A3.993,3.993,0,0,1,5.959,25.176Zm-.2-8.525a2.169,2.169,0,0,0-1.652.716,3.482,3.482,0,0,0-.826,2.008H8.042v-.123a3.1,3.1,0,0,0-.668-1.92A2.042,2.042,0,0,0,5.757,16.65Zm8.982,2.312,2.109-3.472h1.9l-3.111,4.7L18.844,25H16.963l-2.2-3.56L12.568,25h-1.89l3.208-4.808-3.111-4.7h1.881Z" transform="translate(948 19774.5)" fill="#12263f"/>
    <path id="Trazado_712422" data-name="Trazado 712422" d="M-12.92-5.625a3.978,3.978,0,0,1-1.217.976,3.3,3.3,0,0,1-1.551.369,3.41,3.41,0,0,1-1.929-.545,3.543,3.543,0,0,1-1.27-1.534,5.229,5.229,0,0,1-.448-2.184,5.327,5.327,0,0,1,.488-2.312,3.583,3.583,0,0,1,1.384-1.573,3.947,3.947,0,0,1,2.092-.545,3.574,3.574,0,0,1,2.993,1.419,6.191,6.191,0,0,1,1.094,3.872v.475q0,3.735-1.477,5.454A5.673,5.673,0,0,1-17.218.009h-.316v-1.38h.343A4.476,4.476,0,0,0-14.1-2.419,4.5,4.5,0,0,0-12.92-5.625Zm-2.5,0a2.511,2.511,0,0,0,1.507-.5,2.953,2.953,0,0,0,1.006-1.239v-.65a4.474,4.474,0,0,0-.694-2.6,2.072,2.072,0,0,0-1.758-1,2.088,2.088,0,0,0-1.723.822,3.39,3.39,0,0,0-.65,2.167,3.528,3.528,0,0,0,.628,2.158A1.99,1.99,0,0,0-15.425-5.625Zm14.405.167A7.436,7.436,0,0,1-2-1.213,3.47,3.47,0,0,1-5.045.176,3.5,3.5,0,0,1-8.077-1.182,7.058,7.058,0,0,1-9.1-5.238V-7.409A7.271,7.271,0,0,1-8.121-11.6a3.5,3.5,0,0,1,3.059-1.371A3.528,3.528,0,0,1-2.021-11.65a7.017,7.017,0,0,1,1,4.083ZM-2.646-7.682a5.958,5.958,0,0,0-.58-3.01,2,2,0,0,0-1.837-.945,1.97,1.97,0,0,0-1.819.94A5.817,5.817,0,0,0-7.471-7.8v2.6a6.053,6.053,0,0,0,.6,3.063,1.993,1.993,0,0,0,1.824.989,1.966,1.966,0,0,0,1.789-.932,5.834,5.834,0,0,0,.611-2.936ZM9.088-5.458a7.436,7.436,0,0,1-.976,4.245A3.47,3.47,0,0,1,5.063.176,3.5,3.5,0,0,1,2.03-1.182a7.058,7.058,0,0,1-1.02-4.056V-7.409A7.271,7.271,0,0,1,1.986-11.6a3.5,3.5,0,0,1,3.059-1.371A3.528,3.528,0,0,1,8.086-11.65a7.017,7.017,0,0,1,1,4.083ZM7.462-7.682a5.958,5.958,0,0,0-.58-3.01,2,2,0,0,0-1.837-.945,1.97,1.97,0,0,0-1.819.94A5.817,5.817,0,0,0,2.637-7.8v2.6a6.053,6.053,0,0,0,.6,3.063,1.993,1.993,0,0,0,1.824.989,1.966,1.966,0,0,0,1.789-.932,5.834,5.834,0,0,0,.611-2.936ZM19.2-5.458a7.436,7.436,0,0,1-.976,4.245A3.47,3.47,0,0,1,15.17.176a3.5,3.5,0,0,1-3.032-1.358,7.058,7.058,0,0,1-1.02-4.056V-7.409a7.271,7.271,0,0,1,.976-4.192,3.5,3.5,0,0,1,3.059-1.371,3.528,3.528,0,0,1,3.041,1.323,7.017,7.017,0,0,1,1,4.083ZM17.569-7.682a5.958,5.958,0,0,0-.58-3.01,2,2,0,0,0-1.837-.945,1.97,1.97,0,0,0-1.819.94A5.817,5.817,0,0,0,12.744-7.8v2.6a6.053,6.053,0,0,0,.6,3.063,1.993,1.993,0,0,0,1.824.989,1.966,1.966,0,0,0,1.789-.932,5.834,5.834,0,0,0,.611-2.936ZM-14.15,25V12.2h3.612a5.815,5.815,0,0,1,2.953.738,4.993,4.993,0,0,1,1.982,2.1A6.837,6.837,0,0,1-4.9,18.171v.817a6.861,6.861,0,0,1-.7,3.173,4.915,4.915,0,0,1-2,2.092A6.185,6.185,0,0,1-10.608,25Zm1.688-11.417V23.62h1.775a3.863,3.863,0,0,0,3.037-1.214,5.016,5.016,0,0,0,1.085-3.457V18.2A5.1,5.1,0,0,0-7.589,14.81a3.644,3.644,0,0,0-2.9-1.227ZM1.345,25.176A4.155,4.155,0,0,1-1.8,23.906a4.714,4.714,0,0,1-1.213-3.4v-.3a5.707,5.707,0,0,1,.541-2.527,4.217,4.217,0,0,1,1.512-1.74,3.8,3.8,0,0,1,2.1-.628,3.562,3.562,0,0,1,2.883,1.222,5.289,5.289,0,0,1,1.028,3.5v.677H-1.389a3.38,3.38,0,0,0,.822,2.272,2.583,2.583,0,0,0,2,.866A2.832,2.832,0,0,0,2.892,23.5a3.666,3.666,0,0,0,1.046-.932l.993.773A3.993,3.993,0,0,1,1.345,25.176Zm-.2-8.525a2.169,2.169,0,0,0-1.652.716,3.482,3.482,0,0,0-.826,2.008H3.428v-.123a3.1,3.1,0,0,0-.668-1.92A2.042,2.042,0,0,0,1.143,16.65Zm7.33-1.16.053,1.2a3.465,3.465,0,0,1,2.848-1.371q3.015,0,3.041,3.4V25H12.788V18.707a2.189,2.189,0,0,0-.47-1.521,1.884,1.884,0,0,0-1.437-.492,2.347,2.347,0,0,0-1.389.422,2.865,2.865,0,0,0-.932,1.107V25H6.935V15.49Z" transform="translate(948 19844.5)" fill="#12263f"/>
    <path id="Trazado_712423" data-name="Trazado 712423" d="M-12.92-5.625a3.978,3.978,0,0,1-1.217.976,3.3,3.3,0,0,1-1.551.369,3.41,3.41,0,0,1-1.929-.545,3.543,3.543,0,0,1-1.27-1.534,5.229,5.229,0,0,1-.448-2.184,5.327,5.327,0,0,1,.488-2.312,3.583,3.583,0,0,1,1.384-1.573,3.947,3.947,0,0,1,2.092-.545,3.574,3.574,0,0,1,2.993,1.419,6.191,6.191,0,0,1,1.094,3.872v.475q0,3.735-1.477,5.454A5.673,5.673,0,0,1-17.218.009h-.316v-1.38h.343A4.476,4.476,0,0,0-14.1-2.419,4.5,4.5,0,0,0-12.92-5.625Zm-2.5,0a2.511,2.511,0,0,0,1.507-.5,2.953,2.953,0,0,0,1.006-1.239v-.65a4.474,4.474,0,0,0-.694-2.6,2.072,2.072,0,0,0-1.758-1,2.088,2.088,0,0,0-1.723.822,3.39,3.39,0,0,0-.65,2.167,3.528,3.528,0,0,0,.628,2.158A1.99,1.99,0,0,0-15.425-5.625Zm14.405.167A7.436,7.436,0,0,1-2-1.213,3.47,3.47,0,0,1-5.045.176,3.5,3.5,0,0,1-8.077-1.182,7.058,7.058,0,0,1-9.1-5.238V-7.409A7.271,7.271,0,0,1-8.121-11.6a3.5,3.5,0,0,1,3.059-1.371A3.528,3.528,0,0,1-2.021-11.65a7.017,7.017,0,0,1,1,4.083ZM-2.646-7.682a5.958,5.958,0,0,0-.58-3.01,2,2,0,0,0-1.837-.945,1.97,1.97,0,0,0-1.819.94A5.817,5.817,0,0,0-7.471-7.8v2.6a6.053,6.053,0,0,0,.6,3.063,1.993,1.993,0,0,0,1.824.989,1.966,1.966,0,0,0,1.789-.932,5.834,5.834,0,0,0,.611-2.936ZM9.088-5.458a7.436,7.436,0,0,1-.976,4.245A3.47,3.47,0,0,1,5.063.176,3.5,3.5,0,0,1,2.03-1.182a7.058,7.058,0,0,1-1.02-4.056V-7.409A7.271,7.271,0,0,1,1.986-11.6a3.5,3.5,0,0,1,3.059-1.371A3.528,3.528,0,0,1,8.086-11.65a7.017,7.017,0,0,1,1,4.083ZM7.462-7.682a5.958,5.958,0,0,0-.58-3.01,2,2,0,0,0-1.837-.945,1.97,1.97,0,0,0-1.819.94A5.817,5.817,0,0,0,2.637-7.8v2.6a6.053,6.053,0,0,0,.6,3.063,1.993,1.993,0,0,0,1.824.989,1.966,1.966,0,0,0,1.789-.932,5.834,5.834,0,0,0,.611-2.936ZM19.2-5.458a7.436,7.436,0,0,1-.976,4.245A3.47,3.47,0,0,1,15.17.176a3.5,3.5,0,0,1-3.032-1.358,7.058,7.058,0,0,1-1.02-4.056V-7.409a7.271,7.271,0,0,1,.976-4.192,3.5,3.5,0,0,1,3.059-1.371,3.528,3.528,0,0,1,3.041,1.323,7.017,7.017,0,0,1,1,4.083ZM17.569-7.682a5.958,5.958,0,0,0-.58-3.01,2,2,0,0,0-1.837-.945,1.97,1.97,0,0,0-1.819.94A5.817,5.817,0,0,0,12.744-7.8v2.6a6.053,6.053,0,0,0,.6,3.063,1.993,1.993,0,0,0,1.824.989,1.966,1.966,0,0,0,1.789-.932,5.834,5.834,0,0,0,.611-2.936ZM-2.984,25h-1.7l-6.442-9.861V25h-1.7V12.2h1.7l6.46,9.905V12.2h1.679Zm4.271-9.51.044,1.055a3.512,3.512,0,0,1,2.821-1.23,2.719,2.719,0,0,1,2.716,1.529A3.6,3.6,0,0,1,8.1,15.736a3.647,3.647,0,0,1,1.8-.422q3.129,0,3.182,3.313V25H11.457V18.725a2.184,2.184,0,0,0-.466-1.525,2.051,2.051,0,0,0-1.564-.505,2.156,2.156,0,0,0-1.5.541,2.193,2.193,0,0,0-.694,1.455V25H5.594V18.769a1.814,1.814,0,0,0-2.03-2.074,2.175,2.175,0,0,0-2.188,1.362V25H-.25V15.49Z" transform="translate(782.229 19914.506)" fill="#12263f"/>
    <path id="Trazado_712424" data-name="Trazado 712424" d="M-18.4-6.416l.65-6.381H-11.2v1.5h-5.177L-16.761-7.8a4.13,4.13,0,0,1,2.136-.554A3.531,3.531,0,0,1-11.848-7.2a4.53,4.53,0,0,1,1.028,3.125A4.372,4.372,0,0,1-11.887-.962,3.892,3.892,0,0,1-14.871.176a4.045,4.045,0,0,1-2.769-.94,3.754,3.754,0,0,1-1.222-2.6h1.538a2.582,2.582,0,0,0,.782,1.657,2.432,2.432,0,0,0,1.67.558,2.194,2.194,0,0,0,1.78-.773,3.233,3.233,0,0,0,.646-2.136,2.968,2.968,0,0,0-.7-2.061A2.377,2.377,0,0,0-15-6.9a2.681,2.681,0,0,0-1.67.466l-.431.352ZM-6.68-7.189h1.222A2.685,2.685,0,0,0-3.647-7.8a2.026,2.026,0,0,0,.659-1.591,1.985,1.985,0,0,0-2.241-2.25,2.331,2.331,0,0,0-1.683.6,2.107,2.107,0,0,0-.628,1.6H-9.167a3.264,3.264,0,0,1,1.112-2.527,4.05,4.05,0,0,1,2.826-1.006,4,4,0,0,1,2.839.958A3.461,3.461,0,0,1-1.362-9.352,2.809,2.809,0,0,1-1.9-7.734,3.264,3.264,0,0,1-3.375-6.565a3.145,3.145,0,0,1,1.63,1.107,3.076,3.076,0,0,1,.576,1.89A3.491,3.491,0,0,1-2.294-.835,4.213,4.213,0,0,1-5.221.176,4.324,4.324,0,0,1-8.152-.8,3.236,3.236,0,0,1-9.281-3.375h1.635a2.092,2.092,0,0,0,.659,1.617,2.507,2.507,0,0,0,1.767.606,2.46,2.46,0,0,0,1.8-.615,2.371,2.371,0,0,0,.624-1.767A2.151,2.151,0,0,0-3.48-5.247a2.987,2.987,0,0,0-1.978-.615H-6.68ZM6.407,0H4.772V-10.837l-3.278,1.2v-1.477l4.658-1.749h.255ZM18.035-4.3h1.775v1.327H18.035V0H16.4V-2.971H10.573v-.958L16.3-12.8h1.731Zm-5.616,0H16.4v-6.275l-.193.352ZM.136,25h-1.7L-8,15.139V25H-9.7V12.2H-8l6.46,9.905V12.2H.136Zm6.688.176a4.155,4.155,0,0,1-3.146-1.27,4.714,4.714,0,0,1-1.213-3.4v-.3a5.707,5.707,0,0,1,.541-2.527,4.217,4.217,0,0,1,1.512-1.74,3.8,3.8,0,0,1,2.1-.628,3.562,3.562,0,0,1,2.883,1.222,5.289,5.289,0,0,1,1.028,3.5v.677H4.091a3.38,3.38,0,0,0,.822,2.272,2.583,2.583,0,0,0,2,.866A2.832,2.832,0,0,0,8.372,23.5a3.666,3.666,0,0,0,1.046-.932l.993.773A3.993,3.993,0,0,1,6.825,25.176Zm-.2-8.525a2.169,2.169,0,0,0-1.652.716,3.482,3.482,0,0,0-.826,2.008H8.908v-.123a3.1,3.1,0,0,0-.668-1.92A2.042,2.042,0,0,0,6.623,16.65Z" transform="translate(782.229 19984.506)" fill="#12263f"/>
    <path id="Trazado_712425" data-name="Trazado 712425" d="M-20.773-6.416l.65-6.381h6.557v1.5h-5.177L-19.129-7.8a4.13,4.13,0,0,1,2.136-.554A3.531,3.531,0,0,1-14.216-7.2a4.53,4.53,0,0,1,1.028,3.125A4.372,4.372,0,0,1-14.256-.962,3.892,3.892,0,0,1-17.24.176a4.045,4.045,0,0,1-2.769-.94,3.754,3.754,0,0,1-1.222-2.6h1.538a2.582,2.582,0,0,0,.782,1.657,2.432,2.432,0,0,0,1.67.558,2.194,2.194,0,0,0,1.78-.773,3.233,3.233,0,0,0,.646-2.136,2.968,2.968,0,0,0-.7-2.061A2.377,2.377,0,0,0-17.372-6.9a2.681,2.681,0,0,0-1.67.466l-.431.352Zm15.592.791A3.978,3.978,0,0,1-6.4-4.649,3.3,3.3,0,0,1-7.95-4.28a3.41,3.41,0,0,1-1.929-.545,3.543,3.543,0,0,1-1.27-1.534A5.229,5.229,0,0,1-11.6-8.543a5.327,5.327,0,0,1,.488-2.312,3.583,3.583,0,0,1,1.384-1.573,3.947,3.947,0,0,1,2.092-.545,3.574,3.574,0,0,1,2.993,1.419A6.191,6.191,0,0,1-3.546-7.682v.475q0,3.735-1.477,5.454A5.673,5.673,0,0,1-9.479.009H-9.8v-1.38h.343A4.476,4.476,0,0,0-6.359-2.419,4.5,4.5,0,0,0-5.181-5.625Zm-2.5,0a2.511,2.511,0,0,0,1.507-.5A2.953,2.953,0,0,0-5.172-7.365v-.65a4.474,4.474,0,0,0-.694-2.6,2.072,2.072,0,0,0-1.758-1,2.088,2.088,0,0,0-1.723.822A3.39,3.39,0,0,0-10-8.631a3.528,3.528,0,0,0,.628,2.158A1.99,1.99,0,0,0-7.686-5.625ZM-1.1-.853a1.018,1.018,0,0,1,.25-.7A.954.954,0,0,1-.1-1.837a.983.983,0,0,1,.76.281,1,1,0,0,1,.259.7.944.944,0,0,1-.259.677A1,1,0,0,1-.1.1.971.971,0,0,1-.853-.176.962.962,0,0,1-1.1-.853ZM8.776,0H7.141V-10.837l-3.278,1.2v-1.477l4.658-1.749h.255ZM21.564-5.458a7.436,7.436,0,0,1-.976,4.245A3.47,3.47,0,0,1,17.539.176a3.5,3.5,0,0,1-3.032-1.358,7.058,7.058,0,0,1-1.02-4.056V-7.409a7.271,7.271,0,0,1,.976-4.192,3.5,3.5,0,0,1,3.059-1.371,3.528,3.528,0,0,1,3.041,1.323,7.017,7.017,0,0,1,1,4.083ZM19.938-7.682a5.958,5.958,0,0,0-.58-3.01,2,2,0,0,0-1.837-.945,1.97,1.97,0,0,0-1.819.94A5.817,5.817,0,0,0,15.113-7.8v2.6a6.053,6.053,0,0,0,.6,3.063,1.993,1.993,0,0,0,1.824.989,1.966,1.966,0,0,0,1.789-.932,5.834,5.834,0,0,0,.611-2.936ZM-18.4,20.166a5.571,5.571,0,0,1,1.037-3.52,3.28,3.28,0,0,1,2.716-1.332,3.3,3.3,0,0,1,2.646,1.143V11.5h1.626V25h-1.494l-.079-1.02a3.311,3.311,0,0,1-2.716,1.2,3.248,3.248,0,0,1-2.694-1.354A5.634,5.634,0,0,1-18.4,20.289Zm1.626.185a4.218,4.218,0,0,0,.668,2.531,2.159,2.159,0,0,0,1.846.914,2.372,2.372,0,0,0,2.259-1.389V18.039a2.39,2.39,0,0,0-2.241-1.345,2.17,2.17,0,0,0-1.863.923A4.644,4.644,0,0,0-16.778,20.351ZM1.239,13.583H-2.874V25H-4.553V13.583h-4.1V12.2h9.9Zm4.72,11.593a4.155,4.155,0,0,1-3.146-1.27,4.714,4.714,0,0,1-1.213-3.4v-.3a5.707,5.707,0,0,1,.541-2.527,4.217,4.217,0,0,1,1.512-1.74,3.8,3.8,0,0,1,2.1-.628A3.562,3.562,0,0,1,8.64,16.536a5.289,5.289,0,0,1,1.028,3.5v.677H3.226a3.38,3.38,0,0,0,.822,2.272,2.583,2.583,0,0,0,2,.866A2.832,2.832,0,0,0,7.506,23.5a3.666,3.666,0,0,0,1.046-.932l.993.773A3.993,3.993,0,0,1,5.959,25.176Zm-.2-8.525a2.169,2.169,0,0,0-1.652.716,3.482,3.482,0,0,0-.826,2.008H8.042v-.123a3.1,3.1,0,0,0-.668-1.92A2.042,2.042,0,0,0,5.757,16.65Zm8.982,2.312,2.109-3.472h1.9l-3.111,4.7L18.844,25H16.963l-2.2-3.56L12.568,25h-1.89l3.208-4.808-3.111-4.7h1.881Z" transform="translate(1121 19774.5)" fill="#12263f"/>
    <path id="Trazado_712426" data-name="Trazado 712426" d="M-20.773-6.416l.65-6.381h6.557v1.5h-5.177L-19.129-7.8a4.13,4.13,0,0,1,2.136-.554A3.531,3.531,0,0,1-14.216-7.2a4.53,4.53,0,0,1,1.028,3.125A4.372,4.372,0,0,1-14.256-.962,3.892,3.892,0,0,1-17.24.176a4.045,4.045,0,0,1-2.769-.94,3.754,3.754,0,0,1-1.222-2.6h1.538a2.582,2.582,0,0,0,.782,1.657,2.432,2.432,0,0,0,1.67.558,2.194,2.194,0,0,0,1.78-.773,3.233,3.233,0,0,0,.646-2.136,2.968,2.968,0,0,0-.7-2.061A2.377,2.377,0,0,0-17.372-6.9a2.681,2.681,0,0,0-1.67.466l-.431.352Zm11.725-.773h1.222A2.685,2.685,0,0,0-6.016-7.8a2.026,2.026,0,0,0,.659-1.591A1.985,1.985,0,0,0-7.6-11.637a2.331,2.331,0,0,0-1.683.6,2.107,2.107,0,0,0-.628,1.6h-1.626a3.264,3.264,0,0,1,1.112-2.527A4.05,4.05,0,0,1-7.6-12.973a4,4,0,0,1,2.839.958A3.461,3.461,0,0,1-3.731-9.352a2.809,2.809,0,0,1-.541,1.617A3.264,3.264,0,0,1-5.744-6.565a3.145,3.145,0,0,1,1.63,1.107,3.076,3.076,0,0,1,.576,1.89A3.491,3.491,0,0,1-4.663-.835,4.213,4.213,0,0,1-7.589.176,4.324,4.324,0,0,1-10.521-.8,3.236,3.236,0,0,1-11.65-3.375h1.635a2.092,2.092,0,0,0,.659,1.617,2.507,2.507,0,0,0,1.767.606,2.46,2.46,0,0,0,1.8-.615,2.371,2.371,0,0,0,.624-1.767,2.151,2.151,0,0,0-.686-1.714,2.987,2.987,0,0,0-1.978-.615H-9.048ZM-1.1-.853a1.018,1.018,0,0,1,.25-.7A.954.954,0,0,1-.1-1.837a.983.983,0,0,1,.76.281,1,1,0,0,1,.259.7.944.944,0,0,1-.259.677A1,1,0,0,1-.1.1.971.971,0,0,1-.853-.176.962.962,0,0,1-1.1-.853ZM8.776,0H7.141V-10.837l-3.278,1.2v-1.477l4.658-1.749h.255ZM20.4-4.3h1.775v1.327H20.4V0H18.769V-2.971H12.942v-.958l5.73-8.868H20.4Zm-5.616,0h3.981v-6.275l-.193.352ZM-14.15,25V12.2h3.612a5.815,5.815,0,0,1,2.953.738,4.993,4.993,0,0,1,1.982,2.1A6.837,6.837,0,0,1-4.9,18.171v.817a6.861,6.861,0,0,1-.7,3.173,4.915,4.915,0,0,1-2,2.092A6.185,6.185,0,0,1-10.608,25Zm1.688-11.417V23.62h1.775a3.863,3.863,0,0,0,3.037-1.214,5.016,5.016,0,0,0,1.085-3.457V18.2A5.1,5.1,0,0,0-7.589,14.81a3.644,3.644,0,0,0-2.9-1.227ZM1.345,25.176A4.155,4.155,0,0,1-1.8,23.906a4.714,4.714,0,0,1-1.213-3.4v-.3a5.707,5.707,0,0,1,.541-2.527,4.217,4.217,0,0,1,1.512-1.74,3.8,3.8,0,0,1,2.1-.628,3.562,3.562,0,0,1,2.883,1.222,5.289,5.289,0,0,1,1.028,3.5v.677H-1.389a3.38,3.38,0,0,0,.822,2.272,2.583,2.583,0,0,0,2,.866A2.832,2.832,0,0,0,2.892,23.5a3.666,3.666,0,0,0,1.046-.932l.993.773A3.993,3.993,0,0,1,1.345,25.176Zm-.2-8.525a2.169,2.169,0,0,0-1.652.716,3.482,3.482,0,0,0-.826,2.008H3.428v-.123a3.1,3.1,0,0,0-.668-1.92A2.042,2.042,0,0,0,1.143,16.65Zm7.33-1.16.053,1.2a3.465,3.465,0,0,1,2.848-1.371q3.015,0,3.041,3.4V25H12.788V18.707a2.189,2.189,0,0,0-.47-1.521,1.884,1.884,0,0,0-1.437-.492,2.347,2.347,0,0,0-1.389.422,2.865,2.865,0,0,0-.932,1.107V25H6.935V15.49Z" transform="translate(1121 19844.5)" fill="#12263f"/>
    <path id="Trazado_712427" data-name="Trazado 712427" d="M-18.4-4.834a5.571,5.571,0,0,1,1.037-3.52,3.28,3.28,0,0,1,2.716-1.332,3.3,3.3,0,0,1,2.646,1.143V-13.5h1.626V0h-1.494l-.079-1.02a3.311,3.311,0,0,1-2.716,1.2,3.248,3.248,0,0,1-2.694-1.354A5.634,5.634,0,0,1-18.4-4.711Zm1.626.185a4.218,4.218,0,0,0,.668,2.531,2.159,2.159,0,0,0,1.846.914,2.372,2.372,0,0,0,2.259-1.389V-6.961a2.39,2.39,0,0,0-2.241-1.345,2.17,2.17,0,0,0-1.863.923A4.644,4.644,0,0,0-16.778-4.649ZM1.239-11.417H-2.874V0H-4.553V-11.417h-4.1V-12.8h9.9ZM5.959.176a4.155,4.155,0,0,1-3.146-1.27A4.714,4.714,0,0,1,1.6-4.491v-.3A5.707,5.707,0,0,1,2.14-7.317a4.217,4.217,0,0,1,1.512-1.74,3.8,3.8,0,0,1,2.1-.628A3.562,3.562,0,0,1,8.64-8.464a5.289,5.289,0,0,1,1.028,3.5v.677H3.226a3.38,3.38,0,0,0,.822,2.272,2.583,2.583,0,0,0,2,.866A2.832,2.832,0,0,0,7.506-1.5a3.666,3.666,0,0,0,1.046-.932l.993.773A3.993,3.993,0,0,1,5.959.176Zm-.2-8.525A2.169,2.169,0,0,0,4.1-7.633a3.482,3.482,0,0,0-.826,2.008H8.042v-.123a3.1,3.1,0,0,0-.668-1.92A2.042,2.042,0,0,0,5.757-8.35Zm8.982,2.312L16.849-9.51h1.9l-3.111,4.7L18.844,0H16.963l-2.2-3.56L12.568,0h-1.89l3.208-4.808-3.111-4.7h1.881ZM-3.7,25H-5.335V14.163l-3.278,1.2V13.891l4.658-1.749H-3.7ZM9.088,19.542a7.436,7.436,0,0,1-.976,4.245,3.47,3.47,0,0,1-3.05,1.389A3.5,3.5,0,0,1,2.03,23.818a7.058,7.058,0,0,1-1.02-4.056V17.591A7.271,7.271,0,0,1,1.986,13.4a3.5,3.5,0,0,1,3.059-1.371A3.528,3.528,0,0,1,8.086,13.35a7.017,7.017,0,0,1,1,4.083ZM7.462,17.318a5.958,5.958,0,0,0-.58-3.01,2,2,0,0,0-1.837-.945,1.97,1.97,0,0,0-1.819.94A5.817,5.817,0,0,0,2.637,17.2v2.6a6.053,6.053,0,0,0,.6,3.063,1.993,1.993,0,0,0,1.824.989,1.966,1.966,0,0,0,1.789-.932,5.834,5.834,0,0,0,.611-2.936Z" transform="translate(496.24 19772.5)" fill="#12263f"/>
    <path id="Trazado_712428" data-name="Trazado 712428" d="M-14.15,0V-12.8h3.612a5.815,5.815,0,0,1,2.953.738A4.993,4.993,0,0,1-5.6-9.958,6.837,6.837,0,0,1-4.9-6.829v.817a6.861,6.861,0,0,1-.7,3.173,4.915,4.915,0,0,1-2,2.092A6.185,6.185,0,0,1-10.608,0Zm1.688-11.417V-1.38h1.775A3.863,3.863,0,0,0-7.651-2.594,5.016,5.016,0,0,0-6.565-6.051V-6.8A5.1,5.1,0,0,0-7.589-10.19a3.644,3.644,0,0,0-2.9-1.227ZM1.345.176A4.155,4.155,0,0,1-1.8-1.094a4.714,4.714,0,0,1-1.213-3.4v-.3a5.707,5.707,0,0,1,.541-2.527A4.217,4.217,0,0,1-.962-9.057a3.8,3.8,0,0,1,2.1-.628A3.562,3.562,0,0,1,4.025-8.464a5.289,5.289,0,0,1,1.028,3.5v.677H-1.389A3.38,3.38,0,0,0-.567-2.017a2.583,2.583,0,0,0,2,.866A2.832,2.832,0,0,0,2.892-1.5a3.666,3.666,0,0,0,1.046-.932l.993.773A3.993,3.993,0,0,1,1.345.176Zm-.2-8.525A2.169,2.169,0,0,0-.51-7.633a3.482,3.482,0,0,0-.826,2.008H3.428v-.123a3.1,3.1,0,0,0-.668-1.92A2.042,2.042,0,0,0,1.143-8.35Zm7.33-1.16.053,1.2a3.465,3.465,0,0,1,2.848-1.371q3.015,0,3.041,3.4V0H12.788V-6.293a2.189,2.189,0,0,0-.47-1.521,1.884,1.884,0,0,0-1.437-.492,2.347,2.347,0,0,0-1.389.422,2.865,2.865,0,0,0-.932,1.107V0H6.935V-9.51ZM2.241,19.375a3.978,3.978,0,0,1-1.217.976,3.3,3.3,0,0,1-1.551.369,3.41,3.41,0,0,1-1.929-.545,3.543,3.543,0,0,1-1.27-1.534,5.229,5.229,0,0,1-.448-2.184,5.327,5.327,0,0,1,.488-2.312A3.583,3.583,0,0,1-2.3,12.572a3.947,3.947,0,0,1,2.092-.545,3.574,3.574,0,0,1,2.993,1.419,6.191,6.191,0,0,1,1.094,3.872v.475q0,3.735-1.477,5.454a5.673,5.673,0,0,1-4.456,1.762h-.316v-1.38h.343a4.476,4.476,0,0,0,3.094-1.048A4.5,4.5,0,0,0,2.241,19.375Zm-2.5,0a2.511,2.511,0,0,0,1.507-.5A2.953,2.953,0,0,0,2.25,17.635v-.65a4.474,4.474,0,0,0-.694-2.6,2.072,2.072,0,0,0-1.758-1,2.088,2.088,0,0,0-1.723.822,3.39,3.39,0,0,0-.65,2.167,3.528,3.528,0,0,0,.628,2.158A1.99,1.99,0,0,0-.264,19.375Z" transform="translate(496.24 19842.5)" fill="#12263f"/>
    <path id="Trazado_712429" data-name="Trazado 712429" d="M-13.808,0h-1.635V-10.837l-3.278,1.2v-1.477l4.658-1.749h.255ZM-1.02-5.458A7.436,7.436,0,0,1-2-1.213,3.47,3.47,0,0,1-5.045.176,3.5,3.5,0,0,1-8.077-1.182,7.058,7.058,0,0,1-9.1-5.238V-7.409A7.271,7.271,0,0,1-8.121-11.6a3.5,3.5,0,0,1,3.059-1.371A3.528,3.528,0,0,1-2.021-11.65a7.017,7.017,0,0,1,1,4.083ZM-2.646-7.682a5.958,5.958,0,0,0-.58-3.01,2,2,0,0,0-1.837-.945,1.97,1.97,0,0,0-1.819.94A5.817,5.817,0,0,0-7.471-7.8v2.6a6.053,6.053,0,0,0,.6,3.063,1.993,1.993,0,0,0,1.824.989,1.966,1.966,0,0,0,1.789-.932,5.834,5.834,0,0,0,.611-2.936ZM9.088-5.458a7.436,7.436,0,0,1-.976,4.245A3.47,3.47,0,0,1,5.063.176,3.5,3.5,0,0,1,2.03-1.182a7.058,7.058,0,0,1-1.02-4.056V-7.409A7.271,7.271,0,0,1,1.986-11.6a3.5,3.5,0,0,1,3.059-1.371A3.528,3.528,0,0,1,8.086-11.65a7.017,7.017,0,0,1,1,4.083ZM7.462-7.682a5.958,5.958,0,0,0-.58-3.01,2,2,0,0,0-1.837-.945,1.97,1.97,0,0,0-1.819.94A5.817,5.817,0,0,0,2.637-7.8v2.6a6.053,6.053,0,0,0,.6,3.063,1.993,1.993,0,0,0,1.824.989,1.966,1.966,0,0,0,1.789-.932,5.834,5.834,0,0,0,.611-2.936ZM19.2-5.458a7.436,7.436,0,0,1-.976,4.245A3.47,3.47,0,0,1,15.17.176a3.5,3.5,0,0,1-3.032-1.358,7.058,7.058,0,0,1-1.02-4.056V-7.409a7.271,7.271,0,0,1,.976-4.192,3.5,3.5,0,0,1,3.059-1.371,3.528,3.528,0,0,1,3.041,1.323,7.017,7.017,0,0,1,1,4.083ZM17.569-7.682a5.958,5.958,0,0,0-.58-3.01,2,2,0,0,0-1.837-.945,1.97,1.97,0,0,0-1.819.94A5.817,5.817,0,0,0,12.744-7.8v2.6a6.053,6.053,0,0,0,.6,3.063,1.993,1.993,0,0,0,1.824.989,1.966,1.966,0,0,0,1.789-.932,5.834,5.834,0,0,0,.611-2.936ZM-2.984,25h-1.7l-6.442-9.861V25h-1.7V12.2h1.7l6.46,9.905V12.2h1.679Zm4.271-9.51.044,1.055a3.512,3.512,0,0,1,2.821-1.23,2.719,2.719,0,0,1,2.716,1.529A3.6,3.6,0,0,1,8.1,15.736a3.647,3.647,0,0,1,1.8-.422q3.129,0,3.182,3.313V25H11.457V18.725a2.184,2.184,0,0,0-.466-1.525,2.051,2.051,0,0,0-1.564-.505,2.156,2.156,0,0,0-1.5.541,2.193,2.193,0,0,0-.694,1.455V25H5.594V18.769a1.814,1.814,0,0,0-2.03-2.074,2.175,2.175,0,0,0-2.188,1.362V25H-.25V15.49Z" transform="translate(496.24 19912.506)" fill="#12263f"/>
    <path id="Trazado_712430" data-name="Trazado 712430" d="M-13.351-6.416l.65-6.381h6.557v1.5H-11.32L-11.707-7.8a4.13,4.13,0,0,1,2.136-.554A3.531,3.531,0,0,1-6.794-7.2,4.53,4.53,0,0,1-5.766-4.078,4.372,4.372,0,0,1-6.833-.962,3.892,3.892,0,0,1-9.817.176a4.045,4.045,0,0,1-2.769-.94,3.754,3.754,0,0,1-1.222-2.6h1.538a2.582,2.582,0,0,0,.782,1.657,2.432,2.432,0,0,0,1.67.558,2.194,2.194,0,0,0,1.78-.773,3.233,3.233,0,0,0,.646-2.136,2.968,2.968,0,0,0-.7-2.061A2.377,2.377,0,0,0-9.949-6.9a2.681,2.681,0,0,0-1.67.466l-.431.352Zm15.592.791a3.978,3.978,0,0,1-1.217.976A3.3,3.3,0,0,1-.527-4.28a3.41,3.41,0,0,1-1.929-.545,3.543,3.543,0,0,1-1.27-1.534,5.229,5.229,0,0,1-.448-2.184,5.327,5.327,0,0,1,.488-2.312A3.583,3.583,0,0,1-2.3-12.428a3.947,3.947,0,0,1,2.092-.545,3.574,3.574,0,0,1,2.993,1.419A6.191,6.191,0,0,1,3.876-7.682v.475q0,3.735-1.477,5.454A5.673,5.673,0,0,1-2.057.009h-.316v-1.38h.343A4.476,4.476,0,0,0,1.063-2.419,4.5,4.5,0,0,0,2.241-5.625Zm-2.5,0a2.511,2.511,0,0,0,1.507-.5A2.953,2.953,0,0,0,2.25-7.365v-.65a4.474,4.474,0,0,0-.694-2.6,2.072,2.072,0,0,0-1.758-1,2.088,2.088,0,0,0-1.723.822,3.39,3.39,0,0,0-.65,2.167,3.528,3.528,0,0,0,.628,2.158A1.99,1.99,0,0,0-.264-5.625ZM11.461,0H9.826V-10.837l-3.278,1.2v-1.477l4.658-1.749h.255ZM.136,25h-1.7L-8,15.139V25H-9.7V12.2H-8l6.46,9.905V12.2H.136Zm6.688.176a4.155,4.155,0,0,1-3.146-1.27,4.714,4.714,0,0,1-1.213-3.4v-.3a5.707,5.707,0,0,1,.541-2.527,4.217,4.217,0,0,1,1.512-1.74,3.8,3.8,0,0,1,2.1-.628,3.562,3.562,0,0,1,2.883,1.222,5.289,5.289,0,0,1,1.028,3.5v.677H4.091a3.38,3.38,0,0,0,.822,2.272,2.583,2.583,0,0,0,2,.866A2.832,2.832,0,0,0,8.372,23.5a3.666,3.666,0,0,0,1.046-.932l.993.773A3.993,3.993,0,0,1,6.825,25.176Zm-.2-8.525a2.169,2.169,0,0,0-1.652.716,3.482,3.482,0,0,0-.826,2.008H8.908v-.123a3.1,3.1,0,0,0-.668-1.92A2.042,2.042,0,0,0,6.623,16.65Z" transform="translate(496.24 19982.506)" fill="#12263f"/>
    <path id="Trazado_712431" data-name="Trazado 712431" d="M-10.077-5.458a7.436,7.436,0,0,1-.976,4.245A3.47,3.47,0,0,1-14.1.176a3.5,3.5,0,0,1-3.032-1.358,7.058,7.058,0,0,1-1.02-4.056V-7.409a7.271,7.271,0,0,1,.976-4.192,3.5,3.5,0,0,1,3.059-1.371,3.528,3.528,0,0,1,3.041,1.323,7.017,7.017,0,0,1,1,4.083ZM-11.7-7.682a5.958,5.958,0,0,0-.58-3.01,2,2,0,0,0-1.837-.945,1.97,1.97,0,0,0-1.819.94A5.817,5.817,0,0,0-16.528-7.8v2.6a6.053,6.053,0,0,0,.6,3.063,1.993,1.993,0,0,0,1.824.989,1.966,1.966,0,0,0,1.789-.932A5.834,5.834,0,0,0-11.7-5.019ZM-7.792-.853a1.018,1.018,0,0,1,.25-.7.954.954,0,0,1,.751-.281.983.983,0,0,1,.76.281,1,1,0,0,1,.259.7.944.944,0,0,1-.259.677A1,1,0,0,1-6.79.1a.971.971,0,0,1-.751-.272A.962.962,0,0,1-7.792-.853ZM2.975-5.625a3.978,3.978,0,0,1-1.217.976A3.3,3.3,0,0,1,.207-4.28a3.41,3.41,0,0,1-1.929-.545,3.543,3.543,0,0,1-1.27-1.534,5.229,5.229,0,0,1-.448-2.184,5.327,5.327,0,0,1,.488-2.312,3.583,3.583,0,0,1,1.384-1.573,3.947,3.947,0,0,1,2.092-.545,3.574,3.574,0,0,1,2.993,1.419A6.191,6.191,0,0,1,4.61-7.682v.475q0,3.735-1.477,5.454A5.673,5.673,0,0,1-1.323.009h-.316v-1.38H-1.3A4.476,4.476,0,0,0,1.8-2.419,4.5,4.5,0,0,0,2.975-5.625Zm-2.5,0a2.511,2.511,0,0,0,1.507-.5A2.953,2.953,0,0,0,2.984-7.365v-.65a4.474,4.474,0,0,0-.694-2.6,2.072,2.072,0,0,0-1.758-1,2.088,2.088,0,0,0-1.723.822,3.39,3.39,0,0,0-.65,2.167,3.528,3.528,0,0,0,.628,2.158A1.99,1.99,0,0,0,.47-5.625Zm14.194-.413L16.774-9.51h1.9l-3.111,4.7L18.769,0H16.888l-2.2-3.56L12.494,0H10.6l3.208-4.808L10.7-9.51h1.881ZM-18.4,20.166a5.571,5.571,0,0,1,1.037-3.52,3.28,3.28,0,0,1,2.716-1.332,3.3,3.3,0,0,1,2.646,1.143V11.5h1.626V25h-1.494l-.079-1.02a3.311,3.311,0,0,1-2.716,1.2,3.248,3.248,0,0,1-2.694-1.354A5.634,5.634,0,0,1-18.4,20.289Zm1.626.185a4.218,4.218,0,0,0,.668,2.531,2.159,2.159,0,0,0,1.846.914,2.372,2.372,0,0,0,2.259-1.389V18.039a2.39,2.39,0,0,0-2.241-1.345,2.17,2.17,0,0,0-1.863.923A4.644,4.644,0,0,0-16.778,20.351ZM1.239,13.583H-2.874V25H-4.553V13.583h-4.1V12.2h9.9Zm4.72,11.593a4.155,4.155,0,0,1-3.146-1.27,4.714,4.714,0,0,1-1.213-3.4v-.3a5.707,5.707,0,0,1,.541-2.527,4.217,4.217,0,0,1,1.512-1.74,3.8,3.8,0,0,1,2.1-.628A3.562,3.562,0,0,1,8.64,16.536a5.289,5.289,0,0,1,1.028,3.5v.677H3.226a3.38,3.38,0,0,0,.822,2.272,2.583,2.583,0,0,0,2,.866A2.832,2.832,0,0,0,7.506,23.5a3.666,3.666,0,0,0,1.046-.932l.993.773A3.993,3.993,0,0,1,5.959,25.176Zm-.2-8.525a2.169,2.169,0,0,0-1.652.716,3.482,3.482,0,0,0-.826,2.008H8.042v-.123a3.1,3.1,0,0,0-.668-1.92A2.042,2.042,0,0,0,5.757,16.65Zm8.982,2.312,2.109-3.472h1.9l-3.111,4.7L18.844,25H16.963l-2.2-3.56L12.568,25h-1.89l3.208-4.808-3.111-4.7h1.881Z" transform="translate(778.481 19772.5)" fill="#12263f"/>
    <path id="Trazado_712432" data-name="Trazado 712432" d="M-14.15,0V-12.8h3.612a5.815,5.815,0,0,1,2.953.738A4.993,4.993,0,0,1-5.6-9.958,6.837,6.837,0,0,1-4.9-6.829v.817a6.861,6.861,0,0,1-.7,3.173,4.915,4.915,0,0,1-2,2.092A6.185,6.185,0,0,1-10.608,0Zm1.688-11.417V-1.38h1.775A3.863,3.863,0,0,0-7.651-2.594,5.016,5.016,0,0,0-6.565-6.051V-6.8A5.1,5.1,0,0,0-7.589-10.19a3.644,3.644,0,0,0-2.9-1.227ZM1.345.176A4.155,4.155,0,0,1-1.8-1.094a4.714,4.714,0,0,1-1.213-3.4v-.3a5.707,5.707,0,0,1,.541-2.527A4.217,4.217,0,0,1-.962-9.057a3.8,3.8,0,0,1,2.1-.628A3.562,3.562,0,0,1,4.025-8.464a5.289,5.289,0,0,1,1.028,3.5v.677H-1.389A3.38,3.38,0,0,0-.567-2.017a2.583,2.583,0,0,0,2,.866A2.832,2.832,0,0,0,2.892-1.5a3.666,3.666,0,0,0,1.046-.932l.993.773A3.993,3.993,0,0,1,1.345.176Zm-.2-8.525A2.169,2.169,0,0,0-.51-7.633a3.482,3.482,0,0,0-.826,2.008H3.428v-.123a3.1,3.1,0,0,0-.668-1.92A2.042,2.042,0,0,0,1.143-8.35Zm7.33-1.16.053,1.2a3.465,3.465,0,0,1,2.848-1.371q3.015,0,3.041,3.4V0H12.788V-6.293a2.189,2.189,0,0,0-.47-1.521,1.884,1.884,0,0,0-1.437-.492,2.347,2.347,0,0,0-1.389.422,2.865,2.865,0,0,0-.932,1.107V0H6.935V-9.51ZM-3.388,19.542a7.436,7.436,0,0,1-.976,4.245,3.47,3.47,0,0,1-3.05,1.389,3.5,3.5,0,0,1-3.032-1.358,7.058,7.058,0,0,1-1.02-4.056V17.591A7.271,7.271,0,0,1-10.49,13.4a3.5,3.5,0,0,1,3.059-1.371A3.528,3.528,0,0,1-4.39,13.35a7.017,7.017,0,0,1,1,4.083Zm-1.626-2.224a5.958,5.958,0,0,0-.58-3.01,2,2,0,0,0-1.837-.945,1.97,1.97,0,0,0-1.819.94A5.817,5.817,0,0,0-9.839,17.2v2.6a6.053,6.053,0,0,0,.6,3.063,1.993,1.993,0,0,0,1.824.989,1.966,1.966,0,0,0,1.789-.932,5.834,5.834,0,0,0,.611-2.936ZM-1.1,24.147a1.018,1.018,0,0,1,.25-.7A.954.954,0,0,1-.1,23.163a.983.983,0,0,1,.76.281,1,1,0,0,1,.259.7.944.944,0,0,1-.259.677A1,1,0,0,1-.1,25.1a.971.971,0,0,1-.751-.272A.962.962,0,0,1-1.1,24.147ZM9.664,19.375a3.978,3.978,0,0,1-1.217.976A3.3,3.3,0,0,1,6.9,20.72a3.41,3.41,0,0,1-1.929-.545A3.543,3.543,0,0,1,3.7,18.641a5.229,5.229,0,0,1-.448-2.184,5.327,5.327,0,0,1,.488-2.312A3.583,3.583,0,0,1,5.12,12.572a3.947,3.947,0,0,1,2.092-.545A3.574,3.574,0,0,1,10.2,13.447,6.191,6.191,0,0,1,11.3,17.318v.475q0,3.735-1.477,5.454a5.673,5.673,0,0,1-4.456,1.762H5.049v-1.38h.343a4.476,4.476,0,0,0,3.094-1.048A4.5,4.5,0,0,0,9.664,19.375Zm-2.5,0a2.511,2.511,0,0,0,1.507-.5,2.953,2.953,0,0,0,1.006-1.239v-.65a4.474,4.474,0,0,0-.694-2.6A2.122,2.122,0,0,0,5.5,14.2a3.39,3.39,0,0,0-.65,2.167,3.528,3.528,0,0,0,.628,2.158A1.99,1.99,0,0,0,7.159,19.375Z" transform="translate(630.593 19842.5)" fill="#12263f"/>
    <path id="Trazado_712433" data-name="Trazado 712433" d="M-18.861,0H-20.5V-10.837l-3.278,1.2v-1.477l4.658-1.749h.255ZM-6.073-5.458a7.436,7.436,0,0,1-.976,4.245A3.47,3.47,0,0,1-10.1.176a3.5,3.5,0,0,1-3.032-1.358,7.058,7.058,0,0,1-1.02-4.056V-7.409a7.271,7.271,0,0,1,.976-4.192,3.5,3.5,0,0,1,3.059-1.371A3.528,3.528,0,0,1-7.075-11.65a7.017,7.017,0,0,1,1,4.083ZM-7.7-7.682a5.958,5.958,0,0,0-.58-3.01,2,2,0,0,0-1.837-.945,1.97,1.97,0,0,0-1.819.94A5.817,5.817,0,0,0-12.524-7.8v2.6a6.053,6.053,0,0,0,.6,3.063,1.993,1.993,0,0,0,1.824.989A1.966,1.966,0,0,0-8.31-2.083,5.834,5.834,0,0,0-7.7-5.019ZM4.034-5.458a7.436,7.436,0,0,1-.976,4.245A3.47,3.47,0,0,1,.009.176,3.5,3.5,0,0,1-3.023-1.182a7.058,7.058,0,0,1-1.02-4.056V-7.409A7.271,7.271,0,0,1-3.067-11.6,3.5,3.5,0,0,1-.009-12.973,3.528,3.528,0,0,1,3.032-11.65a7.017,7.017,0,0,1,1,4.083ZM2.408-7.682a5.958,5.958,0,0,0-.58-3.01,2,2,0,0,0-1.837-.945,1.97,1.97,0,0,0-1.819.94A5.817,5.817,0,0,0-2.417-7.8v2.6a6.053,6.053,0,0,0,.6,3.063,1.993,1.993,0,0,0,1.824.989A1.966,1.966,0,0,0,1.8-2.083a5.834,5.834,0,0,0,.611-2.936ZM14.142-5.458a7.436,7.436,0,0,1-.976,4.245A3.47,3.47,0,0,1,10.116.176,3.5,3.5,0,0,1,7.084-1.182a7.058,7.058,0,0,1-1.02-4.056V-7.409A7.271,7.271,0,0,1,7.04-11.6,3.5,3.5,0,0,1,10.1-12.973,3.528,3.528,0,0,1,13.14-11.65a7.017,7.017,0,0,1,1,4.083ZM12.516-7.682a5.958,5.958,0,0,0-.58-3.01,2,2,0,0,0-1.837-.945,1.97,1.97,0,0,0-1.819.94A5.817,5.817,0,0,0,7.69-7.8v2.6a6.053,6.053,0,0,0,.6,3.063,1.993,1.993,0,0,0,1.824.989A1.966,1.966,0,0,0,11.9-2.083a5.834,5.834,0,0,0,.611-2.936ZM24.249-5.458a7.436,7.436,0,0,1-.976,4.245A3.47,3.47,0,0,1,20.224.176a3.5,3.5,0,0,1-3.032-1.358,7.058,7.058,0,0,1-1.02-4.056V-7.409a7.271,7.271,0,0,1,.976-4.192,3.5,3.5,0,0,1,3.059-1.371,3.528,3.528,0,0,1,3.041,1.323,7.017,7.017,0,0,1,1,4.083ZM22.623-7.682a5.958,5.958,0,0,0-.58-3.01,2,2,0,0,0-1.837-.945,1.97,1.97,0,0,0-1.819.94A5.817,5.817,0,0,0,17.8-7.8v2.6a6.053,6.053,0,0,0,.6,3.063,1.993,1.993,0,0,0,1.824.989,1.966,1.966,0,0,0,1.789-.932,5.834,5.834,0,0,0,.611-2.936ZM-2.984,25h-1.7l-6.442-9.861V25h-1.7V12.2h1.7l6.46,9.905V12.2h1.679Zm4.271-9.51.044,1.055a3.512,3.512,0,0,1,2.821-1.23,2.719,2.719,0,0,1,2.716,1.529A3.6,3.6,0,0,1,8.1,15.736a3.647,3.647,0,0,1,1.8-.422q3.129,0,3.182,3.313V25H11.457V18.725a2.184,2.184,0,0,0-.466-1.525,2.051,2.051,0,0,0-1.564-.505,2.156,2.156,0,0,0-1.5.541,2.193,2.193,0,0,0-.694,1.455V25H5.594V18.769a1.814,1.814,0,0,0-2.03-2.074,2.175,2.175,0,0,0-2.188,1.362V25H-.25V15.49Z" transform="translate(630.593 19912.506)" fill="#12263f"/>
    <path id="Trazado_712434" data-name="Trazado 712434" d="M-18.4-6.416l.65-6.381H-11.2v1.5h-5.177L-16.761-7.8a4.13,4.13,0,0,1,2.136-.554A3.531,3.531,0,0,1-11.848-7.2a4.53,4.53,0,0,1,1.028,3.125A4.372,4.372,0,0,1-11.887-.962,3.892,3.892,0,0,1-14.871.176a4.045,4.045,0,0,1-2.769-.94,3.754,3.754,0,0,1-1.222-2.6h1.538a2.582,2.582,0,0,0,.782,1.657,2.432,2.432,0,0,0,1.67.558,2.194,2.194,0,0,0,1.78-.773,3.233,3.233,0,0,0,.646-2.136,2.968,2.968,0,0,0-.7-2.061A2.377,2.377,0,0,0-15-6.9a2.681,2.681,0,0,0-1.67.466l-.431.352Zm15.592.791a3.978,3.978,0,0,1-1.217.976,3.3,3.3,0,0,1-1.551.369A3.41,3.41,0,0,1-7.51-4.825,3.543,3.543,0,0,1-8.78-6.359a5.229,5.229,0,0,1-.448-2.184,5.327,5.327,0,0,1,.488-2.312,3.583,3.583,0,0,1,1.384-1.573,3.947,3.947,0,0,1,2.092-.545,3.574,3.574,0,0,1,2.993,1.419A6.191,6.191,0,0,1-1.178-7.682v.475q0,3.735-1.477,5.454A5.673,5.673,0,0,1-7.11.009h-.316v-1.38h.343A4.476,4.476,0,0,0-3.99-2.419,4.5,4.5,0,0,0-2.812-5.625Zm-2.5,0a2.511,2.511,0,0,0,1.507-.5A2.953,2.953,0,0,0-2.8-7.365v-.65a4.474,4.474,0,0,0-.694-2.6,2.072,2.072,0,0,0-1.758-1,2.088,2.088,0,0,0-1.723.822,3.39,3.39,0,0,0-.65,2.167A3.528,3.528,0,0,0-7-6.473,1.99,1.99,0,0,0-5.317-5.625ZM6.407,0H4.772V-10.837l-3.278,1.2v-1.477l4.658-1.749h.255ZM19.2-5.458a7.436,7.436,0,0,1-.976,4.245A3.47,3.47,0,0,1,15.17.176a3.5,3.5,0,0,1-3.032-1.358,7.058,7.058,0,0,1-1.02-4.056V-7.409a7.271,7.271,0,0,1,.976-4.192,3.5,3.5,0,0,1,3.059-1.371,3.528,3.528,0,0,1,3.041,1.323,7.017,7.017,0,0,1,1,4.083ZM17.569-7.682a5.958,5.958,0,0,0-.58-3.01,2,2,0,0,0-1.837-.945,1.97,1.97,0,0,0-1.819.94A5.817,5.817,0,0,0,12.744-7.8v2.6a6.053,6.053,0,0,0,.6,3.063,1.993,1.993,0,0,0,1.824.989,1.966,1.966,0,0,0,1.789-.932,5.834,5.834,0,0,0,.611-2.936ZM.136,25h-1.7L-8,15.139V25H-9.7V12.2H-8l6.46,9.905V12.2H.136Zm6.688.176a4.155,4.155,0,0,1-3.146-1.27,4.714,4.714,0,0,1-1.213-3.4v-.3a5.707,5.707,0,0,1,.541-2.527,4.217,4.217,0,0,1,1.512-1.74,3.8,3.8,0,0,1,2.1-.628,3.562,3.562,0,0,1,2.883,1.222,5.289,5.289,0,0,1,1.028,3.5v.677H4.091a3.38,3.38,0,0,0,.822,2.272,2.583,2.583,0,0,0,2,.866A2.832,2.832,0,0,0,8.372,23.5a3.666,3.666,0,0,0,1.046-.932l.993.773A3.993,3.993,0,0,1,6.825,25.176Zm-.2-8.525a2.169,2.169,0,0,0-1.652.716,3.482,3.482,0,0,0-.826,2.008H8.908v-.123a3.1,3.1,0,0,0-.668-1.92A2.042,2.042,0,0,0,6.623,16.65Z" transform="translate(630.593 19982.506)" fill="#12263f"/>
    <path id="Trazado_712435" data-name="Trazado 712435" d="M-15.719-6.416l.65-6.381h6.557v1.5h-5.177L-14.076-7.8a4.13,4.13,0,0,1,2.136-.554A3.531,3.531,0,0,1-9.163-7.2,4.53,4.53,0,0,1-8.134-4.078,4.372,4.372,0,0,1-9.2-.962,3.892,3.892,0,0,1-12.186.176a4.045,4.045,0,0,1-2.769-.94,3.754,3.754,0,0,1-1.222-2.6h1.538a2.582,2.582,0,0,0,.782,1.657,2.432,2.432,0,0,0,1.67.558,2.194,2.194,0,0,0,1.78-.773A3.233,3.233,0,0,0-9.76-4.061a2.968,2.968,0,0,0-.7-2.061A2.377,2.377,0,0,0-12.318-6.9a2.681,2.681,0,0,0-1.67.466l-.431.352Zm15.592.791a3.978,3.978,0,0,1-1.217.976A3.3,3.3,0,0,1-2.9-4.28a3.41,3.41,0,0,1-1.929-.545A3.543,3.543,0,0,1-6.1-6.359a5.229,5.229,0,0,1-.448-2.184,5.327,5.327,0,0,1,.488-2.312,3.583,3.583,0,0,1,1.384-1.573,3.947,3.947,0,0,1,2.092-.545A3.574,3.574,0,0,1,.413-11.553,6.191,6.191,0,0,1,1.507-7.682v.475q0,3.735-1.477,5.454A5.673,5.673,0,0,1-4.425.009h-.316v-1.38H-4.4A4.476,4.476,0,0,0-1.305-2.419,4.5,4.5,0,0,0-.127-5.625Zm-2.5,0a2.511,2.511,0,0,0,1.507-.5A2.953,2.953,0,0,0-.119-7.365v-.65a4.474,4.474,0,0,0-.694-2.6,2.072,2.072,0,0,0-1.758-1,2.088,2.088,0,0,0-1.723.822,3.39,3.39,0,0,0-.65,2.167,3.528,3.528,0,0,0,.628,2.158A1.99,1.99,0,0,0-2.632-5.625ZM3.951-.853a1.018,1.018,0,0,1,.25-.7.954.954,0,0,1,.751-.281.983.983,0,0,1,.76.281,1,1,0,0,1,.259.7.944.944,0,0,1-.259.677A1,1,0,0,1,4.953.1.971.971,0,0,1,4.2-.176.962.962,0,0,1,3.951-.853ZM13.83,0H12.195V-10.837l-3.278,1.2v-1.477l4.658-1.749h.255ZM-8.732,13.188v2.3h1.775v1.257H-8.732v5.9a1.32,1.32,0,0,0,.237.858,1,1,0,0,0,.809.286,3.937,3.937,0,0,0,.773-.105V25a4.742,4.742,0,0,1-1.248.175A2.025,2.025,0,0,1-9.8,24.517a2.832,2.832,0,0,1-.554-1.872v-5.9h-1.731V15.49h1.731v-2.3Zm7.62,11.988a4.155,4.155,0,0,1-3.146-1.27,4.714,4.714,0,0,1-1.213-3.4v-.3a5.707,5.707,0,0,1,.541-2.527,4.217,4.217,0,0,1,1.512-1.74,3.8,3.8,0,0,1,2.1-.628,3.562,3.562,0,0,1,2.883,1.222,5.289,5.289,0,0,1,1.028,3.5v.677H-3.845a3.38,3.38,0,0,0,.822,2.272,2.583,2.583,0,0,0,2,.866A2.832,2.832,0,0,0,.435,23.5a3.666,3.666,0,0,0,1.046-.932l.993.773A3.993,3.993,0,0,1-1.112,25.176Zm-.2-8.525a2.169,2.169,0,0,0-1.652.716,3.482,3.482,0,0,0-.826,2.008H.971v-.123A3.1,3.1,0,0,0,.3,17.332,2.042,2.042,0,0,0-1.314,16.65Zm8.982,2.312L9.778,15.49h1.9l-3.111,4.7L11.773,25H9.892l-2.2-3.56L5.5,25H3.608l3.208-4.808L3.7,15.49H5.585Z" transform="translate(1121 19700)" fill="#12263f"/>
    <path id="Trazado_712436" data-name="Trazado 712436" d="M.967,17V4.2H5.089a6.064,6.064,0,0,1,3.05.769,5.406,5.406,0,0,1,2.114,2.171,6.554,6.554,0,0,1,.769,3.142v.589a6.592,6.592,0,0,1-.743,3.151A5.429,5.429,0,0,1,8.187,16.2a5.93,5.93,0,0,1-3.01.8ZM4.052,6.585v8.042H5.124a2.4,2.4,0,0,0,2.039-.945,4.63,4.63,0,0,0,.712-2.808V10.32a4.592,4.592,0,0,0-.712-2.795,2.442,2.442,0,0,0-2.074-.94ZM17.068,17.176a4.889,4.889,0,0,1-3.542-1.305,4.507,4.507,0,0,1-1.354-3.4v-.246a5.84,5.84,0,0,1,.541-2.575,3.955,3.955,0,0,1,1.578-1.727,4.763,4.763,0,0,1,2.461-.611,4.117,4.117,0,0,1,3.164,1.244,4.887,4.887,0,0,1,1.16,3.467v1.151H15.188a2.135,2.135,0,0,0,.694,1.257,2.066,2.066,0,0,0,1.389.457,2.662,2.662,0,0,0,2.2-.984l1.354,1.6a3.784,3.784,0,0,1-1.569,1.217A5.3,5.3,0,0,1,17.068,17.176ZM16.734,9.6q-1.3,0-1.547,1.723h2.988v-.229a1.467,1.467,0,0,0-.36-1.1A1.434,1.434,0,0,0,16.734,9.6ZM24.987,7.49l.1,1.116A3.225,3.225,0,0,1,27.8,7.314a2.713,2.713,0,0,1,2.219.888,4.226,4.226,0,0,1,.76,2.672V17H27.809V11a1.6,1.6,0,0,0-.29-1.059A1.342,1.342,0,0,0,26.464,9.6a1.413,1.413,0,0,0-1.292.686V17H22.21V7.49ZM35.543,17H32.572V7.49h2.971ZM32.4,5.029a1.334,1.334,0,0,1,.457-1.043,1.934,1.934,0,0,1,2.373,0,1.334,1.334,0,0,1,.457,1.043,1.334,1.334,0,0,1-.457,1.043,1.934,1.934,0,0,1-2.373,0A1.334,1.334,0,0,1,32.4,5.029Zm9.571,12.146a4.889,4.889,0,0,1-3.542-1.305,4.507,4.507,0,0,1-1.354-3.4v-.246a5.84,5.84,0,0,1,.541-2.575A3.955,3.955,0,0,1,39.19,7.925a4.763,4.763,0,0,1,2.461-.611,4.117,4.117,0,0,1,3.164,1.244,4.887,4.887,0,0,1,1.16,3.467v1.151H40.087a2.135,2.135,0,0,0,.694,1.257,2.066,2.066,0,0,0,1.389.457,2.662,2.662,0,0,0,2.2-.984l1.354,1.6a3.784,3.784,0,0,1-1.569,1.217A5.3,5.3,0,0,1,41.968,17.176ZM41.634,9.6q-1.3,0-1.547,1.723h2.988v-.229a1.467,1.467,0,0,0-.36-1.1A1.434,1.434,0,0,0,41.634,9.6Zm11.285.571-.976-.07a1.752,1.752,0,0,0-1.793.879V17H47.188V7.49h2.777l.1,1.222a2.294,2.294,0,0,1,2.083-1.4,2.888,2.888,0,0,1,.826.105ZM58.693,11.8a13.431,13.431,0,0,1,.571-3.99,9.629,9.629,0,0,1,1.578-3.129,5.6,5.6,0,0,1,2.237-1.793l.563,1.459a5.73,5.73,0,0,0-1.9,2.826,13.782,13.782,0,0,0-.681,4.5v.387a14.051,14.051,0,0,0,.672,4.588A5.706,5.706,0,0,0,63.642,19.5l-.562,1.459a5.547,5.547,0,0,1-2.237-1.8,9.484,9.484,0,0,1-1.578-3.116,13.5,13.5,0,0,1-.571-3.85ZM64.96,17V4.2h4.122a6.064,6.064,0,0,1,3.05.769,5.406,5.406,0,0,1,2.114,2.171,6.554,6.554,0,0,1,.769,3.142v.589a6.592,6.592,0,0,1-.743,3.151A5.429,5.429,0,0,1,72.18,16.2a5.93,5.93,0,0,1-3.01.8ZM68.045,6.585v8.042h1.072a2.4,2.4,0,0,0,2.039-.945,4.63,4.63,0,0,0,.712-2.808V10.32a4.592,4.592,0,0,0-.712-2.795,2.442,2.442,0,0,0-2.074-.94ZM81.062,17.176a4.889,4.889,0,0,1-3.542-1.305,4.507,4.507,0,0,1-1.354-3.4v-.246a5.84,5.84,0,0,1,.541-2.575,3.955,3.955,0,0,1,1.578-1.727,4.763,4.763,0,0,1,2.461-.611,4.117,4.117,0,0,1,3.164,1.244,4.887,4.887,0,0,1,1.16,3.467v1.151H79.181a2.135,2.135,0,0,0,.694,1.257,2.066,2.066,0,0,0,1.389.457,2.662,2.662,0,0,0,2.2-.984l1.354,1.6a3.784,3.784,0,0,1-1.569,1.217A5.3,5.3,0,0,1,81.062,17.176ZM80.728,9.6q-1.3,0-1.547,1.723h2.988v-.229a1.467,1.467,0,0,0-.36-1.1A1.434,1.434,0,0,0,80.728,9.6ZM88.98,7.49l.1,1.116a3.225,3.225,0,0,1,2.716-1.292,2.713,2.713,0,0,1,2.219.888,4.226,4.226,0,0,1,.76,2.672V17H91.8V11a1.6,1.6,0,0,0-.29-1.059A1.342,1.342,0,0,0,90.457,9.6a1.413,1.413,0,0,0-1.292.686V17H86.2V7.49Zm12.1,4.553a12.532,12.532,0,0,1-.606,3.92A10.008,10.008,0,0,1,98.8,19.149,5.574,5.574,0,0,1,96.5,20.955L95.933,19.5a5.787,5.787,0,0,0,1.89-2.812,13.577,13.577,0,0,0,.694-4.368v-.536a14.051,14.051,0,0,0-.672-4.588,5.706,5.706,0,0,0-1.912-2.848L96.5,2.885a5.676,5.676,0,0,1,2.29,1.789,9.885,9.885,0,0,1,1.67,3.138,12.426,12.426,0,0,1,.628,3.845Z" transform="translate(730.323 19624.5)" fill="#12263f"/>
    <path id="Trazado_712437" data-name="Trazado 712437" d="M11.654,0H8.587L4.052-7.963V0H.967V-12.8H4.052L8.578-4.834V-12.8h3.076Zm2.083-10.5a2.36,2.36,0,0,1,.734-1.749,2.4,2.4,0,0,1,1.736-.721,2.317,2.317,0,0,1,1.7.721,2.389,2.389,0,0,1,.716,1.749,2.35,2.35,0,0,1-.708,1.727,2.329,2.329,0,0,1-1.709.708,2.408,2.408,0,0,1-1.745-.708A2.321,2.321,0,0,1,13.737-10.5Zm2.47,1.09a1,1,0,0,0,.765-.316,1.084,1.084,0,0,0,.3-.773,1.147,1.147,0,0,0-.3-.791.98.98,0,0,0-.765-.334,1.055,1.055,0,0,0-.787.33,1.1,1.1,0,0,0-.321.8,1.027,1.027,0,0,0,.33.778A1.094,1.094,0,0,0,16.207-9.413ZM29.285-12.8l2.856,8.9,2.848-8.9H39.05V0H35.956V-2.988l.3-6.117L33.161,0H31.122l-3.1-9.114.3,6.126V0H25.233V-12.8ZM45.475.176a4.889,4.889,0,0,1-3.542-1.305,4.507,4.507,0,0,1-1.354-3.4v-.246a5.84,5.84,0,0,1,.541-2.575A3.955,3.955,0,0,1,42.7-9.075a4.763,4.763,0,0,1,2.461-.611,4.117,4.117,0,0,1,3.164,1.244,4.887,4.887,0,0,1,1.16,3.467v1.151H43.594a2.135,2.135,0,0,0,.694,1.257,2.066,2.066,0,0,0,1.389.457,2.662,2.662,0,0,0,2.2-.984l1.354,1.6A3.784,3.784,0,0,1,47.659-.277,5.3,5.3,0,0,1,45.475.176ZM45.141-7.4q-1.3,0-1.547,1.723h2.988v-.229a1.467,1.467,0,0,0-.36-1.1A1.434,1.434,0,0,0,45.141-7.4Zm-.035-6.108h3.129l-2.443,2.76-2.417,0Zm9.018,1.635V-9.51h1.564v2.057H54.123V-3.1a1.111,1.111,0,0,0,.193.747,1.037,1.037,0,0,0,.765.211,4.345,4.345,0,0,0,.738-.053V-.079a5.466,5.466,0,0,1-1.67.255,3.1,3.1,0,0,1-2.259-.721,2.954,2.954,0,0,1-.729-2.188v-4.72H49.948V-9.51h1.213v-2.364ZM62.6-6.829l-.976-.07a1.752,1.752,0,0,0-1.793.879V0H56.874V-9.51h2.777l.1,1.222a2.294,2.294,0,0,1,2.083-1.4,2.888,2.888,0,0,1,.826.105ZM66.8,0H63.826V-9.51H66.8ZM63.65-11.971a1.334,1.334,0,0,1,.457-1.043,1.718,1.718,0,0,1,1.187-.407,1.718,1.718,0,0,1,1.187.407,1.334,1.334,0,0,1,.457,1.043,1.334,1.334,0,0,1-.457,1.043,1.718,1.718,0,0,1-1.187.407,1.718,1.718,0,0,1-1.187-.407A1.334,1.334,0,0,1,63.65-11.971Zm8.991,9.861a1.317,1.317,0,0,0,.967-.338,1.241,1.241,0,0,0,.334-.945H76.72A3.288,3.288,0,0,1,75.6-.826a4.168,4.168,0,0,1-2.887,1,4.22,4.22,0,0,1-3.27-1.3,5.125,5.125,0,0,1-1.2-3.6v-.123A5.792,5.792,0,0,1,68.779-7.4a3.872,3.872,0,0,1,1.534-1.7,4.573,4.573,0,0,1,2.373-.593A4.116,4.116,0,0,1,75.63-8.657a3.647,3.647,0,0,1,1.09,2.786H73.942A1.626,1.626,0,0,0,73.582-7a1.244,1.244,0,0,0-.967-.4q-1.151,0-1.345,1.468a10.357,10.357,0,0,0-.062,1.283,4.068,4.068,0,0,0,.343,1.986A1.187,1.187,0,0,0,72.642-2.109ZM77.6-4.843a5.613,5.613,0,0,1,.554-2.536,3.96,3.96,0,0,1,1.591-1.709,4.791,4.791,0,0,1,2.435-.6,4.373,4.373,0,0,1,3.366,1.323,5.076,5.076,0,0,1,1.23,3.6v.105A4.925,4.925,0,0,1,85.54-1.129,4.384,4.384,0,0,1,82.2.176a4.434,4.434,0,0,1-3.261-1.217,4.761,4.761,0,0,1-1.327-3.3Zm2.962.185a3.538,3.538,0,0,0,.413,1.934,1.376,1.376,0,0,0,1.222.615q1.582,0,1.617-2.435v-.3q0-2.558-1.635-2.558-1.485,0-1.608,2.206ZM92.786-5.2a13.431,13.431,0,0,1,.571-3.99,9.629,9.629,0,0,1,1.578-3.129,5.6,5.6,0,0,1,2.237-1.793l.563,1.459a5.73,5.73,0,0,0-1.9,2.826,13.782,13.782,0,0,0-.681,4.5v.387a14.051,14.051,0,0,0,.672,4.588A5.706,5.706,0,0,0,97.734,2.5l-.562,1.459a5.547,5.547,0,0,1-2.237-1.8A9.484,9.484,0,0,1,93.357-.958a13.5,13.5,0,0,1-.571-3.85ZM109.74,0h-3.067l-4.535-7.963V0H99.053V-12.8h3.085l4.526,7.963V-12.8h3.076Zm4.614-9.51.1,1.116a3.27,3.27,0,0,1,2.716-1.292A2.407,2.407,0,0,1,119.6-8.253,3.165,3.165,0,0,1,122.4-9.686q2.892,0,2.971,3.5V0H122.4V-6a1.813,1.813,0,0,0-.246-1.063,1.048,1.048,0,0,0-.9-.334,1.4,1.4,0,0,0-1.31.782l.009.123V0h-2.971V-5.985a1.906,1.906,0,0,0-.237-1.081,1.045,1.045,0,0,0-.905-.334,1.42,1.42,0,0,0-1.3.782V0h-2.962V-9.51ZM131.73-4.957a12.532,12.532,0,0,1-.606,3.92,10.008,10.008,0,0,1-1.674,3.186,5.574,5.574,0,0,1-2.307,1.806L126.58,2.5a5.787,5.787,0,0,0,1.89-2.812,13.577,13.577,0,0,0,.694-4.368v-.536a14.051,14.051,0,0,0-.672-4.588,5.706,5.706,0,0,0-1.912-2.848l.563-1.459a5.676,5.676,0,0,1,2.29,1.789,9.885,9.885,0,0,1,1.67,3.138,12.426,12.426,0,0,1,.628,3.845Z" transform="translate(881 19644.5)" fill="#12263f"/>
    <path id="Trazado_712438" data-name="Trazado 712438" d="M11.32-4.333a4.673,4.673,0,0,1-.721,2.36A4.35,4.35,0,0,1,8.75-.387a6.3,6.3,0,0,1-2.72.563A5.025,5.025,0,0,1,2.057-1.468,6.786,6.786,0,0,1,.606-6.108v-.633a7.746,7.746,0,0,1,.655-3.292,4.961,4.961,0,0,1,1.885-2.18,5.26,5.26,0,0,1,2.848-.769,5.516,5.516,0,0,1,3.744,1.226,4.844,4.844,0,0,1,1.608,3.379H8.271a2.292,2.292,0,0,0-.589-1.679,2.422,2.422,0,0,0-1.687-.51A1.843,1.843,0,0,0,4.307-9.7a5.536,5.536,0,0,0-.562,2.751v.905A6.125,6.125,0,0,0,4.258-3.12a1.882,1.882,0,0,0,1.771.879,2.369,2.369,0,0,0,1.626-.5,2.126,2.126,0,0,0,.6-1.591Zm.949-.51a5.613,5.613,0,0,1,.554-2.536,3.96,3.96,0,0,1,1.591-1.709,4.791,4.791,0,0,1,2.435-.6,4.373,4.373,0,0,1,3.366,1.323,5.076,5.076,0,0,1,1.23,3.6v.105A4.925,4.925,0,0,1,20.21-1.129,4.384,4.384,0,0,1,16.866.176a4.434,4.434,0,0,1-3.261-1.217,4.761,4.761,0,0,1-1.327-3.3Zm2.962.185a3.538,3.538,0,0,0,.413,1.934,1.376,1.376,0,0,0,1.222.615q1.582,0,1.617-2.435v-.3q0-2.558-1.635-2.558-1.485,0-1.608,2.206ZM26.2-11.874V-9.51h1.564v2.057H26.2V-3.1a1.111,1.111,0,0,0,.193.747,1.037,1.037,0,0,0,.765.211A4.345,4.345,0,0,0,27.9-2.2V-.079a5.466,5.466,0,0,1-1.67.255,3.1,3.1,0,0,1-2.259-.721,2.954,2.954,0,0,1-.729-2.188v-4.72H22.025V-9.51h1.213v-2.364Zm6.179,0V-9.51h1.564v2.057H32.379V-3.1a1.111,1.111,0,0,0,.193.747,1.037,1.037,0,0,0,.765.211,4.345,4.345,0,0,0,.738-.053V-.079a5.466,5.466,0,0,1-1.67.255,3.1,3.1,0,0,1-2.259-.721,2.954,2.954,0,0,1-.729-2.188v-4.72H28.2V-9.51h1.213v-2.364Zm2.092,7.031a5.613,5.613,0,0,1,.554-2.536,3.96,3.96,0,0,1,1.591-1.709,4.791,4.791,0,0,1,2.435-.6,4.373,4.373,0,0,1,3.366,1.323,5.076,5.076,0,0,1,1.23,3.6v.105a4.925,4.925,0,0,1-1.235,3.529A4.384,4.384,0,0,1,39.067.176a4.434,4.434,0,0,1-3.261-1.217,4.761,4.761,0,0,1-1.327-3.3Zm2.962.185a3.538,3.538,0,0,0,.413,1.934,1.376,1.376,0,0,0,1.222.615q1.582,0,1.617-2.435v-.3q0-2.558-1.635-2.558-1.485,0-1.608,2.206ZM47.672-9.51l.1,1.116a3.225,3.225,0,0,1,2.716-1.292A2.713,2.713,0,0,1,52.7-8.8a4.226,4.226,0,0,1,.76,2.672V0H50.493V-6a1.6,1.6,0,0,0-.29-1.059A1.342,1.342,0,0,0,49.148-7.4a1.413,1.413,0,0,0-1.292.686V0H44.895V-9.51ZM70.409,0H67.342L62.807-7.963V0H59.722V-12.8h3.085l4.526,7.963V-12.8h3.076Zm2.083-10.5a2.36,2.36,0,0,1,.734-1.749,2.4,2.4,0,0,1,1.736-.721,2.317,2.317,0,0,1,1.7.721,2.389,2.389,0,0,1,.716,1.749,2.35,2.35,0,0,1-.708,1.727,2.329,2.329,0,0,1-1.709.708,2.408,2.408,0,0,1-1.745-.708A2.321,2.321,0,0,1,72.492-10.5Zm2.47,1.09a1,1,0,0,0,.765-.316,1.084,1.084,0,0,0,.3-.773,1.147,1.147,0,0,0-.3-.791.98.98,0,0,0-.765-.334,1.055,1.055,0,0,0-.787.33,1.1,1.1,0,0,0-.321.8,1.027,1.027,0,0,0,.33.778A1.094,1.094,0,0,0,74.962-9.413ZM84.076-5.2a13.431,13.431,0,0,1,.571-3.99,9.629,9.629,0,0,1,1.578-3.129,5.6,5.6,0,0,1,2.237-1.793l.563,1.459a5.73,5.73,0,0,0-1.9,2.826,13.782,13.782,0,0,0-.681,4.5v.387a14.051,14.051,0,0,0,.672,4.588A5.706,5.706,0,0,0,89.024,2.5l-.562,1.459a5.547,5.547,0,0,1-2.237-1.8A9.484,9.484,0,0,1,84.647-.958a13.5,13.5,0,0,1-.571-3.85ZM101.03,0H97.963L93.428-7.963V0H90.343V-12.8h3.085l4.526,7.963V-12.8h3.076Zm6.416.176A4.889,4.889,0,0,1,103.9-1.129a4.507,4.507,0,0,1-1.354-3.4v-.246a5.84,5.84,0,0,1,.541-2.575,3.955,3.955,0,0,1,1.578-1.727,4.763,4.763,0,0,1,2.461-.611,4.117,4.117,0,0,1,3.164,1.244,4.887,4.887,0,0,1,1.16,3.467v1.151h-5.889a2.135,2.135,0,0,0,.694,1.257,2.066,2.066,0,0,0,1.389.457,2.662,2.662,0,0,0,2.2-.984l1.354,1.6A3.784,3.784,0,0,1,109.63-.277,5.3,5.3,0,0,1,107.446.176ZM107.112-7.4q-1.3,0-1.547,1.723h2.988v-.229a1.467,1.467,0,0,0-.36-1.1A1.434,1.434,0,0,0,107.112-7.4Zm10.2,2.443a12.532,12.532,0,0,1-.606,3.92,10.008,10.008,0,0,1-1.674,3.186,5.574,5.574,0,0,1-2.307,1.806L112.166,2.5a5.787,5.787,0,0,0,1.89-2.812,13.577,13.577,0,0,0,.694-4.368v-.536a14.051,14.051,0,0,0-.672-4.588,5.706,5.706,0,0,0-1.912-2.848l.563-1.459a5.676,5.676,0,0,1,2.29,1.789,9.885,9.885,0,0,1,1.67,3.138,12.426,12.426,0,0,1,.628,3.845Z" transform="translate(1062.334 19644.5)" fill="#12263f"/>
    <path id="Trazado_706230" data-name="Trazado 706230" d="M-.231,2.276.091,422.506" transform="translate(710.231 19600.5)" fill="none" stroke="#e1e1e1" stroke-width="1"/>
    <path id="Trazado_706653" data-name="Trazado 706653" d="M-.231,2.276.091,422.506" transform="translate(859.231 19600.5)" fill="none" stroke="#e1e1e1" stroke-width="1"/>
    <path id="Trazado_706654" data-name="Trazado 706654" d="M-.231,2.276.091,422.506" transform="translate(1039.908 19600.5)" fill="none" stroke="#e1e1e1" stroke-width="1"/>
    <path id="Trazado_706651" data-name="Trazado 706651" d="M-.231,2.276.091,422.506" transform="translate(548.231 19600.5)" fill="none" stroke="#e1e1e1" stroke-width="1"/>
    <path id="Trazado_706652" data-name="Trazado 706652" d="M-.231,2.276.091,422.506" transform="translate(447.231 19600.5)" fill="none" stroke="#e1e1e1" stroke-width="1"/>
    <path id="Trazado_706231" data-name="Trazado 706231" d="M-8215.989,8008.494h-54.5" transform="translate(9191 11699)" fill="none" stroke="#12263f" stroke-width="1"/>
    <path id="Trazado_706234" data-name="Trazado 706234" d="M-8215.989,8008.494h-54.5" transform="translate(9191 11773.5)" fill="none" stroke="#12263f" stroke-width="1"/>
    <path id="Trazado_706240" data-name="Trazado 706240" d="M-8215.989,8008.494h-54.5" transform="translate(9191 11843.5)" fill="none" stroke="#12263f" stroke-width="1"/>
    <path id="Trazado_706244" data-name="Trazado 706244" d="M-8215.989,8008.494h-54.5" transform="translate(9025.229 11913.506)" fill="none" stroke="#12263f" stroke-width="1"/>
    <path id="Trazado_706245" data-name="Trazado 706245" d="M-8215.989,8008.494h-54.5" transform="translate(9025.229 11983.506)" fill="none" stroke="#12263f" stroke-width="1"/>
    <path id="Trazado_706237" data-name="Trazado 706237" d="M-8215.989,8008.494h-54.5" transform="translate(9364 11773.5)" fill="none" stroke="#12263f" stroke-width="1"/>
    <path id="Trazado_706241" data-name="Trazado 706241" d="M-8215.989,8008.494h-54.5" transform="translate(9368.492 11843.5)" fill="none" stroke="#12263f" stroke-width="1"/>
    <path id="Trazado_706235" data-name="Trazado 706235" d="M-8215.989,8008.494h-54.5" transform="translate(8739.24 11771.5)" fill="none" stroke="#12263f" stroke-width="1"/>
    <path id="Trazado_706238" data-name="Trazado 706238" d="M-8215.989,8008.494h-54.5" transform="translate(8739.24 11841.5)" fill="none" stroke="#12263f" stroke-width="1"/>
    <path id="Trazado_706242" data-name="Trazado 706242" d="M-8215.989,8008.494h-54.5" transform="translate(8739.24 11911.506)" fill="none" stroke="#12263f" stroke-width="1"/>
    <path id="Trazado_706246" data-name="Trazado 706246" d="M-8215.989,8008.494h-54.5" transform="translate(8739.24 11981.506)" fill="none" stroke="#12263f" stroke-width="1"/>
    <path id="Trazado_706236" data-name="Trazado 706236" d="M-8215.989,8008.494h-54.5" transform="translate(9021.481 11771.5)" fill="none" stroke="#12263f" stroke-width="1"/>
    <path id="Trazado_706239" data-name="Trazado 706239" d="M-8215.989,8008.494h-54.5" transform="translate(8873.594 11841.5)" fill="none" stroke="#12263f" stroke-width="1"/>
    <path id="Trazado_706243" data-name="Trazado 706243" d="M-8215.989,8008.494h-54.5" transform="translate(8873.594 11911.506)" fill="none" stroke="#12263f" stroke-width="1"/>
    <path id="Trazado_706247" data-name="Trazado 706247" d="M-8215.989,8008.494h-54.5" transform="translate(8873.594 11981.506)" fill="none" stroke="#12263f" stroke-width="1"/>
    <path id="Trazado_706232" data-name="Trazado 706232" d="M-8215.989,8008.494h-54.5" transform="translate(9364 11699)" fill="none" stroke="#12263f" stroke-width="1"/>
  </g>
</svg>
