<svg xmlns="http://www.w3.org/2000/svg" width="190" height="204" viewBox="0 0 190 204">
  <g id="Grupo_999312" data-name="Grupo 999312" transform="translate(-1125 -3143)">
    <rect id="Rectángulo_346814" data-name="Rectángulo 346814" width="190" height="204" rx="30" transform="translate(1125 3143)" fill="#fce5e9"/>
    <g id="politica" transform="translate(1163 3180.35)">
      <g id="Grupo_999294" data-name="Grupo 999294" transform="translate(102.278 20.477)">
        <path id="Trazado_712203" data-name="Trazado 712203" d="M417.56,153.8h-9.145a3.16,3.16,0,0,1-3.16-3.16V93.526a7.9,7.9,0,0,1,.527-2.838l2.5-6.486a5.045,5.045,0,0,1,9.417,0l2.5,6.486a7.9,7.9,0,0,1,.527,2.838v57.112A3.161,3.161,0,0,1,417.56,153.8Z" transform="translate(-405.255 -80.968)" fill="#cbe2ff"/>
      </g>
      <g id="Grupo_999295" data-name="Grupo 999295" transform="translate(107.954 20.478)">
        <path id="Trazado_712204" data-name="Trazado 712204" d="M437.008,90.692l-2.5-6.486a5.041,5.041,0,0,0-6.765-2.805,4.931,4.931,0,0,1,2.652,2.805l2.5,6.486a7.9,7.9,0,0,1,.527,2.838v57.112a3.16,3.16,0,0,1-3.16,3.16h4.113a3.16,3.16,0,0,0,3.16-3.16V93.531A7.9,7.9,0,0,0,437.008,90.692Z" transform="translate(-427.746 -80.975)" fill="#bed8fb"/>
      </g>
      <g id="Grupo_999296" data-name="Grupo 999296" transform="translate(1.891 7.161)">
        <path id="Trazado_712205" data-name="Trazado 712205" d="M95.2,148.4H11.279a3.786,3.786,0,0,1-3.786-3.786V31.993a3.786,3.786,0,0,1,3.786-3.786H95.2a3.786,3.786,0,0,1,3.786,3.786V144.616A3.786,3.786,0,0,1,95.2,148.4Z" transform="translate(-7.493 -28.207)" fill="#80b4fb"/>
      </g>
      <g id="Grupo_999297" data-name="Grupo 999297" transform="translate(1.891 7.161)">
        <path id="Trazado_712206" data-name="Trazado 712206" d="M95.2,28.207H92.678V138.315A3.782,3.782,0,0,1,88.9,142.1H7.493v2.523a3.782,3.782,0,0,0,3.782,3.782H95.2a3.782,3.782,0,0,0,3.782-3.782V31.989A3.782,3.782,0,0,0,95.2,28.207Z" transform="translate(-7.493 -28.207)" fill="#61a2f9"/>
      </g>
      <g id="Grupo_999298" data-name="Grupo 999298" transform="translate(41.573 1.947)">
        <path id="Trazado_712207" data-name="Trazado 712207" d="M176.849,20.2H164.724V13.611a6.063,6.063,0,1,1,12.125,0Z" transform="translate(-164.724 -7.548)" fill="#ffe07d"/>
      </g>
      <g id="Grupo_999299" data-name="Grupo 999299" transform="translate(45.745 1.947)">
        <path id="Trazado_712208" data-name="Trazado 712208" d="M183.145,7.548a6.052,6.052,0,0,0-1.891.3,6.064,6.064,0,0,1,4.172,5.76V20.2h3.782V13.611a6.063,6.063,0,0,0-6.063-6.063Z" transform="translate(-181.254 -7.548)" fill="#ffd064"/>
      </g>
      <g id="Grupo_999300" data-name="Grupo 999300" transform="translate(10.552 20.564)">
        <path id="Trazado_712209" data-name="Trazado 712209" d="M61.246,176.831H112.2a3.782,3.782,0,0,0,3.782-3.782V85.1a3.782,3.782,0,0,0-3.782-3.782h-66.6A3.782,3.782,0,0,0,41.81,85.1v72.3a1.26,1.26,0,0,0,.369.891l18.176,18.176a1.261,1.261,0,0,0,.891.369Z" transform="translate(-41.81 -81.316)" fill="#f4fbff"/>
      </g>
      <g id="Grupo_999301" data-name="Grupo 999301" transform="translate(20.622 20.564)">
        <path id="Trazado_712210" data-name="Trazado 712210" d="M142.027,81.316h-4.692v83.258a3.782,3.782,0,0,1-3.782,3.782H82.6a1.26,1.26,0,0,1-.891-.369l8.474,8.474a1.26,1.26,0,0,0,.891.369h50.949a3.782,3.782,0,0,0,3.782-3.782V85.1a3.782,3.782,0,0,0-3.782-3.782Z" transform="translate(-81.712 -81.316)" fill="#e4f6ff"/>
      </g>
      <g id="Grupo_999302" data-name="Grupo 999302" transform="translate(10.724 97.267)">
        <path id="Trazado_712211" data-name="Trazado 712211" d="M58.814,385.233a2.316,2.316,0,0,1,2.316,2.316v16.324a1.256,1.256,0,0,1-.267-.2L42.688,385.5a1.248,1.248,0,0,1-.2-.267Z" transform="translate(-42.49 -385.233)" fill="#e4f6ff"/>
      </g>
      <g id="Grupo_999303" data-name="Grupo 999303" transform="translate(20.529 97.267)">
        <path id="Trazado_712212" data-name="Trazado 712212" d="M87.859,385.233H81.34a2.316,2.316,0,0,1,2.316,2.316v9.874l6.252,6.252a1.256,1.256,0,0,0,.267.2V387.549A2.316,2.316,0,0,0,87.859,385.233Z" transform="translate(-81.34 -385.233)" fill="#d3effb"/>
      </g>
      <g id="Grupo_999304" data-name="Grupo 999304" transform="translate(30.817 13.649)">
        <path id="Trazado_712213" data-name="Trazado 712213" d="M155.088,65.988l-2.794,1.79a1.412,1.412,0,0,1-1.523,0l-2.682-1.719a1.411,1.411,0,0,0-1.523,0l-2.68,1.718a1.411,1.411,0,0,1-1.523,0l-2.681-1.718a1.411,1.411,0,0,0-1.523,0l-2.681,1.718a1.411,1.411,0,0,1-1.523,0l-2.681-1.718a1.411,1.411,0,0,0-1.523,0l-2.68,1.718a1.411,1.411,0,0,1-1.523,0l-2.793-1.79a1.411,1.411,0,0,1-.65-1.188V56.438a2.521,2.521,0,0,1,2.521-2.521h28.591a2.521,2.521,0,0,1,2.521,2.521V64.8A1.412,1.412,0,0,1,155.088,65.988Z" transform="translate(-122.105 -53.917)" fill="#ffd064"/>
      </g>
      <g id="Grupo_999306" data-name="Grupo 999306" transform="translate(56.166 13.65)">
        <g id="Grupo_999305" data-name="Grupo 999305">
          <path id="Trazado_712214" data-name="Trazado 712214" d="M228.307,53.918h-5.763a2.521,2.521,0,0,1,2.521,2.521V64.8a1.411,1.411,0,0,1-.65,1.188l-.674.432,2.12,1.359a1.412,1.412,0,0,0,1.523,0l2.794-1.79a1.412,1.412,0,0,0,.65-1.188V56.439A2.521,2.521,0,0,0,228.307,53.918Z" transform="translate(-222.544 -53.918)" fill="#ffc250"/>
        </g>
      </g>
      <g id="Grupo_999307" data-name="Grupo 999307" transform="translate(102.278 39.599)">
        <path id="Trazado_712215" data-name="Trazado 712215" d="M405.254,156.737H420.72v9.244H405.254Z" transform="translate(-405.254 -156.737)" fill="#ffe07d"/>
      </g>
      <g id="Grupo_999308" data-name="Grupo 999308" transform="translate(102.278 79.944)">
        <path id="Trazado_712216" data-name="Trazado 712216" d="M405.254,316.6v10.2a3.16,3.16,0,0,0,3.16,3.16h9.145a3.16,3.16,0,0,0,3.16-3.16V316.6Z" transform="translate(-405.254 -316.596)" fill="#365e7d"/>
      </g>
      <g id="Grupo_999309" data-name="Grupo 999309" transform="translate(113.631 39.599)">
        <path id="Trazado_712217" data-name="Trazado 712217" d="M450.238,156.738h4.113v9.244h-4.113Z" transform="translate(-450.238 -156.738)" fill="#ffd064"/>
      </g>
      <g id="Grupo_999310" data-name="Grupo 999310" transform="translate(110.471 79.944)">
        <path id="Trazado_712218" data-name="Trazado 712218" d="M440.876,316.6v10.2a3.16,3.16,0,0,1-3.16,3.16h4.113a3.16,3.16,0,0,0,3.16-3.16V316.6Z" transform="translate(-437.716 -316.596)" fill="#2b4d66"/>
      </g>
      <g id="Grupo_999311" data-name="Grupo 999311" transform="translate(0 0.056)">
        <path id="Trazado_712219" data-name="Trazado 712219" d="M56.97,217.991H5.673A1.893,1.893,0,0,1,3.782,216.1V125.708a1.891,1.891,0,0,0-3.782,0V216.1a5.679,5.679,0,0,0,5.673,5.673h51.3a1.891,1.891,0,0,0,0-3.782Z" transform="translate(0 -92.582)"/>
        <path id="Trazado_712220" data-name="Trazado 712220" d="M89.6,5.27H55.1a7.954,7.954,0,0,0-14.934,0H5.673A5.679,5.679,0,0,0,0,10.943v13.58a1.891,1.891,0,0,0,3.782,0V10.943A1.893,1.893,0,0,1,5.672,9.052H39.682v2.707H33.338a4.417,4.417,0,0,0-4.412,4.412v2.5H14.334a5.679,5.679,0,0,0-5.673,5.673v72.3a3.166,3.166,0,0,0,.923,2.229l18.176,18.176a3.165,3.165,0,0,0,2.229.923H80.937A5.679,5.679,0,0,0,86.61,112.3V24.346a5.679,5.679,0,0,0-5.673-5.673h-14.6v-2.5a4.417,4.417,0,0,0-4.412-4.412h-6.34V9.052H89.6a1.893,1.893,0,0,1,1.891,1.891V123.573a1.893,1.893,0,0,1-1.891,1.891H66.058a1.891,1.891,0,1,0,0,3.782H89.6a5.679,5.679,0,0,0,5.673-5.673V10.943A5.679,5.679,0,0,0,89.6,5.27ZM15.219,99.158H27.048a.426.426,0,0,1,.426.426v11.829Zm65.718-76.7a1.893,1.893,0,0,1,1.891,1.891V112.3a1.893,1.893,0,0,1-1.891,1.891H31.255v-14.6a4.212,4.212,0,0,0-4.207-4.207h-14.6V24.346a1.893,1.893,0,0,1,1.891-1.891H28.926v2.077a3.288,3.288,0,0,0,1.52,2.78l2.793,1.79a3.311,3.311,0,0,0,3.564,0l2.422-1.552L41.646,29.1a3.31,3.31,0,0,0,3.564,0l2.422-1.552L50.055,29.1a3.31,3.31,0,0,0,3.564,0l2.422-1.552L58.464,29.1a3.311,3.311,0,0,0,3.563,0l2.793-1.79a3.288,3.288,0,0,0,1.521-2.781V22.455ZM62.559,16.171v7.543a1.017,1.017,0,0,1-.468.856l-1.846,1.183L57.822,24.2a3.312,3.312,0,0,0-3.564,0l-2.422,1.552L49.414,24.2a3.31,3.31,0,0,0-3.564,0l-2.422,1.552L41.006,24.2a3.311,3.311,0,0,0-3.564,0L35.02,25.752,33.175,24.57a1.016,1.016,0,0,1-.468-.856V16.171a.63.63,0,0,1,.63-.63H61.928A.63.63,0,0,1,62.559,16.171Zm-19.1-4.412V8.009a4.172,4.172,0,1,1,8.344,0v3.749H43.464Z" transform="translate(0 -0.056)"/>
        <path id="Trazado_712221" data-name="Trazado 712221" d="M424.7,100.908a3.943,3.943,0,0,0-3.938,3.939v18.078a3.155,3.155,0,0,1-3.151,3.151h-.6V73.261a9.749,9.749,0,0,0-.654-3.518l-2.5-6.486a6.88,6.88,0,0,0-4.582-4.182V55.754a1.891,1.891,0,0,0-3.782,0v3.321a6.88,6.88,0,0,0-4.582,4.182l-2.5,6.486a9.75,9.75,0,0,0-.654,3.518V92.685a1.891,1.891,0,0,0,3.782,0V90.961H405.5V118.28h-3.951v-16.3a1.891,1.891,0,0,0-3.782,0v28.392a5.057,5.057,0,0,0,5.051,5.051h9.145a5.057,5.057,0,0,0,5.051-5.051v-.516h.6a6.941,6.941,0,0,0,6.933-6.933V104.846a.157.157,0,0,1,.156-.157,1.891,1.891,0,1,0,0-3.782ZM410.331,64.616l2.5,6.487a5.976,5.976,0,0,1,.4,2.159v4.674h-3.951V63.2A3.071,3.071,0,0,1,410.331,64.616ZM401.947,71.1l2.5-6.486A3.074,3.074,0,0,1,405.5,63.2V77.936h-3.951V73.261a5.988,5.988,0,0,1,.4-2.159Zm-.4,10.615h11.684v5.462H401.545Zm7.733,9.244h3.951V118.28h-3.951Zm3.951,39.413a1.271,1.271,0,0,1-1.269,1.269h-9.145a1.271,1.271,0,0,1-1.269-1.269v-8.311h11.684Z" transform="translate(-297.376 -40.283)"/>
        <circle id="Elipse_4861" data-name="Elipse 4861" cx="2.77" cy="2.77" r="2.77" transform="translate(19.517 39.66) rotate(-22.514)"/>
        <circle id="Elipse_4862" data-name="Elipse 4862" cx="2.77" cy="2.77" r="2.77" transform="translate(19.523 57.075) rotate(-22.514)"/>
        <circle id="Elipse_4863" data-name="Elipse 4863" cx="2.77" cy="2.77" r="2.77" transform="translate(19.528 74.558) rotate(-22.514)"/>
        <path id="Trazado_712222" data-name="Trazado 712222" d="M126.651,157.548a1.891,1.891,0,0,0,1.891,1.891h34.674a1.891,1.891,0,0,0,0-3.782H128.542a1.891,1.891,0,0,0-1.891,1.891Z" transform="translate(-94.687 -116.387)"/>
        <path id="Trazado_712223" data-name="Trazado 712223" d="M128.543,193.935H156.2a1.891,1.891,0,1,0,0-3.782H128.543a1.891,1.891,0,0,0,0,3.782Z" transform="translate(-94.688 -142.176)"/>
        <path id="Trazado_712224" data-name="Trazado 712224" d="M163.217,224.649H128.543a1.891,1.891,0,0,0,0,3.782h34.674a1.891,1.891,0,1,0,0-3.782Z" transform="translate(-94.688 -167.966)"/>
        <path id="Trazado_712225" data-name="Trazado 712225" d="M163.217,293.641H128.543a1.891,1.891,0,1,0,0,3.782h34.674a1.891,1.891,0,1,0,0-3.782Z" transform="translate(-94.688 -219.546)"/>
        <path id="Trazado_712226" data-name="Trazado 712226" d="M163.217,328.137H128.543a1.891,1.891,0,1,0,0,3.782h34.674a1.891,1.891,0,1,0,0-3.782Z" transform="translate(-94.688 -245.336)"/>
        <path id="Trazado_712227" data-name="Trazado 712227" d="M156.2,362.633H128.543a1.891,1.891,0,1,0,0,3.782H156.2a1.891,1.891,0,1,0,0-3.782Z" transform="translate(-94.688 -271.126)"/>
      </g>
    </g>
  </g>
</svg>
