<svg xmlns="http://www.w3.org/2000/svg" xmlns:xlink="http://www.w3.org/1999/xlink" width="77" height="77" viewBox="0 0 77 77">
  <defs>
    <clipPath id="clip-path">
      <rect id="Rect치ngulo_34384" data-name="Rect치ngulo 34384" width="38.099" height="55.957" fill="none"/>
    </clipPath>
  </defs>
  <g id="Grupo_960369" data-name="Grupo 960369" transform="translate(-1288.333 -170)">
    <path id="Trazado_113939" data-name="Trazado 113939" d="M38.5,0A38.5,38.5,0,1,1,0,38.5,38.5,38.5,0,0,1,38.5,0Z" transform="translate(1288.333 170)" fill="#9b1f36"/>
    <g id="Grupo_960368" data-name="Grupo 960368" transform="translate(1307.784 178.043)">
      <g id="Grupo_960367" data-name="Grupo 960367" clip-path="url(#clip-path)">
        <path id="Trazado_706107" data-name="Trazado 706107" d="M38.1,203.366c0,3.726-8.529,6.548-19.049,6.548S0,207.092,0,203.366s8.529-6.548,19.049-6.548S38.1,199.64,38.1,203.366" transform="translate(0.001 -153.957)" fill="#e28e14"/>
        <path id="Trazado_706108" data-name="Trazado 706108" d="M0,216.909v-2.778H38.1v3.175Z" transform="translate(0 -167.5)" fill="#e28e14"/>
        <path id="Trazado_706109" data-name="Trazado 706109" d="M38.1,190.61c0,3.726-8.529,6.548-19.049,6.548S0,194.336,0,190.61s8.529-6.548,19.049-6.548S38.1,186.884,38.1,190.61" transform="translate(0.001 -143.979)" fill="#f4af53"/>
        <path id="Trazado_706110" data-name="Trazado 706110" d="M44.817,188.44c0,3.224-7.381,5.667-16.485,5.667s-16.485-2.442-16.485-5.667,7.381-5.667,16.485-5.667,16.485,2.442,16.485,5.667" transform="translate(-9.266 -142.971)" fill="#62c8ca"/>
        <rect id="Rect치ngulo_34383" data-name="Rect치ngulo 34383" width="32.939" height="35.856" transform="translate(2.58 9.981)" fill="#62c8ca"/>
        <path id="Trazado_706111" data-name="Trazado 706111" d="M38.1,19.305c0,3.726-8.529,6.548-19.049,6.548S0,23.031,0,19.305s8.529-6.548,19.049-6.548S38.1,15.579,38.1,19.305" transform="translate(0.001 -9.979)" fill="#e28e14"/>
        <path id="Trazado_706112" data-name="Trazado 706112" d="M0,32.847V30.069H38.1v3.175Z" transform="translate(0 -23.521)" fill="#e28e14"/>
        <path id="Trazado_706113" data-name="Trazado 706113" d="M38.1,6.548c0,3.726-8.529,6.548-19.049,6.548S0,10.274,0,6.548,8.528,0,19.048,0,38.1,2.822,38.1,6.548" transform="translate(0.001)" fill="#f4af53"/>
        <path id="Trazado_706114" data-name="Trazado 706114" d="M76.955,25.058c0,.794-1.817,1.4-4.059,1.4s-4.059-.6-4.059-1.4,1.817-1.4,4.059-1.4,4.059.6,4.059,1.4" transform="translate(-53.847 -18.51)" fill="#c67812"/>
        <path id="Trazado_706115" data-name="Trazado 706115" d="M27.426,204.646c-9.53,0-16.717-2.569-16.717-5.974a.347.347,0,0,1,.694,0c0,2.912,7.188,5.281,16.024,5.281s16.024-2.369,16.024-5.281a.347.347,0,1,1,.693,0c0,3.406-7.187,5.974-16.717,5.974" transform="translate(-8.377 -155.136)" fill="#3fa09b"/>
        <path id="Trazado_706116" data-name="Trazado 706116" d="M27.426,193.682c-9.53,0-16.717-2.54-16.717-5.909a.347.347,0,1,1,.694,0c0,2.876,7.188,5.215,16.024,5.215s16.024-2.339,16.024-5.215a.347.347,0,1,1,.693,0c0,3.369-7.187,5.909-16.717,5.909" transform="translate(-8.377 -146.611)" fill="#3fa09b"/>
        <path id="Trazado_706117" data-name="Trazado 706117" d="M27.426,182.718c-9.53,0-16.717-2.512-16.717-5.844a.347.347,0,1,1,.694,0c0,2.84,7.188,5.15,16.024,5.15s16.024-2.31,16.024-5.15a.347.347,0,1,1,.693,0c0,3.332-7.187,5.844-16.717,5.844" transform="translate(-8.377 -138.085)" fill="#3fa09b"/>
        <path id="Trazado_706118" data-name="Trazado 706118" d="M27.426,171.755c-9.53,0-16.717-2.484-16.717-5.779a.347.347,0,0,1,.694,0c0,2.8,7.188,5.085,16.024,5.085s16.024-2.281,16.024-5.085a.347.347,0,0,1,.693,0c0,3.295-7.187,5.779-16.717,5.779" transform="translate(-8.377 -129.56)" fill="#3fa09b"/>
        <path id="Trazado_706119" data-name="Trazado 706119" d="M27.426,160.79c-9.53,0-16.717-2.456-16.717-5.714a.347.347,0,0,1,.694,0c0,2.768,7.188,5.02,16.024,5.02s16.024-2.252,16.024-5.02a.347.347,0,0,1,.693,0c0,3.258-7.187,5.714-16.717,5.714" transform="translate(-8.377 -121.034)" fill="#3fa09b"/>
        <path id="Trazado_706120" data-name="Trazado 706120" d="M27.426,149.825c-9.53,0-16.717-2.429-16.717-5.649a.347.347,0,1,1,.694,0c0,2.732,7.188,4.955,16.024,4.955s16.024-2.223,16.024-4.955a.347.347,0,1,1,.693,0c0,3.22-7.187,5.649-16.717,5.649" transform="translate(-8.377 -112.508)" fill="#3fa09b"/>
        <path id="Trazado_706121" data-name="Trazado 706121" d="M27.426,138.861c-9.53,0-16.717-2.4-16.717-5.584a.347.347,0,0,1,.694,0c0,2.7,7.188,4.89,16.024,4.89s16.024-2.194,16.024-4.89a.347.347,0,0,1,.693,0c0,3.184-7.187,5.584-16.717,5.584" transform="translate(-8.377 -103.983)" fill="#3fa09b"/>
        <path id="Trazado_706122" data-name="Trazado 706122" d="M27.426,127.9c-9.53,0-16.717-2.373-16.717-5.519a.347.347,0,0,1,.694,0c0,2.661,7.188,4.825,16.024,4.825s16.024-2.165,16.024-4.825a.347.347,0,1,1,.693,0c0,3.146-7.187,5.519-16.717,5.519" transform="translate(-8.377 -95.457)" fill="#3fa09b"/>
        <path id="Trazado_706123" data-name="Trazado 706123" d="M27.426,116.932c-9.53,0-16.717-2.344-16.717-5.454a.347.347,0,0,1,.694,0c0,2.625,7.188,4.76,16.024,4.76s16.024-2.135,16.024-4.76a.347.347,0,1,1,.693,0c0,3.109-7.187,5.454-16.717,5.454" transform="translate(-8.377 -86.931)" fill="#3fa09b"/>
        <path id="Trazado_706124" data-name="Trazado 706124" d="M27.426,105.968c-8.1,0-16.717-1.888-16.717-5.389a.347.347,0,0,1,.694,0c0,2.589,7.188,4.7,16.024,4.7s16.024-2.106,16.024-4.7a.347.347,0,1,1,.693,0c0,3.5-8.613,5.389-16.717,5.389" transform="translate(-8.377 -78.405)" fill="#3fa09b"/>
        <path id="Trazado_706125" data-name="Trazado 706125" d="M27.426,95c-8.1,0-16.717-1.866-16.717-5.324a.347.347,0,1,1,.694,0c0,2.553,7.188,4.63,16.024,4.63S43.45,92.233,43.45,89.68a.347.347,0,1,1,.693,0C44.143,93.138,35.53,95,27.426,95" transform="translate(-8.377 -69.879)" fill="#3fa09b"/>
        <path id="Trazado_706126" data-name="Trazado 706126" d="M27.426,84.039c-8.1,0-16.717-1.843-16.717-5.258a.347.347,0,1,1,.694,0c0,1.159,1.657,2.314,4.547,3.171a42.222,42.222,0,0,0,11.477,1.393A42.222,42.222,0,0,0,38.9,81.952c2.89-.857,4.547-2.013,4.547-3.171a.347.347,0,1,1,.693,0c0,3.415-8.613,5.258-16.717,5.258" transform="translate(-8.377 -61.354)" fill="#3fa09b"/>
        <path id="Trazado_706127" data-name="Trazado 706127" d="M27.426,73.075c-8.1,0-16.717-1.82-16.717-5.194a.347.347,0,0,1,.694,0c0,1.14,1.657,2.28,4.545,3.125a42.75,42.75,0,0,0,11.478,1.375A42.75,42.75,0,0,0,38.9,71.006c2.889-.845,4.546-1.984,4.546-3.125a.347.347,0,0,1,.693,0c0,3.374-8.613,5.194-16.717,5.194" transform="translate(-8.377 -52.828)" fill="#3fa09b"/>
        <path id="Trazado_706128" data-name="Trazado 706128" d="M27.426,62.11c-8.1,0-16.717-1.8-16.717-5.128a.347.347,0,0,1,.694,0c0,2.133,6.126,4.435,16.024,4.435s16.024-2.3,16.024-4.435a.347.347,0,1,1,.693,0c0,3.331-8.613,5.128-16.717,5.128" transform="translate(-8.377 -44.302)" fill="#3fa09b"/>
      </g>
    </g>
  </g>
</svg>
