<svg xmlns="http://www.w3.org/2000/svg" xmlns:xlink="http://www.w3.org/1999/xlink" width="216" height="216" viewBox="0 0 216 216">
  <defs>
    <filter id="Trazado_113935" x="0" y="0" width="216" height="216" filterUnits="userSpaceOnUse">
      <feOffset input="SourceAlpha"/>
      <feGaussianBlur stdDeviation="20" result="blur"/>
      <feFlood flood-color="#402d27" flood-opacity="0.263"/>
      <feComposite operator="in" in2="blur"/>
      <feComposite in="SourceGraphic"/>
    </filter>
    <clipPath id="clip-path">
      <rect id="Rect치ngulo_34395" data-name="Rect치ngulo 34395" width="41.709" height="61.26" fill="none"/>
    </clipPath>
  </defs>
  <g id="Grupo_893653" data-name="Grupo 893653" transform="translate(-844.333 -322.495)">
    <g transform="matrix(1, 0, 0, 1, 844.33, 322.5)" filter="url(#Trazado_113935)">
      <path id="Trazado_113935-2" data-name="Trazado 113935" d="M48,0A48,48,0,1,1,0,48,48,48,0,0,1,48,0Z" transform="translate(60 60)" fill="#9b1f36"/>
    </g>
    <g id="Grupo_960398" data-name="Grupo 960398" transform="translate(931.479 399.866)">
      <g id="Grupo_960397" data-name="Grupo 960397" clip-path="url(#clip-path)">
        <path id="Trazado_706149" data-name="Trazado 706149" d="M41.709,203.987c0,4.079-9.337,7.169-20.855,7.169S0,208.066,0,203.987s9.337-7.169,20.854-7.169,20.855,3.09,20.855,7.169" transform="translate(0 -149.895)" fill="#e28e14"/>
        <path id="Trazado_706150" data-name="Trazado 706150" d="M0,217.172v-3.041H41.709v3.476Z" transform="translate(0 -163.08)" fill="#e28e14"/>
        <path id="Trazado_706151" data-name="Trazado 706151" d="M41.709,191.231c0,4.079-9.337,7.169-20.855,7.169S0,195.31,0,191.231s9.337-7.169,20.854-7.169,20.855,3.09,20.855,7.169" transform="translate(0 -140.18)" fill="#f4af53"/>
        <path id="Trazado_706152" data-name="Trazado 706152" d="M47.941,188.977c0,3.53-8.08,6.2-18.048,6.2s-18.048-2.674-18.048-6.2,8.08-6.2,18.048-6.2,18.048,2.674,18.048,6.2" transform="translate(-9.022 -139.199)" fill="#ffd51f"/>
        <rect id="Rect치ngulo_34394" data-name="Rect치ngulo 34394" width="36.061" height="39.255" transform="translate(2.824 10.927)" fill="#ffd51f"/>
        <path id="Trazado_706153" data-name="Trazado 706153" d="M41.709,19.926c0,4.079-9.337,7.169-20.855,7.169S0,24,0,19.926s9.337-7.169,20.854-7.169,20.855,3.09,20.855,7.169" transform="translate(0 -9.716)" fill="#e28e14"/>
        <path id="Trazado_706154" data-name="Trazado 706154" d="M0,33.111V30.069H41.709v3.476Z" transform="translate(0 -22.901)" fill="#e28e14"/>
        <path id="Trazado_706155" data-name="Trazado 706155" d="M41.709,7.169c0,4.079-9.337,7.169-20.855,7.169S0,11.248,0,7.169,9.337,0,20.854,0,41.709,3.09,41.709,7.169" fill="#f4af53"/>
        <path id="Trazado_706156" data-name="Trazado 706156" d="M77.724,25.19c0,.869-1.989,1.527-4.443,1.527s-4.443-.658-4.443-1.527,1.989-1.527,4.443-1.527,4.443.658,4.443,1.527" transform="translate(-52.426 -18.022)" fill="#c67812"/>
        <path id="Trazado_706157" data-name="Trazado 706157" d="M29.011,205.245c-10.434,0-18.3-2.812-18.3-6.541a.38.38,0,0,1,.759,0c0,3.188,7.869,5.781,17.542,5.781s17.542-2.593,17.542-5.781a.38.38,0,0,1,.76,0c0,3.729-7.868,6.541-18.3,6.541" transform="translate(-8.156 -151.043)" fill="#e28e14"/>
        <path id="Trazado_706158" data-name="Trazado 706158" d="M29.011,194.275c-10.434,0-18.3-2.781-18.3-6.469a.38.38,0,1,1,.759,0c0,3.148,7.869,5.71,17.542,5.71s17.542-2.561,17.542-5.71a.38.38,0,0,1,.76,0c0,3.688-7.868,6.469-18.3,6.469" transform="translate(-8.156 -142.742)" fill="#e28e14"/>
        <path id="Trazado_706159" data-name="Trazado 706159" d="M29.011,183.3c-10.434,0-18.3-2.751-18.3-6.4a.38.38,0,1,1,.759,0c0,3.109,7.869,5.638,17.542,5.638s17.542-2.529,17.542-5.638a.38.38,0,0,1,.76,0c0,3.647-7.868,6.4-18.3,6.4" transform="translate(-8.156 -134.442)" fill="#e28e14"/>
        <path id="Trazado_706160" data-name="Trazado 706160" d="M29.011,172.335c-10.434,0-18.3-2.72-18.3-6.327a.38.38,0,0,1,.759,0c0,3.07,7.869,5.567,17.542,5.567s17.542-2.5,17.542-5.567a.38.38,0,0,1,.76,0c0,3.607-7.868,6.327-18.3,6.327" transform="translate(-8.156 -126.142)" fill="#e28e14"/>
        <path id="Trazado_706161" data-name="Trazado 706161" d="M29.011,161.364c-10.434,0-18.3-2.689-18.3-6.256a.38.38,0,0,1,.759,0c0,3.031,7.869,5.5,17.542,5.5s17.542-2.465,17.542-5.5a.38.38,0,0,1,.76,0c0,3.566-7.868,6.256-18.3,6.256" transform="translate(-8.156 -117.841)" fill="#e28e14"/>
        <path id="Trazado_706162" data-name="Trazado 706162" d="M29.011,150.393c-10.434,0-18.3-2.659-18.3-6.184a.38.38,0,1,1,.759,0c0,2.991,7.869,5.425,17.542,5.425s17.542-2.434,17.542-5.425a.38.38,0,0,1,.76,0c0,3.526-7.868,6.184-18.3,6.184" transform="translate(-8.156 -109.539)" fill="#e28e14"/>
        <path id="Trazado_706163" data-name="Trazado 706163" d="M29.011,139.423c-10.434,0-18.3-2.628-18.3-6.113a.38.38,0,0,1,.759,0c0,2.952,7.869,5.354,17.542,5.354s17.542-2.4,17.542-5.354a.38.38,0,0,1,.76,0c0,3.485-7.868,6.113-18.3,6.113" transform="translate(-8.156 -101.239)" fill="#e28e14"/>
        <path id="Trazado_706164" data-name="Trazado 706164" d="M29.011,128.453c-10.434,0-18.3-2.6-18.3-6.042a.38.38,0,0,1,.759,0c0,2.913,7.869,5.283,17.542,5.283s17.542-2.37,17.542-5.283a.38.38,0,0,1,.76,0c0,3.444-7.868,6.042-18.3,6.042" transform="translate(-8.156 -92.939)" fill="#e28e14"/>
        <path id="Trazado_706165" data-name="Trazado 706165" d="M29.011,117.482c-10.434,0-18.3-2.567-18.3-5.971a.38.38,0,0,1,.759,0c0,2.874,7.869,5.211,17.542,5.211s17.542-2.338,17.542-5.211a.38.38,0,0,1,.76,0c0,3.4-7.868,5.971-18.3,5.971" transform="translate(-8.156 -84.637)" fill="#e28e14"/>
        <path id="Trazado_706166" data-name="Trazado 706166" d="M29.011,106.512c-8.872,0-18.3-2.067-18.3-5.9a.38.38,0,0,1,.759,0c0,2.834,7.869,5.14,17.542,5.14s17.542-2.306,17.542-5.14a.38.38,0,0,1,.76,0c0,3.832-9.429,5.9-18.3,5.9" transform="translate(-8.156 -76.337)" fill="#e28e14"/>
        <path id="Trazado_706167" data-name="Trazado 706167" d="M29.011,95.541c-8.872,0-18.3-2.043-18.3-5.828a.38.38,0,1,1,.759,0c0,2.795,7.869,5.069,17.542,5.069s17.542-2.274,17.542-5.069a.38.38,0,0,1,.76,0c0,3.785-9.429,5.828-18.3,5.828" transform="translate(-8.156 -68.035)" fill="#e28e14"/>
        <path id="Trazado_706168" data-name="Trazado 706168" d="M29.011,84.571c-8.872,0-18.3-2.018-18.3-5.757a.38.38,0,1,1,.759,0c0,1.268,1.814,2.534,4.977,3.472a46.224,46.224,0,0,0,12.565,1.526,46.222,46.222,0,0,0,12.564-1.526c3.163-.938,4.977-2.2,4.977-3.472a.38.38,0,1,1,.76,0c0,3.739-9.429,5.757-18.3,5.757" transform="translate(-8.156 -59.735)" fill="#e28e14"/>
        <path id="Trazado_706169" data-name="Trazado 706169" d="M29.011,73.6c-8.872,0-18.3-1.992-18.3-5.686a.38.38,0,0,1,.759,0c0,1.249,1.814,2.5,4.976,3.421a46.8,46.8,0,0,0,12.566,1.506,46.8,46.8,0,0,0,12.566-1.506c3.162-.925,4.976-2.172,4.976-3.421a.38.38,0,0,1,.76,0c0,3.693-9.429,5.686-18.3,5.686" transform="translate(-8.156 -51.434)" fill="#e28e14"/>
        <path id="Trazado_706170" data-name="Trazado 706170" d="M29.011,62.629c-8.872,0-18.3-1.968-18.3-5.614a.38.38,0,0,1,.759,0c0,2.335,6.707,4.855,17.542,4.855s17.542-2.52,17.542-4.855a.38.38,0,0,1,.76,0c0,3.647-9.429,5.614-18.3,5.614" transform="translate(-8.156 -43.133)" fill="#e28e14"/>
      </g>
    </g>
  </g>
</svg>
