<svg xmlns="http://www.w3.org/2000/svg" xmlns:xlink="http://www.w3.org/1999/xlink" width="1030" height="556.719" viewBox="0 0 1030 556.719">
  <defs>
    <clipPath id="clip-path">
      <path id="Trazado_712078" data-name="Trazado 712078" d="M425.758,98.664A11.508,11.508,0,1,0,433.9,95.3a11.508,11.508,0,0,0-8.137,3.368" transform="translate(-422.39 -95.296)" fill="#0ce6ea"/>
    </clipPath>
    <clipPath id="clip-path-2">
      <path id="Trazado_712079" data-name="Trazado 712079" d="M461.628,148.884a11.495,11.495,0,1,0,2.986-.395,11.5,11.5,0,0,0-2.986.395" transform="translate(-453.099 -148.489)" fill="#ff6e33"/>
    </clipPath>
    <clipPath id="clip-path-3">
      <path id="Trazado_712080" data-name="Trazado 712080" d="M453.492,218.443a11.493,11.493,0,1,0,11.106-8.53,11.505,11.505,0,0,0-11.106,8.53" transform="translate(-453.097 -209.913)" fill="#ff6e33"/>
    </clipPath>
    <clipPath id="clip-path-4">
      <path id="Trazado_712081" data-name="Trazado 712081" d="M425.756,266.478a11.5,11.5,0,1,0,8.135-3.37,11.5,11.5,0,0,0-8.135,3.37" transform="translate(-422.386 -263.108)" fill="#0ce6ea"/>
    </clipPath>
    <clipPath id="clip-path-5">
      <path id="Trazado_712093" data-name="Trazado 712093" d="M257.2,98.664a11.506,11.506,0,1,0,8.135-3.368,11.505,11.505,0,0,0-8.135,3.368" transform="translate(-253.829 -95.296)" fill="#0ce6ea"/>
    </clipPath>
    <clipPath id="clip-path-6">
      <path id="Trazado_712094" data-name="Trazado 712094" d="M223.512,157.019a11.491,11.491,0,1,0,11.1-8.53,11.5,11.5,0,0,0-11.1,8.53" transform="translate(-223.117 -148.489)" fill="#ff6e33"/>
    </clipPath>
    <clipPath id="clip-path-7">
      <path id="Trazado_712095" data-name="Trazado 712095" d="M231.649,210.308a11.491,11.491,0,1,0,2.984-.395,11.5,11.5,0,0,0-2.984.395" transform="translate(-223.119 -209.913)" fill="#ff6e33"/>
    </clipPath>
    <clipPath id="clip-path-8">
      <path id="Trazado_712096" data-name="Trazado 712096" d="M257.2,266.478a11.5,11.5,0,1,0,8.135-3.37,11.5,11.5,0,0,0-8.135,3.37" transform="translate(-253.833 -263.108)" fill="#0ce6ea"/>
    </clipPath>
    <clipPath id="clip-path-9">
      <path id="Trazado_712098" data-name="Trazado 712098" d="M261.446,228.387A126.222,126.222,0,1,0,387.668,102.164,126.223,126.223,0,0,0,261.446,228.387" transform="translate(-261.446 -102.164)" fill="#0ce6ea"/>
    </clipPath>
    <clipPath id="clip-path-10">
      <path id="Trazado_712084" data-name="Trazado 712084" d="M245.732,5.079A37.849,37.849,0,1,0,264.629,0a37.867,37.867,0,0,0-18.9,5.079" transform="translate(-226.793)" fill="#0ce6ea"/>
    </clipPath>
    <clipPath id="clip-path-11">
      <path id="Trazado_712086" data-name="Trazado 712086" d="M177.479,72.79a37.848,37.848,0,1,0,18.9-5.079,37.864,37.864,0,0,0-18.9,5.079" transform="translate(-158.538 -67.711)" fill="#ff6e33"/>
    </clipPath>
    <clipPath id="clip-path-12">
      <path id="Trazado_712088" data-name="Trazado 712088" d="M152.494,166.027a37.849,37.849,0,1,0,18.9-5.079,37.867,37.867,0,0,0-18.9,5.079" transform="translate(-133.555 -160.948)" fill="#0ce6ea"/>
    </clipPath>
    <clipPath id="clip-path-13">
      <path id="Trazado_712090" data-name="Trazado 712090" d="M177.477,259.811a37.85,37.85,0,1,0,18.9-5.079,37.866,37.866,0,0,0-18.9,5.079" transform="translate(-158.538 -254.731)" fill="#ff6e33"/>
    </clipPath>
    <clipPath id="clip-path-14">
      <path id="Trazado_712092" data-name="Trazado 712092" d="M245.732,328.065a37.85,37.85,0,1,0,18.9-5.079,37.866,37.866,0,0,0-18.9,5.079" transform="translate(-226.793 -322.986)" fill="#0ce6ea"/>
    </clipPath>
    <clipPath id="clip-path-15">
      <path id="Trazado_712069" data-name="Trazado 712069" d="M419.093,18.94A37.849,37.849,0,1,0,451.921,0a37.867,37.867,0,0,0-32.828,18.94" transform="translate(-414.013)" fill="#0ce6ea"/>
    </clipPath>
    <clipPath id="clip-path-16">
      <path id="Trazado_712071" data-name="Trazado 712071" d="M487.348,86.65a37.848,37.848,0,1,0,32.828-18.939A37.867,37.867,0,0,0,487.348,86.65" transform="translate(-482.268 -67.711)" fill="#ff6e33"/>
    </clipPath>
    <clipPath id="clip-path-17">
      <path id="Trazado_712073" data-name="Trazado 712073" d="M512.331,179.888a37.847,37.847,0,1,0,32.828-18.94,37.864,37.864,0,0,0-32.828,18.94" transform="translate(-507.25 -160.948)" fill="#0ce6ea"/>
    </clipPath>
    <clipPath id="clip-path-18">
      <path id="Trazado_712075" data-name="Trazado 712075" d="M487.348,273.67a37.848,37.848,0,1,0,32.828-18.939,37.866,37.866,0,0,0-32.828,18.939" transform="translate(-482.268 -254.731)" fill="#ff6e33"/>
    </clipPath>
    <clipPath id="clip-path-19">
      <path id="Trazado_712077" data-name="Trazado 712077" d="M419.093,341.925a37.85,37.85,0,1,0,32.828-18.939,37.867,37.867,0,0,0-32.828,18.939" transform="translate(-414.013 -322.986)" fill="#0ce6ea"/>
    </clipPath>
  </defs>
  <g id="Grupo_999327" data-name="Grupo 999327" transform="translate(-285 -7481.09)">
    <g id="Grupo_999324" data-name="Grupo 999324">
      <path id="Trazado_712067" data-name="Trazado 712067" d="M557.936,258.423v-5.659H497.608a178.471,178.471,0,0,0-22.68-84.472l52.236-30.16-2.829-4.9L472.1,163.392a177.309,177.309,0,0,0-61.77-61.8l30.146-52.215-4.9-2.829L404.019,101.2a2.83,2.83,0,0,0,1.044,3.87A173.7,173.7,0,0,1,468.64,342.544a171.634,171.634,0,0,1-63.576,63.578,2.829,2.829,0,0,0-1.044,3.869l31.555,54.655,4.9-2.829L410.329,409.6a177.28,177.28,0,0,0,61.77-61.8l52.236,30.16,2.829-4.9L474.928,342.9a178.494,178.494,0,0,0,22.68-84.473Z" transform="translate(482.44 7503.856)" fill="#fff"/>
      <g id="Grupo_999049" data-name="Grupo 999049" transform="translate(914.001 7623)" clip-path="url(#clip-path)">
        <rect id="Rectángulo_346768" data-name="Rectángulo 346768" width="25.256" height="24.133" transform="translate(-1.123 0)" fill="#0ce6ea"/>
      </g>
      <g id="Grupo_999051" data-name="Grupo 999051" transform="translate(959.73 7702.212)" clip-path="url(#clip-path-2)">
        <rect id="Rectángulo_346769" data-name="Rectángulo 346769" width="25.515" height="24.266" transform="translate(-1.25 0)" fill="#ff6e33"/>
      </g>
      <g id="Grupo_999053" data-name="Grupo 999053" transform="translate(959.728 7793.681)" clip-path="url(#clip-path-3)">
        <rect id="Rectángulo_346770" data-name="Rectángulo 346770" width="25.514" height="24.266" transform="translate(-1.249 -0.001)" fill="#ff6e33"/>
      </g>
      <g id="Grupo_999055" data-name="Grupo 999055" transform="translate(913.995 7872.896)" clip-path="url(#clip-path-4)">
        <rect id="Rectángulo_346771" data-name="Rectángulo 346771" width="25.256" height="24.133" transform="translate(-1.123 0)" fill="#0ce6ea"/>
      </g>
      <path id="Trazado_712082" data-name="Trazado 712082" d="M184.416,258.423v-5.659h60.328a178.471,178.471,0,0,1,22.68-84.472l-52.236-30.16,2.829-4.9,52.236,30.16a177.31,177.31,0,0,1,61.77-61.8L301.877,49.372l4.9-2.829L338.333,101.2a2.83,2.83,0,0,1-1.044,3.87,173.7,173.7,0,0,0-63.576,237.476,171.634,171.634,0,0,0,63.576,63.578,2.829,2.829,0,0,1,1.044,3.869l-31.555,54.655-4.9-2.829L332.023,409.6a177.281,177.281,0,0,1-61.77-61.8l-52.236,30.16-2.829-4.9L267.424,342.9a178.493,178.493,0,0,1-22.68-84.473Z" transform="translate(375.207 7503.856)" fill="#fff"/>
      <g id="Grupo_999077" data-name="Grupo 999077" transform="translate(662.989 7623)" clip-path="url(#clip-path-5)">
        <rect id="Rectángulo_346782" data-name="Rectángulo 346782" width="25.256" height="24.133" transform="translate(-1.123 0)" fill="#0ce6ea"/>
      </g>
      <g id="Grupo_999079" data-name="Grupo 999079" transform="translate(617.253 7702.212)" clip-path="url(#clip-path-6)">
        <rect id="Rectángulo_346783" data-name="Rectángulo 346783" width="25.515" height="24.266" transform="translate(-1.25 0)" fill="#ff6e33"/>
      </g>
      <g id="Grupo_999081" data-name="Grupo 999081" transform="translate(617.256 7793.681)" clip-path="url(#clip-path-7)">
        <rect id="Rectángulo_346784" data-name="Rectángulo 346784" width="25.515" height="24.266" transform="translate(-1.25 -0.001)" fill="#ff6e33"/>
      </g>
      <g id="Grupo_999083" data-name="Grupo 999083" transform="translate(662.995 7872.896)" clip-path="url(#clip-path-8)">
        <rect id="Rectángulo_346785" data-name="Rectángulo 346785" width="25.256" height="24.133" transform="translate(-1.123 0)" fill="#0ce6ea"/>
      </g>
      <path id="Trazado_712097" data-name="Trazado 712097" d="M395.008,385.208c-81.92,0-148.566-66.647-148.566-148.566S313.089,88.075,395.008,88.075s148.566,66.647,148.566,148.566S476.928,385.208,395.008,385.208m0-291.474c-78.8,0-142.908,64.108-142.908,142.908s64.108,142.908,142.908,142.908,142.908-64.108,142.908-142.908S473.808,93.734,395.008,93.734" transform="translate(405.546 7524.171)" fill="#fff"/>
      <g id="Grupo_999087" data-name="Grupo 999087" transform="translate(674.332 7633.227)" clip-path="url(#clip-path-9)">
        <rect id="Rectángulo_346787" data-name="Rectángulo 346787" width="252.445" height="252.446" fill="#0ce6ea"/>
      </g>
      <path id="Trazado_712333" data-name="Trazado 712333" d="M29.945,20.344H21.32v5.438H31.508V30H15.836V7.25h15.7v4.234H21.32v4.8h8.625Zm8.391-7.25.172,1.984a5.733,5.733,0,0,1,4.828-2.3,4.823,4.823,0,0,1,3.945,1.578,7.513,7.513,0,0,1,1.352,4.75V30H43.352V19.328a2.853,2.853,0,0,0-.516-1.883,2.385,2.385,0,0,0-1.875-.6,2.511,2.511,0,0,0-2.3,1.219V30H33.4V13.094Zm19.344-4.2v4.2h2.781V16.75H57.68v7.734a1.975,1.975,0,0,0,.344,1.328,1.844,1.844,0,0,0,1.359.375,7.725,7.725,0,0,0,1.313-.094v3.766a9.718,9.718,0,0,1-2.969.453,5.516,5.516,0,0,1-4.016-1.281,5.252,5.252,0,0,1-1.3-3.891V16.75H50.258V13.094h2.156v-4.2Zm15.078,8.969-1.734-.125q-2.484,0-3.187,1.563V30H62.57V13.094h4.938l.172,2.172a4.077,4.077,0,0,1,3.7-2.484,5.135,5.135,0,0,1,1.469.188Zm9.781,12.453a8.691,8.691,0,0,1-6.3-2.32,8.013,8.013,0,0,1-2.406-6.039v-.437a10.383,10.383,0,0,1,.961-4.578,7.031,7.031,0,0,1,2.8-3.07,8.467,8.467,0,0,1,4.375-1.086A7.318,7.318,0,0,1,87.6,14.992a8.688,8.688,0,0,1,2.063,6.164V23.2H79.2a3.8,3.8,0,0,0,1.234,2.234,3.673,3.673,0,0,0,2.469.813A4.732,4.732,0,0,0,86.8,24.5l2.406,2.844a6.726,6.726,0,0,1-2.789,2.164A9.425,9.425,0,0,1,82.539,30.313Zm-.594-13.469q-2.312,0-2.75,3.063h5.313V19.5a2.608,2.608,0,0,0-.641-1.961A2.549,2.549,0,0,0,81.945,16.844ZM97.914,8.891v4.2H100.7V16.75H97.914v7.734a1.975,1.975,0,0,0,.344,1.328,1.844,1.844,0,0,0,1.359.375,7.725,7.725,0,0,0,1.313-.094v3.766a9.718,9.718,0,0,1-2.969.453,5.516,5.516,0,0,1-4.016-1.281,5.252,5.252,0,0,1-1.3-3.891V16.75H90.492V13.094h2.156v-4.2Zm13.031,21.422a8.691,8.691,0,0,1-6.3-2.32,8.013,8.013,0,0,1-2.406-6.039v-.437a10.383,10.383,0,0,1,.961-4.578,7.031,7.031,0,0,1,2.8-3.07,8.467,8.467,0,0,1,4.375-1.086,7.318,7.318,0,0,1,5.625,2.211,8.688,8.688,0,0,1,2.063,6.164V23.2H107.6a3.8,3.8,0,0,0,1.234,2.234,3.673,3.673,0,0,0,2.469.813,4.732,4.732,0,0,0,3.906-1.75l2.406,2.844a6.726,6.726,0,0,1-2.789,2.164A9.425,9.425,0,0,1,110.945,30.313Zm-.594-13.469q-2.312,0-2.75,3.063h5.313V19.5a2.608,2.608,0,0,0-.641-1.961A2.549,2.549,0,0,0,110.352,16.844ZM125.742,30h-5.281V6h5.281Zm12.766,0a5.945,5.945,0,0,1-.5-1.516,4.9,4.9,0,0,1-4.062,1.828,6,6,0,0,1-4.062-1.445,4.6,4.6,0,0,1-1.672-3.633,4.728,4.728,0,0,1,2.031-4.156,10.348,10.348,0,0,1,5.906-1.406h1.625v-.9q0-2.339-2.016-2.339a1.648,1.648,0,0,0-1.875,1.853h-5.266a4.72,4.72,0,0,1,2.086-3.98,8.766,8.766,0,0,1,5.32-1.529,7.686,7.686,0,0,1,5.109,1.578,5.487,5.487,0,0,1,1.922,4.328v7.484a7.665,7.665,0,0,0,.719,3.563V30Zm-3.3-3.437a2.937,2.937,0,0,0,1.633-.422,2.644,2.644,0,0,0,.93-.953v-2.7h-1.531q-2.75,0-2.75,2.469a1.507,1.507,0,0,0,.484,1.164A1.753,1.753,0,0,0,135.211,26.563ZM154.82,25.25a1.216,1.216,0,0,0-.7-1.078,10.7,10.7,0,0,0-2.672-.844,12.184,12.184,0,0,1-3.25-1.148,5.444,5.444,0,0,1-1.953-1.727,4.123,4.123,0,0,1-.672-2.328,4.673,4.673,0,0,1,1.922-3.836,7.917,7.917,0,0,1,5.031-1.508A8.771,8.771,0,0,1,157.9,14.3a4.74,4.74,0,0,1,2.031,3.984h-5.281q0-2.031-2.141-2.031a2.122,2.122,0,0,0-1.391.461,1.427,1.427,0,0,0-.562,1.148A1.31,1.31,0,0,0,151.242,19a6.5,6.5,0,0,0,2.2.719,18.971,18.971,0,0,1,2.648.672q3.813,1.313,3.813,4.7a4.428,4.428,0,0,1-2.055,3.766,9.01,9.01,0,0,1-5.32,1.453,9.2,9.2,0,0,1-3.875-.781,6.48,6.48,0,0,1-2.656-2.125,4.812,4.812,0,0,1-.953-2.828h4.922a2.035,2.035,0,0,0,.781,1.711,3.214,3.214,0,0,0,1.922.539,2.528,2.528,0,0,0,1.617-.437A1.4,1.4,0,0,0,154.82,25.25ZM63.484,48.094l.172,1.984a5.813,5.813,0,0,1,4.828-2.3,4.279,4.279,0,0,1,4.328,2.547,5.626,5.626,0,0,1,4.969-2.547q5.141,0,5.281,6.219V65H77.781V54.328a3.223,3.223,0,0,0-.437-1.891,1.862,1.862,0,0,0-1.594-.594,2.5,2.5,0,0,0-2.328,1.391l.016.219V65H68.156V54.359a3.388,3.388,0,0,0-.422-1.922,1.857,1.857,0,0,0-1.609-.594,2.525,2.525,0,0,0-2.312,1.391V65H58.547V48.094ZM95.594,65a5.946,5.946,0,0,1-.5-1.516,4.9,4.9,0,0,1-4.062,1.828,6,6,0,0,1-4.062-1.445A4.6,4.6,0,0,1,85.3,60.234a4.728,4.728,0,0,1,2.031-4.156,10.348,10.348,0,0,1,5.906-1.406h1.625v-.9q0-2.339-2.016-2.339a1.648,1.648,0,0,0-1.875,1.853H85.7a4.72,4.72,0,0,1,2.086-3.98,8.766,8.766,0,0,1,5.32-1.529,7.686,7.686,0,0,1,5.109,1.578,5.487,5.487,0,0,1,1.922,4.328v7.484a7.665,7.665,0,0,0,.719,3.563V65Zm-3.3-3.437a2.937,2.937,0,0,0,1.633-.422,2.644,2.644,0,0,0,.93-.953v-2.7H93.328q-2.75,0-2.75,2.469a1.507,1.507,0,0,0,.484,1.164A1.753,1.753,0,0,0,92.3,61.563ZM93.609,41h5.563l-4.344,4.906-4.3-.008Zm18.3,19.25a1.216,1.216,0,0,0-.7-1.078,10.7,10.7,0,0,0-2.672-.844,12.184,12.184,0,0,1-3.25-1.148,5.444,5.444,0,0,1-1.953-1.727,4.123,4.123,0,0,1-.672-2.328,4.673,4.673,0,0,1,1.922-3.836,7.917,7.917,0,0,1,5.031-1.508,8.771,8.771,0,0,1,5.375,1.516,4.74,4.74,0,0,1,2.031,3.984h-5.281q0-2.031-2.141-2.031a2.122,2.122,0,0,0-1.391.461,1.427,1.427,0,0,0-.562,1.148A1.31,1.31,0,0,0,108.328,54a6.5,6.5,0,0,0,2.2.719,18.971,18.971,0,0,1,2.648.672q3.812,1.313,3.813,4.7a4.428,4.428,0,0,1-2.055,3.766,9.01,9.01,0,0,1-5.32,1.453,9.2,9.2,0,0,1-3.875-.781,6.48,6.48,0,0,1-2.656-2.125,4.812,4.812,0,0,1-.953-2.828h4.922a2.035,2.035,0,0,0,.781,1.711,3.214,3.214,0,0,0,1.922.539,2.528,2.528,0,0,0,1.617-.437A1.4,1.4,0,0,0,111.906,60.25ZM28.922,98.172a5.429,5.429,0,0,1-4.516,2.141A5.324,5.324,0,0,1,20.2,98.7a6.8,6.8,0,0,1-1.43-4.648V83.094h5.266V94.078a1.893,1.893,0,0,0,2.109,2.172,2.752,2.752,0,0,0,2.578-1.3V83.094h5.3V100H29.078ZM43.031,78.891v4.2h2.781V86.75H43.031v7.734a1.975,1.975,0,0,0,.344,1.328,1.844,1.844,0,0,0,1.359.375,7.725,7.725,0,0,0,1.313-.094v3.766a9.718,9.718,0,0,1-2.969.453,5.516,5.516,0,0,1-4.016-1.281,5.252,5.252,0,0,1-1.3-3.891V86.75H35.609V83.094h2.156v-4.2ZM53.438,100H48.156V83.094h5.281ZM47.844,78.719a2.371,2.371,0,0,1,.813-1.855,3.438,3.438,0,0,1,4.219,0,2.524,2.524,0,0,1,0,3.71,3.438,3.438,0,0,1-4.219,0A2.371,2.371,0,0,1,47.844,78.719ZM62.234,100H56.953V76h5.281Zm8.8,0H65.75V83.094h5.281ZM65.438,78.719a2.371,2.371,0,0,1,.813-1.855,3.438,3.438,0,0,1,4.219,0,2.524,2.524,0,0,1,0,3.71,3.438,3.438,0,0,1-4.219,0A2.371,2.371,0,0,1,65.438,78.719ZM80.484,95.938h7.7V100H73.828V97.063l7.5-9.906H74.156V83.094H88.016v2.844ZM100.266,100a5.946,5.946,0,0,1-.5-1.516,4.9,4.9,0,0,1-4.062,1.828,6,6,0,0,1-4.062-1.445,4.6,4.6,0,0,1-1.672-3.633A4.728,4.728,0,0,1,92,91.078a10.348,10.348,0,0,1,5.906-1.406h1.625v-.9q0-2.339-2.016-2.339a1.648,1.648,0,0,0-1.875,1.853H90.375a4.72,4.72,0,0,1,2.086-3.98,8.766,8.766,0,0,1,5.32-1.529,7.686,7.686,0,0,1,5.109,1.578,5.487,5.487,0,0,1,1.922,4.328v7.484a7.665,7.665,0,0,0,.719,3.563V100Zm-3.3-3.437a2.937,2.937,0,0,0,1.633-.422,2.644,2.644,0,0,0,.93-.953v-2.7H98q-2.75,0-2.75,2.469a1.507,1.507,0,0,0,.484,1.164A1.753,1.753,0,0,0,96.969,96.563Zm10.094-5.141a10.327,10.327,0,0,1,1.734-6.328,5.709,5.709,0,0,1,4.844-2.312,4.855,4.855,0,0,1,3.813,1.781V76h5.281v24H118l-.266-1.812a4.986,4.986,0,0,1-4.125,2.125A5.7,5.7,0,0,1,108.828,98,10.655,10.655,0,0,1,107.063,91.422Zm5.266.328q0,4.5,2.625,4.5a2.592,2.592,0,0,0,2.5-1.469V88.344a2.522,2.522,0,0,0-2.469-1.5q-2.437,0-2.641,3.938ZM135.25,100a5.945,5.945,0,0,1-.5-1.516,4.9,4.9,0,0,1-4.062,1.828,6,6,0,0,1-4.062-1.445,4.6,4.6,0,0,1-1.672-3.633,4.728,4.728,0,0,1,2.031-4.156,10.348,10.348,0,0,1,5.906-1.406h1.625v-.9q0-2.339-2.016-2.339a1.648,1.648,0,0,0-1.875,1.853h-5.266a4.72,4.72,0,0,1,2.086-3.98,8.766,8.766,0,0,1,5.32-1.529,7.686,7.686,0,0,1,5.109,1.578,5.487,5.487,0,0,1,1.922,4.328v7.484a7.665,7.665,0,0,0,.719,3.563V100Zm-3.3-3.437a2.937,2.937,0,0,0,1.633-.422,2.644,2.644,0,0,0,.93-.953v-2.7h-1.531q-2.75,0-2.75,2.469a1.507,1.507,0,0,0,.484,1.164A1.753,1.753,0,0,0,131.953,96.563Zm19.609-1.312a1.216,1.216,0,0,0-.7-1.078,10.7,10.7,0,0,0-2.672-.844,12.184,12.184,0,0,1-3.25-1.148,5.444,5.444,0,0,1-1.953-1.727,4.123,4.123,0,0,1-.672-2.328,4.673,4.673,0,0,1,1.922-3.836,7.917,7.917,0,0,1,5.031-1.508,8.771,8.771,0,0,1,5.375,1.516,4.74,4.74,0,0,1,2.031,3.984h-5.281q0-2.031-2.141-2.031a2.122,2.122,0,0,0-1.391.461,1.427,1.427,0,0,0-.562,1.148A1.31,1.31,0,0,0,147.984,89a6.5,6.5,0,0,0,2.2.719,18.972,18.972,0,0,1,2.648.672q3.813,1.313,3.813,4.7a4.428,4.428,0,0,1-2.055,3.766,9.01,9.01,0,0,1-5.32,1.453,9.2,9.2,0,0,1-3.875-.781,6.48,6.48,0,0,1-2.656-2.125,4.812,4.812,0,0,1-.953-2.828H146.7a2.035,2.035,0,0,0,.781,1.711,3.214,3.214,0,0,0,1.922.539,2.528,2.528,0,0,0,1.617-.437A1.4,1.4,0,0,0,151.563,95.25Z" transform="translate(713 7703.09)" fill="#12263f"/>
      <path id="Trazado_712083" data-name="Trazado 712083" d="M57.925,5.077A33.414,33.414,0,0,1,75.6.007H310.811a33.4,33.4,0,0,0-17.651,5.077C276.24,15.539,270.448,38.694,280.213,56.8c6.536,12.141,18.406,18.927,30.623,18.939H75.6v-.006C63.4,75.719,51.525,68.94,44.982,56.8c-9.766-18.111-3.97-41.27,12.943-51.727" transform="translate(349.762 7481.093)" fill="#fff"/>
      <g id="Grupo_999059" data-name="Grupo 999059" transform="translate(622.728 7481.09)" clip-path="url(#clip-path-10)">
        <rect id="Rectángulo_346773" data-name="Rectángulo 346773" width="86.5" height="81.124" transform="translate(-5.377 0)" fill="#0ce6ea"/>
      </g>
      <path id="Trazado_712334" data-name="Trazado 712334" d="M-5.469,0H-10.75V-16.812L-15.937-15.3v-4l9.984-3.453h.484ZM17.188-9.3q0,4.609-2.07,7.109A7.154,7.154,0,0,1,9.281.313,7.193,7.193,0,0,1,3.406-2.2Q1.328-4.719,1.328-9.3v-4.156q0-4.609,2.07-7.109a7.172,7.172,0,0,1,5.852-2.5,7.175,7.175,0,0,1,5.859,2.516q2.078,2.516,2.078,7.109Zm-5.266-4.828a8.114,8.114,0,0,0-.641-3.664A2.141,2.141,0,0,0,9.25-19a2.091,2.091,0,0,0-1.977,1.125,7.644,7.644,0,0,0-.664,3.406v5.813A8.175,8.175,0,0,0,7.25-4.93,2.149,2.149,0,0,0,9.281-3.75,2.121,2.121,0,0,0,11.266-4.9a7.8,7.8,0,0,0,.656-3.6Z" transform="translate(661 7527.09)" fill="#12263f"/>
      <path id="Trazado_712085" data-name="Trazado 712085" d="M43.922,72.787a37.681,37.681,0,0,1,18.932-5.069H261.71a37.866,37.866,0,0,0,.027,75.732H62.854v-.006A37.863,37.863,0,0,1,43.922,72.787" transform="translate(297.22 7514.213)" fill="#fff"/>
      <g id="Grupo_999063" data-name="Grupo 999063" transform="translate(521.086 7581.921)" clip-path="url(#clip-path-11)">
        <rect id="Rectángulo_346775" data-name="Rectángulo 346775" width="86.5" height="81.124" transform="translate(-5.377 -0.001)" fill="#ff6e33"/>
      </g>
      <path id="Trazado_712335" data-name="Trazado 712335" d="M19.5,21.2a5.562,5.562,0,0,1-3.812,1.531,6.156,6.156,0,0,1-4.906-2.094,8.249,8.249,0,0,1-1.812-5.594,8.4,8.4,0,0,1,1.016-4.062,7.621,7.621,0,0,1,2.852-2.969,7.774,7.774,0,0,1,4.055-1.094,7.547,7.547,0,0,1,4.07,1.133,7.627,7.627,0,0,1,2.836,3.2,11,11,0,0,1,1.047,4.773v2.016a13.676,13.676,0,0,1-1.477,6.531,10.193,10.193,0,0,1-4.211,4.25,13.158,13.158,0,0,1-6.375,1.484h-.328V26.094l1-.016Q18.891,25.812,19.5,21.2Zm-2.391-2.266a2.564,2.564,0,0,0,2.469-1.484V15.266a5.688,5.688,0,0,0-.734-3.234,2.3,2.3,0,0,0-1.984-1.047A2.177,2.177,0,0,0,15,12.172a5.276,5.276,0,0,0-.75,2.875,4.73,4.73,0,0,0,.766,2.836A2.449,2.449,0,0,0,17.109,18.938Z" transform="translate(542 7598.09)" fill="#12263f"/>
      <path id="Trazado_712087" data-name="Trazado 712087" d="M18.94,166.025a37.676,37.676,0,0,1,18.93-5.069v0H236.727a37.866,37.866,0,0,0,.027,75.732H37.87v-.006a37.863,37.863,0,0,1-18.93-70.656" transform="translate(285 7559.82)" fill="#fff"/>
      <g id="Grupo_999067" data-name="Grupo 999067" transform="translate(483.883 7720.765)" clip-path="url(#clip-path-12)">
        <rect id="Rectángulo_346777" data-name="Rectángulo 346777" width="86.5" height="81.124" transform="translate(-5.377 -0.001)" fill="#0ce6ea"/>
      </g>
      <path id="Trazado_712336" data-name="Trazado 712336" d="M24.469,13.328a5.252,5.252,0,0,1-.82,2.922,5.974,5.974,0,0,1-2.258,2.031,6.575,6.575,0,0,1,2.578,2.18,5.625,5.625,0,0,1,.953,3.273,5.954,5.954,0,0,1-2.1,4.813,8.727,8.727,0,0,1-5.789,1.766,8.886,8.886,0,0,1-5.844-1.773,5.912,5.912,0,0,1-2.141-4.8A5.7,5.7,0,0,1,9.984,20.5a6.375,6.375,0,0,1,2.656-2.219,6.008,6.008,0,0,1-2.281-2.031,5.215,5.215,0,0,1-.828-2.922,5.837,5.837,0,0,1,2.016-4.687,8.1,8.1,0,0,1,5.438-1.719,8.152,8.152,0,0,1,5.469,1.719A5.837,5.837,0,0,1,24.469,13.328Zm-4.828,9.984a3,3,0,0,0-.727-2.164A2.53,2.53,0,0,0,17,20.391a2.556,2.556,0,0,0-1.922.758,2.984,2.984,0,0,0-.734,2.164,3.01,3.01,0,0,0,.742,2.148,2.547,2.547,0,0,0,1.945.789,2.448,2.448,0,0,0,1.891-.781A3.064,3.064,0,0,0,19.641,23.313ZM16.984,10.984a1.946,1.946,0,0,0-1.617.7,3.018,3.018,0,0,0-.555,1.93,3.2,3.2,0,0,0,.563,1.969,1.941,1.941,0,0,0,1.656.75,1.861,1.861,0,0,0,1.617-.75,3.3,3.3,0,0,0,.539-1.969,3.024,3.024,0,0,0-.555-1.922A1.972,1.972,0,0,0,16.984,10.984Z" transform="translate(504 7737.09)" fill="#12263f"/>
      <path id="Trazado_712089" data-name="Trazado 712089" d="M43.922,259.808a37.681,37.681,0,0,1,18.932-5.069H261.71a37.866,37.866,0,0,0,.027,75.732H62.854v-.006a37.863,37.863,0,0,1-18.932-70.656" transform="translate(297.22 7605.694)" fill="#fff"/>
      <g id="Grupo_999071" data-name="Grupo 999071" transform="translate(521.086 7860.422)" clip-path="url(#clip-path-13)">
        <rect id="Rectángulo_346779" data-name="Rectángulo 346779" width="86.5" height="81.124" transform="translate(-5.377 -0.001)" fill="#ff6e33"/>
      </g>
      <path id="Trazado_712337" data-name="Trazado 712337" d="M24.938,10.063,16.438,30H10.875l8.516-18.687H8.547V7.25H24.938Z" transform="translate(542 7877.09)" fill="#12263f"/>
      <path id="Trazado_712091" data-name="Trazado 712091" d="M84.177,328.063a37.681,37.681,0,0,1,18.932-5.069v0H329.965a37.866,37.866,0,0,0,.027,75.732H103.109v-.006a37.863,37.863,0,0,1-18.932-70.656" transform="translate(330.607 7639.081)" fill="#fff"/>
      <g id="Grupo_999075" data-name="Grupo 999075" transform="translate(622.728 7962.063)" clip-path="url(#clip-path-14)">
        <rect id="Rectángulo_346781" data-name="Rectángulo 346781" width="86.5" height="81.124" transform="translate(-5.377 -0.001)" fill="#0ce6ea"/>
      </g>
      <path id="Trazado_712338" data-name="Trazado 712338" d="M21.844,6.922v4.141h-.234a7.905,7.905,0,0,0-4.852,1.414,5.97,5.97,0,0,0-2.336,3.93,6.157,6.157,0,0,1,4.5-1.75,5.743,5.743,0,0,1,4.7,2.156,8.7,8.7,0,0,1,1.75,5.656,7.964,7.964,0,0,1-1.023,3.984,7.3,7.3,0,0,1-2.859,2.836,8.217,8.217,0,0,1-4.07,1.023,8.492,8.492,0,0,1-4.328-1.1,7.574,7.574,0,0,1-2.969-3.148,10.367,10.367,0,0,1-1.094-4.719V19.234a13.133,13.133,0,0,1,1.508-6.32,10.931,10.931,0,0,1,4.3-4.4,12.307,12.307,0,0,1,6.2-1.594Zm-4.75,11.8a3.022,3.022,0,0,0-1.75.482A3.067,3.067,0,0,0,14.3,20.384v1.572q0,4.295,2.984,4.295a2.424,2.424,0,0,0,2.008-1.074,4.363,4.363,0,0,0,.8-2.692,4.283,4.283,0,0,0-.82-2.715A2.628,2.628,0,0,0,17.094,18.719Z" transform="translate(643 7978.09)" fill="#12263f"/>
      <path id="Trazado_712068" data-name="Trazado 712068" d="M657.261,5.077A37.68,37.68,0,0,0,638.329.007H439.473a37.866,37.866,0,0,1-.027,75.732H638.329v-.006A37.863,37.863,0,0,0,657.261,5.077" transform="translate(499.954 7481.093)" fill="#fff"/>
      <g id="Grupo_999031" data-name="Grupo 999031" transform="translate(901.526 7481.09)" clip-path="url(#clip-path-15)">
        <rect id="Rectángulo_346759" data-name="Rectángulo 346759" width="86.5" height="81.124" transform="translate(-5.377 0)" fill="#0ce6ea"/>
      </g>
      <path id="Trazado_712339" data-name="Trazado 712339" d="M20.8,30H15.516V13.188L10.328,14.7v-4L20.313,7.25H20.8Z" transform="translate(921 7497.09)" fill="#12263f"/>
      <path id="Trazado_712070" data-name="Trazado 712070" d="M725.516,72.787a37.681,37.681,0,0,0-18.932-5.069H507.728a37.866,37.866,0,0,1-.027,75.732H706.584v-.006a37.864,37.864,0,0,0,18.932-70.656" transform="translate(533.341 7514.213)" fill="#fff"/>
      <g id="Grupo_999035" data-name="Grupo 999035" transform="translate(1003.168 7581.921)" clip-path="url(#clip-path-16)">
        <rect id="Rectángulo_346761" data-name="Rectángulo 346761" width="86.5" height="81.124" transform="translate(-5.377 -0.001)" fill="#ff6e33"/>
      </g>
      <path id="Trazado_712340" data-name="Trazado 712340" d="M25,30H9.125V26.563l7.313-7.687q2.7-3.078,2.7-4.891A3.4,3.4,0,0,0,18.5,11.75a2.287,2.287,0,0,0-1.859-.766,2.316,2.316,0,0,0-1.953,1.023,4.206,4.206,0,0,0-.75,2.555H8.656A7.471,7.471,0,0,1,9.7,10.7a7.341,7.341,0,0,1,2.906-2.773,8.633,8.633,0,0,1,4.156-1,8.493,8.493,0,0,1,5.68,1.7,6.08,6.08,0,0,1,1.992,4.891,7.1,7.1,0,0,1-.5,2.617A11.477,11.477,0,0,1,22.383,18.8a39.163,39.163,0,0,1-3.4,3.742l-2.937,3.391H25Z" transform="translate(1023 7598.09)" fill="#12263f"/>
      <path id="Trazado_712072" data-name="Trazado 712072" d="M750.5,166.025a37.681,37.681,0,0,0-18.932-5.069v0H532.711a37.866,37.866,0,0,1-.027,75.732H731.567v-.006A37.864,37.864,0,0,0,750.5,166.025" transform="translate(545.561 7559.82)" fill="#fff"/>
      <g id="Grupo_999039" data-name="Grupo 999039" transform="translate(1040.371 7720.765)" clip-path="url(#clip-path-17)">
        <rect id="Rectángulo_346763" data-name="Rectángulo 346763" width="86.502" height="81.124" transform="translate(-5.378 -0.001)" fill="#0ce6ea"/>
      </g>
      <path id="Trazado_712341" data-name="Trazado 712341" d="M13.938,16.422h2.484q2.953,0,2.953-2.891a2.5,2.5,0,0,0-.7-1.836,2.666,2.666,0,0,0-1.984-.711,2.854,2.854,0,0,0-1.82.609,1.859,1.859,0,0,0-.773,1.516H8.828a5.39,5.39,0,0,1,1-3.2,6.6,6.6,0,0,1,2.773-2.2,9.482,9.482,0,0,1,3.9-.789,9.317,9.317,0,0,1,5.969,1.734,5.766,5.766,0,0,1,2.172,4.766,4.805,4.805,0,0,1-.9,2.773,6.4,6.4,0,0,1-2.617,2.117A6.116,6.116,0,0,1,23.969,20.3,5.246,5.246,0,0,1,25,23.609a5.87,5.87,0,0,1-2.344,4.875A9.729,9.729,0,0,1,16.5,30.313a10.089,10.089,0,0,1-4.148-.852,6.5,6.5,0,0,1-2.9-2.359,6.134,6.134,0,0,1-.984-3.43h5.3a2.371,2.371,0,0,0,.844,1.813,2.979,2.979,0,0,0,2.078.766,3.12,3.12,0,0,0,2.219-.773,2.585,2.585,0,0,0,.828-1.977,3.022,3.022,0,0,0-.859-2.437,3.592,3.592,0,0,0-2.375-.719H13.938Z" transform="translate(1060 7738.09)" fill="#12263f"/>
      <path id="Trazado_712074" data-name="Trazado 712074" d="M759.744,259.808a49,49,0,0,0-21.907-5.069H507.732a48.958,48.958,0,0,1,21.87,5.076c20.966,10.457,28.143,33.612,16.043,51.717-8.1,12.141-22.806,18.927-37.944,18.939H737.838v-.006c15.128-.013,29.836-6.792,37.944-18.929,12.1-18.111,4.92-41.27-16.037-51.727" transform="translate(533.341 7605.694)" fill="#fff"/>
      <g id="Grupo_999043" data-name="Grupo 999043" transform="translate(1003.168 7860.422)" clip-path="url(#clip-path-18)">
        <rect id="Rectángulo_346765" data-name="Rectángulo 346765" width="86.5" height="81.124" transform="translate(-5.377 -0.001)" fill="#ff6e33"/>
      </g>
      <path id="Trazado_712342" data-name="Trazado 712342" d="M23.031,21.109h2.313v4.063H23.031V30H17.766V25.172h-8.8l-.312-3.219L17.766,7.3V7.25h5.266Zm-9.359,0h4.094v-7l-.328.531Z" transform="translate(1023 7877.09)" fill="#12263f"/>
      <path id="Trazado_712076" data-name="Trazado 712076" d="M657.261,328.063a37.68,37.68,0,0,0-18.932-5.069v0H439.473a37.866,37.866,0,0,1-.027,75.732H638.329v-.006a37.864,37.864,0,0,0,18.932-70.656" transform="translate(499.954 7639.081)" fill="#fff"/>
      <g id="Grupo_999047" data-name="Grupo 999047" transform="translate(901.526 7962.063)" clip-path="url(#clip-path-19)">
        <rect id="Rectángulo_346767" data-name="Rectángulo 346767" width="86.5" height="81.124" transform="translate(-5.377 -0.001)" fill="#0ce6ea"/>
      </g>
      <path id="Trazado_712343" data-name="Trazado 712343" d="M12.438,18.887,13.828,7.25h13.3v4.063H18.109l-.516,4.551a6.211,6.211,0,0,1,1.477-.581,6.737,6.737,0,0,1,1.789-.251,6.674,6.674,0,0,1,5.211,2.008,8.088,8.088,0,0,1,1.82,5.633,8.073,8.073,0,0,1-.977,3.961,6.712,6.712,0,0,1-2.742,2.727A8.657,8.657,0,0,1,20,30.313a9.315,9.315,0,0,1-4.016-.882,7.2,7.2,0,0,1-2.937-2.42A5.88,5.88,0,0,1,12,23.537h5.281a2.987,2.987,0,0,0,.8,1.98,2.529,2.529,0,0,0,1.891.733q2.656,0,2.656-3.929,0-3.633-3.25-3.633a3.243,3.243,0,0,0-2.75,1.185Z" transform="translate(918 7978.09)" fill="#12263f"/>
      <path id="Trazado_712344" data-name="Trazado 712344" d="M9.026-5.1H4.052V0H.967V-12.8H9.527v2.382H4.052v2.944H9.026ZM16.2-6.829l-.976-.07a1.752,1.752,0,0,0-1.793.879V0H10.468V-9.51h2.777l.1,1.222a2.294,2.294,0,0,1,2.083-1.4,2.888,2.888,0,0,1,.826.105ZM20.391,0H17.42V-9.51h2.971ZM17.244-11.971a1.334,1.334,0,0,1,.457-1.043,1.718,1.718,0,0,1,1.187-.407,1.718,1.718,0,0,1,1.187.407,1.334,1.334,0,0,1,.457,1.043,1.334,1.334,0,0,1-.457,1.043,1.718,1.718,0,0,1-1.187.407,1.718,1.718,0,0,1-1.187-.407A1.334,1.334,0,0,1,17.244-11.971Zm9.949,9.3a.684.684,0,0,0-.4-.606,6.016,6.016,0,0,0-1.5-.475A6.853,6.853,0,0,1,23.467-4.4a3.062,3.062,0,0,1-1.1-.971,2.319,2.319,0,0,1-.378-1.31,2.628,2.628,0,0,1,1.081-2.158,4.453,4.453,0,0,1,2.83-.848,4.934,4.934,0,0,1,3.023.853,2.666,2.666,0,0,1,1.143,2.241H27.1q0-1.143-1.2-1.143a1.194,1.194,0,0,0-.782.259.8.8,0,0,0-.316.646.737.737,0,0,0,.387.642,3.654,3.654,0,0,0,1.235.4,10.671,10.671,0,0,1,1.49.378A2.706,2.706,0,0,1,30.05-2.76,2.491,2.491,0,0,1,28.894-.642,5.068,5.068,0,0,1,25.9.176a5.172,5.172,0,0,1-2.18-.439,3.645,3.645,0,0,1-1.494-1.2,2.707,2.707,0,0,1-.536-1.591H24.46a1.145,1.145,0,0,0,.439.962,1.808,1.808,0,0,0,1.081.3,1.422,1.422,0,0,0,.91-.246A.787.787,0,0,0,27.193-2.672ZM36.035.176a4.889,4.889,0,0,1-3.542-1.305,4.507,4.507,0,0,1-1.354-3.4v-.246a5.84,5.84,0,0,1,.541-2.575,3.955,3.955,0,0,1,1.578-1.727,4.763,4.763,0,0,1,2.461-.611,4.117,4.117,0,0,1,3.164,1.244,4.887,4.887,0,0,1,1.16,3.467v1.151H34.154a2.135,2.135,0,0,0,.694,1.257,2.066,2.066,0,0,0,1.389.457,2.662,2.662,0,0,0,2.2-.984l1.354,1.6A3.784,3.784,0,0,1,38.219-.277,5.3,5.3,0,0,1,36.035.176ZM35.7-7.4q-1.3,0-1.547,1.723h2.988v-.229a1.467,1.467,0,0,0-.36-1.1A1.434,1.434,0,0,0,35.7-7.4ZM44.358,0H41.388V-13.5h2.971Zm4.948,0H46.336V-9.51h2.971ZM46.16-11.971a1.334,1.334,0,0,1,.457-1.043,1.718,1.718,0,0,1,1.187-.407,1.718,1.718,0,0,1,1.187.407,1.334,1.334,0,0,1,.457,1.043,1.334,1.334,0,0,1-.457,1.043,1.718,1.718,0,0,1-1.187.407,1.718,1.718,0,0,1-1.187-.407A1.334,1.334,0,0,1,46.16-11.971Zm7.69,2.461.1,1.116a3.225,3.225,0,0,1,2.716-1.292,2.713,2.713,0,0,1,2.219.888,4.226,4.226,0,0,1,.76,2.672V0H56.672V-6a1.6,1.6,0,0,0-.29-1.059A1.342,1.342,0,0,0,55.327-7.4a1.413,1.413,0,0,0-1.292.686V0H51.073V-9.51ZM66.639,0a3.344,3.344,0,0,1-.281-.853A2.754,2.754,0,0,1,64.072.176a3.374,3.374,0,0,1-2.285-.813,2.588,2.588,0,0,1-.94-2.043,2.66,2.66,0,0,1,1.143-2.338,5.821,5.821,0,0,1,3.322-.791h.914v-.5q0-1.316-1.134-1.316a.927.927,0,0,0-1.055,1.042H61.075a2.655,2.655,0,0,1,1.173-2.239,4.931,4.931,0,0,1,2.993-.86,4.323,4.323,0,0,1,2.874.888A3.086,3.086,0,0,1,69.2-6.363v4.21a4.311,4.311,0,0,0,.4,2V0ZM64.784-1.934a1.652,1.652,0,0,0,.918-.237,1.487,1.487,0,0,0,.523-.536V-4.228h-.861q-1.547,0-1.547,1.389a.848.848,0,0,0,.272.655A.986.986,0,0,0,64.784-1.934Z" transform="translate(1035 7526.09)" fill="#12263f"/>
      <path id="Trazado_712345" data-name="Trazado 712345" d="M7.567-3.4a1.268,1.268,0,0,0-.479-1.055,5.954,5.954,0,0,0-1.683-.782,16.147,16.147,0,0,1-1.969-.782Q.949-7.242.949-9.378a3.011,3.011,0,0,1,.62-1.876A4.008,4.008,0,0,1,3.322-12.52a6.823,6.823,0,0,1,2.549-.453,5.969,5.969,0,0,1,2.474.492,3.917,3.917,0,0,1,1.7,1.4A3.661,3.661,0,0,1,10.652-9H7.576A1.547,1.547,0,0,0,7.1-10.213a1.867,1.867,0,0,0-1.3-.431,2.106,2.106,0,0,0-1.305.365,1.119,1.119,0,0,0-.479.927,1.127,1.127,0,0,0,.527.892A6.65,6.65,0,0,0,6.4-7.633a11.36,11.36,0,0,1,2.18.918,3.663,3.663,0,0,1,2.074,3.3A3.125,3.125,0,0,1,9.387-.782,5.629,5.629,0,0,1,5.915.176,6.888,6.888,0,0,1,3.1-.382,4.247,4.247,0,0,1,1.2-1.912,3.985,3.985,0,0,1,.563-4.148H3.656a1.963,1.963,0,0,0,.532,1.516,2.513,2.513,0,0,0,1.727.488,1.985,1.985,0,0,0,1.208-.33A1.088,1.088,0,0,0,7.567-3.4ZM15.223,0H12.252V-9.51h2.971ZM12.076-11.971a1.334,1.334,0,0,1,.457-1.043,1.718,1.718,0,0,1,1.187-.407,1.718,1.718,0,0,1,1.187.407,1.334,1.334,0,0,1,.457,1.043,1.334,1.334,0,0,1-.457,1.043,1.718,1.718,0,0,1-1.187.407,1.718,1.718,0,0,1-1.187-.407A1.334,1.334,0,0,1,12.076-11.971Zm4.6,7.146a5.809,5.809,0,0,1,.976-3.56,3.211,3.211,0,0,1,2.725-1.3,2.731,2.731,0,0,1,2.145,1V-13.5h2.971V0H22.825l-.149-1.02a2.8,2.8,0,0,1-2.32,1.2,3.205,3.205,0,0,1-2.689-1.3A5.993,5.993,0,0,1,16.673-4.825Zm2.962.185q0,2.531,1.477,2.531a1.458,1.458,0,0,0,1.406-.826V-6.557A1.419,1.419,0,0,0,21.129-7.4q-1.371,0-1.485,2.215Zm7.163-.2a5.613,5.613,0,0,1,.554-2.536,3.96,3.96,0,0,1,1.591-1.709,4.791,4.791,0,0,1,2.435-.6,4.373,4.373,0,0,1,3.366,1.323,5.076,5.076,0,0,1,1.23,3.6v.105a4.925,4.925,0,0,1-1.235,3.529A4.384,4.384,0,0,1,31.395.176a4.434,4.434,0,0,1-3.261-1.217,4.761,4.761,0,0,1-1.327-3.3Zm2.962.185a3.538,3.538,0,0,0,.413,1.934,1.376,1.376,0,0,0,1.222.615q1.582,0,1.617-2.435v-.3q0-2.558-1.635-2.558-1.485,0-1.608,2.206ZM31.781-13.5H34.91l-2.443,2.76-2.417,0Z" transform="translate(1125 7626.794)" fill="#12263f"/>
      <path id="Trazado_712346" data-name="Trazado 712346" d="M4.052-4.342V0H.967V-12.8H6.073a5.948,5.948,0,0,1,2.6.541,4.074,4.074,0,0,1,1.749,1.538,4.2,4.2,0,0,1,.62,2.263A3.7,3.7,0,0,1,9.7-5.462,5.561,5.561,0,0,1,6.021-4.342Zm0-2.382H6.073A1.906,1.906,0,0,0,7.44-7.172a1.665,1.665,0,0,0,.47-1.266A2.059,2.059,0,0,0,7.427-9.87a1.712,1.712,0,0,0-1.318-.545H4.052ZM15.671,0H12.7V-13.5h2.971Zm7.181,0a3.344,3.344,0,0,1-.281-.853A2.754,2.754,0,0,1,20.285.176,3.374,3.374,0,0,1,18-.637a2.588,2.588,0,0,1-.94-2.043A2.66,2.66,0,0,1,18.2-5.019a5.821,5.821,0,0,1,3.322-.791h.914v-.5q0-1.316-1.134-1.316A.927.927,0,0,0,20.25-6.587H17.288a2.655,2.655,0,0,1,1.173-2.239,4.931,4.931,0,0,1,2.993-.86,4.323,4.323,0,0,1,2.874.888,3.086,3.086,0,0,1,1.081,2.435v4.21a4.311,4.311,0,0,0,.4,2V0ZM21-1.934a1.652,1.652,0,0,0,.918-.237,1.487,1.487,0,0,0,.523-.536V-4.228h-.861q-1.547,0-1.547,1.389a.848.848,0,0,0,.272.655A.986.986,0,0,0,21-1.934Zm11.03-.738a.684.684,0,0,0-.4-.606,6.016,6.016,0,0,0-1.5-.475A6.853,6.853,0,0,1,28.3-4.4a3.062,3.062,0,0,1-1.1-.971,2.319,2.319,0,0,1-.378-1.31,2.628,2.628,0,0,1,1.081-2.158,4.453,4.453,0,0,1,2.83-.848,4.934,4.934,0,0,1,3.023.853A2.666,2.666,0,0,1,34.9-6.592H31.931q0-1.143-1.2-1.143a1.194,1.194,0,0,0-.782.259.8.8,0,0,0-.316.646.737.737,0,0,0,.387.642,3.654,3.654,0,0,0,1.235.4,10.671,10.671,0,0,1,1.49.378A2.706,2.706,0,0,1,34.884-2.76,2.491,2.491,0,0,1,33.728-.642a5.068,5.068,0,0,1-2.993.817,5.172,5.172,0,0,1-2.18-.439,3.645,3.645,0,0,1-1.494-1.2,2.707,2.707,0,0,1-.536-1.591h2.769a1.145,1.145,0,0,0,.439.962,1.808,1.808,0,0,0,1.081.3,1.422,1.422,0,0,0,.91-.246A.787.787,0,0,0,32.027-2.672Zm7.69-9.2V-9.51h1.564v2.057H39.718V-3.1a1.111,1.111,0,0,0,.193.747,1.037,1.037,0,0,0,.765.211,4.345,4.345,0,0,0,.738-.053V-.079a5.466,5.466,0,0,1-1.67.255,3.1,3.1,0,0,1-2.259-.721,2.954,2.954,0,0,1-.729-2.188v-4.72H35.543V-9.51h1.213v-2.364ZM48.2-6.829l-.976-.07a1.752,1.752,0,0,0-1.793.879V0H42.469V-9.51h2.777l.1,1.222a2.294,2.294,0,0,1,2.083-1.4,2.888,2.888,0,0,1,.826.105Zm.378,1.986a5.613,5.613,0,0,1,.554-2.536,3.96,3.96,0,0,1,1.591-1.709,4.791,4.791,0,0,1,2.435-.6,4.373,4.373,0,0,1,3.366,1.323,5.076,5.076,0,0,1,1.23,3.6v.105a4.925,4.925,0,0,1-1.235,3.529A4.384,4.384,0,0,1,53.174.176a4.434,4.434,0,0,1-3.261-1.217,4.761,4.761,0,0,1-1.327-3.3Zm2.962.185a3.538,3.538,0,0,0,.413,1.934,1.376,1.376,0,0,0,1.222.615q1.582,0,1.617-2.435v-.3q0-2.558-1.635-2.558-1.485,0-1.608,2.206ZM53.561-13.5h3.129l-2.443,2.76-2.417,0Zm8.218,3.99.1,1.116a3.225,3.225,0,0,1,2.716-1.292A2.713,2.713,0,0,1,66.81-8.8a4.226,4.226,0,0,1,.76,2.672V0H64.6V-6a1.6,1.6,0,0,0-.29-1.059A1.342,1.342,0,0,0,63.255-7.4a1.413,1.413,0,0,0-1.292.686V0H59V-9.51Z" transform="translate(1152 7764.59)" fill="#12263f"/>
      <path id="Trazado_712347" data-name="Trazado 712347" d="M8.9-5.432H4.052v3.059h5.73V0H.967V-12.8H9.8v2.382H4.052v2.7H8.9Zm4.72-4.078.1,1.116a3.225,3.225,0,0,1,2.716-1.292,2.713,2.713,0,0,1,2.219.888,4.226,4.226,0,0,1,.76,2.672V0H16.444V-6a1.6,1.6,0,0,0-.29-1.059A1.342,1.342,0,0,0,15.1-7.4a1.413,1.413,0,0,0-1.292.686V0H10.846V-9.51ZM24.5-11.874V-9.51h1.564v2.057H24.5V-3.1a1.111,1.111,0,0,0,.193.747,1.037,1.037,0,0,0,.765.211A4.345,4.345,0,0,0,26.2-2.2V-.079a5.466,5.466,0,0,1-1.67.255,3.1,3.1,0,0,1-2.259-.721,2.954,2.954,0,0,1-.729-2.188v-4.72H20.329V-9.51h1.213v-2.364Zm8.481,5.045L32.01-6.9a1.752,1.752,0,0,0-1.793.879V0H27.255V-9.51h2.777l.1,1.222a2.294,2.294,0,0,1,2.083-1.4,2.888,2.888,0,0,1,.826.105Zm5.5,7a4.889,4.889,0,0,1-3.542-1.305,4.507,4.507,0,0,1-1.354-3.4v-.246a5.84,5.84,0,0,1,.541-2.575A3.955,3.955,0,0,1,35.71-9.075a4.763,4.763,0,0,1,2.461-.611,4.117,4.117,0,0,1,3.164,1.244A4.887,4.887,0,0,1,42.5-4.975v1.151H36.606A2.135,2.135,0,0,0,37.3-2.566a2.066,2.066,0,0,0,1.389.457,2.662,2.662,0,0,0,2.2-.984l1.354,1.6A3.784,3.784,0,0,1,40.671-.277,5.3,5.3,0,0,1,38.487.176ZM38.153-7.4q-1.3,0-1.547,1.723h2.988v-.229a1.467,1.467,0,0,0-.36-1.1A1.434,1.434,0,0,0,38.153-7.4Zm8.982-4.474V-9.51H48.7v2.057H47.136V-3.1a1.111,1.111,0,0,0,.193.747,1.037,1.037,0,0,0,.765.211,4.345,4.345,0,0,0,.738-.053V-.079a5.466,5.466,0,0,1-1.67.255A3.1,3.1,0,0,1,44.9-.545a2.954,2.954,0,0,1-.729-2.188v-4.72H42.961V-9.51h1.213v-2.364ZM54.466.176a4.889,4.889,0,0,1-3.542-1.305,4.507,4.507,0,0,1-1.354-3.4v-.246a5.84,5.84,0,0,1,.541-2.575,3.955,3.955,0,0,1,1.578-1.727,4.763,4.763,0,0,1,2.461-.611,4.117,4.117,0,0,1,3.164,1.244,4.887,4.887,0,0,1,1.16,3.467v1.151H52.585a2.135,2.135,0,0,0,.694,1.257,2.066,2.066,0,0,0,1.389.457,2.662,2.662,0,0,0,2.2-.984l1.354,1.6A3.784,3.784,0,0,1,56.65-.277,5.3,5.3,0,0,1,54.466.176ZM54.132-7.4q-1.3,0-1.547,1.723h2.988v-.229a1.467,1.467,0,0,0-.36-1.1A1.434,1.434,0,0,0,54.132-7.4ZM62.789,0H59.818V-13.5h2.971ZM69.97,0a3.344,3.344,0,0,1-.281-.853A2.754,2.754,0,0,1,67.4.176a3.374,3.374,0,0,1-2.285-.813,2.588,2.588,0,0,1-.94-2.043A2.66,2.66,0,0,1,65.32-5.019a5.821,5.821,0,0,1,3.322-.791h.914v-.5q0-1.316-1.134-1.316a.927.927,0,0,0-1.055,1.042H64.406A2.655,2.655,0,0,1,65.58-8.825a4.931,4.931,0,0,1,2.993-.86,4.323,4.323,0,0,1,2.874.888,3.086,3.086,0,0,1,1.081,2.435v4.21a4.311,4.311,0,0,0,.4,2V0ZM68.115-1.934a1.652,1.652,0,0,0,.918-.237,1.487,1.487,0,0,0,.523-.536V-4.228H68.7q-1.547,0-1.547,1.389a.848.848,0,0,0,.272.655A.986.986,0,0,0,68.115-1.934Zm11.03-.738a.684.684,0,0,0-.4-.606,6.016,6.016,0,0,0-1.5-.475A6.853,6.853,0,0,1,75.419-4.4a3.062,3.062,0,0,1-1.1-.971,2.319,2.319,0,0,1-.378-1.31,2.628,2.628,0,0,1,1.081-2.158,4.453,4.453,0,0,1,2.83-.848,4.934,4.934,0,0,1,3.023.853A2.666,2.666,0,0,1,82.02-6.592H79.049q0-1.143-1.2-1.143a1.194,1.194,0,0,0-.782.259.8.8,0,0,0-.316.646.737.737,0,0,0,.387.642,3.654,3.654,0,0,0,1.235.4,10.671,10.671,0,0,1,1.49.378A2.706,2.706,0,0,1,82-2.76,2.491,2.491,0,0,1,80.846-.642a5.068,5.068,0,0,1-2.993.817,5.172,5.172,0,0,1-2.18-.439,3.645,3.645,0,0,1-1.494-1.2,2.707,2.707,0,0,1-.536-1.591h2.769a1.145,1.145,0,0,0,.439.962,1.808,1.808,0,0,0,1.081.3,1.422,1.422,0,0,0,.91-.246A.787.787,0,0,0,79.146-2.672ZM93.226,0a3.344,3.344,0,0,1-.281-.853A2.754,2.754,0,0,1,90.659.176a3.374,3.374,0,0,1-2.285-.813,2.588,2.588,0,0,1-.94-2.043,2.66,2.66,0,0,1,1.143-2.338A5.821,5.821,0,0,1,91.9-5.81h.914v-.5q0-1.316-1.134-1.316a.927.927,0,0,0-1.055,1.042H87.662a2.655,2.655,0,0,1,1.173-2.239,4.931,4.931,0,0,1,2.993-.86A4.323,4.323,0,0,1,94.7-8.8a3.086,3.086,0,0,1,1.081,2.435v4.21a4.311,4.311,0,0,0,.4,2V0ZM91.371-1.934a1.652,1.652,0,0,0,.918-.237,1.487,1.487,0,0,0,.523-.536V-4.228h-.861q-1.547,0-1.547,1.389a.848.848,0,0,0,.272.655A.986.986,0,0,0,91.371-1.934ZM98.112,0V-7.453h-1.38V-9.51h1.38v-.316a3.631,3.631,0,0,1,1.248-2.909,4.987,4.987,0,0,1,3.243-.949,11.509,11.509,0,0,1,3.094.51l-.4,2.338-.492-.132a7.832,7.832,0,0,0-2.021-.255q-1.7,0-1.7,1.547v.167h1.863v2.057h-1.863V0Zm8.947,0H104.08V-9.51h2.979Zm6.407.176a4.889,4.889,0,0,1-3.542-1.305,4.507,4.507,0,0,1-1.354-3.4v-.246a5.84,5.84,0,0,1,.541-2.575,3.955,3.955,0,0,1,1.578-1.727,4.763,4.763,0,0,1,2.461-.611,4.117,4.117,0,0,1,3.164,1.244,4.887,4.887,0,0,1,1.16,3.467v1.151h-5.889a2.135,2.135,0,0,0,.694,1.257,2.066,2.066,0,0,0,1.389.457,2.662,2.662,0,0,0,2.2-.984l1.354,1.6a3.784,3.784,0,0,1-1.569,1.217A5.3,5.3,0,0,1,113.467.176ZM113.133-7.4q-1.3,0-1.547,1.723h2.988v-.229a1.467,1.467,0,0,0-.36-1.1A1.434,1.434,0,0,0,113.133-7.4ZM121.79,0h-2.971V-13.5h2.971Zm5.273-11.874V-9.51h1.564v2.057h-1.564V-3.1a1.111,1.111,0,0,0,.193.747,1.037,1.037,0,0,0,.765.211,4.345,4.345,0,0,0,.738-.053V-.079a5.466,5.466,0,0,1-1.67.255,3.1,3.1,0,0,1-2.259-.721,2.954,2.954,0,0,1-.729-2.188v-4.72h-1.213V-9.51H124.1v-2.364Zm8.481,5.045-.976-.07a1.752,1.752,0,0,0-1.793.879V0h-2.962V-9.51h2.777l.1,1.222a2.294,2.294,0,0,1,2.083-1.4,2.888,2.888,0,0,1,.826.105ZM141.706,0a3.344,3.344,0,0,1-.281-.853A2.754,2.754,0,0,1,139.14.176a3.374,3.374,0,0,1-2.285-.813,2.588,2.588,0,0,1-.94-2.043,2.66,2.66,0,0,1,1.143-2.338,5.821,5.821,0,0,1,3.322-.791h.914v-.5q0-1.316-1.134-1.316A.927.927,0,0,0,139.1-6.587h-2.962a2.655,2.655,0,0,1,1.173-2.239,4.931,4.931,0,0,1,2.993-.86,4.323,4.323,0,0,1,2.874.888,3.086,3.086,0,0,1,1.081,2.435v4.21a4.311,4.311,0,0,0,.4,2V0Zm-1.854-1.934a1.652,1.652,0,0,0,.918-.237,1.487,1.487,0,0,0,.523-.536V-4.228h-.861q-1.547,0-1.547,1.389a.848.848,0,0,0,.272.655A.986.986,0,0,0,139.852-1.934Zm5.678-2.892a5.809,5.809,0,0,1,.976-3.56,3.211,3.211,0,0,1,2.725-1.3,2.731,2.731,0,0,1,2.145,1V-13.5h2.971V0h-2.663l-.149-1.02a2.8,2.8,0,0,1-2.32,1.2,3.205,3.205,0,0,1-2.689-1.3A5.993,5.993,0,0,1,145.529-4.825Zm2.962.185q0,2.531,1.477,2.531a1.458,1.458,0,0,0,1.406-.826V-6.557a1.419,1.419,0,0,0-1.389-.844q-1.371,0-1.485,2.215ZM161.385,0a3.344,3.344,0,0,1-.281-.853A2.754,2.754,0,0,1,158.818.176a3.374,3.374,0,0,1-2.285-.813,2.588,2.588,0,0,1-.94-2.043,2.66,2.66,0,0,1,1.143-2.338,5.821,5.821,0,0,1,3.322-.791h.914v-.5q0-1.316-1.134-1.316a.927.927,0,0,0-1.055,1.042h-2.962a2.655,2.655,0,0,1,1.173-2.239,4.931,4.931,0,0,1,2.993-.86,4.323,4.323,0,0,1,2.874.888,3.086,3.086,0,0,1,1.081,2.435v4.21a4.311,4.311,0,0,0,.4,2V0ZM159.53-1.934a1.652,1.652,0,0,0,.918-.237,1.487,1.487,0,0,0,.523-.536V-4.228h-.861q-1.547,0-1.547,1.389a.848.848,0,0,0,.272.655A.986.986,0,0,0,159.53-1.934Zm11.03-.738a.684.684,0,0,0-.4-.606,6.016,6.016,0,0,0-1.5-.475,6.853,6.853,0,0,1-1.828-.646,3.062,3.062,0,0,1-1.1-.971,2.319,2.319,0,0,1-.378-1.31,2.628,2.628,0,0,1,1.081-2.158,4.453,4.453,0,0,1,2.83-.848,4.934,4.934,0,0,1,3.023.853,2.666,2.666,0,0,1,1.143,2.241h-2.971q0-1.143-1.2-1.143a1.194,1.194,0,0,0-.782.259.8.8,0,0,0-.316.646.737.737,0,0,0,.387.642,3.654,3.654,0,0,0,1.235.4,10.671,10.671,0,0,1,1.49.378,2.706,2.706,0,0,1,2.145,2.646,2.491,2.491,0,0,1-1.156,2.118,5.068,5.068,0,0,1-2.993.817,5.172,5.172,0,0,1-2.18-.439,3.645,3.645,0,0,1-1.494-1.2,2.707,2.707,0,0,1-.536-1.591h2.769a1.145,1.145,0,0,0,.439.962,1.808,1.808,0,0,0,1.081.3,1.422,1.422,0,0,0,.91-.246A.787.787,0,0,0,170.561-2.672Z" transform="translate(1105 7905.167)" fill="#12263f"/>
      <path id="Trazado_712348" data-name="Trazado 712348" d="M11.663,0H8.6V-5.344H4.052V0H.967V-12.8H4.052v5.08H8.6V-12.8h3.067ZM16.6,0H13.632V-9.51H16.6ZM13.456-11.971a1.334,1.334,0,0,1,.457-1.043,1.718,1.718,0,0,1,1.187-.407,1.718,1.718,0,0,1,1.187.407,1.334,1.334,0,0,1,.457,1.043,1.334,1.334,0,0,1-.457,1.043,1.718,1.718,0,0,1-1.187.407,1.718,1.718,0,0,1-1.187-.407A1.334,1.334,0,0,1,13.456-11.971Zm4.6,7.146a5.809,5.809,0,0,1,.976-3.56,3.211,3.211,0,0,1,2.725-1.3,2.731,2.731,0,0,1,2.145,1V-13.5h2.971V0H24.205l-.149-1.02a2.8,2.8,0,0,1-2.32,1.2,3.205,3.205,0,0,1-2.689-1.3A5.993,5.993,0,0,1,18.053-4.825Zm2.962.185q0,2.531,1.477,2.531A1.458,1.458,0,0,0,23.9-2.936V-6.557A1.419,1.419,0,0,0,22.509-7.4q-1.371,0-1.485,2.215ZM34.3-6.829l-.976-.07a1.752,1.752,0,0,0-1.793.879V0H28.573V-9.51h2.777l.1,1.222a2.294,2.294,0,0,1,2.083-1.4,2.888,2.888,0,0,1,.826.105Zm.378,1.986a5.613,5.613,0,0,1,.554-2.536,3.96,3.96,0,0,1,1.591-1.709,4.791,4.791,0,0,1,2.435-.6,4.373,4.373,0,0,1,3.366,1.323,5.076,5.076,0,0,1,1.23,3.6v.105a4.925,4.925,0,0,1-1.235,3.529A4.384,4.384,0,0,1,39.278.176a4.434,4.434,0,0,1-3.261-1.217,4.761,4.761,0,0,1-1.327-3.3Zm2.962.185a3.538,3.538,0,0,0,.413,1.934,1.376,1.376,0,0,0,1.222.615q1.582,0,1.617-2.435v-.3Q40.9-7.4,39.261-7.4q-1.485,0-1.608,2.206Zm12.5,1.986a.684.684,0,0,0-.4-.606,6.016,6.016,0,0,0-1.5-.475A6.853,6.853,0,0,1,46.415-4.4a3.062,3.062,0,0,1-1.1-.971,2.319,2.319,0,0,1-.378-1.31A2.628,2.628,0,0,1,46.02-8.837a4.453,4.453,0,0,1,2.83-.848,4.934,4.934,0,0,1,3.023.853,2.666,2.666,0,0,1,1.143,2.241H50.045q0-1.143-1.2-1.143a1.194,1.194,0,0,0-.782.259.8.8,0,0,0-.316.646.737.737,0,0,0,.387.642,3.654,3.654,0,0,0,1.235.4,10.671,10.671,0,0,1,1.49.378A2.706,2.706,0,0,1,53-2.76,2.491,2.491,0,0,1,51.842-.642,5.068,5.068,0,0,1,48.85.176a5.172,5.172,0,0,1-2.18-.439,3.645,3.645,0,0,1-1.494-1.2A2.707,2.707,0,0,1,44.64-3.05h2.769a1.145,1.145,0,0,0,.439.962,1.808,1.808,0,0,0,1.081.3,1.422,1.422,0,0,0,.91-.246A.787.787,0,0,0,50.142-2.672Zm3.867-2.171a5.613,5.613,0,0,1,.554-2.536,3.96,3.96,0,0,1,1.591-1.709,4.791,4.791,0,0,1,2.435-.6,4.373,4.373,0,0,1,3.366,1.323,5.076,5.076,0,0,1,1.23,3.6v.105A4.925,4.925,0,0,1,61.95-1.129,4.384,4.384,0,0,1,58.605.176a4.434,4.434,0,0,1-3.261-1.217,4.761,4.761,0,0,1-1.327-3.3Zm2.962.185a3.538,3.538,0,0,0,.413,1.934,1.376,1.376,0,0,0,1.222.615q1.582,0,1.617-2.435v-.3q0-2.558-1.635-2.558-1.485,0-1.608,2.206ZM67.614,0H64.644V-13.5h2.971ZM75.1-1.028a3.054,3.054,0,0,1-2.54,1.2,3,3,0,0,1-2.369-.91,3.826,3.826,0,0,1-.8-2.615V-9.51h2.962v6.179a1.065,1.065,0,0,0,1.187,1.222,1.548,1.548,0,0,0,1.45-.729V-9.51h2.979V0H75.19ZM88.418-4.676a5.8,5.8,0,0,1-.967,3.595A3.238,3.238,0,0,1,84.727.176,2.81,2.81,0,0,1,82.389-.976L82.266,0H79.611V-13.5h2.962v4.755a2.711,2.711,0,0,1,2.136-.94,3.239,3.239,0,0,1,2.742,1.274,5.826,5.826,0,0,1,.967,3.586Zm-2.971-.189a3.866,3.866,0,0,0-.365-1.952A1.229,1.229,0,0,0,83.962-7.4a1.418,1.418,0,0,0-1.389.763v3.773a1.426,1.426,0,0,0,1.406.755,1.258,1.258,0,0,0,1.327-1.018A7.309,7.309,0,0,0,85.447-4.865ZM92.848,0H89.877V-13.5h2.971Zm6.425.176A4.889,4.889,0,0,1,95.73-1.129a4.507,4.507,0,0,1-1.354-3.4v-.246a5.84,5.84,0,0,1,.541-2.575A3.955,3.955,0,0,1,96.5-9.075a4.763,4.763,0,0,1,2.461-.611,4.117,4.117,0,0,1,3.164,1.244,4.887,4.887,0,0,1,1.16,3.467v1.151H97.392a2.135,2.135,0,0,0,.694,1.257,2.066,2.066,0,0,0,1.389.457,2.662,2.662,0,0,0,2.2-.984l1.354,1.6a3.784,3.784,0,0,1-1.569,1.217A5.3,5.3,0,0,1,99.272.176ZM98.938-7.4q-1.3,0-1.547,1.723h2.988v-.229a1.467,1.467,0,0,0-.36-1.1A1.434,1.434,0,0,0,98.938-7.4ZM109.45-2.672a.684.684,0,0,0-.4-.606,6.016,6.016,0,0,0-1.5-.475,6.853,6.853,0,0,1-1.828-.646,3.062,3.062,0,0,1-1.1-.971,2.319,2.319,0,0,1-.378-1.31,2.628,2.628,0,0,1,1.081-2.158,4.453,4.453,0,0,1,2.83-.848,4.934,4.934,0,0,1,3.023.853,2.666,2.666,0,0,1,1.143,2.241h-2.971q0-1.143-1.2-1.143a1.194,1.194,0,0,0-.782.259.8.8,0,0,0-.316.646.737.737,0,0,0,.387.642,3.654,3.654,0,0,0,1.235.4,10.671,10.671,0,0,1,1.49.378,2.706,2.706,0,0,1,2.145,2.646,2.491,2.491,0,0,1-1.156,2.118,5.068,5.068,0,0,1-2.993.817,5.172,5.172,0,0,1-2.18-.439,3.645,3.645,0,0,1-1.494-1.2,2.707,2.707,0,0,1-.536-1.591h2.769a1.145,1.145,0,0,0,.439.962,1.808,1.808,0,0,0,1.081.3,1.422,1.422,0,0,0,.91-.246A.787.787,0,0,0,109.45-2.672Z" transform="translate(1004 8006.5)" fill="#12263f"/>
      <path id="Trazado_712349" data-name="Trazado 712349" d="M4.052-4.342V0H.967V-12.8H6.073a5.948,5.948,0,0,1,2.6.541,4.074,4.074,0,0,1,1.749,1.538,4.2,4.2,0,0,1,.62,2.263A3.7,3.7,0,0,1,9.7-5.462,5.561,5.561,0,0,1,6.021-4.342Zm0-2.382H6.073A1.906,1.906,0,0,0,7.44-7.172a1.665,1.665,0,0,0,.47-1.266A2.059,2.059,0,0,0,7.427-9.87a1.712,1.712,0,0,0-1.318-.545H4.052ZM17.807,0a3.344,3.344,0,0,1-.281-.853A2.754,2.754,0,0,1,15.24.176a3.374,3.374,0,0,1-2.285-.813,2.588,2.588,0,0,1-.94-2.043,2.66,2.66,0,0,1,1.143-2.338,5.821,5.821,0,0,1,3.322-.791h.914v-.5q0-1.316-1.134-1.316a.927.927,0,0,0-1.055,1.042H12.243a2.655,2.655,0,0,1,1.173-2.239,4.931,4.931,0,0,1,2.993-.86,4.323,4.323,0,0,1,2.874.888,3.086,3.086,0,0,1,1.081,2.435v4.21a4.311,4.311,0,0,0,.4,2V0ZM15.952-1.934a1.652,1.652,0,0,0,.918-.237,1.487,1.487,0,0,0,.523-.536V-4.228h-.861q-1.547,0-1.547,1.389a.848.848,0,0,0,.272.655A.986.986,0,0,0,15.952-1.934Zm14.88-2.751a5.735,5.735,0,0,1-1,3.538A3.2,3.2,0,0,1,27.141.176a2.742,2.742,0,0,1-2.153-.958V3.656H22.025V-9.51h2.769l.088.879a2.742,2.742,0,0,1,2.241-1.055,3.224,3.224,0,0,1,2.733,1.3,5.805,5.805,0,0,1,.976,3.564ZM27.87-4.869q0-2.531-1.477-2.531a1.394,1.394,0,0,0-1.406.756V-2.9a1.439,1.439,0,0,0,1.424.791q1.415,0,1.459-2.443ZM36.738.176A4.889,4.889,0,0,1,33.2-1.129a4.507,4.507,0,0,1-1.354-3.4v-.246a5.84,5.84,0,0,1,.541-2.575,3.955,3.955,0,0,1,1.578-1.727,4.763,4.763,0,0,1,2.461-.611,4.117,4.117,0,0,1,3.164,1.244,4.887,4.887,0,0,1,1.16,3.467v1.151H34.857a2.135,2.135,0,0,0,.694,1.257,2.066,2.066,0,0,0,1.389.457,2.662,2.662,0,0,0,2.2-.984l1.354,1.6A3.784,3.784,0,0,1,38.922-.277,5.3,5.3,0,0,1,36.738.176ZM36.4-7.4q-1.3,0-1.547,1.723h2.988v-.229a1.467,1.467,0,0,0-.36-1.1A1.434,1.434,0,0,0,36.4-7.4ZM45.062,0H42.091V-13.5h2.971Zm5.933-4.843a5.613,5.613,0,0,1,.554-2.536,3.96,3.96,0,0,1,1.591-1.709,4.791,4.791,0,0,1,2.435-.6,4.373,4.373,0,0,1,3.366,1.323,5.076,5.076,0,0,1,1.23,3.6v.105a4.925,4.925,0,0,1-1.235,3.529A4.384,4.384,0,0,1,55.591.176,4.434,4.434,0,0,1,52.33-1.042,4.761,4.761,0,0,1,51-4.342Zm2.962.185a3.538,3.538,0,0,0,.413,1.934,1.376,1.376,0,0,0,1.222.615q1.582,0,1.617-2.435v-.3q0-2.558-1.635-2.558-1.485,0-1.608,2.206Zm20.83-.026a5.735,5.735,0,0,1-1,3.538A3.2,3.2,0,0,1,71.095.176a2.742,2.742,0,0,1-2.153-.958V3.656H65.979V-9.51h2.769l.088.879a2.742,2.742,0,0,1,2.241-1.055,3.224,3.224,0,0,1,2.733,1.3,5.805,5.805,0,0,1,.976,3.564Zm-2.962-.185q0-2.531-1.477-2.531a1.394,1.394,0,0,0-1.406.756V-2.9a1.439,1.439,0,0,0,1.424.791q1.415,0,1.459-2.443ZM81.448,0a3.344,3.344,0,0,1-.281-.853A2.754,2.754,0,0,1,78.882.176,3.374,3.374,0,0,1,76.6-.637a2.588,2.588,0,0,1-.94-2.043A2.66,2.66,0,0,1,76.8-5.019a5.821,5.821,0,0,1,3.322-.791h.914v-.5q0-1.316-1.134-1.316a.927.927,0,0,0-1.055,1.042H75.885a2.655,2.655,0,0,1,1.173-2.239,4.931,4.931,0,0,1,2.993-.86,4.323,4.323,0,0,1,2.874.888,3.086,3.086,0,0,1,1.081,2.435v4.21a4.311,4.311,0,0,0,.4,2V0ZM79.594-1.934a1.652,1.652,0,0,0,.918-.237,1.487,1.487,0,0,0,.523-.536V-4.228h-.861q-1.547,0-1.547,1.389a.848.848,0,0,0,.272.655A.986.986,0,0,0,79.594-1.934Zm11.8-4.9-.976-.07a1.752,1.752,0,0,0-1.793.879V0H85.667V-9.51h2.777l.1,1.222a2.294,2.294,0,0,1,2.083-1.4,2.888,2.888,0,0,1,.826.105ZM97.559,0a3.344,3.344,0,0,1-.281-.853A2.754,2.754,0,0,1,94.992.176a3.374,3.374,0,0,1-2.285-.813,2.588,2.588,0,0,1-.94-2.043,2.66,2.66,0,0,1,1.143-2.338,5.821,5.821,0,0,1,3.322-.791h.914v-.5q0-1.316-1.134-1.316a.927.927,0,0,0-1.055,1.042H92a2.655,2.655,0,0,1,1.173-2.239,4.931,4.931,0,0,1,2.993-.86,4.323,4.323,0,0,1,2.874.888,3.086,3.086,0,0,1,1.081,2.435v4.21a4.311,4.311,0,0,0,.4,2V0ZM95.7-1.934a1.652,1.652,0,0,0,.918-.237,1.487,1.487,0,0,0,.523-.536V-4.228h-.861q-1.547,0-1.547,1.389a.848.848,0,0,0,.272.655A.986.986,0,0,0,95.7-1.934Zm19.362-2.742a5.8,5.8,0,0,1-.967,3.595A3.238,3.238,0,0,1,111.375.176a2.81,2.81,0,0,1-2.338-1.151L108.914,0H106.26V-13.5h2.962v4.755a2.711,2.711,0,0,1,2.136-.94A3.239,3.239,0,0,1,114.1-8.411a5.826,5.826,0,0,1,.967,3.586ZM112.1-4.865a3.866,3.866,0,0,0-.365-1.952A1.229,1.229,0,0,0,110.61-7.4a1.418,1.418,0,0,0-1.389.763v3.773a1.426,1.426,0,0,0,1.406.755,1.258,1.258,0,0,0,1.327-1.018A7.309,7.309,0,0,0,112.1-4.865Zm3.9.022a5.613,5.613,0,0,1,.554-2.536,3.96,3.96,0,0,1,1.591-1.709,4.791,4.791,0,0,1,2.435-.6,4.373,4.373,0,0,1,3.366,1.323,5.076,5.076,0,0,1,1.23,3.6v.105a4.925,4.925,0,0,1-1.235,3.529A4.384,4.384,0,0,1,120.595.176a4.434,4.434,0,0,1-3.261-1.217,4.761,4.761,0,0,1-1.327-3.3Zm2.962.185a3.538,3.538,0,0,0,.413,1.934,1.376,1.376,0,0,0,1.222.615q1.582,0,1.617-2.435v-.3q0-2.558-1.635-2.558-1.485,0-1.608,2.206Zm13.271-2.171-.976-.07a1.752,1.752,0,0,0-1.793.879V0H126.5V-9.51h2.777l.1,1.222a2.294,2.294,0,0,1,2.083-1.4,2.888,2.888,0,0,1,.826.105Zm.527,2a5.809,5.809,0,0,1,.976-3.56,3.211,3.211,0,0,1,2.725-1.3,2.731,2.731,0,0,1,2.145,1V-13.5h2.971V0h-2.663l-.149-1.02a2.8,2.8,0,0,1-2.32,1.2,3.205,3.205,0,0,1-2.689-1.3A5.993,5.993,0,0,1,132.759-4.825Zm2.962.185q0,2.531,1.477,2.531a1.458,1.458,0,0,0,1.406-.826V-6.557a1.419,1.419,0,0,0-1.389-.844q-1.371,0-1.485,2.215ZM148.614,0a3.344,3.344,0,0,1-.281-.853A2.754,2.754,0,0,1,146.048.176a3.374,3.374,0,0,1-2.285-.813,2.588,2.588,0,0,1-.94-2.043,2.66,2.66,0,0,1,1.143-2.338,5.821,5.821,0,0,1,3.322-.791h.914v-.5q0-1.316-1.134-1.316a.927.927,0,0,0-1.055,1.042h-2.962a2.655,2.655,0,0,1,1.173-2.239,4.931,4.931,0,0,1,2.993-.86,4.323,4.323,0,0,1,2.874.888,3.086,3.086,0,0,1,1.081,2.435v4.21a4.311,4.311,0,0,0,.4,2V0ZM146.76-1.934a1.652,1.652,0,0,0,.918-.237,1.487,1.487,0,0,0,.523-.536V-4.228h-.861q-1.547,0-1.547,1.389a.848.848,0,0,0,.272.655A.986.986,0,0,0,146.76-1.934Zm5.678-2.892a5.809,5.809,0,0,1,.976-3.56,3.211,3.211,0,0,1,2.725-1.3,2.731,2.731,0,0,1,2.145,1V-13.5h2.971V0H158.59l-.149-1.02a2.8,2.8,0,0,1-2.32,1.2,3.205,3.205,0,0,1-2.689-1.3A5.993,5.993,0,0,1,152.438-4.825Zm2.962.185q0,2.531,1.477,2.531a1.458,1.458,0,0,0,1.406-.826V-6.557a1.419,1.419,0,0,0-1.389-.844q-1.371,0-1.485,2.215Zm7.163-.2a5.613,5.613,0,0,1,.554-2.536,3.96,3.96,0,0,1,1.591-1.709,4.791,4.791,0,0,1,2.435-.6,4.373,4.373,0,0,1,3.366,1.323,5.076,5.076,0,0,1,1.23,3.6v.105A4.925,4.925,0,0,1,170.5-1.129,4.384,4.384,0,0,1,167.159.176,4.434,4.434,0,0,1,163.9-1.042a4.761,4.761,0,0,1-1.327-3.3Zm2.962.185a3.538,3.538,0,0,0,.413,1.934,1.376,1.376,0,0,0,1.222.615q1.582,0,1.617-2.435v-.3q0-2.558-1.635-2.558-1.485,0-1.608,2.206Zm12.5,1.986a.684.684,0,0,0-.4-.606,6.016,6.016,0,0,0-1.5-.475A6.853,6.853,0,0,1,174.3-4.4a3.062,3.062,0,0,1-1.1-.971,2.319,2.319,0,0,1-.378-1.31A2.628,2.628,0,0,1,173.9-8.837a4.453,4.453,0,0,1,2.83-.848,4.934,4.934,0,0,1,3.023.853A2.666,2.666,0,0,1,180.9-6.592h-2.971q0-1.143-1.2-1.143a1.194,1.194,0,0,0-.782.259.8.8,0,0,0-.316.646.737.737,0,0,0,.387.642,3.654,3.654,0,0,0,1.235.4,10.671,10.671,0,0,1,1.49.378,2.706,2.706,0,0,1,2.145,2.646,2.491,2.491,0,0,1-1.156,2.118,5.068,5.068,0,0,1-2.993.817,5.172,5.172,0,0,1-2.18-.439,3.645,3.645,0,0,1-1.494-1.2,2.707,2.707,0,0,1-.536-1.591h2.769a1.145,1.145,0,0,0,.439.962,1.808,1.808,0,0,0,1.081.3,1.422,1.422,0,0,0,.91-.246A.787.787,0,0,0,178.022-2.672Z" transform="translate(424 8006.437)" fill="#12263f"/>
      <path id="Trazado_712350" data-name="Trazado 712350" d="M11.32-4.333a4.673,4.673,0,0,1-.721,2.36A4.35,4.35,0,0,1,8.75-.387a6.3,6.3,0,0,1-2.72.563A5.025,5.025,0,0,1,2.057-1.468,6.786,6.786,0,0,1,.606-6.108v-.633a7.746,7.746,0,0,1,.655-3.292,4.961,4.961,0,0,1,1.885-2.18,5.26,5.26,0,0,1,2.848-.769,5.516,5.516,0,0,1,3.744,1.226,4.844,4.844,0,0,1,1.608,3.379H8.271a2.292,2.292,0,0,0-.589-1.679,2.422,2.422,0,0,0-1.687-.51A1.843,1.843,0,0,0,4.307-9.7a5.536,5.536,0,0,0-.562,2.751v.905A6.125,6.125,0,0,0,4.258-3.12a1.882,1.882,0,0,0,1.771.879,2.369,2.369,0,0,0,1.626-.5,2.126,2.126,0,0,0,.6-1.591ZM15.768,0H12.8V-9.51h2.971ZM12.621-11.971a1.334,1.334,0,0,1,.457-1.043,1.718,1.718,0,0,1,1.187-.407,1.718,1.718,0,0,1,1.187.407,1.334,1.334,0,0,1,.457,1.043,1.334,1.334,0,0,1-.457,1.043,1.718,1.718,0,0,1-1.187.407,1.718,1.718,0,0,1-1.187-.407A1.334,1.334,0,0,1,12.621-11.971Zm7.69,2.461.1,1.116a3.225,3.225,0,0,1,2.716-1.292,2.713,2.713,0,0,1,2.219.888,4.226,4.226,0,0,1,.76,2.672V0H23.133V-6a1.6,1.6,0,0,0-.29-1.059A1.342,1.342,0,0,0,21.788-7.4a1.413,1.413,0,0,0-1.292.686V0H17.534V-9.51Zm10.881-2.364V-9.51h1.564v2.057H31.192V-3.1a1.111,1.111,0,0,0,.193.747,1.037,1.037,0,0,0,.765.211,4.345,4.345,0,0,0,.738-.053V-.079a5.466,5.466,0,0,1-1.67.255A3.1,3.1,0,0,1,28.96-.545a2.954,2.954,0,0,1-.729-2.188v-4.72H27.018V-9.51H28.23v-2.364ZM39.586-1.028a3.054,3.054,0,0,1-2.54,1.2,3,3,0,0,1-2.369-.91,3.826,3.826,0,0,1-.8-2.615V-9.51h2.962v6.179a1.065,1.065,0,0,0,1.187,1.222,1.548,1.548,0,0,0,1.45-.729V-9.51h2.979V0H39.674Zm10.239-5.8L48.85-6.9a1.752,1.752,0,0,0-1.793.879V0H44.095V-9.51h2.777l.1,1.222a2.294,2.294,0,0,1,2.083-1.4,2.888,2.888,0,0,1,.826.105ZM54.018,0H51.047V-9.51h2.971ZM50.871-11.971a1.334,1.334,0,0,1,.457-1.043,1.718,1.718,0,0,1,1.187-.407,1.718,1.718,0,0,1,1.187.407,1.334,1.334,0,0,1,.457,1.043,1.334,1.334,0,0,1-.457,1.043,1.718,1.718,0,0,1-1.187.407,1.718,1.718,0,0,1-1.187-.407A1.334,1.334,0,0,1,50.871-11.971ZM58.966,0H56V-13.5h2.971Zm4.948,0H60.943V-13.5h2.971Zm7.181,0a3.344,3.344,0,0,1-.281-.853A2.754,2.754,0,0,1,68.528.176a3.374,3.374,0,0,1-2.285-.813,2.588,2.588,0,0,1-.94-2.043,2.66,2.66,0,0,1,1.143-2.338,5.821,5.821,0,0,1,3.322-.791h.914v-.5q0-1.316-1.134-1.316a.927.927,0,0,0-1.055,1.042H65.531A2.655,2.655,0,0,1,66.7-8.825a4.931,4.931,0,0,1,2.993-.86,4.323,4.323,0,0,1,2.874.888,3.086,3.086,0,0,1,1.081,2.435v4.21a4.311,4.311,0,0,0,.4,2V0ZM69.24-1.934a1.652,1.652,0,0,0,.918-.237,1.487,1.487,0,0,0,.523-.536V-4.228H69.82q-1.547,0-1.547,1.389a.848.848,0,0,0,.272.655A.986.986,0,0,0,69.24-1.934ZM83.575-4.148,85.157-9.51H88.33l-3.876,11.1-.167.4a2.944,2.944,0,0,1-2.918,1.846,4.642,4.642,0,0,1-1.222-.175V1.556h.387a2.026,2.026,0,0,0,.954-.18,1.094,1.094,0,0,0,.488-.647L82.213.1l-3.3-9.605h3.164Zm18.835-.527a5.8,5.8,0,0,1-.967,3.595A3.238,3.238,0,0,1,98.719.176,2.81,2.81,0,0,1,96.381-.976L96.258,0H93.6V-13.5h2.962v4.755a2.711,2.711,0,0,1,2.136-.94,3.239,3.239,0,0,1,2.742,1.274,5.826,5.826,0,0,1,.967,3.586Zm-2.971-.189a3.866,3.866,0,0,0-.365-1.952A1.229,1.229,0,0,0,97.954-7.4a1.418,1.418,0,0,0-1.389.763v3.773a1.426,1.426,0,0,0,1.406.755A1.258,1.258,0,0,0,99.3-3.127,7.309,7.309,0,0,0,99.439-4.865Zm3.9.022a5.613,5.613,0,0,1,.554-2.536,3.96,3.96,0,0,1,1.591-1.709,4.791,4.791,0,0,1,2.435-.6,4.373,4.373,0,0,1,3.366,1.323,5.076,5.076,0,0,1,1.23,3.6v.105a4.925,4.925,0,0,1-1.235,3.529A4.384,4.384,0,0,1,107.938.176a4.434,4.434,0,0,1-3.261-1.217,4.761,4.761,0,0,1-1.327-3.3Zm2.962.185a3.538,3.538,0,0,0,.413,1.934,1.376,1.376,0,0,0,1.222.615q1.582,0,1.617-2.435v-.3q0-2.558-1.635-2.558-1.485,0-1.608,2.206Zm13.271-2.171L118.6-6.9a1.752,1.752,0,0,0-1.793.879V0h-2.962V-9.51h2.777l.1,1.222a2.294,2.294,0,0,1,2.083-1.4,2.888,2.888,0,0,1,.826.105Zm.527,2a5.809,5.809,0,0,1,.976-3.56,3.211,3.211,0,0,1,2.725-1.3,2.731,2.731,0,0,1,2.145,1V-13.5h2.971V0h-2.663l-.149-1.02a2.8,2.8,0,0,1-2.32,1.2,3.205,3.205,0,0,1-2.689-1.3A5.993,5.993,0,0,1,120.1-4.825Zm2.962.185q0,2.531,1.477,2.531a1.458,1.458,0,0,0,1.406-.826V-6.557a1.419,1.419,0,0,0-1.389-.844q-1.371,0-1.485,2.215ZM135.2.176a4.889,4.889,0,0,1-3.542-1.305,4.507,4.507,0,0,1-1.354-3.4v-.246a5.84,5.84,0,0,1,.541-2.575,3.955,3.955,0,0,1,1.578-1.727,4.763,4.763,0,0,1,2.461-.611,4.117,4.117,0,0,1,3.164,1.244,4.887,4.887,0,0,1,1.16,3.467v1.151h-5.889a2.135,2.135,0,0,0,.694,1.257,2.066,2.066,0,0,0,1.389.457,2.662,2.662,0,0,0,2.2-.984l1.354,1.6a3.784,3.784,0,0,1-1.569,1.217A5.3,5.3,0,0,1,135.2.176ZM134.868-7.4q-1.3,0-1.547,1.723h2.988v-.229a1.467,1.467,0,0,0-.36-1.1A1.434,1.434,0,0,0,134.868-7.4ZM145.38-2.672a.684.684,0,0,0-.4-.606,6.016,6.016,0,0,0-1.5-.475,6.853,6.853,0,0,1-1.828-.646,3.062,3.062,0,0,1-1.1-.971,2.319,2.319,0,0,1-.378-1.31,2.628,2.628,0,0,1,1.081-2.158,4.453,4.453,0,0,1,2.83-.848,4.934,4.934,0,0,1,3.023.853,2.666,2.666,0,0,1,1.143,2.241h-2.971q0-1.143-1.2-1.143a1.194,1.194,0,0,0-.782.259.8.8,0,0,0-.316.646.737.737,0,0,0,.387.642,3.654,3.654,0,0,0,1.235.4,10.671,10.671,0,0,1,1.49.378,2.706,2.706,0,0,1,2.145,2.646,2.491,2.491,0,0,1-1.156,2.118,5.068,5.068,0,0,1-2.993.817,5.172,5.172,0,0,1-2.18-.439,3.645,3.645,0,0,1-1.494-1.2,2.707,2.707,0,0,1-.536-1.591h2.769a1.145,1.145,0,0,0,.439.962,1.808,1.808,0,0,0,1.081.3,1.422,1.422,0,0,0,.91-.246A.787.787,0,0,0,145.38-2.672Z" transform="translate(355 7905.283)" fill="#12263f"/>
      <path id="Trazado_712351" data-name="Trazado 712351" d="M.967,0V-12.8h4.6a6.509,6.509,0,0,1,3.757.905,3.012,3.012,0,0,1,1.288,2.628,3.045,3.045,0,0,1-.457,1.7A2.663,2.663,0,0,1,8.807-6.53a2.7,2.7,0,0,1,1.538.984,2.862,2.862,0,0,1,.536,1.758A3.388,3.388,0,0,1,9.69-.962,5.667,5.667,0,0,1,6.161,0ZM4.052-5.44v3.067H6.073a1.923,1.923,0,0,0,1.283-.382A1.338,1.338,0,0,0,7.8-3.832,1.419,1.419,0,0,0,6.214-5.44Zm0-2.021H5.66A2.285,2.285,0,0,0,7.1-7.832,1.314,1.314,0,0,0,7.532-8.9a1.379,1.379,0,0,0-.466-1.168,2.493,2.493,0,0,0-1.5-.357H4.052Zm8.016,2.619a5.613,5.613,0,0,1,.554-2.536,3.96,3.96,0,0,1,1.591-1.709,4.791,4.791,0,0,1,2.435-.6,4.373,4.373,0,0,1,3.366,1.323,5.076,5.076,0,0,1,1.23,3.6v.105a4.925,4.925,0,0,1-1.235,3.529A4.384,4.384,0,0,1,16.664.176,4.434,4.434,0,0,1,13.4-1.042a4.761,4.761,0,0,1-1.327-3.3Zm2.962.185a3.538,3.538,0,0,0,.413,1.934,1.376,1.376,0,0,0,1.222.615q1.582,0,1.617-2.435v-.3q0-2.558-1.635-2.558-1.485,0-1.608,2.206ZM27.905,0a3.344,3.344,0,0,1-.281-.853A2.754,2.754,0,0,1,25.339.176a3.374,3.374,0,0,1-2.285-.813,2.588,2.588,0,0,1-.94-2.043,2.66,2.66,0,0,1,1.143-2.338,5.821,5.821,0,0,1,3.322-.791h.914v-.5q0-1.316-1.134-1.316A.927.927,0,0,0,25.3-6.587H22.342a2.655,2.655,0,0,1,1.173-2.239,4.931,4.931,0,0,1,2.993-.86,4.323,4.323,0,0,1,2.874.888,3.086,3.086,0,0,1,1.081,2.435v4.21a4.311,4.311,0,0,0,.4,2V0ZM26.051-1.934a1.652,1.652,0,0,0,.918-.237,1.487,1.487,0,0,0,.523-.536V-4.228h-.861q-1.547,0-1.547,1.389a.848.848,0,0,0,.272.655A.986.986,0,0,0,26.051-1.934Zm9.5-9.94V-9.51h1.564v2.057H35.552V-3.1a1.111,1.111,0,0,0,.193.747,1.037,1.037,0,0,0,.765.211,4.345,4.345,0,0,0,.738-.053V-.079a5.466,5.466,0,0,1-1.67.255,3.1,3.1,0,0,1-2.259-.721,2.954,2.954,0,0,1-.729-2.188v-4.72H31.377V-9.51H32.59v-2.364ZM41.405,0H38.435V-9.51h2.971ZM38.259-11.971a1.334,1.334,0,0,1,.457-1.043,1.718,1.718,0,0,1,1.187-.407,1.718,1.718,0,0,1,1.187.407,1.334,1.334,0,0,1,.457,1.043,1.334,1.334,0,0,1-.457,1.043,1.718,1.718,0,0,1-1.187.407,1.718,1.718,0,0,1-1.187-.407A1.334,1.334,0,0,1,38.259-11.971Zm7.69,2.461.1,1.116a3.225,3.225,0,0,1,2.716-1.292,2.713,2.713,0,0,1,2.219.888,4.226,4.226,0,0,1,.76,2.672V0H48.771V-6a1.6,1.6,0,0,0-.29-1.059A1.342,1.342,0,0,0,47.426-7.4a1.413,1.413,0,0,0-1.292.686V0H43.172V-9.51ZM58.737,0a3.344,3.344,0,0,1-.281-.853A2.754,2.754,0,0,1,56.171.176a3.374,3.374,0,0,1-2.285-.813,2.588,2.588,0,0,1-.94-2.043,2.66,2.66,0,0,1,1.143-2.338A5.821,5.821,0,0,1,57.41-5.81h.914v-.5q0-1.316-1.134-1.316a.927.927,0,0,0-1.055,1.042H53.174a2.655,2.655,0,0,1,1.173-2.239,4.931,4.931,0,0,1,2.993-.86,4.323,4.323,0,0,1,2.874.888,3.086,3.086,0,0,1,1.081,2.435v4.21a4.311,4.311,0,0,0,.4,2V0ZM56.883-1.934a1.652,1.652,0,0,0,.918-.237,1.487,1.487,0,0,0,.523-.536V-4.228h-.861q-1.547,0-1.547,1.389a.848.848,0,0,0,.272.655A.986.986,0,0,0,56.883-1.934Z" transform="translate(395 7763.871)" fill="#12263f"/>
      <path id="Trazado_712352" data-name="Trazado 712352" d="M4.052-4.342V0H.967V-12.8H6.073a5.948,5.948,0,0,1,2.6.541,4.074,4.074,0,0,1,1.749,1.538,4.2,4.2,0,0,1,.62,2.263A3.7,3.7,0,0,1,9.7-5.462,5.561,5.561,0,0,1,6.021-4.342Zm0-2.382H6.073A1.906,1.906,0,0,0,7.44-7.172a1.665,1.665,0,0,0,.47-1.266A2.059,2.059,0,0,0,7.427-9.87a1.712,1.712,0,0,0-1.318-.545H4.052ZM17.033.176a4.889,4.889,0,0,1-3.542-1.305,4.507,4.507,0,0,1-1.354-3.4v-.246a5.84,5.84,0,0,1,.541-2.575,3.955,3.955,0,0,1,1.578-1.727,4.763,4.763,0,0,1,2.461-.611,4.117,4.117,0,0,1,3.164,1.244,4.887,4.887,0,0,1,1.16,3.467v1.151H15.152a2.135,2.135,0,0,0,.694,1.257,2.066,2.066,0,0,0,1.389.457,2.662,2.662,0,0,0,2.2-.984l1.354,1.6A3.784,3.784,0,0,1,19.217-.277,5.3,5.3,0,0,1,17.033.176ZM16.7-7.4q-1.3,0-1.547,1.723h2.988v-.229a1.467,1.467,0,0,0-.36-1.1A1.434,1.434,0,0,0,16.7-7.4Zm11.285.571-.976-.07a1.752,1.752,0,0,0-1.793.879V0H22.254V-9.51h2.777l.1,1.222a2.294,2.294,0,0,1,2.083-1.4,2.888,2.888,0,0,1,.826.105Zm4.922,4.72a1.317,1.317,0,0,0,.967-.338,1.241,1.241,0,0,0,.334-.945h2.777A3.288,3.288,0,0,1,35.864-.826a4.168,4.168,0,0,1-2.887,1,4.22,4.22,0,0,1-3.27-1.3,5.125,5.125,0,0,1-1.2-3.6v-.123A5.792,5.792,0,0,1,29.043-7.4a3.872,3.872,0,0,1,1.534-1.7,4.573,4.573,0,0,1,2.373-.593,4.116,4.116,0,0,1,2.944,1.028,3.647,3.647,0,0,1,1.09,2.786H34.207A1.626,1.626,0,0,0,33.847-7a1.244,1.244,0,0,0-.967-.4q-1.151,0-1.345,1.468a10.357,10.357,0,0,0-.062,1.283,4.068,4.068,0,0,0,.343,1.986A1.187,1.187,0,0,0,32.906-2.109ZM43.594,0a3.344,3.344,0,0,1-.281-.853A2.754,2.754,0,0,1,41.027.176a3.374,3.374,0,0,1-2.285-.813,2.588,2.588,0,0,1-.94-2.043,2.66,2.66,0,0,1,1.143-2.338,5.821,5.821,0,0,1,3.322-.791h.914v-.5q0-1.316-1.134-1.316a.927.927,0,0,0-1.055,1.042H38.03A2.655,2.655,0,0,1,39.2-8.825a4.931,4.931,0,0,1,2.993-.86A4.323,4.323,0,0,1,45.07-8.8a3.086,3.086,0,0,1,1.081,2.435v4.21a4.311,4.311,0,0,0,.4,2V0ZM41.739-1.934a1.652,1.652,0,0,0,.918-.237,1.487,1.487,0,0,0,.523-.536V-4.228h-.861q-1.547,0-1.547,1.389a.848.848,0,0,0,.272.655A.986.986,0,0,0,41.739-1.934ZM50.915,0H47.944V-13.5h2.971Zm4.948,0H52.893V-9.51h2.971ZM52.717-11.971a1.334,1.334,0,0,1,.457-1.043,1.718,1.718,0,0,1,1.187-.407,1.718,1.718,0,0,1,1.187.407A1.334,1.334,0,0,1,56-11.971a1.334,1.334,0,0,1-.457,1.043,1.718,1.718,0,0,1-1.187.407,1.718,1.718,0,0,1-1.187-.407A1.334,1.334,0,0,1,52.717-11.971Zm7.69,2.461.1,1.116A3.225,3.225,0,0,1,63.22-9.686a2.713,2.713,0,0,1,2.219.888,4.226,4.226,0,0,1,.76,2.672V0H63.229V-6a1.6,1.6,0,0,0-.29-1.059A1.342,1.342,0,0,0,61.884-7.4a1.413,1.413,0,0,0-1.292.686V0H57.63V-9.51ZM73.2,0a3.344,3.344,0,0,1-.281-.853A2.754,2.754,0,0,1,70.629.176a3.374,3.374,0,0,1-2.285-.813,2.588,2.588,0,0,1-.94-2.043,2.66,2.66,0,0,1,1.143-2.338,5.821,5.821,0,0,1,3.322-.791h.914v-.5q0-1.316-1.134-1.316a.927.927,0,0,0-1.055,1.042H67.632a2.655,2.655,0,0,1,1.173-2.239,4.931,4.931,0,0,1,2.993-.86,4.323,4.323,0,0,1,2.874.888,3.086,3.086,0,0,1,1.081,2.435v4.21a4.311,4.311,0,0,0,.4,2V0ZM71.341-1.934a1.652,1.652,0,0,0,.918-.237,1.487,1.487,0,0,0,.523-.536V-4.228h-.861q-1.547,0-1.547,1.389a.848.848,0,0,0,.272.655A.986.986,0,0,0,71.341-1.934Z" transform="translate(404 7624.214)" fill="#12263f"/>
      <path id="Trazado_712353" data-name="Trazado 712353" d="M.967,0V-12.8h4.6a6.509,6.509,0,0,1,3.757.905,3.012,3.012,0,0,1,1.288,2.628,3.045,3.045,0,0,1-.457,1.7A2.663,2.663,0,0,1,8.807-6.53a2.7,2.7,0,0,1,1.538.984,2.862,2.862,0,0,1,.536,1.758A3.388,3.388,0,0,1,9.69-.962,5.667,5.667,0,0,1,6.161,0ZM4.052-5.44v3.067H6.073a1.923,1.923,0,0,0,1.283-.382A1.338,1.338,0,0,0,7.8-3.832,1.419,1.419,0,0,0,6.214-5.44Zm0-2.021H5.66A2.285,2.285,0,0,0,7.1-7.832,1.314,1.314,0,0,0,7.532-8.9a1.379,1.379,0,0,0-.466-1.168,2.493,2.493,0,0,0-1.5-.357H4.052ZM17.042.176A4.889,4.889,0,0,1,13.5-1.129a4.507,4.507,0,0,1-1.354-3.4v-.246a5.84,5.84,0,0,1,.541-2.575,3.955,3.955,0,0,1,1.578-1.727,4.763,4.763,0,0,1,2.461-.611A4.117,4.117,0,0,1,19.89-8.442a4.887,4.887,0,0,1,1.16,3.467v1.151H15.161a2.135,2.135,0,0,0,.694,1.257,2.066,2.066,0,0,0,1.389.457,2.662,2.662,0,0,0,2.2-.984l1.354,1.6A3.784,3.784,0,0,1,19.226-.277,5.3,5.3,0,0,1,17.042.176ZM16.708-7.4q-1.3,0-1.547,1.723h2.988v-.229a1.467,1.467,0,0,0-.36-1.1A1.434,1.434,0,0,0,16.708-7.4Zm8.982-4.474V-9.51h1.564v2.057H25.69V-3.1a1.111,1.111,0,0,0,.193.747,1.037,1.037,0,0,0,.765.211,4.345,4.345,0,0,0,.738-.053V-.079a5.466,5.466,0,0,1-1.67.255,3.1,3.1,0,0,1-2.259-.721,2.954,2.954,0,0,1-.729-2.188v-4.72H21.516V-9.51h1.213v-2.364ZM33.776,0A3.344,3.344,0,0,1,33.5-.853,2.754,2.754,0,0,1,31.21.176a3.374,3.374,0,0,1-2.285-.813,2.588,2.588,0,0,1-.94-2.043,2.66,2.66,0,0,1,1.143-2.338,5.821,5.821,0,0,1,3.322-.791h.914v-.5q0-1.316-1.134-1.316a.927.927,0,0,0-1.055,1.042H28.213a2.655,2.655,0,0,1,1.173-2.239,4.931,4.931,0,0,1,2.993-.86,4.323,4.323,0,0,1,2.874.888,3.086,3.086,0,0,1,1.081,2.435v4.21a4.311,4.311,0,0,0,.4,2V0ZM31.922-1.934a1.652,1.652,0,0,0,.918-.237,1.487,1.487,0,0,0,.523-.536V-4.228H32.5q-1.547,0-1.547,1.389a.848.848,0,0,0,.272.655A.986.986,0,0,0,31.922-1.934Zm10.16-2.892a5.809,5.809,0,0,1,.976-3.56,3.211,3.211,0,0,1,2.725-1.3,2.731,2.731,0,0,1,2.145,1V-13.5H50.9V0H48.234l-.149-1.02a2.8,2.8,0,0,1-2.32,1.2,3.205,3.205,0,0,1-2.689-1.3A5.993,5.993,0,0,1,42.082-4.825Zm2.962.185q0,2.531,1.477,2.531a1.458,1.458,0,0,0,1.406-.826V-6.557A1.419,1.419,0,0,0,46.538-7.4q-1.371,0-1.485,2.215ZM57.182.176A4.889,4.889,0,0,1,53.64-1.129a4.507,4.507,0,0,1-1.354-3.4v-.246a5.84,5.84,0,0,1,.541-2.575A3.955,3.955,0,0,1,54.4-9.075a4.763,4.763,0,0,1,2.461-.611,4.117,4.117,0,0,1,3.164,1.244,4.887,4.887,0,0,1,1.16,3.467v1.151H55.3A2.135,2.135,0,0,0,56-2.566a2.066,2.066,0,0,0,1.389.457,2.662,2.662,0,0,0,2.2-.984l1.354,1.6A3.784,3.784,0,0,1,59.366-.277,5.3,5.3,0,0,1,57.182.176ZM56.848-7.4q-1.3,0-1.547,1.723h2.988v-.229a1.467,1.467,0,0,0-.36-1.1A1.434,1.434,0,0,0,56.848-7.4ZM72.22,0a3.344,3.344,0,0,1-.281-.853A2.754,2.754,0,0,1,69.653.176a3.374,3.374,0,0,1-2.285-.813,2.588,2.588,0,0,1-.94-2.043A2.66,2.66,0,0,1,67.57-5.019a5.821,5.821,0,0,1,3.322-.791h.914v-.5q0-1.316-1.134-1.316a.927.927,0,0,0-1.055,1.042H66.656A2.655,2.655,0,0,1,67.83-8.825a4.931,4.931,0,0,1,2.993-.86A4.323,4.323,0,0,1,73.7-8.8a3.086,3.086,0,0,1,1.081,2.435v4.21a4.311,4.311,0,0,0,.4,2V0ZM70.365-1.934a1.652,1.652,0,0,0,.918-.237,1.487,1.487,0,0,0,.523-.536V-4.228h-.861q-1.547,0-1.547,1.389a.848.848,0,0,0,.272.655A.986.986,0,0,0,70.365-1.934ZM79.541,0H76.57V-13.5h2.971Zm1.477-4.825a6.421,6.421,0,0,1,.475-2.549,3.821,3.821,0,0,1,1.362-1.709,3.591,3.591,0,0,1,2.065-.6,2.855,2.855,0,0,1,2.32,1l.105-.826h2.689V-.36a4.009,4.009,0,0,1-.584,2.184,3.75,3.75,0,0,1-1.692,1.424,6.219,6.219,0,0,1-2.566.5,5.365,5.365,0,0,1-2.026-.4,3.657,3.657,0,0,1-1.5-1.028L82.907.58a2.716,2.716,0,0,0,2.18.976A1.764,1.764,0,0,0,87.056-.466v-.3A2.781,2.781,0,0,1,84.9.176,3.437,3.437,0,0,1,82.09-1.156,5.517,5.517,0,0,1,81.018-4.72Zm2.971.185a3.383,3.383,0,0,0,.439,1.85,1.386,1.386,0,0,0,1.23.681,1.573,1.573,0,0,0,1.4-.642v-4a1.534,1.534,0,0,0-1.38-.65,1.4,1.4,0,0,0-1.239.708A3.858,3.858,0,0,0,83.988-4.641Zm7.356-.2A5.613,5.613,0,0,1,91.9-7.378a3.96,3.96,0,0,1,1.591-1.709,4.791,4.791,0,0,1,2.435-.6A4.373,4.373,0,0,1,99.29-8.363a5.076,5.076,0,0,1,1.23,3.6v.105a4.925,4.925,0,0,1-1.235,3.529A4.384,4.384,0,0,1,95.941.176a4.434,4.434,0,0,1-3.261-1.217,4.761,4.761,0,0,1-1.327-3.3Zm2.962.185a3.538,3.538,0,0,0,.413,1.934,1.376,1.376,0,0,0,1.222.615q1.582,0,1.617-2.435v-.3q0-2.558-1.635-2.558-1.485,0-1.608,2.206Zm7.146-.167a5.809,5.809,0,0,1,.976-3.56,3.211,3.211,0,0,1,2.725-1.3,2.731,2.731,0,0,1,2.145,1V-13.5h2.971V0H107.6l-.149-1.02a2.8,2.8,0,0,1-2.32,1.2,3.205,3.205,0,0,1-2.689-1.3A5.993,5.993,0,0,1,101.452-4.825Zm2.962.185q0,2.531,1.477,2.531a1.458,1.458,0,0,0,1.406-.826V-6.557a1.419,1.419,0,0,0-1.389-.844q-1.371,0-1.485,2.215Zm7.163-.2a5.613,5.613,0,0,1,.554-2.536,3.96,3.96,0,0,1,1.591-1.709,4.791,4.791,0,0,1,2.435-.6,4.373,4.373,0,0,1,3.366,1.323,5.076,5.076,0,0,1,1.23,3.6v.105a4.925,4.925,0,0,1-1.235,3.529A4.384,4.384,0,0,1,116.174.176a4.434,4.434,0,0,1-3.261-1.217,4.761,4.761,0,0,1-1.327-3.3Zm2.962.185a3.538,3.538,0,0,0,.413,1.934,1.376,1.376,0,0,0,1.222.615q1.582,0,1.617-2.435v-.3q0-2.558-1.635-2.558-1.485,0-1.608,2.206Zm2.021-8.842h3.129l-2.443,2.76-2.417,0Zm8.218,3.99.1,1.116a3.225,3.225,0,0,1,2.716-1.292,2.713,2.713,0,0,1,2.219.888,4.226,4.226,0,0,1,.76,2.672V0H127.6V-6a1.6,1.6,0,0,0-.29-1.059,1.342,1.342,0,0,0-1.055-.338,1.413,1.413,0,0,0-1.292.686V0H122V-9.51Z" transform="translate(450 7524.09)" fill="#12263f"/>
    </g>
  </g>
</svg>
