<svg xmlns="http://www.w3.org/2000/svg" xmlns:xlink="http://www.w3.org/1999/xlink" width="213" height="213" viewBox="0 0 213 213">
  <defs>
    <filter id="Trazado_113937" x="0" y="0" width="213" height="213" filterUnits="userSpaceOnUse">
      <feOffset input="SourceAlpha"/>
      <feGaussianBlur stdDeviation="20" result="blur"/>
      <feFlood flood-color="#402d27" flood-opacity="0.31"/>
      <feComposite operator="in" in2="blur"/>
      <feComposite in="SourceGraphic"/>
    </filter>
    <clipPath id="clip-path">
      <rect id="Rectángulo_34396" data-name="Rectángulo 34396" width="75.051" height="49.495" fill="none"/>
    </clipPath>
  </defs>
  <g id="Grupo_893655" data-name="Grupo 893655" transform="translate(-1157.333 -318)">
    <g transform="matrix(1, 0, 0, 1, 1157.33, 318)" filter="url(#Trazado_113937)">
      <path id="Trazado_113937-2" data-name="Trazado 113937" d="M46.5,0A46.5,46.5,0,1,1,0,46.5,46.5,46.5,0,0,1,46.5,0Z" transform="translate(60 60)" fill="#9b1f36"/>
    </g>
    <g id="Grupo_960401" data-name="Grupo 960401" transform="translate(1235.282 399.752)">
      <g id="Grupo_960400" data-name="Grupo 960400" clip-path="url(#clip-path)">
        <path id="Trazado_706171" data-name="Trazado 706171" d="M22.91.1C37.623-1.194,44.761,10.82,46.582,13.45S50.83,26.6,47.188,35.3,34.847,48.857,25.54,49.464,5.712,41.775,3.486,36.515-1.572,25.387,1.058,17.294A25.261,25.261,0,0,1,22.91.1" transform="translate(0 0)" fill="#62c8ca"/>
        <path id="Trazado_706172" data-name="Trazado 706172" d="M215.954,136.04c.386.46-.225,1.071-.615,1.264a1.9,1.9,0,0,1-1.473-.035c-.886-.291-1.651-.877-2.541-1.162a3.315,3.315,0,0,0-3.273.537c-.9.9-.591,2.14-.016,3.118.309.526.962,1.211.957,1.86-.009,1.058-1.367.913-2.009.556-1.436-.8-1.753-2.835-3.059-3.832a3.114,3.114,0,0,0-3.119-.445,1.9,1.9,0,0,0-.944,1.025c-.3.771.119,1.8-.522,2.421-1.762,1.7-3.45-1.222-3.814-2.6-.414-1.573-.828-2.993-2.613-3.367a65.774,65.774,0,0,0-7.082-.712c-.777-.075-.772,1.139,0,1.214l3.54.342c1.157.112,2.877-.028,3.881.586.918.561.941,1.793,1.239,2.739a6.084,6.084,0,0,0,1.14,2.17,3.277,3.277,0,0,0,3.651,1.044,2.58,2.58,0,0,0,1.324-1.062c.43-.732,0-2.051.573-2.578.667-.619,1.8-.059,2.323.483.721.752,1.107,1.777,1.747,2.594a3.389,3.389,0,0,0,3.447,1.384,2.016,2.016,0,0,0,1.349-2.733,11.7,11.7,0,0,0-1.031-1.822c-.612-1.1-.1-1.937,1.186-1.9,1.923.053,3.508,2.226,5.54,1.334,1.3-.571,2.061-2.1,1.071-3.28-.5-.6-1.358.264-.858.858" transform="translate(-142.214 -103.38)" fill="#62c8ca"/>
        <path id="Trazado_706173" data-name="Trazado 706173" d="M70.027,38.559a33.013,33.013,0,0,0-14-14.37,31.267,31.267,0,0,0-18.167-3.3,27.285,27.285,0,0,0-6.605,1.666q.733-.728,1.536-1.4a29.381,29.381,0,0,1,4.931-1.06,32.069,32.069,0,0,1,18.671,3.379A33.824,33.824,0,0,1,70.757,38.208a42.2,42.2,0,0,1,2.188,4.963q-.084.92-.229,1.848a41.034,41.034,0,0,0-2.69-6.46" transform="translate(-23.994 -15.233)" fill="#3fa09b"/>
        <path id="Trazado_706174" data-name="Trazado 706174" d="M3.152,46.523c.362,1.02.757,2.019,1.178,2.98a7.291,7.291,0,0,0-3.313,3.77c.134.462.278.916.431,1.364a.4.4,0,0,0,.036-.1,6.437,6.437,0,0,1,3.178-4.294c.416.9.854,1.758,1.307,2.558a11.351,11.351,0,0,0-3.6,4.291q.213.524.43,1.038A10.521,10.521,0,0,1,6.382,53.5c.236.39.476.765.72,1.119s.5.7.757,1.052a13.022,13.022,0,0,0-3.984,4.914q.22.425.5.87a12.2,12.2,0,0,1,3.973-5.14q.8,1.026,1.714,2.034a13.372,13.372,0,0,0-4.039,5.268q.291.329.606.66a12.543,12.543,0,0,1,3.987-5.332q1.1,1.168,2.367,2.328a12.913,12.913,0,0,1-4.95,4.369q.315.286.646.568a13.823,13.823,0,0,0,4.913-4.389q1.3,1.156,2.784,2.319a13.141,13.141,0,0,1-6.305,3.192q.424.322.867.636a14.031,14.031,0,0,0,6.084-3.326q1.095.839,2.29,1.689a8.242,8.242,0,0,1-6.674,2.3.4.4,0,0,0-.4.213q.767.489,1.571.94a16.555,16.555,0,0,0,5.675.975,19.219,19.219,0,0,0,3.865-.4,21.931,21.931,0,0,0,6.43-2.459.4.4,0,0,0,.04,0,.4.4,0,0,0,.371-.243h0a21.91,21.91,0,0,0,2.689-1.9c4.564-3.784,8-9.375,10.235-16.628q.769,1.433,1.4,2.938a.408.408,0,0,0-.033.071,40.164,40.164,0,0,1-6.6,12.3A25.375,25.375,0,0,1,26.71,72.526a.4.4,0,0,0-.271.354q1.18-.108,2.34-.309a26.86,26.86,0,0,0,9.713-7.62A40.343,40.343,0,0,0,44.95,53.2a31.641,31.641,0,0,1,1,3.189.4.4,0,0,0-.092.147A33.143,33.143,0,0,1,38.763,68.2a.4.4,0,0,0,.017.572l.005,0q.75-.479,1.459-1.013a34.034,34.034,0,0,0,6.023-10q.194.93.331,1.876a.4.4,0,0,0,.178.279c.178-.365.35-.734.509-1.114a32.746,32.746,0,0,0-3.87-10.716c.019-.067.039-.132.058-.2a.4.4,0,0,0-.28-.5.4.4,0,0,0-.189-.005,35.6,35.6,0,0,0-5.067-6.554,34,34,0,0,0-18.482-9.866c-3.329-.554-9.281-.921-14.124,2.119q-.746.941-1.389,1.928a.4.4,0,0,0,.256-.1,14.759,14.759,0,0,1,7.4-3.258c-2.06.978-5.8,3.019-7.952,5.8q-.169-.74-.3-1.469c-.213.361-.418.725-.61,1.092a38.97,38.97,0,0,0,1.329,4.714.4.4,0,0,0,.217.606,41.269,41.269,0,0,0,7.888,13.413A49.131,49.131,0,0,0,25,65.593a.4.4,0,0,0,.34.188h.008q1.69.9,3.489,1.717a21.178,21.178,0,0,1-2,.938.4.4,0,0,0-.352-.122c-2.141.314-4.258-.919-6.226-2.3a58.239,58.239,0,0,1-9.12-7.692.4.4,0,0,0-.346-.37,34.8,34.8,0,0,1-3.024-3.787c-.3-.435-.593-.9-.881-1.391a.4.4,0,0,0-.04-.077c-.005-.008-.012-.015-.018-.022-.513-.879-1.006-1.836-1.471-2.847a.4.4,0,0,0-.272-.606,45.019,45.019,0,0,1-2.233-6.365.4.4,0,0,0-.176-.676c-.3-1.191-.54-2.371-.711-3.508q-.313.718-.573,1.441c.15.786.329,1.587.535,2.392a8.261,8.261,0,0,0-1.537,1.4A19.972,19.972,0,0,0,.14,46.138a.4.4,0,0,0,.013-.073,4.891,4.891,0,0,1,2-2.721c.219.793.461,1.587.724,2.374A12.5,12.5,0,0,0,.164,48.675q.051.686.146,1.35a11.968,11.968,0,0,1,2.841-3.5M29.705,67c-.194-.086-.387-.174-.58-.261,4.734-19.721,1.879-29.309,1.755-29.709a.4.4,0,0,0-.065-.123c.538,0,.836.037.845.038a.4.4,0,0,0,.313-.1q1.223.822,2.371,1.748a.4.4,0,0,0,.028.24c.04.089,3.9,9.066-2.22,26.457A21.161,21.161,0,0,1,29.705,67M26.449,33.846a24.639,24.639,0,0,0-5.932,1.264A35.938,35.938,0,0,0,6.039,44.63c-.388-.889-.746-1.79-1.072-2.694,7.65-9.672,16.848-9.551,17.3-9.538a31.713,31.713,0,0,1,4.186,1.448m1.181.531A33.257,33.257,0,0,1,30.806,36.1a23.081,23.081,0,0,0-6.646,1.019c-4.1,1.21-10.277,4.109-16.389,11.045-.492-.9-.957-1.826-1.389-2.767a.4.4,0,0,0,.136-.094C16.67,34.57,27.142,34.625,27.25,34.624a.4.4,0,0,0,.38-.248M11.611,45.393c.1,1.06.427,4.765.475,9.106a36.51,36.51,0,0,1-3.931-5.65.4.4,0,0,0,.194-.12,43.364,43.364,0,0,1,3.262-3.336m4.415-3.432a.377.377,0,0,0-.012-.052c.883-.594,1.744-1.116,2.577-1.574a.4.4,0,0,0-.031.2c.012.1,1.129,10.277-.786,19.356q-1.062-.843-2.056-1.731s0-.009,0-.013a70.689,70.689,0,0,0,.3-16.188m2.457,18.486c2.058-9.307.894-19.894.882-20a.4.4,0,0,0-.328-.351,29.823,29.823,0,0,1,3.915-1.733.4.4,0,0,0-.143.335A124.913,124.913,0,0,1,21.675,62.69q-1.662-1.075-3.192-2.243m3.938,2.716a125.553,125.553,0,0,0,1.194-24.52.4.4,0,0,0-.4-.375c.391-.135.767-.256,1.126-.362.873-.259,1.689-.452,2.437-.6a.4.4,0,0,0-.027.186c.015.152,1.42,15.114-1.666,27.228q-1.372-.752-2.667-1.561m3.4,1.955c3.187-12.29,1.753-27.546,1.738-27.7a.4.4,0,0,0-.1-.228,21.077,21.077,0,0,1,2.709-.271.4.4,0,0,0-.059.355c.03.1,2.889,9.753-1.731,29.122q-1.307-.616-2.555-1.278M12.9,55.408c-.008-5.567-.51-10.359-.515-10.407a.4.4,0,0,0-.094-.218,37.617,37.617,0,0,1,2.971-2.351,70.809,70.809,0,0,1-.27,15.066Q13.9,56.481,12.9,55.408m6.739-23.594a21.257,21.257,0,0,0-3.39.868A25.959,25.959,0,0,0,4.654,41.035c-.285-.852-.539-1.7-.759-2.55,2.671-4.013,9.382-6.694,9.45-6.721a.4.4,0,0,0,.252-.329,25.89,25.89,0,0,1,5.728.323c.105.017.21.037.315.056M42.558,48.142a42.173,42.173,0,0,1-4.046,9.617,25.562,25.562,0,0,0,.477-14.649,34.3,34.3,0,0,1,3.569,5.032m-9.19,16.1c4.555-13.723,2.959-21.918,2.119-24.687q1.143,1,2.194,2.106a.4.4,0,0,0,.03.207c.035.079,3.4,7.989-.912,18.191a.4.4,0,0,0,0,.312,26.916,26.916,0,0,1-3.429,3.871M19.98,66.8a12.186,12.186,0,0,0,4.949,2.3,17.847,17.847,0,0,1-9.81.243A9.07,9.07,0,0,0,19.98,66.8" transform="translate(-0.107 -23.479)" fill="#3fa09b"/>
        <path id="Trazado_706175" data-name="Trazado 706175" d="M74.143,12.317A27.627,27.627,0,0,0,57.047,8.2a31.465,31.465,0,0,0-6.365,1.159,24.817,24.817,0,0,1,2.85-1.513A32.9,32.9,0,0,1,56.955,7.4a28.432,28.432,0,0,1,17.624,4.235,36.753,36.753,0,0,1,12.446,12.94q.295.528.55,1.029c.135.84.242,1.73.313,2.655A34.751,34.751,0,0,0,74.143,12.317" transform="translate(-38.908 -5.607)" fill="#3fa09b"/>
      </g>
    </g>
  </g>
</svg>
