<svg xmlns="http://www.w3.org/2000/svg" xmlns:xlink="http://www.w3.org/1999/xlink" width="596.07" height="424.804" viewBox="0 0 596.07 424.804">
  <defs>
    <clipPath id="clip-path">
      <path id="Trazado_711936" data-name="Trazado 711936" d="M208.394,8.714v153.3h-6.075l37.456,27.905,37.457-27.905h-6.075V8.714Z" transform="translate(-202.319 -8.714)" fill="#39a900"/>
    </clipPath>
    <clipPath id="clip-path-2">
      <path id="Trazado_711937" data-name="Trazado 711937" d="M306.793,170.456l-4.3-4.3,6.753,46.219,46.219,6.753-4.3-4.3,108.4-108.4-44.38-44.38Z" transform="translate(-302.496 -62.061)" fill="#1448d3"/>
    </clipPath>
    <clipPath id="clip-path-3">
      <path id="Trazado_711938" data-name="Trazado 711938" d="M313.261,252.848l14.119,44.523,1.988-5.739,144.862,50.141,20.529-59.31L349.9,232.32l1.987-5.739Z" transform="translate(-313.261 -226.581)" fill="#00104e"/>
    </clipPath>
    <clipPath id="clip-path-4">
      <path id="Trazado_711939" data-name="Trazado 711939" d="M153.932,232.34,8.583,281.05l19.944,59.51,145.349-48.71,1.931,5.76,14.557-44.382L152,226.58Z" transform="translate(-8.583 -226.58)" fill="#9b1f36"/>
    </clipPath>
    <clipPath id="clip-path-5">
      <path id="Trazado_711940" data-name="Trazado 711940" d="M43.7,105.083,150.118,215.424l-4.372,4.215,46.332-5.915,7.589-46.087-4.373,4.215L88.879,61.514Z" transform="translate(-43.704 -61.514)" fill="#ff6e33"/>
    </clipPath>
    <clipPath id="clip-path-6">
      <path id="Trazado_711941" data-name="Trazado 711941" d="M247.856,16.881a69.123,69.123,0,1,0,.35,0h-.35" transform="translate(-178.97 -16.88)" fill="#39a900"/>
    </clipPath>
    <clipPath id="clip-path-7">
      <path id="Trazado_711943" data-name="Trazado 711943" d="M328.951,89.88A69.224,69.224,0,1,0,378.3,69.21a69.224,69.224,0,0,0-49.344,20.67" transform="translate(-309.066 -69.21)" fill="#1448d3"/>
    </clipPath>
    <clipPath id="clip-path-8">
      <path id="Trazado_711945" data-name="Trazado 711945" d="M69.545,89.1A69.226,69.226,0,1,0,118.1,69.21,69.225,69.225,0,0,0,69.545,89.1" transform="translate(-48.876 -69.21)" fill="#ff6e33"/>
    </clipPath>
    <clipPath id="clip-path-9">
      <path id="Trazado_711947" data-name="Trazado 711947" d="M67.205,223.082a69.155,69.155,0,1,0,22.994-3.95,69.227,69.227,0,0,0-22.994,3.95" transform="translate(-20.955 -219.132)" fill="#9b1f36"/>
    </clipPath>
    <clipPath id="clip-path-10">
      <path id="Trazado_711949" data-name="Trazado 711949" d="M336.193,265.383a69.154,69.154,0,1,0,65.294-46.251,69.224,69.224,0,0,0-65.294,46.251" transform="translate(-332.243 -219.132)" fill="#00104e"/>
    </clipPath>
    <clipPath id="clip-path-11">
      <rect id="Rectángulo_346591" data-name="Rectángulo 346591" width="43" height="33" transform="translate(0 -0.294)" fill="#12263f"/>
    </clipPath>
    <clipPath id="clip-path-12">
      <rect id="Rectángulo_346592" data-name="Rectángulo 346592" width="43.893" height="44.623" fill="#12263f"/>
    </clipPath>
    <clipPath id="clip-path-13">
      <rect id="Rectángulo_346593" data-name="Rectángulo 346593" width="27.582" height="44.412" fill="#12263f"/>
    </clipPath>
    <clipPath id="clip-path-14">
      <rect id="Rectángulo_346596" data-name="Rectángulo 346596" width="38" height="43" fill="#12263f"/>
    </clipPath>
    <clipPath id="clip-path-15">
      <rect id="Rectángulo_346597" data-name="Rectángulo 346597" width="45" height="45" transform="translate(0 -0.327)" fill="#12263f"/>
    </clipPath>
  </defs>
  <g id="Grupo_999332" data-name="Grupo 999332" transform="translate(-502 -8969.954)">
    <g id="Grupo_999331" data-name="Grupo 999331">
      <path id="Trazado_711935" data-name="Trazado 711935" d="M365.723,258.016a109.17,109.17,0,1,1-109.17-109.17,109.17,109.17,0,0,1,109.17,109.17" transform="translate(548.768 9008.388)" fill="#fff"/>
      <g id="Grupo_998785" data-name="Grupo 998785" transform="translate(765.615 8969.954)" clip-path="url(#clip-path)">
        <rect id="Rectángulo_346545" data-name="Rectángulo 346545" width="74.913" height="181.201" transform="translate(0 0)" fill="#39a900"/>
      </g>
      <g id="Grupo_998794" data-name="Grupo 998794" transform="translate(901.925 9042.543)" clip-path="url(#clip-path-2)">
        <rect id="Rectángulo_346550" data-name="Rectángulo 346550" width="221.273" height="221.273" transform="matrix(0.642, -0.767, 0.767, 0.642, -77.322, 92.288)" fill="#1448d3"/>
      </g>
      <g id="Grupo_998803" data-name="Grupo 998803" transform="translate(916.573 9266.403)" clip-path="url(#clip-path-3)">
        <rect id="Rectángulo_346555" data-name="Rectángulo 346555" width="169.963" height="209.823" transform="translate(-36.781 101.918) rotate(-70.156)" fill="#00104e"/>
      </g>
      <g id="Grupo_998812" data-name="Grupo 998812" transform="translate(502 9266.402)" clip-path="url(#clip-path-4)">
        <rect id="Rectángulo_346560" data-name="Rectángulo 346560" width="213.796" height="184.572" transform="translate(-46.402 23.904) rotate(-27.255)" fill="#9b1f36"/>
      </g>
      <g id="Grupo_998821" data-name="Grupo 998821" transform="translate(549.789 9041.798)" clip-path="url(#clip-path-5)">
        <rect id="Rectángulo_346565" data-name="Rectángulo 346565" width="221.938" height="222.034" transform="translate(-78.909 74.131) rotate(-43.212)" fill="#ff6e33"/>
      </g>
      <g id="Grupo_998830" data-name="Grupo 998830" transform="translate(733.845 8981.065)" clip-path="url(#clip-path-6)">
        <rect id="Rectángulo_346570" data-name="Rectángulo 346570" width="138.825" height="138.641" transform="translate(-0.186 -0.003)" fill="#39a900"/>
      </g>
      <path id="Trazado_711942" data-name="Trazado 711942" d="M305.053,83.222a59.448,59.448,0,1,1-59.74-59.156,59.45,59.45,0,0,1,59.74,59.156" transform="translate(557.467 8966.777)" fill="#fff"/>
      <g id="Grupo_998839" data-name="Grupo 998839" transform="translate(910.864 9052.271)" clip-path="url(#clip-path-7)">
        <rect id="Rectángulo_346575" data-name="Rectángulo 346575" width="152.317" height="145.383" transform="translate(-6.933 0)" fill="#1448d3"/>
      </g>
      <path id="Trazado_711944" data-name="Trazado 711944" d="M418.072,177.542a59.448,59.448,0,1,1-.675-84.07,59.45,59.45,0,0,1,.675,84.07" transform="translate(604.391 8985.652)" fill="#fff"/>
      <g id="Grupo_998848" data-name="Grupo 998848" transform="translate(556.826 9052.271)" clip-path="url(#clip-path-8)">
        <rect id="Rectángulo_346580" data-name="Rectángulo 346580" width="152.316" height="145.383" transform="translate(-6.932 0)" fill="#ff6e33"/>
      </g>
      <path id="Trazado_711946" data-name="Trazado 711946" d="M73.138,177.542a59.448,59.448,0,1,0,.675-84.07,59.45,59.45,0,0,0-.675,84.07" transform="translate(510.542 8985.652)" fill="#fff"/>
      <g id="Grupo_998857" data-name="Grupo 998857" transform="translate(518.834 9256.268)" clip-path="url(#clip-path-9)">
        <rect id="Rectángulo_346585" data-name="Rectángulo 346585" width="155.99" height="147.24" transform="translate(-8.75)" fill="#9b1f36"/>
      </g>
      <path id="Trazado_711948" data-name="Trazado 711948" d="M67.86,229.712a59.448,59.448,0,1,1-36.326,75.819A59.448,59.448,0,0,1,67.86,229.712" transform="translate(500.472 9039.729)" fill="#fff"/>
      <g id="Grupo_998866" data-name="Grupo 998866" transform="translate(942.402 9256.268)" clip-path="url(#clip-path-10)">
        <rect id="Rectángulo_346590" data-name="Rectángulo 346590" width="155.988" height="147.24" transform="translate(-8.75 0)" fill="#00104e"/>
      </g>
      <path id="Trazado_711950" data-name="Trazado 711950" d="M418.643,229.712a59.448,59.448,0,1,0,36.325,75.819,59.449,59.449,0,0,0-36.325-75.819" transform="translate(612.751 9039.729)" fill="#fff"/>
      <path id="Trazado_712385" data-name="Trazado 712385" d="M-27.558-2.391h-4.228L-32.524,0h-3.3l4.693-12.8h2.9L-23.5,0h-3.313Zm-3.489-2.382H-28.3l-1.38-4.438Zm12.366,2.663a1.317,1.317,0,0,0,.967-.338,1.241,1.241,0,0,0,.334-.945H-14.6A3.288,3.288,0,0,1-15.724-.826a4.168,4.168,0,0,1-2.887,1,4.22,4.22,0,0,1-3.27-1.3,5.125,5.125,0,0,1-1.2-3.6v-.123A5.792,5.792,0,0,1-22.544-7.4a3.872,3.872,0,0,1,1.534-1.7,4.573,4.573,0,0,1,2.373-.593,4.116,4.116,0,0,1,2.944,1.028A3.647,3.647,0,0,1-14.6-5.871H-17.38A1.626,1.626,0,0,0-17.741-7a1.244,1.244,0,0,0-.967-.4q-1.151,0-1.345,1.468a10.357,10.357,0,0,0-.062,1.283,4.068,4.068,0,0,0,.343,1.986A1.187,1.187,0,0,0-18.681-2.109ZM-7.6-6.829l-.976-.07a1.752,1.752,0,0,0-1.793.879V0h-2.962V-9.51h2.777l.1,1.222a2.294,2.294,0,0,1,2.083-1.4,2.888,2.888,0,0,1,.826.105ZM-3.3,0H-6.28V-9.51H-3.3ZM-4.408-13.324h3.129l-2.443,2.76-2.417,0ZM1.727,0H-1.244V-13.5H1.727ZM6.675,0H3.7V-9.51H6.675ZM3.529-11.971a1.334,1.334,0,0,1,.457-1.043,1.718,1.718,0,0,1,1.187-.407,1.718,1.718,0,0,1,1.187.407,1.334,1.334,0,0,1,.457,1.043,1.334,1.334,0,0,1-.457,1.043,1.718,1.718,0,0,1-1.187.407,1.718,1.718,0,0,1-1.187-.407A1.334,1.334,0,0,1,3.529-11.971ZM12.52-2.109a1.317,1.317,0,0,0,.967-.338,1.241,1.241,0,0,0,.334-.945H16.6A3.288,3.288,0,0,1,15.478-.826a4.168,4.168,0,0,1-2.887,1,4.22,4.22,0,0,1-3.27-1.3,5.125,5.125,0,0,1-1.2-3.6v-.123A5.792,5.792,0,0,1,8.657-7.4a3.872,3.872,0,0,1,1.534-1.7,4.573,4.573,0,0,1,2.373-.593,4.116,4.116,0,0,1,2.944,1.028A3.647,3.647,0,0,1,16.6-5.871H13.821A1.626,1.626,0,0,0,13.46-7a1.244,1.244,0,0,0-.967-.4q-1.151,0-1.345,1.468a10.357,10.357,0,0,0-.062,1.283,4.068,4.068,0,0,0,.343,1.986A1.187,1.187,0,0,0,12.52-2.109ZM23.208,0a3.344,3.344,0,0,1-.281-.853A2.754,2.754,0,0,1,20.641.176a3.374,3.374,0,0,1-2.285-.813,2.588,2.588,0,0,1-.94-2.043,2.66,2.66,0,0,1,1.143-2.338A5.821,5.821,0,0,1,21.88-5.81h.914v-.5q0-1.316-1.134-1.316a.927.927,0,0,0-1.055,1.042H17.644a2.655,2.655,0,0,1,1.173-2.239,4.931,4.931,0,0,1,2.993-.86,4.323,4.323,0,0,1,2.874.888,3.086,3.086,0,0,1,1.081,2.435v4.21a4.311,4.311,0,0,0,.4,2V0ZM21.353-1.934a1.652,1.652,0,0,0,.918-.237,1.487,1.487,0,0,0,.523-.536V-4.228h-.861q-1.547,0-1.547,1.389a.848.848,0,0,0,.272.655A.986.986,0,0,0,21.353-1.934Zm11.03-.738a.684.684,0,0,0-.4-.606,6.016,6.016,0,0,0-1.5-.475A6.853,6.853,0,0,1,28.657-4.4a3.062,3.062,0,0,1-1.1-.971,2.319,2.319,0,0,1-.378-1.31,2.628,2.628,0,0,1,1.081-2.158,4.453,4.453,0,0,1,2.83-.848,4.934,4.934,0,0,1,3.023.853,2.666,2.666,0,0,1,1.143,2.241H32.287q0-1.143-1.2-1.143a1.194,1.194,0,0,0-.782.259.8.8,0,0,0-.316.646.737.737,0,0,0,.387.642,3.654,3.654,0,0,0,1.235.4,10.671,10.671,0,0,1,1.49.378A2.706,2.706,0,0,1,35.24-2.76,2.491,2.491,0,0,1,34.084-.642a5.068,5.068,0,0,1-2.993.817,5.172,5.172,0,0,1-2.18-.439,3.645,3.645,0,0,1-1.494-1.2,2.707,2.707,0,0,1-.536-1.591H29.65a1.145,1.145,0,0,0,.439.962,1.808,1.808,0,0,0,1.081.3,1.422,1.422,0,0,0,.91-.246A.787.787,0,0,0,32.383-2.672Z" transform="translate(588.079 9321.047)" fill="#12263f"/>
      <path id="Trazado_712387" data-name="Trazado 712387" d="M-47.426-12.8l2.856,8.9,2.848-8.9h4.061V0h-3.094V-2.988l.3-6.117L-43.55,0h-2.039l-3.1-9.114.3,6.126V0h-3.085V-12.8Zm11.215,7.954a5.613,5.613,0,0,1,.554-2.536,3.96,3.96,0,0,1,1.591-1.709,4.791,4.791,0,0,1,2.435-.6,4.373,4.373,0,0,1,3.366,1.323,5.076,5.076,0,0,1,1.23,3.6v.105A4.925,4.925,0,0,1-28.27-1.129,4.384,4.384,0,0,1-31.614.176a4.434,4.434,0,0,1-3.261-1.217,4.761,4.761,0,0,1-1.327-3.3Zm2.962.185a3.538,3.538,0,0,0,.413,1.934,1.376,1.376,0,0,0,1.222.615q1.582,0,1.617-2.435v-.3Q-30-7.4-31.632-7.4q-1.485,0-1.608,2.206Zm7.146-.167a5.809,5.809,0,0,1,.976-3.56,3.211,3.211,0,0,1,2.725-1.3,2.731,2.731,0,0,1,2.145,1V-13.5h2.971V0h-2.663L-20.1-1.02a2.8,2.8,0,0,1-2.32,1.2,3.205,3.205,0,0,1-2.689-1.3A5.993,5.993,0,0,1-26.1-4.825Zm2.962.185q0,2.531,1.477,2.531a1.458,1.458,0,0,0,1.406-.826V-6.557A1.419,1.419,0,0,0-21.647-7.4q-1.371,0-1.485,2.215ZM-10.248,0a3.344,3.344,0,0,1-.281-.853A2.754,2.754,0,0,1-12.814.176,3.374,3.374,0,0,1-15.1-.637a2.588,2.588,0,0,1-.94-2.043A2.66,2.66,0,0,1-14.9-5.019a5.821,5.821,0,0,1,3.322-.791h.914v-.5q0-1.316-1.134-1.316A.927.927,0,0,0-12.85-6.587h-2.962a2.655,2.655,0,0,1,1.173-2.239,4.931,4.931,0,0,1,2.993-.86A4.323,4.323,0,0,1-8.771-8.8,3.086,3.086,0,0,1-7.69-6.363v4.21a4.311,4.311,0,0,0,.4,2V0ZM-12.1-1.934a1.652,1.652,0,0,0,.918-.237,1.487,1.487,0,0,0,.523-.536V-4.228h-.861q-1.547,0-1.547,1.389a.848.848,0,0,0,.272.655A.986.986,0,0,0-12.1-1.934ZM-2.03-2.109a1.317,1.317,0,0,0,.967-.338,1.241,1.241,0,0,0,.334-.945H2.048A3.288,3.288,0,0,1,.927-.826a4.168,4.168,0,0,1-2.887,1,4.22,4.22,0,0,1-3.27-1.3,5.125,5.125,0,0,1-1.2-3.6v-.123A5.792,5.792,0,0,1-5.893-7.4a3.872,3.872,0,0,1,1.534-1.7,4.573,4.573,0,0,1,2.373-.593A4.116,4.116,0,0,1,.958-8.657a3.647,3.647,0,0,1,1.09,2.786H-.729A1.626,1.626,0,0,0-1.09-7a1.244,1.244,0,0,0-.967-.4Q-3.208-7.4-3.4-5.933a10.357,10.357,0,0,0-.062,1.283A4.068,4.068,0,0,0-3.12-2.663,1.187,1.187,0,0,0-2.03-2.109ZM9.053-6.829,8.077-6.9a1.752,1.752,0,0,0-1.793.879V0H3.322V-9.51H6.1l.1,1.222a2.294,2.294,0,0,1,2.083-1.4,2.888,2.888,0,0,1,.826.105ZM13.351,0H10.371V-9.51h2.979ZM12.243-13.324h3.129l-2.443,2.76-2.417,0ZM18.378,0H15.407V-13.5h2.971Zm4.948,0H20.355V-9.51h2.971ZM20.18-11.971a1.334,1.334,0,0,1,.457-1.043,1.718,1.718,0,0,1,1.187-.407,1.718,1.718,0,0,1,1.187.407,1.334,1.334,0,0,1,.457,1.043,1.334,1.334,0,0,1-.457,1.043,1.718,1.718,0,0,1-1.187.407,1.718,1.718,0,0,1-1.187-.407A1.334,1.334,0,0,1,20.18-11.971Zm8.991,9.861a1.317,1.317,0,0,0,.967-.338,1.241,1.241,0,0,0,.334-.945h2.777A3.288,3.288,0,0,1,32.128-.826a4.168,4.168,0,0,1-2.887,1,4.22,4.22,0,0,1-3.27-1.3,5.125,5.125,0,0,1-1.2-3.6v-.123A5.792,5.792,0,0,1,25.308-7.4a3.872,3.872,0,0,1,1.534-1.7,4.573,4.573,0,0,1,2.373-.593,4.116,4.116,0,0,1,2.944,1.028,3.647,3.647,0,0,1,1.09,2.786H30.472A1.626,1.626,0,0,0,30.111-7a1.244,1.244,0,0,0-.967-.4q-1.151,0-1.345,1.468a10.357,10.357,0,0,0-.062,1.283,4.068,4.068,0,0,0,.343,1.986A1.187,1.187,0,0,0,29.171-2.109ZM39.858,0a3.344,3.344,0,0,1-.281-.853A2.754,2.754,0,0,1,37.292.176a3.374,3.374,0,0,1-2.285-.813,2.588,2.588,0,0,1-.94-2.043,2.66,2.66,0,0,1,1.143-2.338,5.821,5.821,0,0,1,3.322-.791h.914v-.5q0-1.316-1.134-1.316a.927.927,0,0,0-1.055,1.042H34.295a2.655,2.655,0,0,1,1.173-2.239,4.931,4.931,0,0,1,2.993-.86,4.323,4.323,0,0,1,2.874.888,3.086,3.086,0,0,1,1.081,2.435v4.21a4.311,4.311,0,0,0,.4,2V0ZM38-1.934a1.652,1.652,0,0,0,.918-.237,1.487,1.487,0,0,0,.523-.536V-4.228h-.861q-1.547,0-1.547,1.389a.848.848,0,0,0,.272.655A.986.986,0,0,0,38-1.934Zm11.03-.738a.684.684,0,0,0-.4-.606,6.016,6.016,0,0,0-1.5-.475A6.853,6.853,0,0,1,45.308-4.4a3.062,3.062,0,0,1-1.1-.971,2.319,2.319,0,0,1-.378-1.31,2.628,2.628,0,0,1,1.081-2.158,4.453,4.453,0,0,1,2.83-.848,4.934,4.934,0,0,1,3.023.853,2.666,2.666,0,0,1,1.143,2.241H48.938q0-1.143-1.2-1.143a1.194,1.194,0,0,0-.782.259.8.8,0,0,0-.316.646.737.737,0,0,0,.387.642,3.654,3.654,0,0,0,1.235.4,10.671,10.671,0,0,1,1.49.378A2.706,2.706,0,0,1,51.891-2.76,2.491,2.491,0,0,1,50.735-.642a5.068,5.068,0,0,1-2.993.817,5.172,5.172,0,0,1-2.18-.439,3.645,3.645,0,0,1-1.494-1.2,2.707,2.707,0,0,1-.536-1.591H46.3a1.145,1.145,0,0,0,.439.962,1.808,1.808,0,0,0,1.081.3,1.422,1.422,0,0,0,.91-.246A.787.787,0,0,0,49.034-2.672Z" transform="translate(626.04 9117.224)" fill="#12263f"/>
      <path id="Trazado_712389" data-name="Trazado 712389" d="M-39.458-5.432H-44.31v3.059h5.73V0H-47.4V-12.8h8.833v2.382H-44.31v2.7h4.852ZM-34.334,0h-2.971V-13.5h2.971Zm7.181,0a3.344,3.344,0,0,1-.281-.853A2.754,2.754,0,0,1-29.72.176a3.374,3.374,0,0,1-2.285-.813,2.588,2.588,0,0,1-.94-2.043A2.66,2.66,0,0,1-31.8-5.019a5.821,5.821,0,0,1,3.322-.791h.914v-.5q0-1.316-1.134-1.316a.927.927,0,0,0-1.055,1.042h-2.962a2.655,2.655,0,0,1,1.173-2.239,4.931,4.931,0,0,1,2.993-.86,4.323,4.323,0,0,1,2.874.888A3.086,3.086,0,0,1-24.6-6.363v4.21a4.311,4.311,0,0,0,.4,2V0Zm-1.854-1.934a1.652,1.652,0,0,0,.918-.237,1.487,1.487,0,0,0,.523-.536V-4.228h-.861q-1.547,0-1.547,1.389a.848.848,0,0,0,.272.655A.986.986,0,0,0-29.008-1.934Zm11.03-.738a.684.684,0,0,0-.4-.606,6.016,6.016,0,0,0-1.5-.475A6.853,6.853,0,0,1-21.7-4.4a3.062,3.062,0,0,1-1.1-.971,2.319,2.319,0,0,1-.378-1.31A2.628,2.628,0,0,1-22.1-8.837a4.453,4.453,0,0,1,2.83-.848,4.934,4.934,0,0,1,3.023.853A2.666,2.666,0,0,1-15.1-6.592h-2.971q0-1.143-1.2-1.143a1.194,1.194,0,0,0-.782.259.8.8,0,0,0-.316.646.737.737,0,0,0,.387.642,3.654,3.654,0,0,0,1.235.4,10.671,10.671,0,0,1,1.49.378A2.706,2.706,0,0,1-15.122-2.76,2.491,2.491,0,0,1-16.277-.642,5.068,5.068,0,0,1-19.27.176a5.172,5.172,0,0,1-2.18-.439,3.645,3.645,0,0,1-1.494-1.2A2.707,2.707,0,0,1-23.48-3.05h2.769a1.145,1.145,0,0,0,.439.962,1.808,1.808,0,0,0,1.081.3,1.422,1.422,0,0,0,.91-.246A.787.787,0,0,0-17.978-2.672Zm7.69-9.2V-9.51h1.564v2.057h-1.564V-3.1a1.111,1.111,0,0,0,.193.747,1.037,1.037,0,0,0,.765.211A4.345,4.345,0,0,0-8.591-2.2V-.079a5.466,5.466,0,0,1-1.67.255A3.1,3.1,0,0,1-12.52-.545a2.954,2.954,0,0,1-.729-2.188v-4.72h-1.213V-9.51h1.213v-2.364ZM-8.2-4.843a5.613,5.613,0,0,1,.554-2.536A3.96,3.96,0,0,1-6.051-9.088a4.791,4.791,0,0,1,2.435-.6A4.373,4.373,0,0,1-.25-8.363a5.076,5.076,0,0,1,1.23,3.6v.105A4.925,4.925,0,0,1-.255-1.129,4.384,4.384,0,0,1-3.6.176,4.434,4.434,0,0,1-6.86-1.042a4.761,4.761,0,0,1-1.327-3.3Zm2.962.185a3.538,3.538,0,0,0,.413,1.934A1.376,1.376,0,0,0-3.6-2.109q1.582,0,1.617-2.435v-.3q0-2.558-1.635-2.558Q-5.1-7.4-5.225-5.194ZM2.975,0V-7.453H1.6V-9.51h1.38v-.316a3.631,3.631,0,0,1,1.248-2.909,4.987,4.987,0,0,1,3.243-.949,11.509,11.509,0,0,1,3.094.51l-.4,2.338-.492-.132a7.832,7.832,0,0,0-2.021-.255q-1.7,0-1.7,1.547v.167H7.809v2.057H5.946V0Zm8.947,0H8.943V-9.51h2.979ZM22.557-4.676a5.8,5.8,0,0,1-.967,3.595A3.238,3.238,0,0,1,18.866.176,2.81,2.81,0,0,1,16.528-.976L16.4,0H13.75V-13.5h2.962v4.755a2.711,2.711,0,0,1,2.136-.94A3.239,3.239,0,0,1,21.59-8.411a5.826,5.826,0,0,1,.967,3.586Zm-2.971-.189a3.866,3.866,0,0,0-.365-1.952A1.229,1.229,0,0,0,18.1-7.4a1.418,1.418,0,0,0-1.389.763v3.773a1.426,1.426,0,0,0,1.406.755,1.258,1.258,0,0,0,1.327-1.018A7.309,7.309,0,0,0,19.586-4.865ZM29.615-6.829l-.976-.07a1.752,1.752,0,0,0-1.793.879V0H23.884V-9.51h2.777l.1,1.222a2.294,2.294,0,0,1,2.083-1.4,2.888,2.888,0,0,1,.826.105ZM35.776,0a3.344,3.344,0,0,1-.281-.853A2.754,2.754,0,0,1,33.209.176a3.374,3.374,0,0,1-2.285-.813,2.588,2.588,0,0,1-.94-2.043,2.66,2.66,0,0,1,1.143-2.338,5.821,5.821,0,0,1,3.322-.791h.914v-.5q0-1.316-1.134-1.316a.927.927,0,0,0-1.055,1.042H30.212a2.655,2.655,0,0,1,1.173-2.239,4.931,4.931,0,0,1,2.993-.86,4.323,4.323,0,0,1,2.874.888,3.086,3.086,0,0,1,1.081,2.435v4.21a4.311,4.311,0,0,0,.4,2V0ZM33.921-1.934a1.652,1.652,0,0,0,.918-.237,1.487,1.487,0,0,0,.523-.536V-4.228H34.5q-1.547,0-1.547,1.389a.848.848,0,0,0,.272.655A.986.986,0,0,0,33.921-1.934Zm11.03-.738a.684.684,0,0,0-.4-.606,6.016,6.016,0,0,0-1.5-.475A6.853,6.853,0,0,1,41.225-4.4a3.062,3.062,0,0,1-1.1-.971,2.319,2.319,0,0,1-.378-1.31A2.628,2.628,0,0,1,40.83-8.837a4.453,4.453,0,0,1,2.83-.848,4.934,4.934,0,0,1,3.023.853,2.666,2.666,0,0,1,1.143,2.241H44.855q0-1.143-1.2-1.143a1.194,1.194,0,0,0-.782.259.8.8,0,0,0-.316.646.737.737,0,0,0,.387.642,3.654,3.654,0,0,0,1.235.4,10.671,10.671,0,0,1,1.49.378A2.706,2.706,0,0,1,47.808-2.76,2.491,2.491,0,0,1,46.652-.642,5.068,5.068,0,0,1,43.66.176a5.172,5.172,0,0,1-2.18-.439,3.645,3.645,0,0,1-1.494-1.2A2.707,2.707,0,0,1,39.45-3.05h2.769a1.145,1.145,0,0,0,.439.962,1.808,1.808,0,0,0,1.081.3,1.422,1.422,0,0,0,.91-.246A.787.787,0,0,0,44.952-2.672Z" transform="translate(803.321 9044.42)" fill="#12263f"/>
      <g id="Grupo_998870" data-name="Grupo 998870" transform="translate(4.321 -56)">
        <path id="Trazado_712381" data-name="Trazado 712381" d="M-40.258-5.1h-4.975V0h-3.085V-12.8h8.561v2.382h-5.476v2.944h4.975ZM-35.486,0h-2.971V-13.5h2.971ZM-28-1.028a3.054,3.054,0,0,1-2.54,1.2,3,3,0,0,1-2.369-.91,3.826,3.826,0,0,1-.8-2.615V-9.51h2.962v6.179a1.065,1.065,0,0,0,1.187,1.222,1.548,1.548,0,0,0,1.45-.729V-9.51h2.979V0H-27.91Zm4.113-3.814a5.613,5.613,0,0,1,.554-2.536A3.96,3.96,0,0,1-21.74-9.088a4.791,4.791,0,0,1,2.435-.6,4.373,4.373,0,0,1,3.366,1.323,5.076,5.076,0,0,1,1.23,3.6v.105a4.925,4.925,0,0,1-1.235,3.529A4.384,4.384,0,0,1-19.288.176a4.434,4.434,0,0,1-3.261-1.217,4.761,4.761,0,0,1-1.327-3.3Zm2.962.185a3.538,3.538,0,0,0,.413,1.934,1.376,1.376,0,0,0,1.222.615q1.582,0,1.617-2.435v-.3q0-2.558-1.635-2.558-1.485,0-1.608,2.206ZM-7.651-6.829l-.976-.07a1.752,1.752,0,0,0-1.793.879V0h-2.962V-9.51H-10.6l.1,1.222a2.294,2.294,0,0,1,2.083-1.4A2.888,2.888,0,0,1-7.6-9.58Zm.378,1.986a5.613,5.613,0,0,1,.554-2.536A3.96,3.96,0,0,1-5.128-9.088a4.791,4.791,0,0,1,2.435-.6A4.373,4.373,0,0,1,.672-8.363a5.076,5.076,0,0,1,1.23,3.6v.105A4.925,4.925,0,0,1,.668-1.129,4.384,4.384,0,0,1-2.676.176,4.434,4.434,0,0,1-5.937-1.042a4.761,4.761,0,0,1-1.327-3.3Zm2.962.185A3.538,3.538,0,0,0-3.9-2.725a1.376,1.376,0,0,0,1.222.615q1.582,0,1.617-2.435v-.3q0-2.558-1.635-2.558Q-4.179-7.4-4.3-5.194ZM3.9,0V-7.453H2.518V-9.51H3.9v-.316a3.631,3.631,0,0,1,1.248-2.909,4.987,4.987,0,0,1,3.243-.949,11.509,11.509,0,0,1,3.094.51l-.4,2.338-.492-.132a7.832,7.832,0,0,0-2.021-.255q-1.7,0-1.7,1.547v.167H8.732v2.057H6.869V0Zm8.947,0H9.866V-9.51h2.979ZM23.48-4.676a5.8,5.8,0,0,1-.967,3.595A3.238,3.238,0,0,1,19.789.176,2.81,2.81,0,0,1,17.451-.976L17.328,0H14.673V-13.5h2.962v4.755a2.711,2.711,0,0,1,2.136-.94,3.239,3.239,0,0,1,2.742,1.274,5.826,5.826,0,0,1,.967,3.586Zm-2.971-.189a3.866,3.866,0,0,0-.365-1.952A1.229,1.229,0,0,0,19.024-7.4a1.418,1.418,0,0,0-1.389.763v3.773a1.426,1.426,0,0,0,1.406.755,1.258,1.258,0,0,0,1.327-1.018A7.309,7.309,0,0,0,20.509-4.865ZM30.538-6.829l-.976-.07a1.752,1.752,0,0,0-1.793.879V0H24.807V-9.51h2.777l.1,1.222a2.294,2.294,0,0,1,2.083-1.4,2.888,2.888,0,0,1,.826.105ZM36.7,0a3.344,3.344,0,0,1-.281-.853A2.754,2.754,0,0,1,34.132.176a3.374,3.374,0,0,1-2.285-.813,2.588,2.588,0,0,1-.94-2.043,2.66,2.66,0,0,1,1.143-2.338,5.821,5.821,0,0,1,3.322-.791h.914v-.5q0-1.316-1.134-1.316A.927.927,0,0,0,34.1-6.587H31.135a2.655,2.655,0,0,1,1.173-2.239,4.931,4.931,0,0,1,2.993-.86,4.323,4.323,0,0,1,2.874.888,3.086,3.086,0,0,1,1.081,2.435v4.21a4.311,4.311,0,0,0,.4,2V0ZM34.844-1.934a1.652,1.652,0,0,0,.918-.237,1.487,1.487,0,0,0,.523-.536V-4.228h-.861q-1.547,0-1.547,1.389a.848.848,0,0,0,.272.655A.986.986,0,0,0,34.844-1.934Zm11.03-.738a.684.684,0,0,0-.4-.606,6.016,6.016,0,0,0-1.5-.475A6.853,6.853,0,0,1,42.148-4.4a3.062,3.062,0,0,1-1.1-.971,2.319,2.319,0,0,1-.378-1.31,2.628,2.628,0,0,1,1.081-2.158,4.453,4.453,0,0,1,2.83-.848,4.934,4.934,0,0,1,3.023.853,2.666,2.666,0,0,1,1.143,2.241H45.778q0-1.143-1.2-1.143a1.194,1.194,0,0,0-.782.259.8.8,0,0,0-.316.646.737.737,0,0,0,.387.642,3.654,3.654,0,0,0,1.235.4,10.671,10.671,0,0,1,1.49.378A2.706,2.706,0,0,1,48.731-2.76,2.491,2.491,0,0,1,47.575-.642a5.068,5.068,0,0,1-2.993.817A5.172,5.172,0,0,1,42.4-.264a3.645,3.645,0,0,1-1.494-1.2,2.707,2.707,0,0,1-.536-1.591h2.769a1.145,1.145,0,0,0,.439.962,1.808,1.808,0,0,0,1.081.3,1.422,1.422,0,0,0,.91-.246A.787.787,0,0,0,45.875-2.672Z" transform="translate(975.709 9173)" fill="#12263f"/>
      </g>
      <path id="Trazado_712383" data-name="Trazado 712383" d="M-11.931,0H-15l-4.535-7.963V0h-3.085V-12.8h3.085l4.526,7.963V-12.8h3.076Zm5.616-4.148L-4.733-9.51H-1.56l-3.876,11.1L-5.6,2A2.944,2.944,0,0,1-8.521,3.841a4.642,4.642,0,0,1-1.222-.175V1.556h.387a2.026,2.026,0,0,0,.954-.18A1.094,1.094,0,0,0-7.915.729L-7.677.1l-3.3-9.605h3.164ZM2.333,0H-.637V-13.5H2.333Zm1.45-4.843a5.613,5.613,0,0,1,.554-2.536A3.96,3.96,0,0,1,5.928-9.088a4.791,4.791,0,0,1,2.435-.6,4.373,4.373,0,0,1,3.366,1.323,5.076,5.076,0,0,1,1.23,3.6v.105a4.925,4.925,0,0,1-1.235,3.529A4.384,4.384,0,0,1,8.38.176,4.434,4.434,0,0,1,5.12-1.042a4.761,4.761,0,0,1-1.327-3.3Zm2.962.185a3.538,3.538,0,0,0,.413,1.934,1.376,1.376,0,0,0,1.222.615q1.582,0,1.617-2.435v-.3Q10-7.4,8.363-7.4q-1.485,0-1.608,2.206ZM16.985-9.51l.1,1.116A3.225,3.225,0,0,1,19.8-9.686a2.713,2.713,0,0,1,2.219.888,4.226,4.226,0,0,1,.76,2.672V0H19.806V-6a1.6,1.6,0,0,0-.29-1.059A1.342,1.342,0,0,0,18.461-7.4a1.413,1.413,0,0,0-1.292.686V0H14.208V-9.51Z" transform="translate(1011.98 9320.514)" fill="#12263f"/>
      <path id="Trazado_712380" data-name="Trazado 712380" d="M56.609,13.336H51.082V19H47.654V4.781h9.512V7.428H51.082V10.7h5.527ZM61.912,19h-3.3V8.434h3.3Zm-3.5-13.3a1.482,1.482,0,0,1,.508-1.159,2.149,2.149,0,0,1,2.637,0A1.482,1.482,0,0,1,62.068,5.7a1.482,1.482,0,0,1-.508,1.159,2.149,2.149,0,0,1-2.637,0A1.482,1.482,0,0,1,58.416,5.7ZM73.748,13.8A6.44,6.44,0,0,1,72.674,17.8a3.6,3.6,0,0,1-3.027,1.4,3.122,3.122,0,0,1-2.6-1.279L66.912,19H63.963V4h3.291V9.283a3.013,3.013,0,0,1,2.373-1.045,3.6,3.6,0,0,1,3.047,1.416,6.473,6.473,0,0,1,1.074,3.984Zm-3.3-.21a4.3,4.3,0,0,0-.405-2.169,1.366,1.366,0,0,0-1.245-.648,1.576,1.576,0,0,0-1.543.848v4.192a1.585,1.585,0,0,0,1.563.838,1.4,1.4,0,0,0,1.475-1.131A8.121,8.121,0,0,0,70.447,13.595ZM81.59,11.412l-1.084-.078a1.947,1.947,0,0,0-1.992.977V19H75.223V8.434h3.086l.107,1.357A2.548,2.548,0,0,1,80.73,8.238a3.209,3.209,0,0,1,.918.117ZM88.436,19a3.716,3.716,0,0,1-.312-.947A3.06,3.06,0,0,1,85.584,19.2a3.749,3.749,0,0,1-2.539-.9A2.875,2.875,0,0,1,82,16.021a2.955,2.955,0,0,1,1.27-2.6,6.468,6.468,0,0,1,3.691-.879h1.016v-.559q0-1.462-1.26-1.462a1.03,1.03,0,0,0-1.172,1.158H82.254a2.95,2.95,0,0,1,1.3-2.487,5.479,5.479,0,0,1,3.325-.956,4.8,4.8,0,0,1,3.193.986,3.429,3.429,0,0,1,1.2,2.705v4.678a4.79,4.79,0,0,0,.449,2.227V19Zm-2.061-2.148a1.836,1.836,0,0,0,1.021-.264,1.653,1.653,0,0,0,.581-.6V14.3H87.02q-1.719,0-1.719,1.543a.942.942,0,0,0,.3.728A1.1,1.1,0,0,0,86.375,16.852Zm12.256-.82a.76.76,0,0,0-.439-.674,6.685,6.685,0,0,0-1.67-.527,7.615,7.615,0,0,1-2.031-.718,3.4,3.4,0,0,1-1.221-1.079,2.577,2.577,0,0,1-.42-1.455,2.92,2.92,0,0,1,1.2-2.4A4.948,4.948,0,0,1,97.2,8.238a5.482,5.482,0,0,1,3.359.947,2.962,2.962,0,0,1,1.27,2.49h-3.3q0-1.27-1.338-1.27a1.326,1.326,0,0,0-.869.288.892.892,0,0,0-.352.718.819.819,0,0,0,.43.713,4.06,4.06,0,0,0,1.372.449,11.857,11.857,0,0,1,1.655.42,3.007,3.007,0,0,1,2.383,2.939,2.767,2.767,0,0,1-1.284,2.354A5.631,5.631,0,0,1,97.2,19.2a5.747,5.747,0,0,1-2.422-.488,4.05,4.05,0,0,1-1.66-1.328,3.007,3.007,0,0,1-.6-1.768h3.076a1.272,1.272,0,0,0,.488,1.069,2.009,2.009,0,0,0,1.2.337,1.58,1.58,0,0,0,1.011-.273A.875.875,0,0,0,98.631,16.031Zm-61.87,27a.76.76,0,0,0-.439-.674,6.685,6.685,0,0,0-1.67-.527,7.615,7.615,0,0,1-2.031-.718A3.4,3.4,0,0,1,31.4,40.033a2.577,2.577,0,0,1-.42-1.455,2.92,2.92,0,0,1,1.2-2.4,4.948,4.948,0,0,1,3.145-.942,5.482,5.482,0,0,1,3.359.947,2.962,2.962,0,0,1,1.27,2.49h-3.3q0-1.27-1.338-1.27a1.326,1.326,0,0,0-.869.288.892.892,0,0,0-.352.718.819.819,0,0,0,.43.713,4.06,4.06,0,0,0,1.372.449,11.857,11.857,0,0,1,1.655.42,3.007,3.007,0,0,1,2.383,2.939,2.767,2.767,0,0,1-1.284,2.354,5.632,5.632,0,0,1-3.325.908,5.747,5.747,0,0,1-2.422-.488,4.05,4.05,0,0,1-1.66-1.328,3.007,3.007,0,0,1-.6-1.768h3.076a1.272,1.272,0,0,0,.488,1.069,2.009,2.009,0,0,0,1.2.337,1.58,1.58,0,0,0,1.011-.273A.875.875,0,0,0,36.761,43.031ZM44.944,46h-3.3V35.434h3.3Zm-3.5-13.3a1.482,1.482,0,0,1,.508-1.159,2.149,2.149,0,0,1,2.637,0,1.577,1.577,0,0,1,0,2.319,2.149,2.149,0,0,1-2.637,0A1.482,1.482,0,0,1,41.448,32.7Zm8.545,2.734.107,1.24a3.583,3.583,0,0,1,3.018-1.436,3.015,3.015,0,0,1,2.466.986,4.7,4.7,0,0,1,.845,2.969V46h-3.3V39.33a1.783,1.783,0,0,0-.322-1.177,1.491,1.491,0,0,0-1.172-.376,1.569,1.569,0,0,0-1.436.762V46H46.907V35.434Zm12.09-2.627v2.627h1.738v2.285H62.083v4.834a1.234,1.234,0,0,0,.215.83,1.152,1.152,0,0,0,.85.234,4.828,4.828,0,0,0,.82-.059v2.354a6.074,6.074,0,0,1-1.855.283,3.448,3.448,0,0,1-2.51-.8,3.282,3.282,0,0,1-.811-2.432V37.719H57.444V35.434h1.348V32.807ZM70.228,46.2a5.432,5.432,0,0,1-3.936-1.45,5.008,5.008,0,0,1-1.5-3.774V40.7a6.489,6.489,0,0,1,.6-2.861,4.395,4.395,0,0,1,1.753-1.919,5.292,5.292,0,0,1,2.734-.679,4.574,4.574,0,0,1,3.516,1.382,5.43,5.43,0,0,1,1.289,3.853v1.279H68.138a2.372,2.372,0,0,0,.771,1.4,2.3,2.3,0,0,0,1.543.508,2.958,2.958,0,0,0,2.441-1.094l1.5,1.777a4.2,4.2,0,0,1-1.743,1.353A5.891,5.891,0,0,1,70.228,46.2Zm-.371-8.418q-1.445,0-1.719,1.914h3.32v-.254a1.63,1.63,0,0,0-.4-1.226A1.593,1.593,0,0,0,69.856,37.777Zm-.039-6.787h3.477l-2.715,3.066-2.686,0Zm10.02,1.816v2.627h1.738v2.285H79.837v4.834a1.234,1.234,0,0,0,.215.83,1.152,1.152,0,0,0,.85.234,4.828,4.828,0,0,0,.82-.059v2.354a6.074,6.074,0,0,1-1.855.283,3.448,3.448,0,0,1-2.51-.8,3.282,3.282,0,0,1-.811-2.432V37.719H75.2V35.434h1.348V32.807ZM86.341,46h-3.3V35.434h3.3Zm-3.5-13.3a1.482,1.482,0,0,1,.508-1.159,2.149,2.149,0,0,1,2.637,0,1.577,1.577,0,0,1,0,2.319,2.149,2.149,0,0,1-2.637,0A1.482,1.482,0,0,1,82.845,32.7Zm9.99,10.957a1.464,1.464,0,0,0,1.074-.376,1.379,1.379,0,0,0,.371-1.05h3.086a3.653,3.653,0,0,1-1.245,2.852A4.631,4.631,0,0,1,92.913,46.2,4.689,4.689,0,0,1,89.28,44.75a5.7,5.7,0,0,1-1.328-4v-.137a6.436,6.436,0,0,1,.591-2.827,4.3,4.3,0,0,1,1.7-1.885,5.081,5.081,0,0,1,2.637-.659,4.573,4.573,0,0,1,3.271,1.143,4.053,4.053,0,0,1,1.211,3.1H94.28a1.806,1.806,0,0,0-.4-1.26,1.382,1.382,0,0,0-1.074-.439q-1.279,0-1.494,1.631a11.508,11.508,0,0,0-.068,1.426,4.52,4.52,0,0,0,.381,2.207A1.319,1.319,0,0,0,92.835,43.656ZM104.71,46a3.716,3.716,0,0,1-.312-.947,3.06,3.06,0,0,1-2.539,1.143,3.749,3.749,0,0,1-2.539-.9,2.875,2.875,0,0,1-1.045-2.271,2.955,2.955,0,0,1,1.27-2.6,6.468,6.468,0,0,1,3.691-.879h1.016v-.559q0-1.462-1.26-1.462a1.03,1.03,0,0,0-1.172,1.158H98.528a2.95,2.95,0,0,1,1.3-2.487,5.479,5.479,0,0,1,3.325-.956,4.8,4.8,0,0,1,3.193.986,3.429,3.429,0,0,1,1.2,2.705v4.678A4.79,4.79,0,0,0,108,45.834V46Zm-2.061-2.148a1.836,1.836,0,0,0,1.021-.264,1.653,1.653,0,0,0,.581-.6V41.3h-.957q-1.719,0-1.719,1.543a.942.942,0,0,0,.3.728A1.1,1.1,0,0,0,102.649,43.852Zm12.256-.82a.76.76,0,0,0-.439-.674,6.685,6.685,0,0,0-1.67-.527,7.615,7.615,0,0,1-2.031-.718,3.4,3.4,0,0,1-1.221-1.079,2.577,2.577,0,0,1-.42-1.455,2.92,2.92,0,0,1,1.2-2.4,4.948,4.948,0,0,1,3.145-.942,5.482,5.482,0,0,1,3.359.947,2.962,2.962,0,0,1,1.27,2.49h-3.3q0-1.27-1.338-1.27a1.326,1.326,0,0,0-.869.288.892.892,0,0,0-.352.718.819.819,0,0,0,.43.713,4.06,4.06,0,0,0,1.372.449,11.856,11.856,0,0,1,1.655.42,3.007,3.007,0,0,1,2.383,2.939,2.767,2.767,0,0,1-1.284,2.354,5.631,5.631,0,0,1-3.325.908,5.747,5.747,0,0,1-2.422-.488,4.05,4.05,0,0,1-1.66-1.328,3.007,3.007,0,0,1-.6-1.768h3.076a1.272,1.272,0,0,0,.488,1.069,2.009,2.009,0,0,0,1.2.337,1.58,1.58,0,0,0,1.011-.273A.875.875,0,0,0,114.905,43.031Z" transform="translate(731.321 9235)" fill="#12263f"/>
      <g id="Grupo_998873" data-name="Grupo 998873" transform="translate(566.321 9336.294)">
        <g id="Grupo_998872" data-name="Grupo 998872" clip-path="url(#clip-path-11)">
          <path id="Trazado_711951" data-name="Trazado 711951" d="M43.355,12.645A12.617,12.617,0,0,0,27.031.557c-.025-.05-.045-.087-.05-.1A.9.9,0,0,0,26.194,0H17.161a.906.906,0,0,0-.776.445.856.856,0,0,0-.033.119A12.641,12.641,0,1,0,12.645,25.29a12.387,12.387,0,0,0,3.7-.574.861.861,0,0,0,.035.126.9.9,0,0,0,.78.448h8.944l6.548,1.31a2.075,2.075,0,0,1-.406,4.109H22.581a.9.9,0,0,0,0,1.807h9.667a3.874,3.874,0,0,0,1.246-7.545,12.661,12.661,0,0,0,9.861-12.326M39.742,9.032A10.851,10.851,0,0,1,28.9,19.871c-.179,0-.351-.008-.521-.015.094-.578.18-1.207.254-1.9A12.656,12.656,0,0,0,39.59,7.282a10.913,10.913,0,0,1,.152,1.751M28.884,11.2c.751.489,1.681,1.663,1.805,4.445a10.7,10.7,0,0,1-1.9.483c.068-1.053.112-2.2.112-3.478,0-.5-.008-.983-.019-1.45M28.794,9.2c-.089-1.384-.225-2.582-.386-3.609,1.955.453,5.727,2.094,5.894,7.913a10.874,10.874,0,0,1-1.86,1.329c-.4-4.02-2.459-5.257-3.648-5.633M1.806,12.645A10.851,10.851,0,0,1,12.645,1.806a10.63,10.63,0,0,1,4.234.876c.109.352.226.77.344,1.275a12.64,12.64,0,0,0-2.771-.344A12.654,12.654,0,0,0,1.96,14.39a10.814,10.814,0,0,1-.154-1.745m1.807,3.613A10.816,10.816,0,0,1,17.592,5.892c.07.445.135.919.194,1.437a12.538,12.538,0,0,0-14.02,10.68,10.88,10.88,0,0,1-.153-1.751m13.266,6.355A10.756,10.756,0,0,1,5.467,20.745c-.023-.289-.048-.578-.048-.874a10.775,10.775,0,0,1,.876-4.262c1.3,2.2,4.376,5.648,10.855,6.016-.093.377-.185.707-.272.988m.644-2.774c-7.246-.3-9.616-4.714-10.18-6.117A10.916,10.916,0,0,1,9.2,11.66a4.838,4.838,0,0,0,.948,1.778c1.442,1.724,4.07,2.655,7.79,2.792-.1,1.41-.248,2.613-.418,3.608m.511-5.415c-3.911-.142-5.689-1.2-6.468-2.11a2.931,2.931,0,0,1-.739-1.806,10.759,10.759,0,0,1,5.432-1.474,10.889,10.889,0,0,1,1.692.158c.07,1.038.115,2.178.115,3.455,0,.625-.013,1.211-.031,1.778m7.576,9.061H18.5a34.786,34.786,0,0,0,1.371-10.839A34.783,34.783,0,0,0,18.5,1.806H25.61c.45,1.14,1.487,4.457,1.487,10.839s-1.039,9.7-1.487,10.839m5.1-21.677a10.782,10.782,0,0,1,7.178,2.739c.023.29.048.579.048.874a10.777,10.777,0,0,1-2,6.238A9.253,9.253,0,0,0,28.05,3.7c-.124-.548-.25-1.022-.371-1.423a10.785,10.785,0,0,1,3.03-.474m0,21.677a10.794,10.794,0,0,1-3.03-.475c.118-.392.241-.854.363-1.388.287.019.569.056.861.056A12.654,12.654,0,0,0,41.395,10.9,10.769,10.769,0,0,1,30.71,23.484" fill="#12263f"/>
        </g>
      </g>
      <g id="Grupo_998875" data-name="Grupo 998875" transform="translate(604.388 9125.064)">
        <g id="Grupo_998874" data-name="Grupo 998874" clip-path="url(#clip-path-12)">
          <path id="Trazado_711952" data-name="Trazado 711952" d="M41,16.99,43.7,11.064A2.244,2.244,0,0,0,43,8.357L35.422,2.67a3.7,3.7,0,0,0-1.041-.548l-5.611-2a2.19,2.19,0,0,0-1.716.129,14.438,14.438,0,0,1-5.077,1.241A14.375,14.375,0,0,1,16.839.246a2.2,2.2,0,0,0-1.73-.123L9.527,2.117a3.7,3.7,0,0,0-1.056.553L.89,8.356A2.245,2.245,0,0,0,.2,11.064L2.891,16.99a2.243,2.243,0,0,0,2.644,1.222l2.789-.8a41.054,41.054,0,0,0-.515,11.568L5.725,40.235A1.493,1.493,0,0,0,6.8,41.945l9.852,2.628a1.5,1.5,0,0,0,1.776-.917l3.515-10.148,3.527,10.179a1.487,1.487,0,0,0,1.764.886l9.852-2.628a1.494,1.494,0,0,0,1.08-1.71L36.087,28.976a41.023,41.023,0,0,0-.514-11.561l2.787.8A2.245,2.245,0,0,0,41,16.99ZM21.978,2.975a16.319,16.319,0,0,0,5.355-1.208,6.469,6.469,0,0,1-.868,4.676c-.882,1.153-2.4,1.737-4.518,1.737S18.31,7.6,17.427,6.443a6.485,6.485,0,0,1-.868-4.677A16.262,16.262,0,0,0,21.978,2.975ZM5.125,16.782a.744.744,0,0,1-.879-.408l-2.7-5.926a.75.75,0,0,1,.231-.9L8.72,4.34c1.081,2.688,2.448,7.708-.235,11.607a1.476,1.476,0,0,0-.569.039ZM7.187,40.506l.331-1.785L17.572,41.6l-.534,1.539Zm19.68,2.662L26.322,41.6l10.052-2.874.331,1.785ZM36.1,37.252,25.835,40.188l-2.482-7.167a1.487,1.487,0,0,0-2.811,0L18.06,40.188,7.789,37.252l1.5-8.112a.734.734,0,0,0,.008-.217,39.55,39.55,0,0,1,.485-11.239,1.46,1.46,0,0,0-.1-.856c3.205-4.6,1.518-10.412.315-13.3l.016-.007,5.05-1.805a7.781,7.781,0,0,0,1.178,5.623c1.18,1.544,3.1,2.327,5.706,2.327s4.526-.783,5.706-2.327a7.784,7.784,0,0,0,1.179-5.622L33.9,3.528c-1.2,2.889-2.891,8.7.314,13.3a1.46,1.46,0,0,0-.1.856,39.546,39.546,0,0,1,.485,11.239.737.737,0,0,0,.008.217Zm2.663-20.47-2.787-.8a1.5,1.5,0,0,0-.57-.039c-2.686-3.9-1.319-8.919-.237-11.6l6.939,5.206a.749.749,0,0,1,.231.9l-2.7,5.925A.751.751,0,0,1,38.767,16.782Z" transform="translate(0 0)" fill="#12263f"/>
          <path id="Trazado_711953" data-name="Trazado 711953" d="M163.547,145.065a3.7,3.7,0,0,0-3.174,1.805,6.658,6.658,0,0,0-4.064,0,3.711,3.711,0,1,0-4.575,5.35,6.693,6.693,0,1,0,13.213,0,3.713,3.713,0,0,0-1.4-7.155M150.9,148.784a2.226,2.226,0,0,1,4.041-1.295,6.718,6.718,0,0,0-2.815,3.277A2.221,2.221,0,0,1,150.9,148.784Zm7.437,9.668a5.206,5.206,0,1,1,5.206-5.206,5.206,5.206,0,0,1-5.206,5.206m6.211-7.685a6.718,6.718,0,0,0-2.815-3.277,2.226,2.226,0,1,1,2.815,3.277" transform="translate(-136.394 -132.422)" fill="#12263f"/>
          <path id="Trazado_711954" data-name="Trazado 711954" d="M218.428,204.8a.744.744,0,1,1-.744.744.744.744,0,0,1,.744-.744" transform="translate(-198.712 -186.949)" fill="#12263f"/>
          <path id="Trazado_711955" data-name="Trazado 711955" d="M269.628,204.8a.744.744,0,1,1-.744.744.744.744,0,0,1,.744-.744" transform="translate(-245.45 -186.949)" fill="#12263f"/>
          <path id="Trazado_711956" data-name="Trazado 711956" d="M228.448,230.4a2.231,2.231,0,1,0,2.231,2.231,2.231,2.231,0,0,0-2.231-2.231m0,2.975a.744.744,0,1,1,.744-.744.744.744,0,0,1-.744.744" transform="translate(-206.502 -210.319)" fill="#12263f"/>
        </g>
      </g>
      <g id="Grupo_998877" data-name="Grupo 998877" transform="translate(789.53 9053.588)">
        <g id="Grupo_998876" data-name="Grupo 998876" clip-path="url(#clip-path-13)">
          <path id="Trazado_711957" data-name="Trazado 711957" d="M27.582,13.023v-.316A13.559,13.559,0,0,0,27.1,9.141L24.94,1.206A1.64,1.64,0,0,0,23.362,0H21.274a1.636,1.636,0,0,0-1.636,1.643c0,.86.014,2.182.037,3.6a5.864,5.864,0,1,1-11.727.134V1.636A1.638,1.638,0,0,0,6.311,0H4.22A1.64,1.64,0,0,0,2.642,1.206L.478,9.141A13.558,13.558,0,0,0,0,12.707v.316a13.478,13.478,0,0,0,1.1,5.339,12.2,12.2,0,0,1,.554,7.984L.281,31.366a2.573,2.573,0,0,0,.505,2.323l8.165,9.8a2.564,2.564,0,0,0,1.975.925h5.728a2.564,2.564,0,0,0,1.975-.925l8.165-9.8a2.573,2.573,0,0,0,.505-2.323l-1.369-5.02a12.2,12.2,0,0,1,.554-7.984,13.477,13.477,0,0,0,1.1-5.339m-1.4,0A12.083,12.083,0,0,1,25.2,17.81a13.539,13.539,0,0,0-.992,3.694h-.129a23.528,23.528,0,0,1-19.9-10.9A.7.7,0,0,0,3,11.364a25.189,25.189,0,0,0,8.885,8.374,25.024,25.024,0,0,0,12.194,3.169h.031a13.543,13.543,0,0,0,.472,3.808l1.369,5.02a1.17,1.17,0,0,1-.23,1.056l-8.165,9.8a1.166,1.166,0,0,1-.9.421H10.927a1.166,1.166,0,0,1-.9-.421l-8.165-9.8a1.17,1.17,0,0,1-.23-1.056L3,26.715a13.583,13.583,0,0,0,.389-5.084,24.59,24.59,0,0,0,16.856,10.4.7.7,0,0,0,.19-1.39A23.191,23.191,0,0,1,1.5,14.566a12.225,12.225,0,0,1-.1-1.543v-.316a12.155,12.155,0,0,1,.428-3.2L3.995,1.575A.234.234,0,0,1,4.221,1.4H6.311a.234.234,0,0,1,.234.234v3.74a7.267,7.267,0,1,0,14.532-.157c-.023-1.41-.033-2.726-.037-3.582a.233.233,0,0,1,.234-.234h2.088a.234.234,0,0,1,.226.172L25.752,9.51a12.155,12.155,0,0,1,.428,3.2v.316h0Zm-3.35,18.53a.7.7,0,0,1,.7-.7h.078a.7.7,0,1,1,0,1.4h-.08a.7.7,0,0,1-.7-.7m1.013-18.7a.7.7,0,0,1-.7.7h-1.87a.7.7,0,0,1,0-1.4h1.87a.7.7,0,0,1,.7.7" fill="#12263f"/>
          <path id="Trazado_711958" data-name="Trazado 711958" d="M239.363,349.114a8.61,8.61,0,0,1-2.571.537,24.9,24.9,0,0,1-3.36-.228l.19-1.39a19.914,19.914,0,0,0,3.094.215,9.676,9.676,0,0,0,2.381-.679c.406-.281.266,1.544.266,1.544" transform="translate(-213.184 -317.395)" fill="#12263f"/>
          <path id="Trazado_711959" data-name="Trazado 711959" d="M23.345,80.24C23.388,81.548,25,83.888,25,83.888l-1.181.756a14.377,14.377,0,0,1-1.018-2.4,8.643,8.643,0,0,1,.547-2.006" transform="translate(-20.819 -73.28)" fill="#12263f"/>
        </g>
      </g>
      <g id="Grupo_998879" data-name="Grupo 998879" transform="translate(961.321 9126)">
        <g id="Grupo_998878" data-name="Grupo 998878" clip-path="url(#clip-path-14)">
          <path id="Trazado_711960" data-name="Trazado 711960" d="M36.471,3.285H30.413V1.315A1.317,1.317,0,0,0,29.1,0H12.427a1.317,1.317,0,0,0-1.315,1.315V5.43a1.317,1.317,0,0,0,1.315,1.315h.543v12.6l-2.437,1.374a.624.624,0,0,0,.613,1.088L13.9,20.257a.625.625,0,0,0,.318-.544V15.168h6.124v7.465L11.7,27.507a7.982,7.982,0,0,0-1.658,1.147,9.975,9.975,0,0,0-5.246-3.266l.114-.062.02-.011L8.853,23.1a.624.624,0,0,0-.613-1.088L4.323,24.222A8.008,8.008,0,0,0,8,39.339a8.106,8.106,0,0,0,.881-.049A8.009,8.009,0,0,0,19.26,41.623a.569.569,0,0,0,.068-.034l13.091-7.577a7.462,7.462,0,0,0,3.918-6.724.621.621,0,0,0,0-.065V10.03h.131a1.317,1.317,0,0,0,1.315-1.315V4.6a1.317,1.317,0,0,0-1.316-1.315M12.36,5.43V1.315a.069.069,0,0,1,.067-.067H29.1a.069.069,0,0,1,.067.067v1.97H19.8A1.317,1.317,0,0,0,18.484,4.6v.9H12.427a.068.068,0,0,1-.067-.067m9.232,10.835h13.5V18h-13.5Zm13.5-1.249h-13.5V13.284h13.5ZM20.343,10.937H14.219V9.2H18.58a1.317,1.317,0,0,0,1.22.826h.543ZM18.484,7.956H14.219V6.746h4.265Zm-4.265,4.23h6.124v1.733H14.219ZM12.3,28.6l8.975-5.059A.624.624,0,0,0,21.592,23V19.247h13.5v2.41c-.169.015-.337.033-.5.059A7.856,7.856,0,0,0,29.52,34.247l-9.928,5.747a9.843,9.843,0,0,0,.028-3.163,9.93,9.93,0,0,0-7.457-8.156c.039-.021.077-.043.116-.064l.02-.011M3.525,36.389a6.76,6.76,0,0,1-.573-9.542q.206-.232.43-.443A8.709,8.709,0,0,1,9.17,29.563a8.023,8.023,0,0,0-1,8.525,6.727,6.727,0,0,1-4.641-1.7M10.9,39.674a6.744,6.744,0,0,1-1.139-1.307.615.615,0,0,0-.1-.16,6.77,6.77,0,0,1,.668-8.075q.205-.231.429-.442a8.733,8.733,0,0,1,4.929,2.243,8.68,8.68,0,0,1,2.441,8.861,6.761,6.761,0,0,1-7.226-1.12m20.924-6.759-.019.011-1.192.69A6.608,6.608,0,0,1,34.776,22.95c.1-.016.209-.028.315-.039V27.14a.605.605,0,0,0-.005.106,6.2,6.2,0,0,1-3.264,5.669m4.716-24.2a.068.068,0,0,1-.067.067H26a.624.624,0,0,0,0,1.249h9.088v2.005h-13.5V10.03h1.913a.624.624,0,1,0,0-1.249H19.8a.068.068,0,0,1-.067-.067V4.6a.069.069,0,0,1,.067-.067H36.471a.068.068,0,0,1,.067.067V8.715Z" transform="translate(0)" fill="#12263f"/>
          <rect id="Rectángulo_346594" data-name="Rectángulo 346594" width="2.633" height="1.249" transform="matrix(0.871, -0.491, 0.491, 0.871, 8.239, 22.014)" fill="#12263f"/>
          <rect id="Rectángulo_346595" data-name="Rectángulo 346595" width="2.497" height="1.249" transform="translate(23.505 8.782)" fill="#12263f"/>
        </g>
      </g>
      <g id="Grupo_998881" data-name="Grupo 998881" transform="translate(989.321 9331.327)">
        <g id="Grupo_998880" data-name="Grupo 998880" clip-path="url(#clip-path-15)">
          <path id="Trazado_711961" data-name="Trazado 711961" d="M45.7,292.878h0a2.521,2.521,0,0,1-1.8-.745l-2.665-2.668a.654.654,0,1,1,.926-.925l2.666,2.668a1.228,1.228,0,0,0,1.74,0l1.819-1.821a1.243,1.243,0,0,0,.326-1.16l-1.34-5.584a2.557,2.557,0,0,1,.672-2.39l4.322-4.327a2.179,2.179,0,0,0,0-3.077l-2.729-2.733a2.171,2.171,0,0,0-3.073,0l-4.322,4.326a2.555,2.555,0,0,1-2.388.675l-5.578-1.342a1.236,1.236,0,0,0-1.157.326L31.3,275.922a1.236,1.236,0,0,0,0,1.744l2.666,2.668a.654.654,0,1,1-.926.925l-2.666-2.668a2.546,2.546,0,0,1,0-3.594l1.819-1.821a2.552,2.552,0,0,1,2.389-.673l5.578,1.342a1.238,1.238,0,0,0,1.157-.327l4.322-4.326a3.48,3.48,0,0,1,4.925,0l2.729,2.733a3.489,3.489,0,0,1,0,4.927l-4.321,4.327a1.24,1.24,0,0,0-.326,1.159l1.34,5.585a2.561,2.561,0,0,1-.673,2.39L47.5,292.133A2.522,2.522,0,0,1,45.7,292.878Z" transform="translate(-27.696 -250.622)" fill="#12263f"/>
          <path id="Línea_319" data-name="Línea 319" d="M.85,1.516a.652.652,0,0,1-.463-.192L-9.809-8.883a.654.654,0,0,1,0-.925.654.654,0,0,1,.925,0L1.313.4A.654.654,0,0,1,.85,1.516Z" transform="translate(16.155 36.519)" fill="#12263f"/>
          <path id="Trazado_711962" data-name="Trazado 711962" d="M331.637,127.6h0a2.52,2.52,0,0,1-1.795-.745l-8.122-8.131a2.543,2.543,0,0,1,.272-3.83l4.947-3.714a2.538,2.538,0,0,1,3.319.236l6.885,6.892a2.556,2.556,0,0,1,.236,3.321l-3.709,4.952A2.518,2.518,0,0,1,331.637,127.6Zm-3.175-15.618a1.219,1.219,0,0,0-.737.246l-4.947,3.714a1.234,1.234,0,0,0-.132,1.858l8.122,8.131a1.22,1.22,0,0,0,.869.361h0a1.22,1.22,0,0,0,.985-.493l3.709-4.952a1.24,1.24,0,0,0-.114-1.612l-6.884-6.892A1.222,1.222,0,0,0,328.462,111.984Z" transform="translate(-299.973 -103.433)" fill="#12263f"/>
          <path id="Trazado_711963" data-name="Trazado 711963" d="M253.518,321.627a1.118,1.118,0,0,1-.8-.33l-2.063-2.066a1.128,1.128,0,0,1,0-1.592l2.9-2.906a1.125,1.125,0,0,1,1.592,0l2.063,2.066a1.128,1.128,0,0,1,0,1.592l-2.9,2.905A1.118,1.118,0,0,1,253.518,321.627Zm-1.8-3.192,1.8,1.807,2.644-2.647-1.8-1.807Z" transform="translate(-233.948 -293.829)" fill="#12263f"/>
          <path id="Línea_320" data-name="Línea 320" d="M-9.346-1.052a.652.652,0,0,1-.462-.191.654.654,0,0,1,0-.925l7.63-7.639a.654.654,0,0,1,.925,0,.654.654,0,0,1,0,.925l-7.63,7.639A.652.652,0,0,1-9.346-1.052Z" transform="translate(17.721 45.725)" fill="#12263f"/>
          <path id="Línea_321" data-name="Línea 321" d="M-9.346-1.529a.652.652,0,0,1-.462-.191.654.654,0,0,1,0-.925l7.155-7.162a.654.654,0,0,1,.925,0,.654.654,0,0,1,0,.925L-8.883-1.721A.652.652,0,0,1-9.346-1.529Z" transform="translate(10 37.519)" fill="#12263f"/>
          <path id="Línea_322" data-name="Línea 322" d="M-9.346-1.529a.652.652,0,0,1-.462-.191.654.654,0,0,1,0-.925l7.155-7.162a.654.654,0,0,1,.925,0,.654.654,0,0,1,0,.925L-8.883-1.721A.652.652,0,0,1-9.346-1.529Z" transform="translate(46.209 17.682)" fill="#12263f"/>
          <path id="Línea_323" data-name="Línea 323" d="M-9.346-1.052a.652.652,0,0,1-.462-.191.654.654,0,0,1,0-.925l7.63-7.639a.654.654,0,0,1,.925,0,.654.654,0,0,1,0,.925l-7.63,7.639A.652.652,0,0,1-9.346-1.052Z" transform="translate(39.012 10)" fill="#12263f"/>
          <path id="Trazado_711964" data-name="Trazado 711964" d="M381.968,189.985a.654.654,0,0,1-.463-1.117l1.1-1.1a.1.1,0,0,0,0-.143l-5.057-5.061a.1.1,0,0,0-.14,0l-1.1,1.1a.654.654,0,1,1-.926-.925l1.1-1.1a1.408,1.408,0,0,1,1.992,0l5.057,5.062a1.412,1.412,0,0,1,0,1.992l-1.1,1.1A.652.652,0,0,1,381.968,189.985Z" transform="translate(-350.638 -169.366)" fill="#12263f"/>
          <path id="Trazado_711965" data-name="Trazado 711965" d="M146.594,356.93a.651.651,0,0,1-.314-.081,29.709,29.709,0,0,1-6.99-5.3c-.2-.228-1.834-2.053-2.066-2.35a47.658,47.658,0,0,1-2.806-4.28.654.654,0,0,1,1.237-.429c.2.463,2.344,3.574,2.6,3.9.155.2,1.274,1.461,1.989,2.261a28.376,28.376,0,0,0,6.663,5.047.654.654,0,0,1-.315,1.228Z" transform="translate(-125.59 -321.539)" fill="#12263f"/>
          <path id="Trazado_711966" data-name="Trazado 711966" d="M137.751,349.454a.653.653,0,0,1-.514-.249,29.867,29.867,0,0,1-2.762-4.179.654.654,0,1,1,1.148-.628,28.594,28.594,0,0,0,2.641,4,.654.654,0,0,1-.513,1.06Z" transform="translate(-125.6 -321.544)" fill="#12263f"/>
        </g>
      </g>
    </g>
  </g>
</svg>
