<svg id="Grupo_999134" data-name="Grupo 999134" xmlns="http://www.w3.org/2000/svg" xmlns:xlink="http://www.w3.org/1999/xlink" width="60" height="60" viewBox="0 0 60 60">
  <defs>
    <clipPath id="clip-path">
      <rect id="Rectángulo_346806" data-name="Rectángulo 346806" width="60" height="60" transform="translate(0 0)" fill="none"/>
    </clipPath>
  </defs>
  <g id="Grupo_999133" data-name="Grupo 999133" transform="translate(0 0)" clip-path="url(#clip-path)">
    <path id="Trazado_712099" data-name="Trazado 712099" d="M17.533,9.534v2a1,1,0,0,1-1,1h-3a1,1,0,0,0-1,1v3a1,1,0,0,1-1,1h-2a1,1,0,0,1-1-1v-6a2.006,2.006,0,0,1,2-2h6a1,1,0,0,1,1,1" transform="translate(-7.533 -7.534)" fill="#02a8f3" fill-rule="evenodd"/>
    <path id="Trazado_712100" data-name="Trazado 712100" d="M17.533,432.667v2a1,1,0,0,1-1,1h-6a2.006,2.006,0,0,1-2-2v-6a1,1,0,0,1,1-1h2a1,1,0,0,1,1,1v3a1,1,0,0,0,1,1h3a1,1,0,0,1,1,1" transform="translate(-7.533 -376.667)" fill="#02a8f3" fill-rule="evenodd"/>
    <path id="Trazado_712101" data-name="Trazado 712101" d="M435.667,427.667v6a2.006,2.006,0,0,1-2,2h-6a1,1,0,0,1-1-1v-2a1,1,0,0,1,1-1h3a1,1,0,0,0,1-1v-3a1,1,0,0,1,1-1h2a1,1,0,0,1,1,1" transform="translate(-376.667 -376.667)" fill="#02a8f3" fill-rule="evenodd"/>
    <path id="Trazado_712102" data-name="Trazado 712102" d="M435.667,10.533v6a1,1,0,0,1-1,1h-2a1,1,0,0,1-1-1v-3a1,1,0,0,0-1-1h-3a1,1,0,0,1-1-1v-2a1,1,0,0,1,1-1h6a2.006,2.006,0,0,1,2,2" transform="translate(-376.667 -7.533)" fill="#02a8f3" fill-rule="evenodd"/>
    <path id="Trazado_712104" data-name="Trazado 712104" d="M110.8,213.945v3.06a8.268,8.268,0,0,0-1-.06,9,9,0,0,0-9,9,8.268,8.268,0,0,0,.06,1H78.8a2.006,2.006,0,0,1-2-2v-3l9.29-9.29a1.008,1.008,0,0,1,1.42,0l2.79,2.79,4.79-4.79a1.008,1.008,0,0,1,1.42,0l2.79,2.79,4.79-4.79a1.008,1.008,0,0,1,1.42,0Z" transform="translate(-67.8 -183.946)" fill="#60a817" fill-rule="evenodd"/>
    <path id="Trazado_712105" data-name="Trazado 712105" d="M110.8,78.8v19l-5.29-5.29a1.008,1.008,0,0,0-1.42,0L99.3,97.3l-2.79-2.79a1.008,1.008,0,0,0-1.42,0L90.3,99.3l-2.79-2.79a1.008,1.008,0,0,0-1.42,0L76.8,105.8v-27a2.006,2.006,0,0,1,2-2h30a2.006,2.006,0,0,1,2,2" transform="translate(-67.8 -67.8)" fill="#02a8f3" fill-rule="evenodd"/>
    <path id="Trazado_712106" data-name="Trazado 712106" d="M139.533,136.533a3,3,0,1,1-3,3,3,3,0,0,1,3-3" transform="translate(-120.533 -120.533)" fill="#ffdb00" fill-rule="evenodd"/>
    <path id="Trazado_712107" data-name="Trazado 712107" d="M290.6,281.6a9,9,0,1,1-9,9,9,9,0,0,1,9-9" transform="translate(-248.6 -248.6)" fill="#a3c300" fill-rule="evenodd"/>
    <path id="Trazado_712108" data-name="Trazado 712108" d="M2,11v2a1,1,0,1,0,2,0V11A2,2,0,0,0,6,9V6H9a2,2,0,0,0,2-2h2a1,1,0,1,0,0-2H11A2,2,0,0,0,9,0H3A3,3,0,0,0,0,3V9a2,2,0,0,0,2,2M2,3A1,1,0,0,1,3,2H9V4H6A2,2,0,0,0,4,6V9H2Z" transform="translate(0 0)"/>
    <path id="Trazado_712109" data-name="Trazado 712109" d="M19.066,239.934a1,1,0,0,0-2,0v2a1,1,0,0,0,2,0Z" transform="translate(-15.066 -210.934)" fill-rule="evenodd"/>
    <path id="Trazado_712110" data-name="Trazado 712110" d="M19.066,188.734a1,1,0,0,0-2,0v2a1,1,0,0,0,2,0Z" transform="translate(-15.066 -165.734)" fill-rule="evenodd"/>
    <path id="Trazado_712111" data-name="Trazado 712111" d="M19.066,137.534a1,1,0,0,0-2,0v2a1,1,0,0,0,2,0Z" transform="translate(-15.066 -120.534)" fill-rule="evenodd"/>
    <path id="Trazado_712112" data-name="Trazado 712112" d="M19.066,291.134a1,1,0,0,0-2,0v2a1,1,0,0,0,2,0Z" transform="translate(-15.066 -256.134)" fill-rule="evenodd"/>
    <path id="Trazado_712113" data-name="Trazado 712113" d="M18.067,341.333a1,1,0,0,0-1,1v2a1,1,0,0,0,2,0v-2a1,1,0,0,0-1-1" transform="translate(-15.067 -301.333)" fill-rule="evenodd"/>
    <path id="Trazado_712114" data-name="Trazado 712114" d="M3,406.533H9a2,2,0,0,0,2-2h2a1,1,0,0,0,0-2H11a2,2,0,0,0-2-2H6v-3a2,2,0,0,0-2-2v-2a1,1,0,1,0-2,0v2a2,2,0,0,0-2,2v6a3,3,0,0,0,3,3m-1-9H4v3a2,2,0,0,0,2,2H9v2H3a1,1,0,0,1-1-1Z" transform="translate(0 -346.533)"/>
    <path id="Trazado_712115" data-name="Trazado 712115" d="M239.934,477.867a1,1,0,0,0,0,2h2a1,1,0,0,0,0-2Z" transform="translate(-210.934 -421.867)" fill-rule="evenodd"/>
    <path id="Trazado_712116" data-name="Trazado 712116" d="M188.734,477.867a1,1,0,0,0,0,2h2a1,1,0,0,0,0-2Z" transform="translate(-165.734 -421.867)" fill-rule="evenodd"/>
    <path id="Trazado_712117" data-name="Trazado 712117" d="M137.534,477.867a1,1,0,0,0,0,2h2a1,1,0,0,0,0-2Z" transform="translate(-120.534 -421.867)" fill-rule="evenodd"/>
    <path id="Trazado_712118" data-name="Trazado 712118" d="M404.533,395.533v-2a1,1,0,1,0-2,0v2a2,2,0,0,0-2,2v3h-3a2,2,0,0,0-2,2h-2a1,1,0,0,0,0,2h2a2,2,0,0,0,2,2h6a3,3,0,0,0,3-3v-6a2,2,0,0,0-2-2m0,8a1,1,0,0,1-1,1h-6v-2h3a2,2,0,0,0,2-2v-3h2Z" transform="translate(-346.533 -346.533)"/>
    <path id="Trazado_712119" data-name="Trazado 712119" d="M477.867,241.933a1,1,0,0,0,2,0v-2a1,1,0,0,0-2,0Z" transform="translate(-421.867 -210.933)" fill-rule="evenodd"/>
    <path id="Trazado_712120" data-name="Trazado 712120" d="M477.867,293.133a1,1,0,0,0,2,0v-2a1,1,0,0,0-2,0Z" transform="translate(-421.867 -256.133)" fill-rule="evenodd"/>
    <path id="Trazado_712121" data-name="Trazado 712121" d="M477.867,344.333a1,1,0,0,0,2,0v-2a1,1,0,0,0-2,0Z" transform="translate(-421.867 -301.333)" fill-rule="evenodd"/>
    <path id="Trazado_712122" data-name="Trazado 712122" d="M403.534,0h-6a2,2,0,0,0-2,2h-2a1,1,0,1,0,0,2h2a2,2,0,0,0,2,2h3V9a2,2,0,0,0,2,2v2a1,1,0,1,0,2,0V11a2,2,0,0,0,2-2V3a3,3,0,0,0-3-3m-1,9V6a2,2,0,0,0-2-2h-3V2h6a1,1,0,0,1,1,1V9Z" transform="translate(-346.534 0)"/>
    <path id="Trazado_712123" data-name="Trazado 712123" d="M241.933,19.066a1,1,0,0,0,0-2h-2a1,1,0,0,0,0,2Z" transform="translate(-210.933 -15.066)" fill-rule="evenodd"/>
    <path id="Trazado_712124" data-name="Trazado 712124" d="M293.133,19.066a1,1,0,0,0,0-2h-2a1,1,0,0,0,0,2Z" transform="translate(-256.133 -15.066)" fill-rule="evenodd"/>
    <path id="Trazado_712125" data-name="Trazado 712125" d="M344.333,17.067h-2a1,1,0,0,0,0,2h2a1,1,0,0,0,0-2" transform="translate(-301.333 -15.067)" fill-rule="evenodd"/>
    <path id="Trazado_712126" data-name="Trazado 712126" d="M190.733,19.066a1,1,0,0,0,0-2h-2a1,1,0,0,0,0,2Z" transform="translate(-165.733 -15.066)" fill-rule="evenodd"/>
    <path id="Trazado_712127" data-name="Trazado 712127" d="M139.533,19.066a1,1,0,0,0,0-2h-2a1,1,0,0,0,0,2Z" transform="translate(-120.533 -15.066)" fill-rule="evenodd"/>
    <path id="Trazado_712128" data-name="Trazado 712128" d="M477.867,190.733a1,1,0,0,0,2,0v-2a1,1,0,0,0-2,0Z" transform="translate(-421.867 -165.733)" fill-rule="evenodd"/>
    <path id="Trazado_712129" data-name="Trazado 712129" d="M478.867,140.534a1,1,0,0,0,1-1v-2a1,1,0,1,0-2,0v2a1,1,0,0,0,1,1" transform="translate(-421.867 -120.534)" fill-rule="evenodd"/>
    <path id="Trazado_712130" data-name="Trazado 712130" d="M291.134,477.867a1,1,0,0,0,0,2h2a1,1,0,0,0,0-2Z" transform="translate(-256.134 -421.867)" fill-rule="evenodd"/>
    <path id="Trazado_712131" data-name="Trazado 712131" d="M342.334,477.867a1,1,0,0,0,0,2h2a1,1,0,0,0,0-2Z" transform="translate(-301.334 -421.867)" fill-rule="evenodd"/>
    <path id="Trazado_712132" data-name="Trazado 712132" d="M111.933,117.934h1.142a3.912,3.912,0,0,0,.425,1.019l-.809.809a1,1,0,1,0,1.414,1.414l.809-.809a3.916,3.916,0,0,0,1.019.425v1.142a1,1,0,1,0,2,0v-1.142a3.916,3.916,0,0,0,1.019-.425l.809.809a1,1,0,0,0,1.414-1.414l-.809-.809a3.913,3.913,0,0,0,.425-1.019h1.142a1,1,0,0,0,0-2h-1.142a3.913,3.913,0,0,0-.425-1.019l.809-.809a1,1,0,0,0-1.414-1.414l-.809.809a3.913,3.913,0,0,0-1.019-.425v-1.142a1,1,0,1,0-2,0v1.142a3.913,3.913,0,0,0-1.019.425l-.809-.809a1,1,0,0,0-1.414,1.414l.809.809a3.912,3.912,0,0,0-.425,1.019h-1.142a1,1,0,0,0,0,2m5-3a2,2,0,1,1-2,2,2,2,0,0,1,2-2" transform="translate(-97.933 -97.934)"/>
    <path id="Trazado_712133" data-name="Trazado 712133" d="M112.267,102.267a10.016,10.016,0,0,0-8-9.8v-21.2a3,3,0,0,0-3-3h-30a3,3,0,0,0-3,3v30a3,3,0,0,0,3,3h21.2a10,10,0,0,0,19.8-2m-41-32h30a1,1,0,0,1,1,1V87.853l-3.586-3.586a2,2,0,0,0-2.828,0l-4.086,4.086-2.086-2.086a2,2,0,0,0-2.828,0l-4.086,4.086-2.086-2.086a2,2,0,0,0-2.828,0l-7.586,7.586V71.267A1,1,0,0,1,71.267,70.267Zm0,32a1,1,0,0,1-1-1V98.681l9-9,2.086,2.086L77.56,95.56a1,1,0,1,0,1.414,1.414l9.293-9.293,2.086,2.086L86.56,93.56a1,1,0,1,0,1.414,1.414l9.293-9.293,5,5v1.586a10.011,10.011,0,0,0-10,10Zm31,8a8,8,0,1,1,8-8,8,8,0,0,1-8,8" transform="translate(-60.267 -60.267)"/>
    <path id="Trazado_712134" data-name="Trazado 712134" d="M324.733,319.734h-3v-3a1,1,0,0,0-2,0v3h-3a1,1,0,0,0,0,2h3v3a1,1,0,0,0,2,0v-3h3a1,1,0,0,0,0-2" transform="translate(-278.733 -278.734)" fill-rule="evenodd"/>
  </g>
</svg>
